<?xml version="1.0" encoding="iso-8859-1"?>
<!-- Generator: Adobe Illustrator 16.0.3, SVG Export Plug-In . SVG Version: 6.00 Build 0)  -->
<!DOCTYPE svg PUBLIC "-//W3C//DTD SVG 1.1//EN" "http://www.w3.org/Graphics/SVG/1.1/DTD/svg11.dtd">
<svg version="1.1" xmlns="http://www.w3.org/2000/svg" xmlns:xlink="http://www.w3.org/1999/xlink" x="0px" y="0px"
	 width="71.082px" height="77.225px" viewBox="0 0 71.082 77.225" style="enable-background:new 0 0 71.082 77.225;"
	 xml:space="preserve">
<g id="Chernihiv">
	<polygon style="fill-rule:evenodd;clip-rule:evenodd;fill:#6FA8DC;" points="71.066,11.148 71.025,11.036 70.922,10.984 
		70.186,10.935 70.055,10.88 69.971,10.79 69.912,10.678 69.871,10.555 69.814,10.439 69.744,10.337 69.475,10.065 69.041,9.445 
		68.496,8.903 68.387,8.825 67.346,8.468 67.238,8.4 67.182,8.035 67.045,6.191 67.172,5.731 67.795,5.083 68.037,4.695 
		68.094,4.41 68.152,3.688 68.201,3.391 68.318,3.123 68.627,2.671 68.689,2.425 68.756,1.799 68.938,1.142 69.02,0.958 
		68.438,0.533 68.027,0.444 66.484,0.454 64.15,0 63.824,0.064 63.438,0.346 62.822,1.113 62.516,1.411 62.059,1.582 61.824,1.721 
		61.545,2.267 61.361,2.468 61.141,2.523 60.828,2.349 60.611,2.332 60.18,2.545 57.715,4.75 57.289,4.976 56.855,4.929 
		56.145,4.351 55.742,4.15 55.043,4.164 53.629,4.537 52.908,4.549 48.209,2.054 47.066,2.407 45.008,1.642 44.035,1.845 
		43.699,3.182 43.818,3.599 44.268,4.408 44.355,4.739 44.221,5.178 43.953,5.412 43.66,5.583 43.432,5.829 43.207,6.518 
		42.918,8.855 42.225,10.349 41.166,11.194 37.879,12.748 37.439,12.777 36.002,12.396 35.135,12.48 33.862,13.12 33.46,13.198 
		33.022,12.923 32.92,12.329 32.914,11.613 32.785,10.979 32.227,10.458 31.443,10.295 29.975,10.43 27.246,10.574 23.068,9.763 
		20.877,9.774 19,10.549 18.52,11.179 18.153,11.953 17.76,12.602 17.201,12.844 16.625,12.624 15.536,11.687 14.954,11.356 
		14.035,11.242 10.766,11.433 10.172,11.625 9.799,12.033 9.94,12.688 9.821,12.881 9.752,13.071 9.699,13.256 9.619,13.45 
		10.317,13.546 10.546,14.061 10.334,14.562 9.713,14.609 9.55,14.386 9.417,14.323 9.276,14.387 9.082,14.541 8.894,14.78 
		8.85,15.018 8.865,15.216 8.857,15.341 8.613,15.674 8.349,15.96 8.053,16.202 7.713,16.413 7.037,16.674 7.025,16.813 
		7.089,17.052 7.217,17.213 7.217,17.475 6.894,17.925 6.682,18.161 6.475,18.265 5.765,18.199 5.572,18.265 5.481,18.509 
		5.466,18.869 5.402,19.197 4.911,19.458 4.758,19.712 4.645,19.967 4.514,20.083 4.448,20.217 3.927,20.897 3.774,21.175 
		3.671,21.29 3.678,21.437 3.853,21.804 3.875,22.401 3.451,22.84 2.918,23.191 2.625,23.524 3.101,23.764 3.293,23.786 
		3.293,24.073 3.028,24.357 2.956,24.807 2.921,25.282 2.788,25.647 2.521,25.77 1.782,25.793 1.483,25.885 1.619,26.404 
		1.34,27.214 1.483,27.743 1.32,27.904 1.125,28.193 0.997,28.292 1.066,28.44 1.156,28.813 0.852,28.946 0.166,29.577 
		0.166,29.861 0.63,30.26 0.834,30.385 0.834,30.622 0.647,30.674 0.547,30.74 0.467,30.817 0.344,30.908 0.344,31.146 0.62,31.507 
		1.414,31.737 1.81,31.929 1.628,32.355 1.51,32.535 1.306,32.713 1.597,32.931 1.843,33.186 1.947,33.47 1.81,33.781 1.927,34.24 
		2.127,34.528 2.374,34.698 2.625,34.801 2.625,35.087 2.307,35.027 2.038,35.116 1.858,35.385 1.81,35.868 1.902,36.32 
		2.086,36.412 2.335,36.427 2.625,36.649 2.731,36.902 2.965,37.976 3.086,38.18 3.254,38.406 3.279,38.605 2.965,38.733 
		3.106,39.809 2.441,40.507 1.712,41.035 1.648,41.593 1.222,42.342 1.156,42.418 1.125,43.325 1.11,43.361 1.17,43.643 
		1.151,43.772 1.088,43.871 0.989,43.938 0.859,43.965 0.397,43.924 0.273,43.959 0.185,44.037 0.159,44.204 0.196,44.42 
		0.471,45.176 0.53,45.439 0.555,45.726 0.54,46.035 0.111,48.137 0.074,48.467 0,50.787 0.1,51.926 0.129,52.059 0.203,52.17 
		0.318,52.25 0.578,52.242 0.715,52.167 0.833,52.068 0.918,51.978 1.022,51.926 1.137,51.907 1.263,51.961 1.421,52.059 
		1.703,52.291 2,52.379 2.203,52.398 2.355,52.373 2.54,52.418 2.78,52.549 3.362,53.103 3.484,53.262 3.543,53.374 3.595,53.493 
		3.632,53.618 3.692,53.879 3.707,54.02 3.718,54.164 3.699,54.479 3.595,55.148 3.447,55.781 3.421,55.941 3.411,56.099 
		3.411,56.252 3.425,56.395 3.455,56.522 3.507,56.637 3.658,56.76 3.899,56.891 5.191,57.375 5.406,57.503 6.184,58.105 
		6.391,58.317 6.491,58.463 6.487,58.584 6.361,59.374 6.284,59.684 6.136,60.106 5.906,60.625 5.576,61.209 5.521,61.336 
		5.483,61.465 5.476,61.602 5.554,61.708 5.687,61.772 5.955,61.776 6.643,61.582 6.82,61.623 7.023,61.718 7.295,61.95 
		7.424,62.11 7.583,62.357 7.691,62.432 7.831,62.475 8.046,62.441 8.171,62.359 8.264,62.25 8.457,61.895 8.553,61.818 
		8.676,61.786 9.808,62.1 10.086,62.118 10.275,62.08 10.634,61.749 10.863,61.652 11.157,61.639 12.449,61.767 12.734,61.743 
		12.986,61.68 13.097,61.625 13.378,61.395 13.481,61.331 13.592,61.282 13.733,61.28 13.87,61.335 13.993,61.436 14.067,61.646 
		14.156,61.813 14.259,61.974 14.448,62.159 14.474,62.303 14.456,62.438 14.408,62.577 14.374,62.718 14.364,62.852 14.437,62.975 
		14.581,63.072 14.903,63.141 15.29,63.156 15.422,63.191 15.518,63.284 15.548,63.477 15.534,63.791 15.571,63.891 15.608,63.946 
		16.155,64.404 16.492,64.762 16.633,64.963 16.737,65.187 16.818,65.414 16.944,65.918 17.01,66.317 17.01,66.459 16.992,66.611 
		16.952,66.76 16.844,67.029 16.781,67.148 16.708,67.256 16.615,67.327 16.499,67.357 16.254,67.351 16.167,67.391 16.099,67.492 
		16.026,67.794 16.01,67.947 16.029,68.08 16.092,68.186 16.167,68.282 16.855,68.982 16.977,69.06 17.128,69.117 17.599,69.105 
		17.773,69.127 17.902,69.202 17.989,69.402 18.01,69.582 17.977,69.928 17.973,70.08 18.01,70.204 18.066,70.311 18.136,70.41 
		18.214,70.502 18.303,70.586 18.432,70.646 18.587,70.686 18.85,70.701 19.046,70.76 19.273,70.928 19.407,70.996 19.569,71.048 
		19.832,70.997 19.987,70.936 20.11,70.849 20.423,70.836 20.91,70.889 22.783,71.355 23.035,71.139 23.271,70.848 23.369,70.768 
		23.472,70.715 23.586,70.693 23.679,70.691 25.13,71.022 25.271,71.022 25.389,70.984 25.493,70.922 25.678,70.762 25.79,70.709 
		25.922,70.693 26.238,70.717 26.375,70.703 26.49,70.655 26.579,70.57 26.807,70.266 26.896,70.174 26.993,70.104 27.115,70.068 
		27.386,70.03 27.5,69.98 27.589,69.896 27.745,69.695 27.915,69.516 28.007,69.439 28.119,69.386 28.245,69.355 28.388,69.344 
		29.34,69.434 29.477,69.416 29.595,69.372 29.688,69.291 29.766,69.194 29.911,68.979 29.974,68.854 30.048,68.749 30.148,68.68 
		30.359,68.572 30.429,68.501 30.456,68.393 30.444,68.272 30.425,68.146 30.433,68.016 30.474,67.905 30.618,67.725 30.663,67.607 
		30.677,67.475 30.681,67.332 30.7,67.195 30.748,67.085 30.833,67.006 30.936,66.949 31.422,66.792 31.958,66.721 32.169,66.817 
		32.428,67 33.118,67.664 33.424,67.887 34.265,69.051 34.499,69.322 34.691,69.488 34.832,69.531 35.124,69.568 36.135,69.559 
		36.276,69.676 36.375,69.893 36.438,70.422 36.409,70.932 36.382,71.07 36.334,71.198 36.272,71.285 36.172,71.355 36.157,71.359 
		36.12,71.357 35.621,71.27 35.546,71.279 35.476,71.313 35.432,71.348 35.403,71.379 35.138,71.736 35.001,71.968 34.954,72.115 
		34.968,72.285 35.057,72.488 35.625,72.973 35.706,73.062 35.78,73.193 35.835,73.438 35.842,73.623 35.835,73.789 35.842,73.924 
		35.865,74.052 35.913,74.156 35.964,74.249 36.08,74.363 36.246,74.494 36.614,74.672 36.824,74.712 37.002,74.717 37.271,74.682 
		37.557,74.714 37.664,74.787 37.734,74.886 37.734,75.063 37.676,75.176 37.59,75.273 37.494,75.345 37.32,75.517 37.246,75.613 
		37.189,75.717 37.334,75.922 37.479,76.076 38.92,76.963 40.352,76.949 40.463,77.013 40.648,77.172 40.768,77.225 40.934,77.219 
		41.123,77.144 41.404,76.938 41.666,76.652 42.137,75.854 42.293,75.657 42.379,75.578 42.479,75.505 43.955,74.807 44.57,74.768 
		44.732,74.816 44.818,74.888 44.979,75.07 45.045,75.17 45.207,75.349 45.311,75.396 45.451,75.368 46.162,74.844 46.34,74.791 
		46.674,74.792 46.854,74.82 46.98,74.862 47.061,74.938 47.129,75.035 47.209,75.268 47.24,75.393 47.279,75.521 47.309,75.646 
		47.389,75.896 47.492,76.096 47.539,76.158 47.607,76.214 48.158,76.383 50.584,76.493 51.506,76.299 51.734,76.311 51.865,76.383 
		51.912,76.502 51.961,76.604 52.086,76.655 52.953,76.672 54.979,75.547 55.363,75.439 56.197,75.37 56.441,75.293 56.559,75.196 
		56.678,75.052 56.809,74.733 56.949,74.322 57.057,74.163 57.215,74 57.756,73.668 58.174,73.535 58.289,73.449 58.393,73.322 
		58.555,72.87 58.666,72.692 58.807,72.543 59.096,72.353 59.682,72.111 60.029,71.678 60.93,69.926 61.738,67.546 61.959,66.672 
		62.004,66.207 62.004,66.043 61.977,65.914 61.902,65.6 61.879,65.361 61.916,65.218 62.004,65.117 62.262,64.947 62.422,64.783 
		62.484,64.627 62.514,64.475 62.529,63.893 62.576,63.486 62.68,63.245 62.816,63.07 62.99,62.946 63.176,62.781 63.385,62.497 
		63.445,62.248 63.445,62.018 63.371,61.85 63.229,61.726 63.057,61.641 62.754,61.412 62.529,61.129 62.447,60.973 62.395,60.684 
		62.373,60.301 62.385,59.597 62.428,59.209 62.98,57.042 63.057,56.865 63.146,56.739 63.23,56.664 63.377,56.602 63.535,56.488 
		63.74,56.166 63.813,55.889 63.85,55.672 63.84,55.373 63.824,55.237 63.84,54.391 63.914,53.995 63.877,53.785 63.807,53.656 
		63.32,53.235 63.23,53.12 63.16,52.953 63.158,52.795 63.172,52.656 63.217,52.547 63.592,52.115 63.684,52.035 63.846,51.854 
		64.205,51.183 64.398,50.727 64.371,50.576 64.275,50.479 64.014,50.358 63.721,50.275 63.596,50.281 63.51,50.371 63.027,51.414 
		62.947,51.521 62.846,51.59 62.709,51.615 61.461,51.33 60.963,51.083 60.729,50.929 60.623,50.828 60.51,50.695 60.492,50.564 
		60.539,50.463 60.877,50.217 61.006,50.049 61.037,49.904 61.014,49.77 60.951,49.67 60.859,49.604 60.742,49.592 60.254,49.729 
		60.107,49.715 59.967,49.68 59.055,49.248 58.137,48.969 58.018,48.871 58.025,48.755 58.063,48.631 58.621,47.662 58.686,47.506 
		58.756,47.262 58.732,47.092 58.666,46.861 58.555,46.547 58.545,46.033 58.584,45.8 58.686,45.654 59.91,45.262 60.021,45.164 
		60.121,45.049 60.195,44.753 60.203,44.524 60.162,44.078 60.191,43.854 60.254,43.703 60.93,43.359 61.041,43.263 61.137,43.118 
		61.15,42.984 61.121,42.824 60.992,42.355 61.01,42.174 61.07,42.021 61.146,41.895 61.217,41.742 61.207,41.616 61.146,41.514 
		60.848,41.238 60.742,41.109 60.639,40.898 60.652,40.691 60.699,40.474 60.789,40.154 60.799,39.966 60.777,39.805 60.719,39.7 
		60.633,39.617 60.518,39.58 60.244,39.588 60.113,39.572 60.004,39.491 59.93,39.337 59.836,39.064 59.619,38.65 59.512,38.399 
		59.479,38.275 59.471,38.183 59.5,38.083 59.662,37.707 59.744,37.594 59.83,37.507 59.963,37.488 60.104,37.513 60.229,37.563 
		60.311,37.637 60.352,37.694 60.391,37.785 60.555,38.257 60.613,38.359 60.691,38.455 60.793,38.534 60.918,38.593 61.066,38.636 
		61.369,38.639 61.879,38.532 62.107,38.432 62.211,38.335 62.311,38.204 62.395,37.966 62.391,37.762 62.369,37.538 62.314,37.233 
		62.34,37.034 62.398,36.88 62.484,36.768 62.568,36.626 62.584,36.543 62.563,36.442 62.389,36.283 62.27,36.097 62.154,35.837 
		62.043,35.235 62.057,34.955 62.125,34.783 62.236,34.724 62.355,34.645 62.469,34.528 62.584,34.319 62.602,34.158 62.584,34.01 
		62.365,33.236 62.389,33.149 62.473,33.149 63.176,33.523 63.34,33.584 63.422,33.6 63.488,33.563 63.51,33.545 63.854,33.084 
		63.92,32.936 63.883,32.829 63.824,32.717 63.74,32.622 63.266,32.193 63.172,32.021 63.102,31.775 63.064,31.277 63.123,31.054 
		63.221,30.92 63.625,30.798 63.77,30.715 63.803,30.61 63.795,30.498 63.736,30.39 63.643,30.302 63.531,30.222 63.416,30.104 
		63.334,29.929 63.23,28.39 63.195,28.228 63.123,28.111 63.002,28.071 62.865,27.985 62.746,27.843 62.68,27.5 62.729,27.092 
		63.104,26.574 63.117,26.146 61.816,24.837 61.646,24.591 61.492,24.297 61.215,23.401 61.084,23.115 60.941,22.31 61.184,21.403 
		61.582,20.663 61.898,20.356 62.359,20.08 62.588,19.486 62.861,18.933 63.461,18.777 63.461,18.49 63.295,18.021 63.762,17.884 
		64.832,17.963 65.107,17.799 65.955,17.074 66.305,16.91 66.863,16.838 68.201,16.382 68.459,15.927 68.4,15.521 68.043,14.869 
		67.879,14.777 67.896,14.677 67.967,14.593 68.074,14.492 68.186,14.361 68.313,14.124 68.359,13.942 68.383,13.77 68.371,12.504 
		68.422,12.266 68.512,12.122 68.619,12.074 68.727,12.074 68.801,12.146 68.857,12.249 68.9,12.373 68.953,12.483 69.045,12.566 
		69.178,12.604 69.486,12.632 70.045,12.566 70.557,12.423 70.697,12.322 70.83,12.146 70.988,11.744 71.051,11.495 71.082,11.286 	
		"/>
</g>
<g id="Layer_1">
</g>
</svg>
