<?xml version="1.0" encoding="iso-8859-1"?>
<!-- Generator: Adobe Illustrator 16.0.3, SVG Export Plug-In . SVG Version: 6.00 Build 0)  -->
<!DOCTYPE svg PUBLIC "-//W3C//DTD SVG 1.1//EN" "http://www.w3.org/Graphics/SVG/1.1/DTD/svg11.dtd">
<svg version="1.1" xmlns="http://www.w3.org/2000/svg" xmlns:xlink="http://www.w3.org/1999/xlink" x="0px" y="0px"
	 width="77.854px" height="65.691px" viewBox="0 0 77.854 65.691" style="enable-background:new 0 0 77.854 65.691;"
	 xml:space="preserve">
<g id="Cherkasy">
	<polygon style="fill-rule:evenodd;clip-rule:evenodd;fill:#6FA8DC;" points="77.816,45.197 77.702,45.141 77.272,45.043 
		77.18,44.969 77.12,44.871 76.713,43.725 76.676,43.606 76.562,43.289 76.539,43.215 76.524,43.125 76.499,42.878 76.51,41.905 
		76.473,41.506 76.28,40.643 76.103,40.193 76.051,40.088 75.988,39.988 75.914,39.893 75.835,39.808 75.558,39.572 75.398,39.387 
		75.384,39.262 75.402,39.137 75.932,37.615 75.991,37.48 76.262,36.453 76.354,34.738 76.336,34.104 76.276,33.823 75.28,31.183 
		75.169,30.974 74.239,29.743 74.077,29.571 73.844,29.216 73.637,28.813 73.57,28.585 73.57,28.411 74.514,26.823 74.587,26.724 
		74.674,26.637 74.766,26.559 75.284,26.252 75.361,26.167 75.443,26.019 75.514,25.801 75.568,25.39 75.572,25.158 75.558,24.975 
		75.388,24.307 75.31,24.167 75.229,24.051 74.604,23.61 74.498,23.495 74.402,23.347 74.28,23.085 74.232,22.899 74.162,21.839 
		74.084,21.605 73.977,21.448 71.385,20.45 71.248,20.349 71.078,20.188 71.019,20.033 70.985,19.883 71.033,18.934 71.033,18.694 
		71.004,18.298 70.944,18.095 70.863,17.953 70.081,17.339 69.971,17.301 69.855,17.318 69.652,17.43 69.549,17.462 69.456,17.459 
		69.382,17.392 69.323,17.31 69.226,17.135 69.052,16.903 68.723,16.552 68.63,16.479 68.508,16.436 68.386,16.436 68.274,16.472 
		68.061,16.581 67.945,16.607 67.827,16.583 67.727,16.531 67.634,16.455 67.183,15.898 66.334,14.375 66.187,14.001 66.123,13.73 
		66.168,13.598 66.237,13.493 66.334,13.423 66.448,13.386 66.575,13.396 66.79,13.497 66.894,13.517 66.99,13.482 67.086,13.414 
		67.156,13.274 67.201,13.081 67.142,12.424 67.138,12.216 67.152,12.067 67.349,11.305 67.379,11.101 67.39,10.873 67.36,10.537 
		67.301,10.36 67.201,10.238 66.635,9.898 66.537,9.813 66.375,9.556 65.302,7.416 65.171,7.366 65.049,7.372 64.697,7.492 
		64.564,7.495 64.432,7.467 63.876,7.247 63.72,7.157 63.527,7.006 63.465,6.855 62.965,5.179 62.943,4.938 63.017,4.871 
		63.827,4.588 63.925,4.464 63.995,4.278 63.973,3.838 63.936,3.648 63.876,3.518 63.709,3.379 63.605,3.33 63.509,3.33 
		63.42,3.368 63.287,3.46 63.124,3.61 62.932,3.756 62.721,3.873 62.592,3.863 62.438,3.771 62.013,3.159 61.965,3.111 61.88,3.049 
		61.617,2.948 61.129,2.84 60.969,2.762 60.799,2.571 60.714,2.384 60.654,2.113 60.595,1.96 60.521,1.836 60.421,1.734 60.104,1.3 
		59.959,0.911 59.817,0.669 59.698,0.541 59.569,0.506 59.336,0.529 59.1,0.475 58.792,0.354 58.581,0.206 58.344,0.081 
		58.199,0.033 57.899,0 57.767,0.019 57.544,0.094 57.426,0.183 57.304,0.31 57.048,0.627 56.929,0.827 56.848,1.019 56.818,1.167 
		56.804,1.317 56.811,1.449 56.829,1.559 56.855,1.632 56.896,1.715 57.021,1.897 57.104,1.987 57.241,2.183 57.297,2.292 
		57.33,2.416 57.337,2.553 57.322,2.692 57.274,2.823 57.144,3.055 56.995,3.257 56.485,3.785 56.352,3.863 56.192,3.933 
		55.904,3.975 55.732,3.945 55.496,3.85 55.396,3.873 55.293,4.088 55.171,4.43 55.056,4.685 54.894,4.844 54.148,5.411 
		53.945,5.628 53.853,5.814 53.878,5.938 54.056,6.402 54.085,6.526 54.101,6.663 54.111,6.954 54.152,7.224 54.204,7.48 
		54.366,7.948 54.431,8.194 54.418,8.333 54.387,8.465 54.252,8.584 54.052,8.69 53.131,8.976 53.012,9.037 52.908,9.125 
		52.826,9.283 52.808,9.398 52.83,9.523 52.856,9.644 52.894,9.909 52.9,10.192 52.89,10.495 52.83,10.806 52.727,11.073 
		52.493,11.573 51.887,12.374 51.831,12.483 51.805,12.607 51.834,13.006 51.819,13.144 51.779,13.274 51.708,13.377 51.286,13.808 
		51.027,14.236 50.794,14.74 50.68,14.932 50.602,14.97 50.46,15 48.21,14.577 48.103,14.505 48.043,14.4 48.024,14.27 
		48.055,13.52 48.04,13.385 48.003,13.266 47.925,13.175 47.813,13.119 47.684,13.131 47.572,13.194 47.494,13.36 47.465,13.484 
		47.436,13.729 47.376,14.039 47.332,14.184 47.272,14.308 47.202,14.409 47.069,14.488 46.896,14.545 46.584,14.56 46.41,14.516 
		46.283,14.44 46.191,14.357 46.095,14.286 45.973,14.27 45.851,14.339 45.729,14.539 45.666,14.72 45.603,15.045 45.563,15.17 
		45.503,15.234 45.437,15.246 45.314,15.184 45.236,15.09 45.111,14.903 44.936,14.706 44.88,14.605 44.847,14.483 44.821,14.207 
		44.795,14.081 44.747,13.969 44.666,13.879 44.569,13.799 44.484,13.713 44.422,13.612 44.37,13.507 44.329,13.389 44.3,13.261 
		44.281,13.127 44.248,13.006 44.185,12.913 44.096,12.85 43.963,12.816 43.845,12.806 43.663,12.844 43.244,12.999 42.981,13.041 
		42.104,13.037 41.833,13.073 41.597,13.152 39.757,14.445 38.916,14.543 38.775,14.614 38.639,14.731 38.46,14.977 38.233,15.443 
		38.156,15.545 37.919,15.818 37.864,15.931 37.842,16.049 37.886,16.153 37.968,16.239 38.171,16.384 38.26,16.463 38.324,16.562 
		38.312,16.689 38.274,16.819 37.997,17.367 37.975,17.437 37.941,17.56 37.923,17.687 37.931,17.82 37.989,17.918 38.074,18.007 
		38.167,18.085 38.241,18.179 38.282,18.296 38.278,18.438 38.067,19.756 38.016,19.887 37.683,20.444 37.631,20.57 37.608,20.701 
		37.624,20.822 37.72,21.046 37.757,21.163 37.768,21.298 37.745,21.444 37.701,21.579 37.457,22.06 37.165,22.88 37.086,23.007 
		36.794,23.272 36.697,23.405 36.638,23.55 36.62,23.979 36.634,24.116 36.675,24.235 36.749,24.323 36.864,24.383 37.143,24.455 
		37.25,24.523 37.32,24.624 37.35,24.746 37.364,24.881 37.372,25.022 37.346,25.465 37.323,25.596 37.298,25.681 37.161,25.822 
		36.42,26.339 36.202,26.549 36.061,26.732 35.667,27.705 35.568,27.894 35.501,27.992 35.423,28.088 34.405,28.792 34.264,28.932 
		34.124,29.138 33.536,29.692 33.292,29.974 33.073,30.278 32.955,30.397 32.528,30.73 32.395,30.885 32.295,31.024 31.724,32.063 
		31.68,32.192 31.65,32.341 31.641,32.487 31.658,32.908 31.65,33.068 31.558,33.222 31.384,33.376 31.058,33.319 30.914,33.229 
		30.814,33.109 30.762,32.999 30.703,32.896 30.592,32.836 30.433,32.847 30.203,32.989 29.958,33.25 29.818,33.323 29.57,33.338 
		29.2,33.167 29.051,33.146 28.833,33.281 28.707,33.396 28.444,33.71 28.355,33.778 27.574,34.012 27.137,34.272 27.026,34.301 
		26.904,34.291 26.778,34.197 26.697,34.092 26.226,33.256 26.148,33.167 26.052,33.095 25.9,33.075 25.686,33.102 25.338,33.214 
		25.046,33.176 24.874,33.116 24.682,32.944 24.593,32.902 24.497,32.923 24.397,33.057 24.086,33.682 23.949,33.898 23.861,33.967 
		23.746,33.98 23.079,33.599 22.968,33.565 22.846,33.576 22.58,33.825 22.458,33.895 21.672,34.18 21.605,34.189 21.509,34.182 
		21.395,34.078 21.316,33.974 21.257,33.852 21.135,33.646 21.058,33.559 20.872,33.398 20.764,33.331 20.642,33.276 20.505,33.234 
		20.335,33.234 20.161,33.289 19.928,33.455 19.813,33.599 19.736,33.748 19.672,34.044 19.649,34.342 19.657,34.626 19.647,34.768 
		19.61,34.906 19.472,35.31 19.021,37.299 18.958,37.43 18.832,37.504 18.625,37.502 18.384,37.371 18.295,37.226 18.259,37.075 
		18.269,36.924 18.269,36.795 18.244,36.696 18.168,36.639 18.058,36.59 13.874,35.699 13.755,35.639 13.674,35.553 13.641,35.439 
		13.641,35.306 13.681,35.174 13.792,34.929 14.059,34.5 14.092,34.383 14.081,34.275 13.992,34.206 13.478,33.999 13.341,33.982 
		13.211,34.016 12.958,34.357 12.8,34.536 12.459,34.732 12.304,34.879 12.208,35.014 12.2,35.123 12.219,35.189 12.263,35.278 
		12.434,35.581 12.478,35.693 12.507,35.811 12.478,35.91 12.378,35.973 12.167,35.936 12.052,35.891 11.823,35.76 11.686,35.719 
		10.975,35.666 10.801,35.617 10.638,35.604 10.49,35.666 10.297,35.873 10.041,36.272 9.882,36.35 9.642,36.39 8.849,36.407 
		8.608,36.472 8.094,36.862 7.809,37.021 7.731,37.111 7.671,37.233 7.553,37.619 7.482,37.791 7.286,38.1 7.127,38.284 
		6.783,38.613 6.713,38.713 6.65,38.82 6.617,38.946 6.613,39.08 6.665,39.469 6.591,39.582 6.432,39.657 5.824,39.631 
		4.417,39.773 4.025,39.629 3.535,39.271 3.365,39.076 3.261,38.879 3.232,38.636 3.288,38.506 3.384,38.425 3.495,38.376 
		3.592,38.316 3.639,38.218 3.531,38.093 3.424,37.99 2.492,37.711 1.951,38.352 1.955,38.615 2.051,38.692 2.411,38.869 
		2.536,38.963 2.655,39.095 2.81,39.333 2.847,39.509 2.829,39.657 2.662,39.9 2.584,40.107 2.581,40.256 2.622,40.448 
		2.685,40.648 2.766,41.024 2.729,41.191 2.655,41.315 2.211,41.543 2.091,41.639 1.958,41.812 1.936,42.003 1.947,42.227 
		1.98,42.586 1.939,42.763 1.858,42.882 1.411,43.071 0.596,43.552 0.507,43.617 0.399,43.719 0.125,44.117 0.044,44.336 0,44.564 
		0.007,44.832 0.048,44.994 0.1,45.129 0.167,45.223 0.244,45.313 0.462,45.444 0.599,45.486 1.336,45.514 1.481,45.542 
		1.603,45.593 1.699,45.666 1.773,45.757 1.862,45.922 1.873,45.951 1.895,46.02 1.958,46.429 1.906,46.57 1.806,46.652 
		1.673,46.668 1.547,46.751 1.437,46.896 1.266,47.412 1.181,47.561 1.096,47.662 1.015,47.787 1.03,47.893 1.096,47.982 
		1.54,48.234 1.632,48.309 1.803,48.48 1.888,48.553 2.002,48.59 2.385,48.588 2.518,48.623 2.629,48.685 2.721,48.764 
		2.869,48.943 2.943,49.076 3.01,49.241 3.091,49.521 3.091,49.706 3.036,49.837 2.747,50.055 2.651,50.146 2.566,50.305 
		2.573,50.484 2.644,50.773 2.71,50.941 2.777,51.076 2.851,51.17 2.947,51.243 3.517,51.402 3.639,51.458 3.747,51.773 
		4.169,54.016 4.288,54.32 4.413,54.371 5.258,54.482 5.898,54.434 6.049,54.482 6.206,54.584 6.406,54.881 6.561,55.018 
		6.709,55.118 6.839,55.178 6.95,55.26 7.05,55.382 7.046,55.506 6.987,55.596 6.894,55.668 6.487,55.898 6.387,56.012 
		6.317,56.183 6.283,56.535 6.31,56.728 6.354,56.881 6.495,57.07 6.665,57.235 7.449,57.783 8.494,58.213 8.653,58.312 
		8.719,58.43 8.741,58.568 8.745,59.606 8.797,59.88 8.849,60.067 9.053,60.506 9.294,60.903 9.73,61.463 10.074,62.168 
		10.226,62.66 10.233,62.809 10.219,62.957 10.194,63.104 10.152,63.219 10.111,63.306 10.008,63.462 9.856,63.615 9.778,63.659 
		9.73,63.67 9.63,63.665 9.601,63.698 9.557,63.79 9.505,64.011 9.431,64.2 9.301,64.403 9.224,64.493 8.793,64.87 8.734,64.965 
		8.689,65.102 8.675,65.335 8.712,65.477 8.79,65.552 8.895,65.564 9.076,65.531 10.226,65.037 10.472,64.974 10.597,64.957 
		10.73,64.968 10.849,65.009 10.963,65.07 11.174,65.25 11.533,65.628 12.304,65.691 12.6,65.581 13.204,64.94 13.877,64.402 
		14.125,64.285 14.337,64.25 14.467,64.293 14.563,64.367 14.637,64.453 14.696,64.559 14.811,64.666 14.981,64.761 15.34,64.849 
		15.502,64.852 15.617,64.821 15.682,64.747 15.807,64.543 18.902,62.92 18.954,62.793 19.002,62.648 19.028,62.492 19.062,62.193 
		19.095,62.021 19.168,61.839 19.335,61.596 19.472,61.493 19.612,61.432 20.168,61.402 20.609,61.473 20.72,61.529 20.809,61.613 
		20.939,61.811 20.986,61.917 21.058,62 21.146,62.07 21.276,62.094 23.016,61.895 23.26,61.791 23.416,61.676 23.482,61.382 
		23.504,61.093 23.497,60.383 23.463,60.267 23.393,60.18 23.29,60.106 22.79,59.889 22.69,59.814 22.624,59.729 22.709,59.535 
		22.942,59.258 23.842,58.462 24.02,58.263 24.068,58.123 24.29,57.121 24.301,57.035 24.297,56.92 24.282,56.805 24.249,56.689 
		24.134,56.473 24.197,56.297 24.401,56.021 24.949,55.617 25.667,54.932 26.475,54.469 26.723,54.409 26.915,54.408 27.196,54.469 
		27.54,54.454 27.699,54.471 27.826,54.516 27.938,54.584 28.085,54.635 28.267,54.668 28.592,54.631 28.785,54.643 28.899,54.704 
		29.019,54.9 29.097,54.984 29.285,55.025 29.57,55 30.417,54.786 30.637,54.779 30.91,54.872 32.103,54.793 32.384,54.842 
		32.772,54.987 33.354,55.038 34.068,55.252 34.51,55.512 34.78,55.742 34.887,55.805 35.028,55.826 35.187,55.832 35.368,55.799 
		36.346,55.799 36.73,55.676 37.871,54.982 38.078,54.915 38.916,54.877 39.208,54.932 39.737,55.105 39.871,55.116 40.282,55.078 
		40.585,55.123 40.955,55.276 41.044,55.338 41.101,55.396 41.164,55.482 41.323,55.799 41.4,55.898 41.522,55.961 41.618,55.902 
		41.845,55.649 42.033,55.605 42.336,55.614 42.87,55.438 43.373,55.195 44.118,54.98 44.429,54.799 44.61,54.616 44.795,54.072 
		44.896,53.669 44.929,53.452 44.983,53.258 45.062,53.086 45.285,52.811 45.921,52.275 46.054,52.116 46.161,51.939 46.258,51.527 
		46.283,51.305 46.276,50.598 46.213,49.924 46.213,49.45 46.254,49.197 46.347,48.965 46.563,48.721 46.776,48.646 46.973,48.671 
		47.705,48.932 49.116,48.965 49.335,48.874 49.483,48.685 49.568,48.446 49.721,48.152 49.891,48.039 50.031,47.984 50.864,48.013 
		51.054,48.053 52.911,48.731 53.66,49.236 53.771,49.361 53.875,49.5 53.96,49.66 54.03,49.854 54.085,50.04 54.208,50.65 
		54.3,50.842 54.453,50.984 54.737,51.053 54.934,50.979 55.086,50.84 55.227,50.636 55.522,50.342 55.67,50.16 55.805,49.906 
		55.989,49.734 56.315,49.52 57.386,49.162 57.515,49.065 57.937,48.631 58.066,48.581 58.195,48.59 58.311,48.649 58.406,48.725 
		58.45,48.813 58.463,48.909 58.518,48.975 58.678,49.01 59.351,48.881 59.51,48.898 59.565,48.994 59.603,49.111 59.733,49.201 
		59.929,49.244 60.336,49.225 60.524,49.143 60.646,49.027 60.702,48.891 60.869,48.301 60.898,48.149 60.921,48.002 60.924,47.859 
		60.876,47.747 60.806,47.655 60.721,47.572 60.646,47.486 60.613,47.382 60.636,47.256 60.735,47.004 60.843,46.857 61.006,46.694 
		61.857,46.158 61.943,46.09 62.035,45.981 62.328,45.418 62.559,45.082 62.936,44.362 63.035,44.238 63.202,44.085 63.35,44.057 
		63.49,44.077 63.758,44.184 64.109,44.266 64.231,44.232 64.31,44.153 64.324,44.041 64.298,43.92 64.261,43.796 64.242,43.674 
		64.261,43.554 64.331,43.432 64.631,43.145 64.89,43.057 65.239,42.771 65.361,42.715 65.483,42.735 65.579,42.803 65.628,42.908 
		65.639,43.039 65.612,43.328 65.631,43.449 65.705,43.531 65.92,43.678 65.997,43.764 66.034,43.887 66.046,44.018 66.075,44.143 
		66.142,44.238 66.249,44.313 66.521,44.406 66.905,44.473 67.187,44.479 67.356,44.445 67.482,44.383 67.798,44.072 68.009,43.904 
		68.149,43.887 68.249,43.937 68.29,44.055 68.297,44.189 68.278,45.057 68.286,45.189 68.327,45.305 68.489,45.617 69.408,46.863 
		69.456,46.949 69.545,47.166 69.634,47.541 69.679,48.215 69.7,48.348 69.733,48.463 69.845,48.543 70.015,48.594 70.341,48.594 
		70.496,48.525 70.597,48.41 70.611,48.271 70.623,48.137 70.615,47.994 70.648,47.839 70.696,47.696 70.853,47.539 70.989,47.498 
		71.13,47.51 71.352,47.643 71.633,47.873 71.766,47.944 71.956,47.99 72.259,48.018 72.437,47.988 72.577,47.931 73.01,47.561 
		73.243,47.281 73.374,47.051 73.422,46.914 73.488,46.764 73.581,46.621 73.74,46.47 73.892,46.429 74.036,46.447 74.295,46.556 
		74.91,46.978 74.995,47.062 75.099,47.135 75.191,47.219 75.558,47.341 75.94,47.361 76.11,47.288 76.229,47.178 76.351,47.013 
		76.517,46.833 77.603,45.931 77.743,45.762 77.828,45.598 77.85,45.451 77.854,45.306 	"/>
</g>
<g id="Layer_1">
</g>
</svg>
