<?xml version="1.0" encoding="iso-8859-1"?>
<!-- Generator: Adobe Illustrator 16.0.3, SVG Export Plug-In . SVG Version: 6.00 Build 0)  -->
<!DOCTYPE svg PUBLIC "-//W3C//DTD SVG 1.1//EN" "http://www.w3.org/Graphics/SVG/1.1/DTD/svg11.dtd">
<svg version="1.1" xmlns="http://www.w3.org/2000/svg" xmlns:xlink="http://www.w3.org/1999/xlink" x="0px" y="0px"
	 width="61.478px" height="34.414px" viewBox="0 0 61.478 34.414" style="enable-background:new 0 0 61.478 34.414;"
	 xml:space="preserve">
<g id="Chernivtsi">
	<polygon style="fill-rule:evenodd;clip-rule:evenodd;fill:#6FA8DC;" points="61.47,7.387 61.25,7.045 60.736,4.712 60.392,3.628 
		59.91,2.721 59.23,2.066 58.292,1.743 58.014,1.933 57.689,2.538 57.447,2.748 57.133,2.782 56.913,2.639 56.719,2.421 
		56.485,2.235 55.533,2.051 55.047,2.147 55.086,2.614 55.312,2.779 55.548,2.818 55.699,2.966 55.67,3.462 55.552,3.731 
		55.361,3.876 55.12,3.934 54.856,3.954 54.563,3.887 54.037,3.542 53.782,3.462 52.96,3.462 52.825,3.566 52.542,4.059 
		52.383,4.222 52.158,4.276 51.123,4.155 50.643,3.987 50.354,3.954 50.213,4.026 50.112,4.157 50.012,4.22 49.865,4.087 
		49.539,3.708 48.668,3.507 48.146,3.482 47.658,3.708 47.299,4.14 47.045,4.545 46.708,4.842 46.096,4.958 45.67,4.744 
		45.348,4.203 45.221,3.488 45.377,2.748 45.129,2.573 44.873,2.484 44.623,2.527 44.385,2.748 44.277,3.047 44.426,3.588 
		44.385,3.954 44.031,4.575 43.713,4.59 43.48,4.193 43.393,3.584 43.264,3.211 42.985,2.988 42.705,3.001 42.577,3.339 
		42.68,3.612 43.127,4.112 43.229,4.333 43.108,4.928 42.814,5.143 42.442,5.108 42.089,4.958 41.219,4.294 40.691,4.165 
		40.208,4.579 40.252,4.963 40.701,5.207 41.601,5.448 42.019,5.747 42.418,6.156 42.51,6.519 42,6.675 41.198,6.719 40.948,6.675 
		40.847,6.53 40.733,6.286 40.56,6.106 40.282,6.161 40.075,6.682 40.43,7.905 40.045,8.144 39.507,8.097 39.105,7.938 
		38.783,7.635 38.475,7.164 38.053,6.158 37.887,5.873 37.262,5.314 36.82,5.039 35.67,5.338 35.231,5.18 34.672,5.793 
		34.063,6.043 33.385,5.992 32.609,5.693 32.01,5.323 31.717,5.207 31.292,5.18 29.907,5.448 29.158,4.985 29.04,3.965 
		29.069,2.943 28.766,2.48 28.094,2.414 28.032,2.576 28.032,3.094 28.116,3.501 28.309,3.876 28.685,4.445 28.389,4.9 
		27.956,4.943 27.495,4.708 27.123,4.333 26.846,3.83 26.823,3.422 27.041,2.235 27.041,2.48 27.078,1.792 26.989,1.305 
		26.764,1.097 26.389,1.251 26.281,1.456 26.182,2.043 26.063,2.235 25.837,2.255 25.248,1.966 24.966,2.224 24.641,2.941 
		24.257,3.217 23.87,3.286 23.482,3.239 22.322,2.784 22.312,2.685 22.331,2.358 22.241,2.138 21.739,1.497 21.319,1.189 
		21.031,0.614 20.665,0.291 20.021,0.737 19.864,1.056 19.804,1.384 19.705,1.64 19.442,1.743 19.176,1.547 18.981,0.687 
		18.792,0.492 17.745,0.391 17.21,0.24 16.91,0 16.011,0.713 15.721,0.987 15.499,1.255 15.388,1.426 15.262,1.712 15.222,1.902 
		15.21,2.058 15.266,2.486 15.514,3.505 16.151,5.244 16.185,5.631 16.055,8.825 15.898,9.745 15.806,10.035 15.691,10.25 
		15.577,10.354 15.451,10.41 15.314,10.412 15.181,10.389 14.97,10.294 14.737,10.152 14.251,9.961 13.974,9.891 13.489,9.86 
		12.404,9.992 11.434,10.298 10.549,10.703 8.712,12.135 6.409,15.116 6.212,15.275 5.946,15.376 5.602,15.563 5.254,15.836 
		5.09,16.006 4.983,16.161 4.942,16.29 4.913,16.433 4.898,16.586 4.891,16.888 4.909,17.028 4.931,17.157 4.972,17.274 
		5.068,17.504 5.102,17.632 5.079,17.799 4.998,17.886 4.872,17.923 4.728,17.936 4.521,18.036 4.266,18.236 3.029,19.693 
		2.94,19.767 2.836,19.82 2.387,19.945 2.143,20.05 1.744,20.344 1.574,20.531 1.47,20.706 1.444,20.847 1.363,21.465 1.244,21.758 
		0.167,23.793 0.082,24.058 0.015,24.379 0.004,24.497 0,24.64 0.1,25.301 0.129,25.88 0.174,26.14 0.37,26.728 0.422,26.832 
		0.485,26.93 0.844,27.381 0.899,27.479 0.947,27.587 0.977,27.713 0.999,27.847 0.999,28.598 1.021,28.731 1.084,28.976 
		1.274,29.413 1.314,29.529 1.34,29.657 1.363,29.795 1.366,29.938 1.363,30.078 1.274,30.362 0.155,32.882 0.119,32.995 
		0.03,33.795 0.022,33.972 0.031,34.399 0.031,34.414 0.354,34.356 2.145,34.037 3.637,33.389 3.639,33.383 3.644,33.381 
		4.638,32.419 6.954,28.587 7.975,27.874 19.686,26.596 21.256,25.957 22.512,25.799 23.234,25.481 23.636,25.403 24.773,25.519 
		26.29,25.061 28.038,25.044 28.591,25.038 29.721,24.515 29.95,24.155 30.478,22.941 30.771,22.563 31.395,22.033 31.684,21.697 
		32.051,20.94 32.438,19.832 32.689,18.704 32.658,17.896 32.833,16.717 33.03,16.8 33.472,16.843 33.879,16.715 34.67,16.318 
		35.074,16.211 36.201,16.156 36.6,16.062 39.607,15.384 40.335,15.04 40.353,14.747 40.508,14.186 40.77,13.757 41.557,13.259 
		41.674,12.797 41.813,12.494 42.281,12.675 42.604,13.04 42.857,13.481 43.152,13.865 43.597,14.069 44.069,14.032 44.34,13.784 
		44.443,13.321 44.427,12.646 44.301,11.958 44.16,11.526 44.145,11.205 44.396,10.854 44.527,10.844 44.921,11.001 45.085,11.007 
		45.293,10.79 45.359,10.526 45.443,10.303 45.701,10.218 46.493,10.567 47.275,11.239 48.1,11.739 49.002,11.581 49.229,11.342 
		49.4,11.371 49.564,11.471 49.825,11.448 50.113,11.507 50.242,11.419 50.213,11.239 50.133,11.04 50.116,10.897 50.126,10.66 
		50.06,10.356 50.082,10.098 50.346,10.005 50.6,10.077 51.096,10.392 53.648,11.362 54.43,11.404 55.335,10.935 55.465,10.771 
		56.756,9.146 57.619,8.699 58.077,8.817 58.756,9.456 59.081,9.582 59.48,9.379 60.928,8.15 61.476,7.398 61.478,7.398 	"/>
</g>
<g id="Layer_1">
</g>
</svg>
