<?xml version="1.0" encoding="iso-8859-1"?>
<!-- Generator: Adobe Illustrator 16.0.3, SVG Export Plug-In . SVG Version: 6.00 Build 0)  -->
<!DOCTYPE svg PUBLIC "-//W3C//DTD SVG 1.1//EN" "http://www.w3.org/Graphics/SVG/1.1/DTD/svg11.dtd">
<svg version="1.1" xmlns="http://www.w3.org/2000/svg" xmlns:xlink="http://www.w3.org/1999/xlink" x="0px" y="0px"
	 width="99.188px" height="63.16px" viewBox="0 0 99.188 63.16" style="enable-background:new 0 0 99.188 63.16;"
	 xml:space="preserve">
<g id="Crimea">
	<path style="fill:#6FA8DC;" d="M99.016,29.81l-0.419-1.156l-0.352-0.418l-0.371-0.21l-0.396,0.075l-0.432,0.437l-0.373,0.114
		l-0.407-0.366l-0.604-0.789l-0.478-0.094l-1.402,0.324l-0.487-0.116l-0.757-0.503l-0.457-0.094l-0.256,0.102l-0.208,0.199
		l-0.223,0.165l-0.308,0.017l0.204-0.606l-0.177-0.421l-0.381-0.112l-0.386,0.319L89.98,26.87l-2.744-0.02l-0.466,0.168
		l-0.515,0.514L85.6,27.938l-0.086,0.153l-0.322,1.025l-0.703,0.918l-0.866,0.182l-0.939-0.318l-1.802-1.083l-0.408-0.335
		l-0.169-0.415l0.126-0.606l0.187-0.521l-0.057-0.336l-0.582-0.05l-0.385,0.232l-0.314,0.505l-0.216,0.63l-0.075,0.619l-0.08,0.164
		l-0.374,0.515l-0.127,0.111l-0.346,0.087l-0.104,0.228l-0.027,0.303l-0.097,0.328l-0.652,0.693l-0.502,0.345l-4.228,1.181
		l-0.885-0.078l-3.544-2.485l-6.867-10.144l-1.489-2.946l-0.771,0.225l0.652,1.097l0.05,0.271l0.049,0.13l0.365,0.651l0.077,0.411
		l0.183,0.181l0.211,0.09l0.183,0.141l0.204,0.37l0.463,1.021l0.633,0.841l0.147,0.34l1.011,1.16l5.044,7.215l0.169,0.159
		l0.273,0.05l0.239,0.12l0.154,0.259l0.141,0.299l0.203,0.248l0.45,0.22l0.428,0.089l0.394,0.18l0.345,0.438l-0.521,0.607
		l-0.323,0.238l-0.372,0.1l-0.428-0.179l-0.365-0.398l-0.288-0.397l-0.225-0.18l-2.74-0.985l-0.442-0.299l-0.169-0.249l-0.379-0.198
		l-0.436-0.12l-0.323-0.01l-0.414,0.14l-0.26,0.14l-0.253-0.011l-1.384-1.086l-0.31-0.349l-0.66-1.286l-0.33-0.329V27.94l0.288-0.14
		l0.801-0.189l0.31-0.239l0.14-0.141l0.31-0.239l0.105-0.189l0.084-0.369l-0.049-0.11l-0.105-0.1l-0.407-2.328l-0.127-0.42
		l-0.568-0.55l-0.127-0.43l-0.091-0.491l-0.197-0.229l-0.273-0.141l-0.26-0.21l-0.633-1.402l-0.267-0.2l-1.208,0.12l-0.352-0.12
		l-0.196-0.2l-0.281-0.521l-0.189-0.23l-0.169-0.1l-0.625-0.131l0.196-0.32l0.422-0.401l0.176-0.23v-0.19l-0.506,0.08l-0.885,0.521
		l-0.534,0.08l-0.864-0.301l-0.436-0.08l-0.506,0.141l0.366-0.603l0.526-0.682l0.273-0.743l-0.351-0.763l-0.618-0.241l-0.611,0.261
		l-0.611,0.422l-0.618,0.261l0.127-0.432l0.315-0.612l0.063-0.482l0.084-0.352l0.204-0.262l0.295-0.16l0.316-0.051l0.07-0.05
		l0.744-0.141l0.169,0.06l0.176-0.302l0.056-0.361l-0.035-0.402l-0.126-0.442l-0.653,0.774l-0.372,0.281l-1.012,0.201l-0.407,0.231
		l-2.417,2.261l-0.962,0.502l-1.061,0.2v-0.23l0.73-0.472l0.26-0.251l0.119-0.271l0.12-0.392l0.183-0.352l0.309-0.151l0.176-0.181
		l0.119-0.804l0.204-0.182l0.315-0.04l0.31-0.11l0.253-0.151l0.203-0.16l0.184-0.222l0.357-0.533l0.099-0.201l0.141-0.523
		l-0.014-0.252l-0.085-0.181l-0.042-0.332l-0.267-0.182l-1.707-0.614v0.212l0.484,0.513l0.26,0.353l0.085,0.322l-0.232,0.393
		l-0.393-0.03l-0.366-0.131l-0.161,0.111l-0.084,0.302l-0.204,0.402l-0.442,0.704l-0.281,0.101l-0.26-0.332l-0.372-0.835
		l0.323-0.533l0.176-0.151l-0.408-0.222l-0.491,0.131l-0.407,0.453l-0.176,0.694l-0.063,0.845l-0.147,0.322l-0.112-0.222v-0.834
		h-0.147l-0.063,0.23l-0.098,0.131l-0.141,0.061l-0.204,0.051l0.084-0.121l0.07-0.121l0.035-0.181l-0.021-0.281l-0.653,0.704
		l0.07-0.342l0.211-0.554l0.042-0.402l0.119-0.172l0.534-0.262l0.161-0.141l0.092-0.675l-0.33-0.362l-0.506-0.262l-0.394-0.353
		l0.183-0.03l0.471-0.202l-0.563-0.866l-0.315-0.313l-0.442,0.03l-0.092,0.171l-0.105,0.585l-0.112,0.171l-0.239,0.041l-0.253-0.081
		l-0.231-0.141l-0.176-0.182l-0.091-0.494l0.056-0.575l-0.049-0.212l-0.892,1.321l-0.31,0.101l-0.26-0.474l0.302-0.373l-0.394-0.242
		l-1.067-0.343l-0.147,0.263l-0.112-0.162l-0.147-0.151l-0.189-0.121l-0.211-0.061l-0.092-0.04l-0.196-0.161l-0.126-0.03l-0.07,0.07
		l-0.028,0.161l0.028,0.162l0.07,0.07l0.26,0.121l1.376,1.17l0.253,0.282l0.134,0.403l0.028,0.725l-0.141,0.595l-0.337,0.15
		l-0.387,0.041L39.9,10.693l-0.61-0.624l-0.261-0.464l-0.105-0.563l0.4,0.191l0.358,0.01l0.303-0.151l0.238-0.282V8.588L38.91,7.379
		l-0.794-0.414l-0.99-1.433l-0.442-0.313l-0.478-0.151l-1.124-0.03l-0.288,0.102l0.084,0.222l0.443,0.403l0.28,0.102l0.239-0.03
		l0.183,0.05l0.112,0.344L35.672,6.44l-0.014,0.292l0.196,0.374l0.12,0.423l-0.184,0.394l-0.386-0.091L35.033,7.56l-0.12-0.161
		L34.73,7.258l-0.105-0.323l-0.147-0.322l-0.309-0.142l-0.231,0.142L33.72,6.925l-0.281,0.252l-0.414,0.021l0.183-0.263
		l-0.134-0.212l-0.035-0.091l-0.014-0.161l0.478-0.182l-0.218-0.565l-0.906-1.151l0.246-0.242l0.084-0.354l-0.007-0.92l-0.147-0.191
		l-0.991-0.404v1.142L31.45,4.139L31.148,4.36l-1.074-0.626l-0.232-0.202l-1.061-1.972l-0.189-0.253l-0.288-0.253V0.842h0.336
		c-0.117-0.137-0.191-0.246-0.3-0.246c-0.177,0-0.636-0.322-0.813-0.523c-0.176-0.201-0.247,0.081-0.529,0.121
		s0.459,2.136,0.317,2.7c-0.051,0.205-0.197,0.416-0.361,0.601l0.054,0.049l0.719,1.391l0.116,0.502l-0.229,0.402l-0.261,0.359
		l0.039,0.386l0.303,1.179l0.031,0.247l-0.169,0.293L27.43,8.64l0.021,0.283l0.275,0.114l0.077,0.178l-0.199,0.394l-0.443,0.599
		l0.29,0.217l0.167-0.101l0.163-0.213l0.271-0.115l0.603-0.052l1.362,0.363l0.455,0.238l0.438,0.384l-0.419,0.252l-0.816,0.212
		l-0.396,0.217l-0.361-0.163l-0.059,0.625l0.049,0.809l-0.035,0.403l-0.513,0.075l-0.268-0.026l-0.117-0.176l-0.083-0.212
		l-0.214-0.184l-0.268-0.137l-0.251-0.061l-0.23,0.036l-0.276,0.115l-0.483,0.315l-0.576,0.72l-0.575,0.178l-0.245,0.033
		l-0.291-0.07l-0.433-0.321l-0.175-0.072l-0.363,0.15L22.511,14.3l-0.357,0.149l-0.725,0.804l-0.128,0.222l-0.862,0.372
		l-1.736,1.085l-0.841,0.099l-0.843-0.484l-0.388-0.516l-0.224-0.142l-0.204,0.191l-0.035,0.351l0.181,0.201l0.231,0.125
		l0.108,0.128l-0.116,0.412l-0.303,0.232l-5.408,2.513l-1.638,1.103l-0.726,0.748l-0.167,0.24l-0.09,0.187L8.19,22.61l0.037,0.257
		l0.08,0.313l-0.045,0.266l-0.332,0.113l-0.275-0.04l-0.463-0.175l-0.24-0.04l-0.361,0.065l-0.192,0.17l-0.142,0.229l-0.218,0.254
		l-0.34,0.273l-0.373,0.213l-0.444,0.139L4.33,24.695l-0.466,0.133l-2.825,2.155L0.322,27.75L0,28.653l0.101,0.473l0.645,1.84
		l0.538,0.086l0.829,0.435l0.509,0.171H4.33l0.342-0.198l0.843-0.92l0.377-0.267l0.517-0.077l3.558,0.309l0.986,0.396l0.858,0.569
		l1.591,1.364l0.203,0.125l0.42,0.172l0.222,0.165l0.271,0.507l0.202,0.289l0.592,0.347l0.837,1.049l0.363,0.344l1.072,0.309
		l0.515,0.264l0.222,0.474l0.244,0.321l0.548-0.151l0.837-0.503l0.896-0.347l0.986-0.136l0.403,0.178l1.329,1.203l1.631,1.061
		l0.598,0.79l0.379,1.371l0.082,0.866l0.081,0.304l0.42,0.843l0.067,0.2l0.07,0.566l0.264,1.315l0.006,0.767l-0.091,0.655
		l-0.163,0.583l-0.261,0.417l-0.472,0.163l-0.452,0.157L25.4,47.933l-0.208,0.601l-0.163,0.678l-0.068,0.187l-0.083,0.117
		l-0.188,0.154l0.212,0.425l0.126,0.506l0.151,0.921l0.237,0.679l0.038,0.363l-0.099,0.535l-0.204,0.351l-0.287,0.359l-0.21,0.412
		l0.035,0.497l0.212,0.181l0.778,0.15l0.328,0.127l-0.487,0.197l-1.22,0.024l-0.346,0.119l-0.194,0.124l-0.26,0.028l-0.513-0.038
		l-0.218,0.055l-0.526,0.399l-0.199,0.104l-0.727,0.161l-0.094-0.102l0.006,0.016l0.023,0.384l0.175,0.399l2.565,1.808l0.295,0.317
		l0.432,0.343l0.513-0.036l0.509-0.155l0.429-0.026l0.278,0.233l0.718,0.928l0.144,0.307l0.133,0.623l0.326,0.307l1.804,0.848
		l0.483,0.125l1.585,0.04l0.262-0.043l0.501-0.174l0.298-0.011l1.499,0.591l0.518,0.086l0.027,0.005l0.48-0.065l2.574-1.219
		l0.548-0.08l0.33-0.103l0.81-0.562l0.263-0.264l0.318-0.552l0.222-0.506l0.295-0.373l1.13-0.236l0.313-0.252l0.491-0.814
		l0.063-0.132l-0.008-0.104l0.008-0.1l0.116-0.118l0.105-0.029l0.256,0.032l0.338-0.007l0.536,0.069l0.204-0.065l0.234-0.435
		l0.933-2.432l0.813-1.419l0.231-0.298l0.128-0.233l0.945-1.344l0.104-0.016l0.025,0.046v0.084l0.021,0.093l0.59-0.636l0.792-0.345
		l1.905-0.412l0.897-0.404l1.678-1.129l0.86-0.319l1.658,0.29l0.385-0.163l0.348-0.234l0.78,0.188l0.43-0.08l0.193-0.162
		l0.157-0.186l0.181-0.177l0.284-0.139l0.248-0.042l0.801,0.042l0.47,0.17l0.289,0.403l0.22,0.462l0.252,0.356l1.031,0.168
		l0.658-1.045l0.509-1.465l0.587-1.091l0.419-0.204l1.031-0.242l0.432-0.38l0.545-1.108l0.41-0.279l0.597,0.357l0.161-0.153
		l0.246-0.172l0.097-0.135l1.143,0.897l-0.157-1.017l0.036-0.436l0.284-0.385l0.367-0.133l0.78,0.051l0.316-0.148v-0.206
		l-0.689-0.307l-0.14-0.153l-0.08-0.351l0.074-0.263l0.122-0.273l0.061-0.388l0.208-0.282l1.26-1.016l0.874-0.421l0.982-0.208
		l1.031-0.006l1.037,0.175l1.727,0.674l1.546,0.979l0.287,0.273l0.711,0.871l0.144,0.339l0.21,0.752l0.481,0.229l1.643-0.303
		l1.827,0.115l0.359-0.396l0.404-0.779l0.536-0.534l0.745,0.33v-0.249l1.357,0.84l2.115,0.468l0.47-0.116l0.093-0.173l0.137-0.575
		l0.093-0.194l0.237-0.159l0.256-0.072l2.133-0.099l1.724-0.629l0.316-0.304l0.047-0.51l-0.313-0.502l-0.654-0.736l-0.142-0.712
		l0.014-0.73l0.204-1.984l0.191-0.729l0.269-0.693l0.313-0.449l0.214-0.082l0.543-0.035l0.202-0.114l0.159-0.289l-0.067-0.152
		l-0.153-0.138l-0.086-0.239l0.116-0.675l0.315-0.356l0.462-0.104l0.558,0.085l0.708,0.383l0.271,0.077l0.289-0.017l0.777-0.212
		l0.178-0.361L99.016,29.81z"/>
</g>
<g id="Layer_1">
</g>
</svg>
