<?xml version="1.0" encoding="iso-8859-1"?>
<!-- Generator: Adobe Illustrator 16.0.3, SVG Export Plug-In . SVG Version: 6.00 Build 0)  -->
<!DOCTYPE svg PUBLIC "-//W3C//DTD SVG 1.1//EN" "http://www.w3.org/Graphics/SVG/1.1/DTD/svg11.dtd">
<svg version="1.1" xmlns="http://www.w3.org/2000/svg" xmlns:xlink="http://www.w3.org/1999/xlink" x="0px" y="0px"
	 width="94.099px" height="61.168px" viewBox="0 0 94.099 61.168" style="enable-background:new 0 0 94.099 61.168;"
	 xml:space="preserve">
<g id="Dnipropetrovsk">
	<polygon style="fill-rule:evenodd;clip-rule:evenodd;fill:#6FA8DC;" points="94.095,35.251 94.027,34.885 94.012,34.76 
		93.995,34.647 93.987,34.539 93.779,33.154 93.724,32.916 93.657,32.688 93.616,32.443 93.583,32.06 93.546,31.943 93.476,31.85 
		93.357,31.789 92.813,31.704 92.721,31.667 92.676,31.575 92.65,31.46 92.613,31.351 92.557,31.259 92.461,31.206 92.343,31.188 
		92.213,31.188 91.969,31.238 91.758,31.332 91.65,31.364 91.54,31.345 91.458,31.278 91.403,31.181 91.366,31.066 91.346,30.941 
		91.358,30.761 91.503,29.983 91.518,29.806 91.414,28.768 91.307,28.277 91.284,28.094 91.277,27.81 91.336,27.665 91.425,27.573 
		91.977,27.319 92.084,27.222 92.19,27.063 92.165,26.96 91.969,26.784 91.898,26.649 91.909,25.543 91.977,25.404 92.062,25.305 
		92.291,25.176 92.413,25.072 92.461,24.957 92.457,24.851 92.435,24.759 92.409,24.684 92.376,24.564 92.32,24.221 92.357,24.101 
		92.435,24.021 92.762,23.891 93.017,23.753 93.18,23.61 93.235,23.473 93.261,23.333 93.225,22.548 93.18,22.166 93.15,22.048 
		93.105,21.938 93.047,21.844 92.95,21.776 92.69,21.732 91.647,21.827 91.521,21.882 91.399,21.978 91.292,22.212 91.235,22.391 
		91.065,23.181 91.014,23.325 90.946,23.443 90.857,23.521 90.751,23.566 90,23.65 89.898,23.644 89.836,23.583 89.806,23.479 
		89.791,23.287 89.802,22.604 89.854,22.396 89.948,22.273 90.055,22.203 90.17,22.113 90.421,21.615 90.503,21.526 90.71,21.379 
		90.821,21.278 90.84,21.169 90.824,21.056 90.758,20.967 90.665,20.909 90.551,20.898 89.71,21.06 89.592,21.043 89.499,20.976 
		89.443,20.881 89.402,20.77 89.377,20.624 89.362,20.507 89.284,20.167 87.896,20.345 87.459,20.654 87.27,20.883 87.033,20.979 
		86.171,21.044 85.896,21.004 85.722,20.933 85.645,20.842 85.492,20.606 85.37,20.46 84.997,20.146 83.938,19.557 83.557,19.414 
		83.36,19.413 83.213,19.449 82.83,19.724 81.098,21.799 80.706,22.48 80.673,22.594 80.694,22.7 80.775,22.783 80.976,22.931 
		80.994,23.048 80.917,23.198 80.52,23.479 80.309,23.569 80.139,23.567 80.042,23.497 79.86,23.325 79.746,23.258 79.602,23.203 
		79.495,23.237 79.406,23.313 79.188,23.555 78.99,23.716 78.864,23.723 78.758,23.679 78.517,23.421 78.483,23.325 78.513,23.219 
		78.572,23.116 79.21,22.374 79.271,22.277 79.313,22.182 79.286,22.097 79.225,22.007 78.802,21.582 78.421,21.271 78.357,21.179 
		78.339,21.061 78.369,20.933 78.421,20.811 78.746,20.227 78.794,20.103 78.82,19.979 78.79,19.872 78.735,19.771 78.439,19.408 
		76.732,17.996 76.161,17.386 75.262,16.758 75.143,16.644 75.121,16.528 75.14,16.393 75.192,16.262 75.252,16.139 75.333,16.043 
		75.813,15.721 75.939,15.582 75.991,15.51 76.047,15.416 76.014,15.264 75.881,15.072 75.239,14.617 75.103,14.481 74.966,14.156 
		74.825,14.007 74.603,13.837 74.085,13.537 73.865,13.365 73.766,13.184 73.773,13.032 73.695,12.838 73.496,12.722 72.863,12.526 
		72.675,12.408 72.263,12.051 72.1,11.96 71.981,11.924 71.185,11.971 71.066,11.906 71.044,11.812 71.1,11.709 71.183,11.62 
		71.359,11.463 71.971,11.125 72.059,11.042 72.137,10.944 72.414,10.496 72.466,10.38 72.499,10.27 72.466,10.169 72.399,10.079 
		71.971,9.595 71.812,9.343 71.778,9.225 71.785,9.083 71.804,8.939 71.704,8.69 71.489,8.391 70.841,7.786 70.533,7.574 
		70.319,7.507 70.026,7.7 68.89,8.095 68.481,8.333 68.108,8.616 68.005,8.673 67.775,8.747 67.646,8.763 67.428,8.859 67.335,8.93 
		67.217,9 67.067,9.035 66.813,9.024 66.557,8.847 66.076,8.627 65.079,8.333 64.891,8.329 64.677,8.47 64.546,8.531 64.32,8.537 
		64.149,8.447 63.928,8.254 63.758,8.167 63.599,8.122 62.887,8.148 62.728,8.101 62.613,8.022 62.502,7.901 62.096,7.567 
		61.933,7.528 61.798,7.542 61.702,7.608 61.595,7.659 61.469,7.68 60.251,7.489 60.133,7.492 59.644,7.586 59.333,7.603 
		59.147,7.562 59.003,7.5 58.519,6.971 58.145,6.644 56.733,5.852 56.412,5.515 55.993,4.944 55.874,4.826 55.224,4.378 
		55.127,4.245 55.044,4.067 54.893,3.856 53.338,2.604 53.257,2.502 53.216,2.388 53.156,2.146 53.042,1.986 52.856,1.8 
		52.164,1.304 51.757,1.115 51.639,1.078 51.176,1.066 50.575,0.961 50.436,0.957 49.892,1.066 49.646,1.044 49.472,0.95 
		49.25,0.77 49.099,0.713 48.969,0.713 48.865,0.771 48.551,0.85 47.729,0.704 47.021,0.226 46.772,0.102 46.495,0.014 46.351,0 
		46.203,0.043 46.052,0.134 45.861,0.356 45.777,0.536 45.719,0.715 45.636,1.024 45.58,1.151 45.514,1.266 45.392,1.349 
		45.232,1.404 44.948,1.388 44.8,1.32 44.707,1.217 44.7,1.098 44.729,0.98 44.792,0.88 44.966,0.723 45.029,0.633 45.04,0.521 
		44.981,0.431 44.885,0.351 44.214,0.085 44.073,0.078 43.929,0.126 43.737,0.281 43.56,0.343 42.959,0.309 42.822,0.346 
		42.626,0.447 42.448,0.57 42.193,0.824 41.964,1.13 41.812,1.238 41.585,1.349 39.642,1.938 38.801,2.057 34.521,3.943 
		34.262,3.837 34.117,3.832 33.991,3.873 33.91,4.039 33.906,4.169 33.954,4.425 33.947,4.564 33.918,4.708 33.862,4.832 
		33.558,5.273 33.21,5.633 32.614,6.13 32.529,6.23 32.47,6.342 32.436,6.456 32.45,6.552 32.484,6.613 32.5,6.637 32.529,6.653 
		32.674,6.683 32.91,6.69 33.014,6.744 33.047,6.848 33.028,6.975 32.929,7.083 32.762,7.157 32.45,7.192 32.01,7.344 31.743,7.562 
		31.603,7.704 31.503,7.844 31.437,7.96 31.106,8.957 30.877,9.467 30.832,9.606 30.795,9.755 30.751,10.205 30.751,10.341 
		30.766,10.474 30.795,10.592 30.851,10.694 31.544,11.362 31.618,11.456 31.67,11.56 31.71,11.674 31.736,11.797 31.74,11.934 
		31.788,12.459 31.743,12.587 31.636,12.726 31.374,12.864 30.888,13.412 30.832,13.529 30.811,13.663 30.807,13.8 30.811,13.936 
		30.847,14.054 30.929,14.141 31.024,14.217 31.136,14.283 31.229,14.359 31.292,14.453 31.3,14.565 31.259,14.673 31.188,14.775 
		31.113,14.873 30.592,15.356 29.916,15.83 29.596,15.785 28.845,14.845 28.114,14.454 26.866,14.245 26.464,14.083 26.316,13.976 
		26.035,13.708 25.894,13.619 25.723,13.598 25.382,13.654 25.208,13.607 22.531,11.719 22.327,11.511 21.717,12.435 21.575,12.894 
		21.557,13.043 21.505,13.184 21.401,13.352 21.187,13.525 21.006,13.814 20.869,13.994 20.673,14.117 20.503,14.44 20.313,15.015 
		20.257,15.147 20.184,15.263 20.091,15.354 19.939,15.386 19.82,15.329 19.739,15.263 19.731,14.919 19.603,14.662 19.584,14.552 
		19.576,14.397 19.58,14.253 19.569,14.125 19.521,14.029 19.425,14.033 19.317,14.152 19.166,14.449 19.046,14.606 18.876,14.648 
		18.81,14.566 18.787,14.435 18.854,13.973 18.851,13.839 18.791,13.736 18.676,13.674 18.532,13.633 18.38,13.617 18.251,13.633 
		18.151,13.695 18.066,13.775 17.599,14.384 17.454,14.482 17.303,14.522 17.162,14.498 17.04,14.443 16.962,14.354 16.922,14.242 
		16.866,13.998 16.833,13.882 16.773,13.779 16.681,13.7 16.544,13.652 16.396,13.622 16.251,13.615 16.096,13.667 15.167,14.459 
		15.014,14.481 14.87,14.459 14.773,14.386 14.707,14.289 14.655,14.182 14.573,14.107 14.455,14.076 14.333,14.089 14.188,14.189 
		14.041,14.356 13.692,14.901 13.67,15.121 13.697,15.251 13.771,15.494 13.826,15.594 13.896,15.688 13.985,15.77 14.211,15.9 
		14.296,15.984 14.355,16.087 14.399,16.197 14.507,16.543 14.577,16.635 14.67,16.711 14.788,16.765 16.121,17 16.243,17.06 
		16.767,17.417 16.889,17.469 17.032,17.501 18.439,17.581 18.536,17.648 18.588,17.748 18.628,17.862 18.646,17.99 18.684,18.104 
		18.754,18.2 18.884,18.257 19.813,18.481 19.924,18.541 19.979,18.637 19.924,18.786 19.787,18.954 19.473,19.186 19.27,19.27 
		19.096,19.316 18.962,19.326 18.839,19.352 18.673,19.454 17.814,20.365 17.628,20.503 15.101,21.718 15.028,21.766 14.997,21.781 
		14.881,21.87 14.237,22.559 14.06,22.644 13.956,22.633 13.896,22.444 13.841,22.405 11.786,23.219 11.104,23.672 11.017,23.785 
		10.949,23.937 10.92,24.223 10.938,24.398 10.965,24.54 10.996,24.629 11.026,24.689 11.048,24.705 11.104,24.728 11.313,24.746 
		11.4,24.774 11.404,24.874 11.375,25.146 11.379,25.278 11.445,25.516 11.948,26.706 11.952,26.827 11.904,26.956 11.752,27.108 
		11.66,27.242 11.638,27.458 11.675,27.748 11.712,27.854 11.797,27.92 11.908,27.966 12.008,28.032 12.045,28.14 12.063,28.271 
		12.063,28.412 12.07,28.545 12.207,29.286 12.289,31.153 12.318,31.46 12.326,31.487 12.346,31.543 12.397,31.626 12.501,31.688 
		12.774,31.785 12.878,31.854 12.938,31.953 12.956,32.077 12.948,32.219 12.704,33.909 12.638,34.059 12.52,34.191 12.244,34.28 
		12.06,34.31 11.882,34.313 11.741,34.347 11.615,34.435 11.35,34.95 11.279,35.05 10.323,35.961 10.12,36.227 10.001,36.316 
		9.846,36.389 9.56,36.435 9.408,36.431 9.294,36.403 9.205,36.343 9.123,36.269 9.05,36.179 8.986,36.081 8.909,35.995 
		8.809,35.93 8.694,35.936 8.598,36.021 8.517,36.246 8.387,36.476 7.421,37.546 7.357,37.662 7.146,38.169 6.969,38.739 
		6.897,38.843 6.802,38.902 6.649,38.849 6.568,38.754 6.521,38.635 6.461,38.259 6.454,38.128 6.457,37.999 6.487,37.88 
		6.542,37.776 6.605,37.679 6.643,37.587 6.643,37.485 6.45,36.523 6.405,36.422 6.354,36.34 6.265,36.318 6.161,36.364 
		6.072,36.482 5.947,37.101 5.828,37.527 5.776,37.828 5.784,38.103 5.817,38.36 5.832,38.627 5.807,38.918 5.772,39.069 
		5.691,39.34 5.588,39.461 5.428,39.569 4.851,39.729 3.954,39.65 3.791,39.708 3.592,39.82 3.251,40.075 3.043,40.274 
		2.869,40.514 2.654,40.94 2.484,41.172 2.211,41.361 2.029,41.4 1.855,41.528 1.759,41.641 1.488,42.556 1.229,43.748 
		1.488,43.973 1.47,44.196 1.325,44.537 1.137,45.198 1.144,45.41 1.21,45.543 1.325,45.594 1.462,45.61 1.596,45.607 1.719,45.583 
		1.874,45.625 2.037,45.721 2.288,46.057 2.362,46.254 2.351,46.404 2.281,46.503 2.203,46.59 2.133,46.722 2.081,46.911 
		2.048,47.723 2.015,47.876 1.967,48.003 1.911,48.126 1.87,48.318 1.837,48.562 1.826,50.52 1.848,50.762 1.918,50.919 
		2.003,50.997 2.104,51.066 2.222,51.215 2.348,51.422 2.48,51.879 2.462,52.072 2.377,52.177 1.336,52.271 0.438,52.523 
		0.293,52.592 0.096,52.723 0,52.84 0,52.95 0.025,53.064 0.166,53.384 0.548,54.085 0.729,54.515 0.781,54.671 0.829,54.87 
		0.881,55.222 0.874,55.439 0.825,55.601 0.688,55.801 0.396,56.101 0.338,56.191 0.266,56.336 0.188,56.61 0.199,56.771 
		0.249,56.886 0.332,56.949 0.511,57.018 2.518,57.33 4.335,57.835 4.447,57.896 4.795,58.214 5.002,58.35 6.761,58.725 
		7.15,58.864 7.384,58.994 7.465,59.212 7.554,59.559 7.595,59.667 7.643,59.771 7.705,59.869 7.86,60.039 8.086,60.239 8.346,60.4 
		8.487,60.423 8.639,60.415 8.798,60.323 8.86,60.273 8.883,60.236 8.897,60.122 8.92,60.012 8.961,59.902 9.027,59.808 
		9.12,59.744 9.23,59.704 11.764,59.196 11.967,59.097 12.056,59.018 12.122,58.925 12.167,58.805 12.174,58.675 12.167,58.546 
		12.126,58.298 12.115,58.181 12.13,58.068 12.182,57.989 12.257,57.943 12.397,57.885 13.819,57.594 13.967,57.62 14.118,57.684 
		14.3,57.867 14.393,58.005 14.437,58.134 14.43,58.243 14.382,58.349 14.196,58.679 14.148,58.807 14.115,58.926 14.115,59.042 
		14.204,59.277 14.296,59.618 14.333,59.731 14.422,59.82 14.573,59.869 15.111,59.814 15.285,59.84 15.426,59.98 15.492,60.094 
		15.537,60.189 15.666,60.556 15.726,60.653 16.003,60.714 18.344,60.566 21.379,59.766 21.906,59.74 25.639,60.929 28.007,61.168 
		29.11,61.01 31.869,60.066 34.891,59.443 38.179,57.883 38.438,57.832 39.631,58.009 41.666,58.87 44.118,59.337 45.684,59.431 
		45.899,59.392 45.978,59.325 46.11,59.162 46.247,58.881 46.28,58.772 46.433,58.02 46.443,57.883 46.437,57.753 46.399,57.641 
		46.34,57.542 46.192,57.376 45.726,57.014 45.646,56.93 45.613,56.822 45.625,56.694 45.662,56.574 46.019,55.66 46.17,55.061 
		46.358,54.014 46.54,53.467 46.81,51.818 46.806,51.681 46.784,51.56 46.698,51.479 46.577,51.424 46.003,51.344 45.576,51.222 
		45.458,51.162 45.399,51.066 45.406,50.938 45.495,50.485 45.499,50.346 45.477,50.227 45.443,50.111 45.418,49.994 45.406,49.861 
		45.433,49.692 45.514,49.479 45.726,49.076 45.787,48.93 45.817,48.798 45.824,48.689 45.81,48.631 45.771,48.563 45.625,48.423 
		43.777,47.293 43.618,47.125 43.566,47.022 43.533,46.907 43.526,46.777 43.522,46.643 43.548,46.476 43.589,46.293 43.682,46.044 
		43.811,45.871 44.448,45.327 44.597,45.242 45.644,45.007 45.899,44.89 46.015,44.746 46.085,44.589 46.114,44.437 46.129,44.294 
		46.122,44.163 46.063,43.93 46.007,43.825 45.926,43.742 45.81,43.682 44.933,43.45 44.7,43.326 44.611,43.244 44.537,43.156 
		44.485,43.054 44.443,42.943 44.421,42.818 44.411,42.703 44.404,42.505 44.389,42.416 44.348,42.325 44.262,42.26 44.14,42.24 
		43.881,42.229 43.767,42.199 43.696,42.132 43.659,42.007 43.667,41.853 43.726,41.641 43.844,41.536 44.17,41.324 44.255,41.202 
		44.299,41.089 44.348,40.233 44.377,40.05 44.411,39.95 44.448,39.809 44.443,39.758 44.429,39.684 44.303,39.382 44.199,39.04 
		44.181,38.88 44.195,38.693 44.307,38.376 44.434,38.257 44.566,38.188 44.7,38.186 44.833,38.199 44.944,38.231 45.007,38.311 
		45.018,38.417 45.011,38.607 45.015,38.848 45.04,39.104 45.085,39.346 45.118,39.463 45.166,39.567 45.263,39.641 45.392,39.68 
		46.754,39.677 47.373,39.286 48.154,38.62 48.527,38.406 48.795,38.307 49.021,38.35 49.25,38.35 49.663,38.296 49.879,38.188 
		50.04,38.081 50.531,37.977 50.931,37.964 51.184,37.999 51.839,38.294 52.038,38.317 52.257,38.253 52.672,38.154 53.961,37.924 
		54.187,37.942 54.667,38.08 56.226,38.857 59.974,39.525 60.321,39.711 60.396,39.733 60.565,39.733 60.777,39.688 61.154,39.551 
		61.388,39.393 61.933,38.835 62.317,38.524 62.532,38.417 63.528,38.133 64.198,38.038 64.479,38.076 64.613,38.128 64.721,38.193 
		64.806,38.277 64.884,38.365 65.076,38.648 65.379,39.005 65.472,39.084 65.587,39.145 66.749,39.376 66.871,39.434 66.975,39.507 
		67.057,39.592 67.413,40.181 67.594,40.212 67.883,40.172 69.179,39.64 70.597,39.291 70.866,39.303 71,39.33 71.114,39.388 
		71.199,39.471 71.256,39.572 71.278,39.693 71.267,39.834 71.175,40.297 71.155,40.442 71.16,40.575 71.183,40.699 71.308,41.028 
		71.319,41.153 71.312,41.429 71.367,41.54 71.471,41.62 71.729,41.624 71.874,41.596 71.978,41.56 72.748,41.039 72.922,40.988 
		73.04,41.019 73.089,41.12 73.11,41.235 73.089,41.37 73.037,41.49 72.971,41.603 72.648,41.959 72.578,42.057 72.512,42.165 
		72.475,42.289 72.481,42.408 72.549,42.488 72.63,42.532 72.955,42.591 73.081,42.635 73.181,42.708 73.24,42.806 73.281,42.916 
		73.325,43.156 73.389,43.658 73.392,43.79 73.355,44.19 73.385,44.295 73.48,44.341 73.6,44.371 73.703,44.42 73.784,44.486 
		73.841,44.563 73.873,44.633 73.939,44.689 74.048,44.746 74.71,44.697 74.766,44.703 74.78,44.737 74.78,44.824 74.706,45.064 
		74.685,45.19 74.685,45.313 74.714,45.429 74.758,45.539 74.784,45.653 74.784,45.775 74.751,45.906 74.584,46.289 74.392,46.89 
		74.321,47.056 74.188,47.233 74.063,47.273 73.954,47.254 73.78,47.084 73.673,47.01 73.496,46.978 73.426,47.041 73.396,47.152 
		73.396,47.281 73.422,47.402 73.478,47.499 73.695,47.639 73.758,47.733 73.773,47.854 73.799,47.97 73.851,48.055 74.081,48.156 
		74.185,48.225 74.244,48.318 74.318,48.396 74.518,48.426 75.606,48.313 75.792,48.25 75.869,48.156 76.003,47.88 76.106,47.719 
		76.295,47.521 76.446,47.446 76.591,47.403 76.718,47.408 76.829,47.432 76.906,47.506 76.947,47.608 76.973,47.727 77.032,48.229 
		77.04,48.354 77.058,48.479 77.103,48.582 77.206,48.642 77.328,48.677 77.868,48.727 77.995,48.771 78.099,48.84 78.354,49.083 
		78.535,49.146 78.798,49.184 79.32,49.166 79.572,49.118 79.735,49.026 79.883,48.744 80.002,48.572 80.261,48.362 80.438,48.283 
		80.594,48.243 80.721,48.252 80.839,48.283 80.938,48.346 81.021,48.428 81.149,48.616 81.228,48.695 81.327,48.744 85.722,48.089 
		85.563,47.268 85.478,47.152 85.337,47.026 85.001,46.928 84.782,46.815 84.693,46.69 84.653,46.558 84.647,46.425 84.653,46.278 
		84.67,46.122 84.727,45.932 84.805,45.819 84.9,45.746 85.297,45.729 85.452,45.686 85.633,45.554 85.777,45.497 85.923,45.468 
		86.722,45.462 86.98,45.412 87.1,45.339 87.103,45.249 87.073,45.148 86.914,44.842 86.755,44.401 86.722,44.288 86.678,44.182 
		86.611,44.086 86.515,44.012 86.393,43.963 85.963,43.896 85.841,43.794 85.733,43.6 85.733,43.197 85.622,42.718 85.607,42.56 
		85.696,40.487 85.74,40.173 85.829,39.954 85.926,39.839 86.03,39.75 86.134,39.698 86.245,39.662 86.367,39.641 86.773,39.646 
		87.589,39.429 87.715,39.417 87.844,39.425 89.244,39.868 89.348,39.938 89.429,40.021 89.495,40.117 89.595,40.457 89.669,40.551 
		89.766,40.626 89.884,40.688 90.787,40.953 91.632,41.382 91.766,41.416 91.995,41.332 92.287,41.141 92.88,40.643 93.124,40.371 
		93.272,40.155 93.294,40.015 93.302,39.879 93.302,39.744 93.246,39.241 93.198,39.001 92.954,38.342 92.895,38.11 92.735,37.135 
		92.725,36.987 92.729,36.823 92.78,36.595 92.861,36.476 92.962,36.395 93.202,36.341 93.372,36.258 93.572,36.114 93.916,35.772 
		94.039,35.559 94.099,35.38 	"/>
</g>
<g id="Layer_1">
</g>
</svg>
