<?xml version="1.0" encoding="iso-8859-1"?>
<!-- Generator: Adobe Illustrator 16.0.3, SVG Export Plug-In . SVG Version: 6.00 Build 0)  -->
<!DOCTYPE svg PUBLIC "-//W3C//DTD SVG 1.1//EN" "http://www.w3.org/Graphics/SVG/1.1/DTD/svg11.dtd">
<svg version="1.1" xmlns="http://www.w3.org/2000/svg" xmlns:xlink="http://www.w3.org/1999/xlink" x="0px" y="0px"
	 width="60.238px" height="83.881px" viewBox="0 0 60.238 83.881" style="enable-background:new 0 0 60.238 83.881;"
	 xml:space="preserve">
<g id="Donetsk">
	<polygon style="fill-rule:evenodd;clip-rule:evenodd;fill:#6FA8DC;" points="60.226,47.04 60.193,46.762 59.985,46.617 
		59.871,46.515 59.767,46.373 59.66,46.114 59.652,45.797 59.719,44.618 59.66,44.295 59.56,44.096 57.33,43.581 55.627,43.616 
		55.398,43.519 55.099,43.337 54.498,42.803 54.269,42.537 54.146,42.315 54.169,42.178 54.206,42.033 54.258,41.896 54.38,41.646 
		54.59,41.312 54.649,41.164 54.683,40.977 54.646,40.658 54.572,40.491 54.476,40.365 53.095,39.561 50.096,38.422 49.589,38.1 
		49.456,37.952 49.392,37.808 49.404,37.67 49.456,37.382 49.524,37.093 49.539,36.959 49.508,36.84 49.471,36.731 49.1,35.882 
		48.992,35.541 48.918,35.175 48.807,34.839 48.67,34.551 48.563,34.435 48.438,34.39 46.049,34.621 45.675,34.541 45.367,34.397 
		45.233,34.275 45.159,34.148 45.053,33.672 44.904,33.26 44.834,32.999 44.826,32.878 44.83,32.771 44.882,32.687 44.945,32.644 
		45.016,32.619 46.104,32.437 46.2,32.399 46.297,32.341 46.382,32.265 46.459,32.166 46.515,32.052 46.552,31.93 46.57,31.818 
		46.57,31.742 46.519,31.572 46.189,30.908 45.956,30.569 45.448,30.157 45.312,30.01 45.219,29.879 45.182,29.767 45.159,29.648 
		45.101,29.447 45.004,29.189 44.745,28.715 44.575,28.537 44.438,28.494 44.35,28.574 44.192,28.768 44.109,28.845 44.008,28.903 
		43.882,28.913 43.741,28.886 43.427,28.684 43.29,28.646 43.161,28.641 42.983,28.601 42.774,28.507 42.453,28.263 42.327,28.096 
		42.261,27.938 42.257,27.672 42.271,27.397 42.338,26.957 42.416,26.659 42.479,26.484 42.493,26.453 42.527,26.342 42.567,26.069 
		42.563,25.913 42.542,25.729 42.457,25.623 42.334,25.551 41.969,25.463 41.665,25.332 41.416,25.157 41.309,25.02 41.257,24.877 
		41.264,24.741 41.297,24.595 41.45,24.169 41.49,24.019 41.495,23.822 41.443,23.599 41.153,22.839 41.105,22.675 41.112,22.519 
		41.164,22.234 41.168,22.127 41.16,22.058 41.05,21.484 40.986,20.584 40.99,20.448 41.017,20.312 41.061,20.188 41.108,20.085 
		41.146,20.026 41.29,19.858 41.831,19.382 42.213,18.871 42.282,18.73 42.338,18.576 42.364,18.356 42.301,18.243 42.194,18.197 
		42.068,18.201 41.599,18.31 41.482,18.285 41.436,18.192 41.408,18.091 41.413,17.906 41.421,17.789 41.445,17.653 41.487,17.512 
		41.55,17.387 41.843,16.957 41.976,16.719 42.087,16.45 42.127,16.272 42.108,16.021 42.013,15.638 41.798,15.241 41.721,15.003 
		41.717,14.806 41.758,14.636 41.769,14.391 41.721,14.248 41.617,14.151 41.331,14.079 41.19,14.067 40.857,13.965 40.653,13.829 
		40.565,13.703 40.528,13.562 40.528,13.023 40.495,12.773 40.421,12.412 40.144,11.572 40.064,11.181 39.136,10.887 36.429,10.706 
		36.273,10.666 36.121,10.576 35.892,10.34 35.725,10.227 35.563,10.168 35.429,10.144 35.288,10.082 35.244,9.973 35.255,9.833 
		35.3,9.694 35.358,9.562 35.429,9.453 35.518,9.374 35.64,9.347 35.917,9.361 36.018,9.32 36.06,9.215 36.066,9.093 36.081,8.971 
		36.121,8.88 36.226,8.845 36.61,8.817 36.718,8.775 36.811,8.702 36.865,8.595 36.896,8.488 36.906,8.43 36.906,8.379 
		36.902,8.293 36.211,6.617 36.069,6.182 36.029,5.886 36.099,5.782 36.352,5.507 36.426,5.402 36.488,5.279 36.532,5.134 
		36.563,4.986 36.551,4.722 36.54,4.593 36.536,4.458 36.559,4.173 36.725,3.233 36.732,3.047 36.644,2.974 36.525,2.945 
		35.544,2.894 35.429,2.925 35.325,2.988 34.703,3.554 34.603,3.622 34.492,3.654 34.366,3.647 34.244,3.611 33.589,3.171 
		32.552,2.747 32.345,2.601 32.274,2.462 32.271,2.306 32.404,1.852 32.456,1.721 32.522,1.616 32.622,1.561 33.281,1.527 
		33.4,1.472 33.477,1.388 33.467,1.172 33.366,1.082 33.229,1.014 32.793,0.959 32.656,0.922 32.545,0.863 32.467,0.775 
		32.334,0.581 32.183,0.396 31.903,0.149 31.682,0.029 31.408,0 31.326,0.345 31.312,0.474 31.278,0.639 31.208,0.776 31.086,0.882 
		30.683,0.956 29.59,0.998 26.534,0.125 24.24,0.165 24.098,0.24 23.962,0.375 23.203,1.651 23.236,1.74 23.325,1.813 23.45,1.869 
		23.728,1.941 24.632,2.056 25.149,2.024 25.271,2.054 25.36,2.125 25.435,2.216 25.754,2.71 25.802,2.81 25.735,2.97 25.536,3.171 
		20.107,6.519 20.004,6.634 19.877,6.801 19.703,7.165 19.633,7.383 19.6,7.569 19.585,7.71 19.511,7.857 19.385,7.982 18.815,8.21 
		18.689,8.319 18.552,8.479 18.152,9.155 18.126,9.285 18.155,9.398 18.229,9.49 18.43,9.646 18.488,9.745 18.488,9.876 
		18.43,10.168 18.418,10.309 18.448,10.427 18.5,10.531 18.625,10.732 18.667,10.842 18.692,10.959 18.689,11.087 18.61,11.216 
		18.47,11.315 18.192,11.403 17.534,11.404 17.37,11.488 16.46,12.136 16.367,12.245 16.227,12.586 16.127,12.909 16.056,13.016 
		15.957,13.099 15.767,13.141 15.63,13.236 15.501,13.447 15.456,13.617 15.441,13.776 15.52,14.404 15.512,14.525 15.416,14.64 
		15.257,14.737 14.712,14.876 14.526,14.886 14.39,14.862 14.264,14.813 14.156,14.74 14.067,14.654 13.99,14.563 13.79,14.275 
		13.698,14.197 13.576,14.145 13.442,14.122 13.306,14.131 13.183,14.159 13.067,14.243 12.964,14.372 12.868,14.626 12.831,14.811 
		12.805,14.983 12.771,15.127 12.687,15.243 12.558,15.316 12.324,15.315 12.165,15.271 11.901,15.147 11.775,15.11 11.631,15.168 
		11.49,15.291 11.209,15.719 11.146,15.86 11.143,15.974 11.15,16.084 11.188,16.164 11.231,16.219 11.313,16.288 11.823,16.518 
		11.927,16.59 11.991,16.687 11.994,16.821 11.964,16.963 11.879,17.08 11.757,17.147 11.531,17.122 11.398,17.055 11.295,16.979 
		11.225,16.905 11.169,16.859 8.876,15.69 8.584,15.63 8.447,15.63 8.203,15.681 7.981,15.767 7.869,15.831 7.536,16.113 
		7.288,16.391 7.021,16.631 6.903,16.659 5.771,16.583 5.478,16.499 4.759,16.114 4.467,16.051 4.196,16.053 4.071,16.091 
		3.959,16.172 3.852,16.321 3.792,16.475 3.804,16.772 3.87,17.169 4.252,18.751 4.278,19.056 4.282,19.69 4.233,20.683 
		4.289,21.088 4.637,21.94 4.715,22.281 4.729,22.397 4.755,22.543 4.796,22.654 4.852,22.75 4.944,22.816 5.063,22.833 
		5.903,22.671 6.018,22.682 6.11,22.74 6.177,22.829 6.192,22.942 6.174,23.051 6.063,23.153 5.855,23.299 5.773,23.389 
		5.522,23.887 5.407,23.976 5.301,24.046 5.207,24.169 5.154,24.377 5.144,25.061 5.158,25.252 5.188,25.357 5.251,25.417 
		5.353,25.424 6.104,25.339 6.21,25.294 6.299,25.217 6.366,25.099 6.418,24.954 6.588,24.165 6.645,23.985 6.752,23.751 
		6.874,23.655 7,23.601 8.043,23.506 8.303,23.549 8.399,23.617 8.458,23.712 8.503,23.822 8.532,23.939 8.577,24.321 8.613,25.107 
		8.588,25.247 8.532,25.384 8.369,25.527 8.114,25.664 7.787,25.794 7.71,25.874 7.673,25.995 7.729,26.338 7.762,26.457 
		7.787,26.532 7.81,26.624 7.813,26.73 7.766,26.846 7.644,26.949 7.414,27.078 7.329,27.178 7.262,27.316 7.251,28.423 
		7.321,28.558 7.518,28.733 7.543,28.837 7.437,28.995 7.329,29.093 6.777,29.347 6.688,29.438 6.63,29.583 6.637,29.867 
		6.659,30.051 6.767,30.541 6.87,31.579 6.855,31.757 6.711,32.534 6.698,32.715 6.719,32.84 6.756,32.954 6.811,33.052 
		6.893,33.118 7.003,33.138 7.11,33.105 7.321,33.012 7.565,32.961 7.695,32.961 7.813,32.979 7.909,33.032 7.966,33.124 
		8.003,33.233 8.028,33.349 8.073,33.44 8.166,33.478 8.71,33.563 8.828,33.623 8.898,33.717 8.936,33.833 8.969,34.217 
		9.01,34.462 9.076,34.689 9.132,34.928 9.34,36.313 9.348,36.421 9.364,36.533 9.38,36.658 9.447,37.024 9.451,37.153 
		9.392,37.332 9.269,37.546 8.925,37.888 8.725,38.031 8.555,38.114 8.314,38.168 8.214,38.249 8.133,38.368 8.081,38.597 
		8.077,38.761 8.088,38.908 8.247,39.884 8.307,40.115 8.551,40.774 8.599,41.015 8.654,41.518 8.654,41.652 8.646,41.788 
		8.625,41.929 8.477,42.145 8.232,42.416 7.64,42.914 7.348,43.105 7.118,43.189 6.984,43.155 6.14,42.727 5.236,42.462 
		5.118,42.399 5.021,42.324 4.947,42.23 4.848,41.891 4.781,41.795 4.7,41.712 4.597,41.642 3.196,41.198 3.067,41.19 2.941,41.202 
		2.126,41.42 1.72,41.414 1.598,41.436 1.486,41.472 1.383,41.523 1.278,41.612 1.182,41.728 1.093,41.946 1.049,42.261 
		0.96,44.333 0.975,44.491 1.086,44.971 1.086,45.373 1.193,45.567 1.315,45.67 1.745,45.736 1.867,45.785 1.964,45.859 
		2.03,45.955 2.074,46.062 2.107,46.175 2.267,46.615 2.426,46.922 2.455,47.022 2.452,47.112 2.333,47.186 2.074,47.235 
		1.275,47.241 1.13,47.271 0.985,47.327 0.805,47.459 0.649,47.503 0.253,47.52 0.157,47.593 0.079,47.705 0.022,47.896 
		0.006,48.052 0,48.198 0.006,48.331 0.046,48.464 0.135,48.589 0.354,48.701 0.689,48.8 0.83,48.926 0.915,49.041 1.074,49.862 
		1.093,51.321 1.256,51.733 1.505,51.846 1.782,51.907 2.049,51.912 2.671,51.79 2.827,51.792 2.908,51.859 2.956,51.96 
		2.997,52.205 3.041,52.715 3.107,52.946 3.773,54.405 4.104,55.291 4.241,55.495 4.393,55.625 5.003,55.776 5.158,55.854 
		5.203,55.95 5.185,56.03 5.103,56.096 4.899,56.193 4.674,56.259 4.574,56.333 4.508,56.459 4.537,56.771 4.597,56.943 
		4.682,57.069 4.792,57.127 5.21,57.211 5.28,57.303 5.301,57.427 5.273,57.57 5.195,57.888 5.177,58.074 5.195,58.318 
		5.273,58.438 5.389,58.489 5.618,58.445 6.366,58.137 6.632,58.302 7.033,58.645 7.966,59.686 8.369,60.053 8.644,60.23 
		8.735,60.164 8.902,60.002 9.536,59.52 9.681,59.504 9.857,59.543 10.892,60.173 11.08,60.351 11.694,61.171 13.572,62.804 
		13.643,62.893 14.108,63.62 14.26,63.741 14.39,63.768 14.475,63.703 14.545,63.613 14.623,63.388 14.704,63.316 14.82,63.295 
		15.826,63.457 16.234,63.449 16.419,63.496 16.46,63.598 16.445,63.714 16.386,63.838 16.004,64.517 15.959,64.642 15.944,64.766 
		15.952,65.075 15.93,65.22 15.693,65.7 15.593,65.967 15.557,66.113 15.538,66.255 15.53,66.393 15.563,66.673 15.597,66.845 
		15.615,66.977 15.604,67.101 15.541,67.189 15.464,67.269 15.271,67.385 15.179,67.427 15.094,67.441 15.031,67.383 14.982,67.294 
		14.938,67.191 14.827,66.993 14.761,66.897 14.607,66.722 14.526,66.644 14.423,66.576 14.309,66.528 14.193,66.505 14.119,66.501 
		14.02,66.512 13.92,66.543 13.731,66.662 13.653,66.749 13.579,66.85 13.476,67.115 13.387,67.41 13.335,67.545 13.283,67.652 
		13.071,67.999 13.02,68.125 12.976,68.254 12.957,68.392 12.972,68.774 12.961,68.905 12.916,69.031 12.846,69.12 12.75,69.186 
		11.879,69.488 11.376,69.511 10.928,69.45 10.649,69.363 10.55,69.289 10.476,69.204 10.391,69.135 10.283,69.102 10.043,69.096 
		9.925,69.068 9.836,69.001 9.754,68.928 9.673,68.874 9.569,68.873 9.466,68.899 9.266,69.007 9.176,69.113 9.113,69.268 
		9.136,69.626 9.244,69.924 9.603,70.679 9.666,70.87 9.71,71.116 9.784,71.998 9.766,72.125 9.725,72.241 9.65,72.325 
		9.559,72.386 9.343,72.46 8.085,72.563 7.954,72.591 7.851,72.652 7.766,72.776 7.776,72.884 7.817,72.988 7.954,73.171 
		8.54,73.744 8.747,73.88 9.77,74.319 10.205,74.589 10.295,74.666 10.413,74.814 10.784,75.445 10.969,75.839 11.25,76.874 
		11.343,77.104 11.45,77.255 12.283,77.935 12.361,77.983 12.442,77.967 12.509,77.877 12.639,77.657 12.713,77.571 12.79,77.52 
		12.879,77.537 12.957,77.598 13.36,78.014 13.724,78.255 13.846,78.362 14.016,78.563 14.064,78.712 14.046,78.84 13.972,78.928 
		13.709,79.151 13.539,79.346 13.428,79.514 13.424,79.545 13.92,80.39 13.949,80.595 13.92,80.741 13.568,81.019 13.469,81.076 
		13.365,81.114 13.249,81.11 13.135,81.071 12.908,80.95 12.794,80.905 12.664,80.903 12.55,80.958 12.409,81.049 12.32,81.153 
		11.639,81.785 11.561,81.876 11.487,81.982 11.417,82.097 11.376,82.266 11.387,82.394 11.417,82.514 12.089,83.84 12.09,83.843 
		12.3,83.805 15.061,82.714 16.156,81.86 16.606,81.741 17.411,81.892 18.238,82.325 18.763,83.002 18.657,83.881 19.188,83.641 
		19.582,83.073 20.207,81.85 22.712,78.291 24.227,76.697 25.046,76.39 28.138,76.957 29.163,76.919 31.736,76.002 33.868,76.36 
		34.146,76.196 34.756,76.336 35.676,76.697 35.89,76.603 36.508,76.23 36.64,76.121 36.758,76.062 37.541,76.697 38.154,76.939 
		38.162,77.507 37.63,78.626 38.445,78.231 39.735,76.421 40.217,75.946 40.221,75.94 40.221,75.94 39.857,74.979 39.751,73.873 
		39.906,72.825 40.36,72.023 40.809,71.718 41.35,71.452 41.845,71.115 42.165,70.594 42.232,69.893 42.015,69.507 41.63,69.339 
		41.198,69.307 40.309,69.445 39.848,69.381 39.554,69.018 39.599,68.459 39.904,67.837 40.619,66.861 41.206,65.778 41.342,64.778 
		41.263,62.271 41.599,61.042 42.052,59.811 42.664,58.805 43.473,58.248 48.467,57.559 49.073,57.288 49.52,56.908 50.402,55.902 
		50.852,55.558 51.227,55.491 52.065,55.825 52.578,55.774 52.832,55.211 53.026,53.724 53.448,52.107 54.05,50.723 54.879,49.72 
		55.983,49.259 59.776,49.409 59.778,49.397 59.822,49.095 60.238,47.267 	"/>
</g>
<g id="Layer_1">
</g>
</svg>
