<?xml version="1.0" encoding="iso-8859-1"?>
<!-- Generator: Adobe Illustrator 16.0.3, SVG Export Plug-In . SVG Version: 6.00 Build 0)  -->
<!DOCTYPE svg PUBLIC "-//W3C//DTD SVG 1.1//EN" "http://www.w3.org/Graphics/SVG/1.1/DTD/svg11.dtd">
<svg version="1.1" xmlns="http://www.w3.org/2000/svg" xmlns:xlink="http://www.w3.org/1999/xlink" x="0px" y="0px"
	 width="50.431px" height="65.316px" viewBox="0 0 50.431 65.316" style="enable-background:new 0 0 50.431 65.316;"
	 xml:space="preserve">
<g id="Ivano-Frankivsk">
	<polygon style="fill-rule:evenodd;clip-rule:evenodd;fill:#6FA8DC;" points="50.279,29.668 50.052,29.372 49.985,29.318 
		50.004,29.249 50.027,28.908 50.112,28.675 50.256,28.566 50.282,28.353 50.027,27.81 49.875,27.679 49.213,27.295 48.502,26.605 
		48.095,26.403 47.486,26.331 47.072,26.195 46.518,25.864 46.012,25.455 45.747,25.076 45.924,24.863 46.051,24.622 46.25,24.109 
		46.042,24.068 45.673,23.883 45.518,23.84 45.309,23.941 45.299,24.171 45.34,24.422 45.289,24.582 44.898,24.672 44.576,24.573 
		44.285,24.416 43.984,24.334 43.506,24.396 43.393,24.577 43.449,24.891 43.496,25.345 43.459,25.867 43.385,25.899 43.199,25.779 
		42.83,25.837 41.623,27.04 40.998,27.265 40.711,26.331 40.977,25.729 42.324,25.345 42.83,24.851 41.539,24.236 40.977,24.22 
		40.386,24.851 40.312,24.21 40.419,23.231 40.633,22.322 40.874,21.886 40.874,21.617 40.527,21.59 40.246,21.687 39.719,22.11 
		39.521,22.364 39.378,22.622 39.301,22.92 39.256,23.33 39.152,23.779 38.96,24.001 38.649,23.728 38.077,22.818 37.943,22.477 
		37.927,22.11 38.104,21.507 38.084,21.146 37.863,20.892 36.608,20.128 36.238,20.061 35.248,20.269 34.832,20.231 34.488,19.959 
		34.15,19.39 34.039,19.071 34.012,18.839 33.971,18.625 33.824,18.376 33.628,18.216 32.846,17.903 32.595,17.712 32.564,17.684 
		32.518,17.574 32.48,17.453 32.473,17.315 32.484,17.181 32.521,17.054 32.595,16.965 32.709,16.914 32.839,16.894 32.99,16.897 
		33.27,16.963 33.949,17.31 34.205,17.389 34.338,17.397 34.465,17.377 34.576,17.332 34.665,17.252 34.739,17.16 34.802,17.054 
		34.839,16.93 34.836,16.8 34.802,16.681 34.746,16.577 34.698,16.464 34.665,16.337 34.646,16.2 34.643,15.897 34.621,15.717 
		34.568,15.528 34.445,15.261 34.334,15.122 34.217,15.028 33.487,14.9 33.031,14.675 32.905,14.658 32.783,14.685 32.676,14.738 
		32.48,14.885 32.391,14.968 32.28,15.041 32.15,15.092 31.929,15.075 31.809,15.001 31.726,14.902 31.668,14.795 31.632,14.673 
		31.602,14.541 31.602,14.391 31.613,14.234 31.657,13.927 31.668,13.771 31.668,13.622 31.65,13.483 31.48,13.009 31.454,12.891 
		31.458,12.761 31.487,12.633 31.551,12.53 31.625,12.436 31.988,12.132 32.063,12.039 32.121,11.922 32.166,11.798 32.191,11.65 
		32.206,11.497 32.21,11.344 32.203,11.195 32.184,11.054 32.125,10.791 32.029,10.446 31.926,10.188 31.836,10.034 31.824,10.026 
		31.324,9.839 31.213,9.727 31.15,9.595 31.125,9.459 31.088,9.024 30.977,8.337 30.906,8.082 30.858,7.968 30.821,7.843 
		30.795,7.713 30.799,7.566 30.825,7.423 30.869,7.292 30.988,7.068 31.025,6.934 31.021,6.772 30.873,6.402 30.755,6.169 
		30.336,4.971 29.962,4.239 28.019,1.205 27.678,1.242 27.559,1.216 27.422,1.168 27.215,1.033 27.104,0.986 26.988,0.966 
		26.771,1.024 26.652,1.012 26.561,0.966 26.455,0.892 26.359,0.783 25.826,0.315 25.615,0.184 25.367,0.087 25.096,0.025 24.804,0 
		22.998,0.48 22.731,0.484 21.883,0.292 21.738,0.292 21.616,0.329 21.483,0.459 21.342,0.657 21.128,1.081 21.034,1.319 
		21.008,1.512 21.042,1.632 21.217,1.953 21.306,2.19 21.339,2.315 21.357,2.457 21.35,2.607 21.324,2.754 21.187,3.033 
		20.464,4.207 20.324,4.559 20.294,4.791 20.379,4.876 21.121,5.327 21.206,5.413 21.261,5.515 21.269,5.654 21.247,5.79 
		21.135,5.957 20.357,6.742 20.128,7.085 19.965,7.263 19.683,7.417 19.357,7.483 18.835,7.491 18.565,7.538 18.087,7.709 
		17.995,7.81 17.913,7.94 17.873,8.179 17.88,8.347 17.921,8.484 17.983,8.588 18.069,8.68 18.172,8.741 18.302,8.756 18.42,8.726 
		18.532,8.673 18.628,8.605 19.121,8.157 19.25,8.085 19.387,8.07 19.513,8.104 19.72,8.23 19.806,8.313 19.869,8.407 19.906,8.524 
		19.888,8.667 19.828,8.826 19.71,9.036 19.638,9.191 19.598,9.35 19.594,9.495 19.664,10.367 19.823,10.529 20.381,10.7 
		20.83,10.742 21.113,10.579 21.302,10.853 21.742,11.436 21.794,11.553 21.805,11.69 21.79,11.83 21.742,11.954 21.675,12.076 
		21.524,12.219 21.287,12.392 20.827,12.574 20.602,12.599 20.428,12.571 20.328,12.518 20.191,12.488 20.043,12.475 19.895,12.483 
		19.631,12.534 18.688,12.891 17.676,13.496 17.433,13.596 16.91,13.718 16.31,13.678 16.044,13.72 14.922,14.228 14.644,14.248 
		14.5,14.228 13.456,13.883 13.163,13.842 13.026,13.86 12.777,13.933 11.705,14.712 11.422,14.848 11.226,14.902 10.37,14.522 
		10.089,14.481 9.959,14.503 9.801,14.6 9.279,15.043 9.068,15.166 8.896,15.238 7.687,15.294 5.295,14.957 4.909,15.021 
		4.668,15.108 4.25,15.343 3.836,15.694 3.699,15.851 3.609,15.98 3.55,16.115 2.925,18.016 2.74,18.461 2.596,18.739 2.169,19.114 
		2.069,19.227 1.551,19.685 1.163,19.952 1.041,20.267 0.492,22.915 0.392,23.151 0.37,23.297 0.384,23.461 0.484,23.665 
		0.725,23.998 0.839,24.208 0.888,24.323 0.925,24.446 0.999,24.846 1.013,25.145 0,29.123 0.977,29.407 1.899,29.839 3.38,31.617 
		3.821,31.97 4.025,32.028 4.202,32.031 4.565,31.909 4.831,31.857 5.128,31.852 5.432,31.892 5.694,31.969 5.816,32.061 
		5.909,32.208 5.968,32.509 5.968,32.699 5.92,33.021 5.909,33.172 5.917,33.318 5.938,33.455 6.027,33.617 6.171,33.801 
		7.497,34.915 7.719,35.03 7.92,35.096 8.22,35.142 8.342,35.185 8.449,35.246 8.638,35.39 8.715,35.475 8.815,35.617 8.922,35.809 
		9.085,36.184 9.142,36.416 9.161,36.618 9.107,36.909 9.071,37.024 9.011,37.163 8.956,37.436 8.938,37.577 8.938,37.72 
		8.963,37.849 9.041,37.978 9.172,38.093 9.438,38.214 9.619,38.241 9.778,38.235 10.012,38.146 10.204,38.021 10.289,37.94 
		10.682,37.507 11.182,37.167 12.249,36.989 12.696,36.795 13.862,36.015 13.977,35.973 14.103,35.953 14.232,35.973 14.336,36.056 
		14.415,36.186 14.432,36.443 14.422,36.631 14.378,36.943 14.366,37.158 14.378,37.41 14.393,37.548 14.459,37.799 14.507,38.06 
		14.504,38.206 14.484,38.353 14.459,38.497 14.422,38.633 14.277,39.523 14.27,39.828 14.306,40.258 14.474,41.341 14.507,41.478 
		14.596,41.652 14.751,41.874 15.044,42.161 15.225,42.302 15.388,42.385 16.118,42.523 16.732,42.531 17.27,42.439 17.499,42.352 
		17.606,42.294 17.791,42.161 17.943,41.978 18.069,41.774 18.128,41.663 18.272,41.298 18.344,41.211 18.435,41.178 18.532,41.211 
		18.621,41.28 18.78,41.446 19.062,41.661 19.157,41.808 19.246,42.013 19.332,42.451 19.361,42.708 19.398,42.9 19.457,42.996 
		19.568,43.023 20.165,43.038 20.332,43.104 20.49,43.226 20.694,43.487 20.945,43.737 21.417,44.096 22.957,45.533 23.064,45.664 
		23.138,45.782 23.578,46.658 24.068,47.456 24.108,47.586 24.116,47.738 24.049,47.973 23.913,48.251 23.787,48.456 23.674,48.681 
		23.63,48.808 23.593,48.944 23.575,49.098 23.585,49.291 23.63,49.507 23.757,49.834 23.841,50.016 23.994,50.249 25.626,51.883 
		26.426,53.018 26.445,53.159 26.4,53.344 25.183,55.182 25.044,55.593 24.804,56.83 24.745,57.258 24.744,57.266 25.666,57.811 
		26.268,58.295 26.641,58.759 26.801,59.323 26.822,59.788 26.932,60.225 27.353,60.712 28.156,61.216 30.086,61.976 30.434,62.285 
		30.731,62.697 31.535,64.146 32.093,65.01 32.541,65.316 33.312,65.18 33.311,65.165 33.303,64.737 33.311,64.561 33.398,63.761 
		33.436,63.647 34.555,61.128 34.643,60.844 34.646,60.703 34.643,60.561 34.621,60.423 34.595,60.295 34.555,60.179 34.364,59.741 
		34.301,59.497 34.279,59.363 34.279,58.612 34.257,58.479 34.228,58.353 34.18,58.245 34.124,58.146 33.766,57.695 33.702,57.598 
		33.65,57.493 33.454,56.905 33.41,56.646 33.381,56.066 33.28,55.405 33.284,55.263 33.295,55.145 33.361,54.823 33.447,54.559 
		34.524,52.523 34.643,52.23 34.725,51.612 34.75,51.472 34.854,51.297 35.023,51.109 35.424,50.815 35.668,50.711 36.117,50.586 
		36.221,50.532 36.309,50.459 37.546,49.002 37.801,48.802 38.008,48.701 38.152,48.688 38.278,48.651 38.359,48.564 38.382,48.397 
		38.349,48.27 38.252,48.04 38.211,47.923 38.189,47.794 38.171,47.653 38.178,47.352 38.193,47.198 38.223,47.056 38.264,46.927 
		38.371,46.771 38.535,46.602 38.883,46.329 39.227,46.142 39.492,46.041 39.689,45.882 41.992,42.9 43.83,41.469 44.714,41.063 
		45.684,40.758 46.77,40.626 47.254,40.656 47.531,40.727 48.018,40.918 48.25,41.06 48.461,41.154 48.594,41.178 48.731,41.176 
		48.857,41.119 48.972,41.016 49.086,40.801 49.179,40.511 49.336,39.591 49.465,36.396 49.432,36.01 48.794,34.271 48.547,33.251 
		48.49,32.824 48.502,32.667 48.543,32.478 48.668,32.191 48.779,32.021 49.002,31.752 49.291,31.479 50.189,30.766 50.215,30.566 
		50.352,30.356 50.431,30.076 	"/>
</g>
<g id="Layer_1">
</g>
</svg>
