<?xml version="1.0" encoding="iso-8859-1"?>
<!-- Generator: Adobe Illustrator 16.0.3, SVG Export Plug-In . SVG Version: 6.00 Build 0)  -->
<!DOCTYPE svg PUBLIC "-//W3C//DTD SVG 1.1//EN" "http://www.w3.org/Graphics/SVG/1.1/DTD/svg11.dtd">
<svg version="1.1" xmlns="http://www.w3.org/2000/svg" xmlns:xlink="http://www.w3.org/1999/xlink" x="0px" y="0px"
	 width="77.299px" height="69.771px" viewBox="0 0 77.299 69.771" style="enable-background:new 0 0 77.299 69.771;"
	 xml:space="preserve">
<g id="Kharkiv">
	<polygon style="fill-rule:evenodd;clip-rule:evenodd;fill:#6FA8DC;" points="77.254,21.639 76.784,21.359 76.688,21.278 
		76.606,21.187 76.466,20.991 76.407,20.89 76.024,19.985 75.947,19.642 75.916,19.42 75.379,19.766 75.271,19.541 75.258,18.969 
		74.893,18.295 74.868,18.226 74.094,16.867 73.361,15.938 72.548,15.207 71.617,14.611 69.724,13.742 68.87,13.144 66.584,9.603 
		65.756,8.754 65.593,8.499 65.553,8.097 65.622,7.699 65.861,6.817 65.805,5.259 65.064,4.452 62.961,3.427 62.574,2.438 
		62.251,1.228 61.894,0.259 61.415,0 59.018,0.332 58.313,0.62 56.916,2.045 56.209,2.593 52.741,3.603 51.032,3.348 49.456,3.462 
		47.896,4.036 43.935,6.384 43.629,6.669 43.404,7.009 43.021,7.813 42.817,8.118 42.365,8.403 41.828,8.476 41.271,8.384 
		40.758,8.188 40.402,7.899 40.331,7.569 40.386,7.202 40.438,6.375 40.504,6.221 40.444,6.128 40.079,5.884 39.865,5.797 
		39.103,5.632 38.447,5.159 37.919,5.035 37.429,4.749 37.194,4.671 36.903,4.679 36.735,4.768 36.27,5.229 35.746,5.609 
		35.182,5.855 34.612,5.886 34.064,5.613 31.685,1.798 31.004,1.453 30.824,0.756 30.17,0.401 26.02,0.063 23.766,0.322 
		23.334,0.479 23.001,0.735 22.527,1.395 22.261,1.679 22.047,1.768 21.588,1.789 21.386,1.877 20.993,2.357 20.732,2.845 
		20.411,3.236 20.3,3.273 20.266,3.491 20.231,3.626 20.177,3.786 20.11,3.915 20.035,4.022 19.946,4.108 19.795,4.176 
		19.592,4.223 19.203,4.236 18.75,4.178 17.992,3.953 17.811,3.97 17.565,4.03 17.188,4.213 16.489,4.276 15.729,4.12 15.666,4.144 
		15.611,4.213 15.626,4.355 15.674,4.458 15.848,4.679 15.892,4.777 15.873,4.867 15.773,4.906 15.566,4.839 13.948,3.814 
		13.689,3.696 13.54,3.664 13.396,3.664 13.263,3.713 13.167,3.814 13.111,4.032 13.104,4.195 13.111,4.775 13.101,4.918 
		13.06,5.06 12.979,5.158 12.859,5.21 12.671,5.181 12.526,5.124 11.938,4.775 11.812,4.724 11.638,4.746 11.438,4.844 
		11.139,5.137 11.083,5.307 11.094,5.449 11.164,5.538 11.216,5.628 11.212,5.711 11.153,5.797 11.05,5.859 10.904,5.897 
		10.201,5.726 10.094,5.763 9.979,5.85 9.809,6.076 9.738,6.24 9.728,6.39 9.757,6.507 9.839,6.742 9.861,6.872 9.861,6.996 
		9.82,7.117 9.742,7.209 9.553,7.298 8.698,7.463 8.428,7.438 8.239,7.382 8.127,7.307 7.628,7.055 7.324,6.99 7.014,6.967 
		6.835,7.033 6.653,7.163 6.388,7.498 6.266,7.724 6.18,7.919 6.136,8.08 6.084,8.222 6.002,8.325 5.898,8.376 5.732,8.313 
		5.387,8.084 5.206,8.132 5.006,8.286 4.681,8.695 4.606,8.912 4.6,9.084 4.64,9.198 4.658,9.317 4.636,9.448 4.592,9.582 
		4.507,9.688 4.381,9.734 4.161,9.676 3.902,9.521 3.592,9.285 3.429,9.11 3.362,9.014 3.292,8.939 3.192,8.939 3.07,9.036 
		2.861,9.526 2.763,9.872 2.61,10.047 2.48,10.169 1.593,10.648 1.808,11.15 1.822,13.194 1.774,13.685 1.711,13.998 1.56,14.207 
		0.493,15.259 0.271,15.57 0.029,15.989 0,16.058 0.363,17.07 0.396,17.194 0.537,18.194 0.655,18.415 0.774,18.568 0.866,18.65 
		1.114,19.106 1.226,19.222 1.362,19.3 1.808,19.421 1.922,19.487 2.019,19.571 2.248,19.847 2.443,20.001 2.563,20.071 
		2.699,20.125 3.004,20.174 3.987,20.168 4.145,20.25 4.318,20.376 4.64,20.817 4.755,20.939 6.239,21.691 6.535,21.733 
		6.665,21.716 6.783,21.676 7.08,21.473 7.195,21.43 7.32,21.409 7.461,21.422 7.598,21.467 7.75,21.561 8.149,21.954 8.262,22.123 
		8.343,22.269 8.391,22.518 8.402,22.794 8.328,23.829 8.347,24.382 8.372,24.559 8.517,25.148 8.613,25.391 8.698,25.554 
		8.794,25.648 9.279,25.971 9.364,26.105 9.412,26.243 9.439,26.725 9.486,26.965 9.595,27.082 9.731,27.157 10.39,27.271 
		10.475,27.382 10.516,27.527 10.542,27.716 10.612,27.831 10.734,27.894 11.938,28.256 12.241,28.303 12.368,28.293 12.453,28.226 
		12.516,28.105 12.608,27.809 12.675,27.687 12.764,27.608 12.882,27.57 13.612,27.589 13.797,27.636 13.894,27.726 13.945,27.844 
		14,28.229 14.012,28.351 14,28.46 13.927,28.528 13.727,28.632 13.652,28.716 13.638,28.833 13.648,28.953 13.716,29.196 
		13.801,29.436 14.86,31.46 15.063,31.959 15.119,32.26 15.026,32.331 14.914,32.378 14.415,32.473 13.289,32.467 13.171,32.518 
		13.104,32.621 13.138,32.859 13.237,32.98 13.708,33.236 14.115,33.667 14.626,33.978 14.875,34.217 14.982,34.454 14.967,34.539 
		14.938,34.604 14.867,34.68 14.759,34.723 14.359,34.748 14.241,34.786 14.152,34.866 14.016,35.096 13.923,35.171 13.789,35.175 
		12.438,34.814 12.298,34.81 12.172,34.836 11.948,34.928 11.579,35.011 11.482,35.079 11.412,35.187 11.356,35.319 11.305,35.476 
		11.268,35.652 11.268,35.896 11.334,36.121 11.501,36.456 11.571,36.713 11.671,36.865 11.971,37.023 12.167,37.162 12.211,37.293 
		12.209,37.396 12.122,37.581 12.115,37.74 12.364,38.117 12.404,38.282 12.387,38.426 11.778,39.238 11.157,40.252 10.441,41.064 
		10.064,41.361 8.783,41.994 8.28,42.078 5.936,41.889 5.784,41.847 5.532,41.727 5.254,41.487 5.176,41.393 5.047,41.197 
		4.958,41.119 4.844,41.063 4.71,41.039 4.581,41.048 4.466,41.09 4.37,41.159 3.137,42.494 2.926,42.824 2.771,43.174 
		2.681,43.508 2.662,43.705 2.673,43.869 2.706,43.991 3.178,44.814 3.267,45.034 3.385,45.42 3.48,45.825 3.536,46.252 
		3.507,46.52 3.399,46.752 4.222,46.898 4.536,46.82 4.64,46.762 4.77,46.762 4.921,46.818 5.143,46.999 5.316,47.093 5.563,47.115 
		6.106,47.006 6.246,47.01 6.847,47.115 7.31,47.127 7.428,47.164 7.835,47.353 8.527,47.849 8.713,48.035 8.827,48.194 
		8.887,48.437 8.928,48.551 9.009,48.652 10.563,49.905 10.715,50.116 10.798,50.293 10.895,50.427 11.545,50.875 11.664,50.992 
		12.083,51.563 12.404,51.9 13.815,52.692 14.189,53.02 14.674,53.549 14.818,53.61 15.004,53.651 15.314,53.635 15.804,53.541 
		15.922,53.538 17.14,53.729 17.266,53.707 17.373,53.657 17.469,53.592 17.604,53.576 17.767,53.615 18.173,53.95 18.284,54.07 
		18.398,54.15 18.558,54.197 19.27,54.17 19.429,54.215 19.599,54.303 19.82,54.496 19.991,54.586 20.217,54.58 20.348,54.519 
		20.562,54.378 20.75,54.382 21.747,54.676 22.228,54.896 22.483,55.072 22.738,55.084 22.888,55.049 23.006,54.979 23.099,54.908 
		23.316,54.812 23.446,54.795 23.676,54.722 23.779,54.664 24.152,54.382 24.561,54.145 25.697,53.749 25.99,53.556 26.204,53.623 
		26.512,53.835 27.16,54.439 27.375,54.739 27.475,54.988 27.456,55.133 27.449,55.273 27.482,55.392 27.642,55.644 28.07,56.128 
		28.137,56.218 28.17,56.318 28.137,56.43 28.085,56.545 27.808,56.992 27.729,57.091 27.642,57.174 27.03,57.512 26.854,57.668 
		26.771,57.758 26.715,57.861 26.737,57.955 26.855,58.02 27.652,57.973 27.771,58.009 27.934,58.1 28.346,58.457 28.534,58.574 
		29.167,58.771 29.366,58.887 29.444,59.081 29.437,59.232 29.536,59.414 29.756,59.586 30.273,59.886 30.496,60.056 30.637,60.205 
		30.773,60.53 30.91,60.666 31.552,61.121 31.685,61.313 31.718,61.465 31.662,61.559 31.61,61.631 31.484,61.77 31.004,62.092 
		30.923,62.188 30.863,62.311 30.811,62.441 30.792,62.577 30.813,62.693 30.933,62.807 31.832,63.435 32.403,64.045 34.11,65.457 
		34.406,65.82 34.461,65.921 34.491,66.027 34.465,66.151 34.417,66.275 34.092,66.859 34.04,66.982 34.01,67.109 34.028,67.228 
		34.092,67.32 34.473,67.631 34.896,68.057 34.957,68.146 34.984,68.23 34.942,68.326 34.881,68.422 34.243,69.165 34.184,69.268 
		34.154,69.374 34.188,69.47 34.429,69.729 34.535,69.771 34.661,69.766 34.858,69.604 35.077,69.362 35.166,69.286 35.272,69.252 
		35.417,69.307 35.531,69.374 35.713,69.546 35.81,69.615 35.979,69.618 36.19,69.527 36.588,69.247 36.665,69.097 36.646,68.979 
		36.446,68.832 36.365,68.749 36.344,68.643 36.377,68.529 36.769,67.848 38.501,65.773 38.884,65.498 39.031,65.461 39.228,65.463 
		39.608,65.605 40.668,66.195 41.041,66.509 41.163,66.655 41.315,66.891 41.393,66.982 41.566,67.053 41.842,67.093 42.704,67.028 
		42.94,66.932 43.13,66.703 43.566,66.395 44.955,66.216 44.607,65.363 44.552,64.958 44.601,63.965 44.597,63.331 44.57,63.026 
		44.188,61.445 44.122,61.047 44.11,60.75 44.17,60.597 44.277,60.447 44.39,60.366 44.515,60.328 44.785,60.326 45.077,60.39 
		45.796,60.773 46.089,60.857 47.222,60.935 47.34,60.906 47.606,60.666 47.854,60.389 48.188,60.105 48.3,60.043 48.521,59.957 
		48.766,59.905 48.902,59.905 49.194,59.966 51.487,61.135 51.543,61.181 51.613,61.254 51.717,61.33 51.85,61.396 52.075,61.422 
		52.197,61.355 52.282,61.238 52.313,61.097 52.31,60.963 52.245,60.865 52.142,60.793 51.631,60.563 51.55,60.494 51.506,60.439 
		51.469,60.359 51.461,60.25 51.465,60.136 51.527,59.994 51.809,59.566 51.949,59.443 52.094,59.385 52.22,59.423 52.483,59.547 
		52.643,59.591 52.876,59.592 53.005,59.518 53.09,59.402 53.123,59.258 53.149,59.086 53.187,58.902 53.282,58.646 53.386,58.519 
		53.501,58.435 53.624,58.406 53.761,58.397 53.895,58.42 54.017,58.473 54.108,58.551 54.309,58.838 54.386,58.93 54.475,59.016 
		54.582,59.088 54.708,59.137 54.845,59.161 55.03,59.152 55.575,59.013 55.734,58.916 55.83,58.801 55.838,58.68 55.76,58.052 
		55.774,57.893 55.819,57.723 55.948,57.512 56.085,57.416 56.275,57.374 56.374,57.291 56.445,57.185 56.545,56.861 56.686,56.521 
		56.778,56.411 57.688,55.764 57.853,55.68 58.511,55.679 58.788,55.591 58.929,55.492 59.008,55.363 59.011,55.234 58.985,55.117 
		58.943,55.008 58.818,54.807 58.767,54.702 58.736,54.584 58.748,54.443 58.807,54.151 58.807,54.021 58.748,53.922 58.548,53.766 
		58.474,53.674 58.444,53.561 58.471,53.43 58.87,52.754 59.008,52.595 59.134,52.486 59.703,52.258 59.829,52.133 59.903,51.985 
		59.918,51.845 59.951,51.658 60.021,51.439 60.195,51.076 60.322,50.909 60.426,50.795 65.854,47.446 66.054,47.245 66.12,47.086 
		66.072,46.986 65.753,46.491 65.679,46.4 65.59,46.33 65.468,46.299 64.95,46.331 64.046,46.217 63.769,46.145 63.644,46.088 
		63.555,46.016 63.521,45.927 64.28,44.65 64.416,44.516 64.559,44.439 66.853,44.4 69.908,45.273 71.001,45.231 71.404,45.157 
		71.526,45.052 71.597,44.914 71.63,44.749 71.645,44.621 71.727,44.275 72.304,43.748 72.94,43.307 73.252,42.934 73.606,42.375 
		73.677,42.117 73.689,41.926 73.654,41.812 73.596,41.708 73.521,41.615 73.429,41.533 73.307,41.471 73.166,41.426 72.748,41.365 
		72.626,41.311 72.563,41.037 72.545,40.596 72.675,38.745 72.641,38.498 72.582,38.256 72.501,38.031 72.441,37.927 72.199,37.635 
		72.114,37.506 72.044,37.303 72.066,37.162 72.118,37.027 72.407,36.579 72.504,36.508 72.611,36.456 72.975,36.377 73.104,36.314 
		73.233,36.135 73.385,35.775 73.474,35.17 73.596,34.625 73.667,34.485 73.759,34.386 74.255,34.047 74.366,33.936 74.492,33.736 
		74.521,33.587 74.515,33.45 74.488,33.326 74.252,32.604 74.252,32.419 74.34,32.334 74.47,32.247 74.507,32.141 74.492,32.038 
		74.433,31.946 74.273,31.737 74.229,31.64 74.078,31.123 74.045,30.924 74.074,30.812 74.107,30.745 74.188,30.684 74.389,30.581 
		74.503,30.458 74.614,30.271 74.828,29.618 74.91,29.445 75.2,29.107 75.329,28.896 75.377,28.731 75.396,28.581 75.393,28.46 
		75.362,28.292 75.352,27.843 75.396,26.821 75.385,26.722 75.374,26.665 75.329,26.56 75.273,26.475 75.2,26.388 75.088,26.326 
		74.962,26.308 74.836,26.326 74.192,26.598 74.081,26.588 73.989,26.492 73.922,26.298 73.938,26.14 73.989,26.009 74.277,25.548 
		74.437,25.343 74.521,25.253 74.621,25.19 74.747,25.171 75.322,25.313 75.393,25.309 75.484,25.272 75.592,25.006 75.64,24.85 
		75.695,24.713 75.763,24.589 75.84,24.486 75.929,24.397 76.243,24.211 76.348,24.128 76.446,24.008 76.451,23.896 76.407,23.791 
		75.407,23 75.362,22.934 75.311,22.805 75.333,22.697 75.37,22.614 75.496,22.472 75.914,22.253 76.388,22.114 76.914,22.072 
		77.051,22.042 77.169,21.977 77.28,21.859 77.299,21.742 	"/>
</g>
<g id="Layer_1">
</g>
</svg>
