<?xml version="1.0" encoding="iso-8859-1"?>
<!-- Generator: Adobe Illustrator 16.0.3, SVG Export Plug-In . SVG Version: 6.00 Build 0)  -->
<!DOCTYPE svg PUBLIC "-//W3C//DTD SVG 1.1//EN" "http://www.w3.org/Graphics/SVG/1.1/DTD/svg11.dtd">
<svg version="1.1" xmlns="http://www.w3.org/2000/svg" xmlns:xlink="http://www.w3.org/1999/xlink" x="0px" y="0px"
	 width="90.083px" height="63.54px" viewBox="0 0 90.083 63.54" style="enable-background:new 0 0 90.083 63.54;"
	 xml:space="preserve">
<g id="Kherson">
	<path style="fill:#6FA8DC;" d="M13.516,48.741l-3.115-0.76l-7.686-1.88l-0.96-0.563l-0.563-0.714l-0.381-1.017L0.419,42.34
		L0,42.171l0.016,0.636l0.213,0.879l0.19,0.558l0.645,1.061l0.748,0.677l3.742,1.443l8.701,1.858l1.005,0.482l0.533,0.113
		l-0.314-0.228L13.516,48.741z M35.673,53.789l-0.241-0.251l-0.252-0.365l-0.569,0.054l-0.984,0.443l-0.762-0.569l-0.706-0.03
		l-1.644,0.341l-3.433-0.468l-0.19-0.214l-0.111,0.012l-0.175,0.202l10.038,1.639l0.416-0.447L36.764,53.7L35.673,53.789z
		 M81.146,58.809l-0.235-0.424l-0.279-0.403l-0.218-0.454L79.56,53.37l-0.229-0.544l-0.113-0.498l-0.122-2.195l-0.14-0.562
		l-0.047-0.273l0.023-0.357l0.128-0.329l0.418-0.583l0.089-0.153l1.033-0.484l0.078-0.331l0.027-0.391l0.167-0.311l0.268-0.135
		l0.059,0.139l0.019,0.253l0.145,0.213l0.297,0.105l0.228-0.013l2.26-0.563l1.057-0.664l0.716-0.825l-0.853-0.168l-0.23-0.21
		l-0.004-0.617l-0.011-0.134l-0.138-0.692l-0.015-0.251l0.015-0.134l0.034-0.139l0.133-0.404l0.019-0.149l-0.022-0.182l-0.592-2.483
		l-0.141-0.29l-0.145-0.146l-0.678-0.014l-0.126-0.028l-0.133-0.06l-0.362-0.246l-0.209-0.047l-0.325-0.19L81.611,37.8l-0.019-0.011
		l-0.134-0.018l-1.114,0.11l-0.314-0.028l-0.107-0.059l-0.007-0.027l-0.008-0.048L79.9,37.365l0.008-0.124l0.037-0.105l0.074-0.082
		l0.081-0.07l0.078-0.104l0.048-0.136l-0.004-0.215l-0.081-0.109l-0.126-0.062l-1.122-0.102l-0.819,0.032l-0.222-0.043l-0.114-0.078
		l-0.074-0.102l-0.045-0.107l-0.036-0.122l-0.049-0.124l-0.578-0.918l-0.1-0.198l-0.045-0.105l-0.029-0.113l-0.008-0.127
		l0.022-0.126l0.045-0.122l0.129-0.21l0.234-0.255l0.066-0.106l0.041-0.123l0.015-0.129l-0.011-0.126l-0.045-0.232l-0.11-0.335
		l-0.127-0.302l-0.119-0.145l-0.144-0.087l-0.556-0.077l-0.166-0.056l-0.178-0.086l-0.404-0.315l-0.141-0.043l-0.096,0.043
		l-0.13,0.036l-0.148,0.009l-0.24-0.094l-0.1-0.112l-0.048-0.131l-0.045-0.372v-0.121l0.015-0.12l0.056-0.102l0.07-0.084
		l0.093-0.072l0.104-0.043l0.118-0.025l0.651-0.016l0.119-0.025l0.111-0.039l0.081-0.072l0.07-0.103l0.056-0.117l0.141-0.198
		l0.178-0.137l0.207-0.093l0.093-0.063l0.073-0.091l0.06-0.113l0.134-0.421l0.055-0.126l0.06-0.103l0.16-0.212l0.048-0.101
		l0.033-0.12l0.019-0.797l0.022-0.13l0.041-0.112l0.07-0.081l0.1-0.054l0.226-0.062l0.63-0.271l0.093-0.062l0.056-0.167
		l-0.004-0.271l-0.112-0.536l-0.084-0.252l-0.094-0.175l-0.085-0.076l-0.104-0.064l-0.122-0.044l-0.273-0.031l-0.145-0.043
		l-0.178-0.131l-0.089-0.119l-0.063-0.124l-0.26-1.115l-0.086-0.189l-0.085-0.127l-0.1-0.069l-1.155-0.38l-0.215-0.126l-0.273-0.231
		l-0.104-0.065l-0.118-0.054l-0.59-0.124l-0.155-0.089l-0.078-0.106l-0.033-0.115l-0.066-0.511l-0.074-0.334l-0.066-0.176
		l-0.07-0.119l-0.074-0.064l-0.025-0.014l-0.326-0.073l-0.2-0.094l-0.093-0.102l-0.056-0.119l-0.041-0.241l-0.033-1.183
		l-0.385-1.652l-0.085-0.148l-0.122-0.086l-0.325-0.116l-0.205-0.124l-0.081-0.129l-0.041-0.134l-0.029-0.249l-0.097-0.472
		l-0.029-0.25l-0.015-0.261l0.004-0.137l0.081-0.729v-0.124l-0.011-0.124l-0.196-0.958l-0.015-0.123l0.004-0.127l0.029-0.13
		l0.052-0.093l0.122-0.108l0.056-0.091l0.044-0.15l0.004-0.275l-0.037-0.149l-0.056-0.103l-0.358-0.264l-0.155-0.158l-0.07-0.132
		l-0.026-0.146v-0.133l0.03-0.29l0.033-0.148l0.044-0.136l0.07-0.1l0.085-0.072l0.352-0.152l0.078-0.057L71.643,9.7l0.037-0.143
		l-0.045-0.097l-0.07-0.074L71.483,9.35l-0.089-0.018l-1.617,0.164l-0.208,0.093l-0.088,0.078L69.43,9.783l-0.037,0.138
		l-0.022,0.134l-0.048,0.124l-0.138,0.191l-0.067,0.111l-0.104,0.26l-0.078,0.088l-0.1,0.049l-0.122,0.021l-0.129-0.015
		l-0.122-0.038l-0.337-0.186l-0.137-0.038l-0.314,0.035l-0.109,0.054l-0.273,0.203l-0.211,0.09l-0.126,0.019l-0.133-0.014
		l-0.151-0.082l-0.07-0.104l-0.033-0.129l-0.015-0.527l-0.03-0.14l-0.044-0.15l-0.234-0.588l-1.196-3.957L64.411,3.68l-1.104,0.158
		l-2.368-0.239L57.207,2.41L56.68,2.436l-3.035,0.801l-2.341,0.147l-0.277-0.061l-0.06-0.098l-0.129-0.366l-0.045-0.096L50.727,2.65
		L50.586,2.51l-0.174-0.025l-0.538,0.055L49.723,2.49l-0.089-0.089l-0.037-0.113l-0.092-0.341l-0.089-0.235V1.596l0.033-0.119
		l0.048-0.128l0.186-0.33l0.048-0.105l0.007-0.109l-0.044-0.129l-0.093-0.138l-0.182-0.184L49.268,0.29L49.12,0.264l-1.422,0.291
		l-0.141,0.059l-0.075,0.046l-0.052,0.079l-0.015,0.112l0.011,0.117l0.041,0.248l0.007,0.129l-0.007,0.13l-0.045,0.12l-0.066,0.093
		l-0.089,0.079l-0.203,0.1l-2.533,0.508l-0.11,0.04l-0.093,0.063l-0.066,0.095l-0.041,0.109l-0.022,0.11l-0.015,0.114l-0.022,0.037
		l-0.063,0.05l-0.159,0.092l-0.151,0.008L43.646,3.07l-0.26-0.161l-0.226-0.2l-0.155-0.17l-0.063-0.098l-0.048-0.104l-0.041-0.108
		l-0.089-0.347l-0.081-0.218l-0.233-0.13l-0.39-0.14L40.303,1.02l-0.207-0.136l-0.348-0.318l-0.112-0.061L37.818,0l-0.044,0.305
		L37.759,0.72l0.016,0.267l0.015,0.124l0.029,0.119l0.056,0.098l0.077,0.087l0.355,0.301l0.142,0.158l0.048,0.099l0.022,0.112
		l-0.011,0.132l-0.041,0.12l-0.1,0.236l-0.031,0.133l0.005,0.105l0.012,0.069l0.003,0.029l0.026,0.074l0.122,0.29l0.052,0.092
		l0.07,0.159l0.026,0.083l0.019,0.111l0.007,0.124l-0.007,0.143l-0.045,0.296l-0.063,0.295l-0.012,0.141l0.008,0.131l0.025,0.122
		l0.041,0.11l0.052,0.1l0.085,0.217l0.026,0.12l0.003,0.127l-0.044,0.125l-0.1,0.093l-0.215,0.066l-0.456,0.037l-0.137-0.021
		L37.719,5.9l-0.078-0.081l-0.044-0.108l-0.13-0.455l-0.24-0.536l-0.063-0.087l-0.07-0.03l-0.086,0.054l-0.06,0.196l-0.054,0.315
		l-0.079,0.169L36.438,5.84l-0.085,0.171l-0.041,0.12l0.015,0.1l0.033,0.105L36.4,6.442l0.056,0.103l0.066,0.094l0.089,0.078
		l0.096,0.069l0.119,0.053l0.142,0.034l0.807,0.008l0.114,0.026l0.096,0.061l0.074,0.089l0.508,1.158l0.034,0.116l0.044,0.237
		l0.019,0.196l-0.004,0.098l-0.015,0.127l-0.066,0.282l-0.237,0.662l-0.118,0.426l-0.037,0.294v0.137l0.01,0.126l0.027,0.121
		l0.037,0.112l0.137,0.312l0.511,0.907l0.041,0.144l-0.012,0.09l-0.133,0.271l-0.048,0.153l-0.03,0.143l-0.055,0.125l-0.104,0.074
		l-0.188-0.003l-0.133-0.046l-0.301-0.183l-0.118-0.03l-0.138,0.035l-0.141,0.093l-0.698,0.828l-0.131,0.089l-0.174,0.074
		l-0.349,0.06l-0.548-0.014l-0.069-0.031l-0.257-0.332l-0.092-0.031l-0.111,0.04l-0.118,0.194l-0.219,0.588l-0.614,1.313
		l-0.427,0.578l-0.048,0.115l-0.033,0.123l0.008,0.119l0.015,0.108l0.033,0.104l0.033,0.175l0.026,0.313l0.048,0.097l0.081,0.069
		l0.118,0.02l0.368-0.044l0.125,0.004l0.123,0.034l1.373,0.834l1.093,1.034l0.048,0.099l0.008,0.115l-0.037,0.119l-0.052,0.113
		l-0.205,0.311l-0.426,0.492l-0.066,0.106l-0.029,0.07l-0.029,0.104v0.115l-0.004,0.093l-0.026,0.06l-0.637-0.419l-0.152-0.136
		l-0.144-0.175l-0.126-0.186l-0.104-0.119l-0.033-0.023l-0.085,0.023l-0.142,0.076l-0.251,0.236l-0.089,0.173L34.482,21.1
		l0.012,0.397l0.029,0.253l0.029,0.116l0.045,0.108l0.066,0.086l0.089,0.064l0.122,0.025l0.845,0.001l0.1,0.026l0.085,0.058
		l0.07,0.085l0.056,0.097l0.019,0.114l-0.118,0.136l-0.252,0.127l-0.971,0.264l-0.307,0.186l-0.52,0.589l-0.247,0.094l-2.326,0.39
		l-0.107,0.064l-0.118,0.164l-0.011,0.125l0.029,0.117l0.078,0.084l0.088,0.066l0.097,0.047l0.183,0.056l0.559,0.05l1.288-0.12
		l0.156,0.052l0.218,0.121l0.126,0.018l0.24-0.018l0.096,0.023l0.045,0.086l-0.222,0.174l-0.415,0.216l-1.861,0.66l-0.089,0.07
		l-0.097,0.063l-0.148,0.034l-1.173-0.052l-1.274,0.17l-0.26-0.007l-0.07-0.018l-0.089-0.053l-0.081-0.071l-0.074-0.089
		l-0.066-0.093l-0.163-0.297l-0.066-0.091l-0.085-0.08l-0.104-0.068l-0.542-0.174l-0.114-0.06l-0.089-0.072l-0.078-0.082
		l-0.203-0.041l-0.937,0.033l-0.245-0.061l-0.177-0.071l-0.093-0.078l-0.204-0.021l-0.114-0.054l-0.081-0.081l-0.063-0.086
		l-0.108-0.05l-0.114,0.001l-0.101,0.051l-0.04,0.155v0.516l-0.012,0.166l-0.029,0.155l-0.044,0.126l-0.06,0.097l-0.066,0.068
		l-0.126,0.095l-0.185,0.05l-0.838,0.064l-0.24-0.052l-0.155-0.081l-0.041-0.107l-0.1-0.204l-0.078-0.082l-0.106-0.053l-0.126-0.021
		l-0.512,0.047l-0.799,0.218l-0.18,0.103l-0.185,0.205l-0.093,0.167l-0.273,0.85l-0.056,0.113l-0.126,0.084l-0.188,0.04L19.4,27.536
		l-1.389-0.499l-0.263-0.011l-0.317,0.056l-0.148,0.06l-0.145,0.091l-0.192,0.196l-0.096,0.156l-0.066,0.154l-0.234,0.651
		l-0.233,0.451L16.25,28.94l-0.159,0.167l-0.17,0.148l-0.404,0.175l-0.755,0.22l-0.259,0.004l-0.304-0.104l-0.394-0.243L13.68,29.27
		l-0.137-0.017l-0.162,0.032l-0.186,0.067l-0.419,0.291l-0.186,0.202l-0.365,0.122l-1.2-0.028l-0.034,0.159l-0.003,0.011l0.139,0.32
		l0.089,0.655l0.129,0.587l0.313,0.681l0.383,0.61l0.33,0.37l0.399,0.195l1.469,0.298l0.401,0.277l0.338,1.266l0.34,0.348
		l0.563-0.709l0.244-0.035l0.467-0.164l0.268-0.037l0.218-0.108l0.399-0.476l0.272-0.103l0.132,0.093l0.371,0.594l1.586,0.88
		l1.748-0.234l3.214-1.828l0.565,0.113l0.648-0.342l0.65-0.466l0.565-0.271l-0.28,0.57l-0.344,0.333l-0.372,0.271l-0.367,0.395
		l-0.416,0.273l-1.103,0.128l-0.455,0.297l-1.67,1.418l-0.652,0.895l0.445,0.637l-0.653,0.709l-0.922,0.396l-1.037,0.087
		l-0.988-0.227l-1.303-0.848L14.49,37.37l-0.489-0.014l-1.377,0.227l-2.061-0.449H8.528l-0.24-0.092l-0.839,1.34l-0.003,0.002
		l-0.004,0.004l2.251,0.937l1.049,0.169l0.886-0.089l0.385,0.159l1.091,1.482l0.198,0.421l-0.159,0.111l-0.322-0.01l-0.287,0.064
		l-1.249,1.161l-0.216,0.146l-1.806,0.343l-1.316-0.29l-0.493,0.055l-0.404,0.197l-0.474,0.36l-0.301,0.468l0.122,0.534l0.32,0.354
		l0.363,0.252l0.431,0.154l1.507,0.05l0.181-0.162l-0.046-0.39L9.059,44.4L9.1,44.01l1.973,1.525l1.185,0.626l0.766-0.294
		l0.662,0.569l0.896,1.202l0.316,0.166l0.332,0.059l1.067,0.388l0.616,0.126l0.623-0.076l0.717-0.319l-0.061,0.335l-0.14,0.213
		L17.6,48.94l0.13,0.204l0.103,0.475l0.094,0.259l0.04,0.15l0.076,0.44l0.047,0.134l0.126,0.056l0.305-0.033l0.524,0.374
		l4.795,1.392l0.961-0.149l0.175-0.131l0.395-0.422l0.244-0.17l0.249-0.098l3.002-0.538l0.89-0.445l0.357-0.091l0.561,0.047
		l1.308,0.443l0.205,0.037l0.548-0.037l0.155,0.025l0.214,0.137l0.183,0.051l0.33,0.001l2.509-0.429l0.34-0.458l-0.216-0.99
		l1.393,0.704l0.513,0.377l0.228,0.092l0.24-0.007l0.302-0.165l0.184-0.042l0.76-0.385l0.476-0.878l0.404-0.948l0.554-0.603
		l-0.233,2.395l-0.084,0.434l-0.173,0.455l1.882-0.256l0.53,0.161l0.049,0.388l-0.259,0.465l-0.396,0.393l0.146,0.039l0.12-0.003
		l0.105,0.045l0.118,0.173l0.483-0.692l0.637,0.126l0.634,0.557l0.739,1.012l0.204,0.164l1.472,0.005l0.497,0.217l0.237,0.017
		l-0.489-0.737l0.234-0.426l0.612-0.193L49,52.007v-0.254l-0.635-0.417l0.029-0.503l0.413-0.511l0.519-0.444l0.597-0.22l0.35,0.313
		c0.164-0.185,0.311-0.396,0.361-0.601c0.142-0.564-0.6-2.66-0.317-2.7s0.354-0.322,0.529-0.121
		c0.177,0.201,0.636,0.523,0.813,0.523c0.108,0,0.183,0.109,0.3,0.246h0.317l0.449,0.162l0.33-0.223l0.31-0.374l0.358-0.314
		l0.372-0.061l0.499,0.091l0.428,0.223l0.183,0.364l0.12,0.122l0.267,0.03l0.513-0.021l0.239-0.051l0.372-0.202h0.302l1.391,0.598
		l0.478,0.101l0.232,0.334l0.597,1.446l0.323,0.333l0.134,0.071l0.056,0.161l0.049,0.162l0.085,0.07l0.133-0.03l0.07-0.07
		l0.05-0.071l0.246-0.11l0.133-0.142l0.162-0.091l0.253,0.05v0.091l0.049,0.232l0.063,0.243l0.07,0.161l0.098,0.03l0.274-0.04
		l0.119,0.01l0.484,0.142l0.281-0.01l-0.035-0.263l-0.112-0.334l-0.204-0.809l-0.175-0.161l-0.268-0.051l-0.238-0.132l-0.407-0.283
		v-0.232l0.646,0.152l0.253-0.111l0.099-0.405l0.112-0.303l0.26,0.061l0.274,0.272l0.168,0.334l-0.007,0.243l-0.141,0.718
		l0.169,0.404l0.105,0.121l0.049-0.202l0.977-1.052l-0.836-0.799l-0.33-0.455l-0.134-0.506l0.015-0.871l0.104-0.557l0.246-0.223
		l0.45,0.121l0.751,0.638l0.576,0.901l1.25,2.509l0.085,0.242l0.091,0.425l-0.014,0.839l0.049,0.384l0.225,0.161l0.246-0.374
		l0.196-0.848l0.113-0.88v-0.475l-0.211-0.172l-0.569-0.081l-0.183-0.213l0.028-0.242l0.176-0.213l0.196-0.182l0.084-0.192
		l0.218,0.061l1.412,0.769l1.65,1.305l0.857,0.232l0.779-0.576l0.134-0.536l0.105-0.293l0.154-0.132l0.253,0.102l0.31,0.272
		l0.26,0.344l0.105,0.344v0.94l-0.05,0.384l-0.238,0.444l-0.05,0.333l-0.147,0.444l-0.315-0.444l-0.288-0.696l-0.07-0.334
		l-0.281,0.223l-0.267,0.596l-0.197,0.333l-0.077-0.586l0.057-0.182l0.084-0.191l-0.028-0.151l-0.28-0.041l-0.809,0.697
		l-0.218,0.586l0.008,0.615l0.231,0.535l0.464,0.373l-0.183,0.414l-0.211-0.081l-0.267-0.252l-0.33-0.081l-0.253,0.252l-0.268,0.484
		l-0.105,0.464l0.226,0.201l0.653-0.01l0.562,0.091l0.26,0.343l-0.26,0.766l0.506,0.131l0.751-0.957L72.8,55.6l0.484-0.493
		l1.286-2.552l0.091-0.435l-0.091-0.626l-0.189-0.656l-0.12-0.687l0.092-0.718l0.759-0.759l1.089,0.132l1.061,0.627l0.681,0.697
		l0.189,0.425l0.204,0.626l0.021,0.575l-0.33,0.253l-0.197-0.111l-0.315-0.484l-0.141-0.111l-0.598-0.061l-0.927,0.263l-0.302,0.191
		l-0.226,0.313l0.457,0.262l0.429,0.465l0.309,0.545l0.119,0.494l0.717,0.695l0.183,0.132l0.225-0.162l0.07-0.343l0.112-0.332
		l0.33-0.091l0.253,0.322l0.211,0.716l0.147,0.807l0.05,0.594l0.007,0.756l0.07,0.332l0.161,0.313l0.092,0.09l0.295,0.231
		l0.098,0.041l0.127,0.101l-0.042,0.201l-0.112,0.161h-0.057l-0.056,0.02L79.29,58.56l-0.042,0.011v0.201l0.057,0.19l0.07,0.101
		l0.049-0.02l-0.471,1.839l-0.042,0.342l0.105,0.15l0.273-0.04l0.239-0.09l0.203-0.141l0.162-0.181l0.154-0.292l0.063-0.281
		l0.07-0.221l0.183-0.151l0.273,0.04l0.261,0.231l0.231,0.302l0.154,0.251l0.225,0.553l0.302,1.285l0.219,0.592l0.183,0.309
		l0.771-0.225l-0.569-1.124L81.146,58.809z M89.798,46.083l-0.065-0.024l-0.001-0.001l-0.062,0.11l-0.249,0.588l-0.571,0.635
		l-0.654,1.331l-1.229,0.648l-2.493,0.763l0.111,0.339l0.067,0.131l-0.831,0.53l-0.757,0.868l-0.078,0.331l0.428,0.144l0.92-0.427
		l0.565-0.43l0.817-0.191l0.586-0.49l0.972-0.335l0.548-0.592l0.59-0.837l1.289-2.488l0.383-0.443L89.798,46.083z"/>
</g>
<g id="Layer_1">
</g>
</svg>
