<?xml version="1.0" encoding="iso-8859-1"?>
<!-- Generator: Adobe Illustrator 16.0.3, SVG Export Plug-In . SVG Version: 6.00 Build 0)  -->
<!DOCTYPE svg PUBLIC "-//W3C//DTD SVG 1.1//EN" "http://www.w3.org/Graphics/SVG/1.1/DTD/svg11.dtd">
<svg version="1.1" xmlns="http://www.w3.org/2000/svg" xmlns:xlink="http://www.w3.org/1999/xlink" x="0px" y="0px"
	 width="41.533px" height="78.291px" viewBox="0 0 41.533 78.291" style="enable-background:new 0 0 41.533 78.291;"
	 xml:space="preserve">
<g id="Khmelnytskyi">
	<polygon style="fill-rule:evenodd;clip-rule:evenodd;fill:#6FA8DC;" points="41.508,52.481 41.423,52.25 41.359,52.002 
		41.342,51.865 41.334,51.723 41.349,51.413 41.322,51.131 41.301,51.003 41.268,50.879 41.216,50.767 41.16,50.66 40.879,50.283 
		40.816,50.18 40.771,50.065 40.742,49.91 40.73,49.727 40.764,49.443 40.854,49.24 40.968,49.037 41.175,48.77 41.249,48.592 
		41.256,48.441 41.212,48.328 41.098,48.123 40.801,47.754 40.734,47.657 40.653,47.42 40.646,47.271 40.653,47.108 40.68,46.907 
		40.69,46.738 40.684,46.59 40.639,46.475 40.564,46.384 40.465,46.32 40.061,46.218 39.949,46.165 39.867,46.096 39.816,45.989 
		39.79,45.863 39.754,45.443 39.713,45.317 39.586,45.091 39.527,44.947 39.49,44.715 39.513,44.575 39.557,44.492 39.62,44.445 
		40.32,44.17 40.461,44.088 40.506,43.967 40.502,43.844 40.353,43.348 40.262,43.121 40.201,43.014 40.131,42.918 40.031,42.854 
		38.564,42.839 38.409,42.814 38.269,42.772 38.15,42.714 38.055,42.609 37.98,42.476 37.943,42.227 37.969,42.067 38.024,41.932 
		38.102,41.84 38.412,41.615 38.523,41.506 38.539,41.399 38.49,41.305 38.402,41.222 37.725,40.703 37.649,40.535 37.605,40.289 
		37.64,39.754 37.701,39.497 37.791,39.324 37.895,39.271 38.024,39.245 38.158,39.245 38.283,39.276 38.494,39.408 38.643,39.396 
		38.809,39.291 39.035,38.962 39.091,38.752 39.076,38.596 39.006,38.495 38.753,38.231 38.676,38.119 38.613,37.969 38.627,37.842 
		38.684,37.734 38.912,37.438 39.631,35.958 39.727,35.695 39.783,35.482 39.783,35.341 39.754,35.215 39.709,35.099 39.594,34.889 
		39.436,34.711 39.254,34.552 39.045,34.413 38.442,34.128 38.335,34.035 38.254,33.917 38.209,33.71 38.231,33.562 38.279,33.427 
		38.509,32.95 38.579,32.847 38.672,32.783 38.801,32.777 39.379,32.898 39.527,32.898 39.649,32.857 39.754,32.794 39.931,32.632 
		40.142,32.377 40.278,32.14 40.283,31.997 40.23,31.884 39.79,31.599 39.693,31.5 39.73,31.432 39.827,31.391 40.278,31.383 
		40.605,31.282 41.034,30.732 36.088,29.299 35.936,29.115 35.869,29.016 35.813,28.909 35.772,28.787 35.725,28.524 35.646,28.28 
		35.396,27.869 34.739,27.018 34.617,26.808 34.584,26.688 34.576,26.56 34.603,26.428 34.64,26.3 34.662,26.157 34.65,26.032 
		34.576,25.835 34.477,25.728 34.354,25.646 33.473,25.323 33.314,25.169 33.229,25.012 33.303,24.198 33.34,24.055 33.414,23.958 
		33.532,23.917 33.959,23.877 34.081,23.843 34.162,23.778 34.181,23.668 34.166,23.543 34.133,23.416 34.044,23.182 33.373,21.953 
		33.314,21.752 33.299,21.609 33.392,21.592 34.584,21.771 34.732,21.764 34.861,21.736 34.98,21.692 35.081,21.625 35.17,21.544 
		35.314,21.342 35.396,21.248 35.484,21.169 35.599,21.118 35.998,21.039 36.08,20.953 36.128,20.825 36.157,20.666 36.184,20.243 
		36.146,19.912 36.084,19.734 35.998,19.606 35.891,19.54 35.436,19.354 35.255,19.199 35.174,19.067 35.144,18.932 35.151,18.835 
		35.166,18.722 35.199,18.592 35.288,18.356 35.429,18.102 35.743,17.711 35.78,17.546 35.743,17.432 35.643,17.32 35.348,17.052 
		35.288,16.906 35.288,16.76 35.344,16.652 35.439,16.574 35.662,16.465 35.758,16.363 35.82,16.211 35.824,15.918 35.787,15.745 
		35.736,15.6 35.462,15.204 35.074,14.771 34.902,14.541 34.824,14.372 34.779,14.205 34.779,14.051 34.861,13.177 34.857,12.956 
		34.816,12.617 34.735,12.45 34.605,12.355 34.458,12.336 34.321,12.355 34.222,12.423 34.154,12.533 34.04,12.78 33.97,12.886 
		33.885,12.974 33.814,13.077 33.669,13.48 33.615,13.6 33.541,13.695 33.443,13.769 33.311,13.794 32.244,13.688 32.129,13.651 
		31.977,13.568 31.93,13.413 31.91,12.946 31.859,12.79 31.789,12.669 31.692,12.594 31.582,12.526 31.107,12.386 30.883,12.244 
		30.755,12.07 30.622,11.782 30.492,11.674 30.363,11.641 30.111,11.705 29.953,11.672 29.867,11.588 29.826,11.479 29.853,11.361 
		30,11.143 30.066,10.998 30.033,10.889 29.956,10.799 29.734,10.664 28.949,10.058 27.941,9.458 27.675,9.227 27.545,9.071 
		27.457,8.898 27.364,8.468 27.294,8.317 27.209,8.2 26.982,8.071 26.323,7.953 26.139,7.893 25.928,7.758 25.824,7.631 
		25.769,7.492 25.765,7.346 25.783,7.192 26.25,5.459 26.301,5.326 26.36,5.207 26.431,5.099 26.508,5.002 26.682,4.832 
		26.872,4.681 27.412,4.389 27.508,4.307 27.575,4.215 27.59,4.087 27.501,4.019 27.375,3.963 26.904,3.848 26.738,3.771 
		26.534,3.632 26.42,3.455 26.32,3.243 26.187,2.896 26.039,2.751 25.691,2.494 25.367,2.044 25.246,1.913 24.909,1.722 
		23.761,1.451 23.613,1.356 23.465,1.205 23.465,1.052 23.477,0.885 23.469,0.691 23.436,0.485 23.332,0.194 23.199,0.07 23.032,0 
		22.65,0.021 22.506,0.073 22.409,0.163 22.336,0.265 22.232,0.521 22.117,0.963 22.043,1.065 21.943,1.137 21.833,1.192 
		21.324,1.35 20.866,1.559 20.666,1.696 20.28,2.037 20.125,2.241 19.995,2.375 19.758,2.546 19.577,2.605 19.403,2.625 
		19.111,2.556 18.632,2.275 18.151,2.083 17.97,2.076 17.826,2.11 17.374,2.519 15.719,3.23 15.682,3.277 15.593,3.411 
		15.537,3.524 15.5,3.663 15.489,3.814 15.5,3.958 15.544,4.232 15.556,4.386 15.537,4.542 15.467,4.705 15.352,4.78 15.219,4.811 
		15.075,4.792 14.53,4.541 14.249,4.51 14.112,4.577 14.034,4.705 14.012,4.855 13.993,5.169 13.931,5.354 13.827,5.543 
		13.574,5.78 13.445,5.943 13.371,6.112 13.352,6.255 13.234,6.477 13.012,6.744 11.971,7.583 11.927,7.704 11.916,7.843 
		11.934,8.097 11.93,8.183 11.908,8.302 11.868,8.419 11.805,8.531 11.668,8.661 10.564,9.464 10.413,9.647 10.22,9.988 
		10.054,10.361 9.913,10.521 9.699,10.714 8.828,11.337 8.75,11.43 8.48,11.845 8.332,12.03 7.909,12.459 7.721,12.579 7.547,12.65 
		6.977,12.704 6.822,12.688 6.51,12.609 6.306,12.598 5.984,12.634 5.762,12.724 5.611,12.81 5.243,13.144 5.084,13.326 
		4.104,14.865 3.699,15.361 3.196,15.687 2.022,16.225 1.512,16.484 1.426,16.555 1.389,16.629 1.462,16.718 1.574,16.771 
		2.407,17.02 2.625,17.151 2.804,17.321 2.88,17.417 2.941,17.518 2.978,17.669 2.974,17.852 2.886,18.147 2.777,18.287 
		2.659,18.379 2.4,18.444 1.519,18.509 1.415,18.568 1.355,18.673 1.352,18.814 1.423,18.971 1.504,19.088 1.593,19.186 
		1.893,19.411 1.963,19.525 1.993,19.68 1.9,20.124 1.837,20.275 1.771,20.381 1.682,20.467 1.251,20.697 1.163,20.775 
		1.119,20.878 1.145,21.02 1.285,21.188 1.423,21.284 1.579,21.342 1.889,21.376 2.008,21.458 2.078,21.605 2.037,21.919 
		1.971,22.091 1.871,22.206 0.523,22.666 0.323,22.797 0.234,22.875 0.155,22.969 0.096,23.073 0.052,23.182 0.048,23.3 
		0.067,23.457 0.29,24.053 0.394,24.429 0.412,24.581 0.408,24.76 0.349,25.006 0.183,25.451 0.175,25.619 0.207,25.8 0.342,26.058 
		0.46,26.188 0.789,26.423 0.878,26.507 0.952,26.598 1.015,26.703 1.056,26.821 1.082,27.006 1.082,27.245 1.03,27.667 
		0.978,27.903 0.922,28.088 0.9,28.254 0.915,28.454 1.011,28.742 1.096,28.902 1.185,29.029 1.756,29.49 1.83,29.582 1.893,29.685 
		1.997,29.909 2.03,30.034 2.056,30.281 2.059,30.625 2.026,31.35 1.967,31.68 1.896,31.902 1.626,32.136 1.544,32.231 
		1.477,32.337 1.363,32.573 1.326,32.71 1.326,32.885 1.363,33.079 1.485,33.347 1.581,33.499 1.678,33.619 2.337,34.152 
		2.418,34.24 2.485,34.34 2.514,34.5 2.503,34.7 2.422,35.03 2.34,35.205 2.244,35.33 1.974,35.563 1.896,35.653 1.826,35.758 
		1.774,35.878 1.73,36.01 1.671,36.302 1.571,37.255 1.485,37.702 1.438,37.831 1.363,37.928 1.277,38.011 0.634,38.354 
		0.542,38.43 0.467,38.511 0.416,38.602 0.378,38.673 0.048,39.486 0.019,39.597 0,39.681 0.004,39.862 0.044,40.096 0.178,40.498 
		0.601,41.426 0.808,42.08 1.026,43.043 1.111,43.246 1.196,43.385 1.793,43.82 1.871,43.912 1.926,44.055 1.948,44.252 
		1.948,44.654 1.974,44.982 2.141,45.676 2.17,45.888 2.163,46.066 2.048,46.508 2.03,46.705 2.052,46.888 2.152,47.152 
		2.229,47.311 2.304,47.44 2.574,47.83 2.614,47.967 2.622,48.131 2.544,48.395 2.396,48.683 2.366,48.863 2.359,49.086 
		2.366,49.445 2.311,49.627 2.226,49.741 1.875,49.873 1.664,49.986 1.571,50.063 1.49,50.15 1.418,50.25 1.37,50.391 1.344,50.575 
		1.348,50.848 1.333,51.23 1.192,51.792 1.185,51.97 1.211,52.169 1.326,52.443 1.415,52.596 1.675,52.885 1.727,53 1.752,53.135 
		1.711,53.32 1.559,53.726 1.527,53.871 1.492,54.186 1.512,54.364 1.559,54.553 1.919,55.361 1.959,55.477 1.985,55.627 
		1.981,55.807 1.908,56.082 1.83,56.238 1.737,56.352 1.482,56.595 1.333,56.786 1.27,56.893 1.218,57.012 1.218,57.201 
		1.263,57.43 1.423,57.809 1.66,58.271 1.737,58.486 1.727,58.535 1.574,58.764 1.292,58.849 1.211,58.928 1.196,59.073 
		1.314,59.385 1.359,59.575 1.33,59.768 1.233,59.849 1.015,59.971 0.963,60.074 0.971,60.214 1.17,60.526 1.244,60.684 
		1.285,60.866 1.274,61.191 1.237,61.39 1.185,61.547 1.129,61.662 1.085,61.786 1.052,61.919 1.063,62.048 1.122,62.133 
		1.274,62.145 1.527,62.074 1.634,62.057 1.734,62.117 1.778,62.234 1.767,62.438 1.675,62.911 1.574,64.051 1.593,64.217 
		1.641,64.403 1.981,64.914 2.063,64.998 2.155,65.07 2.636,65.281 2.732,65.354 2.762,65.453 2.703,65.578 2.592,65.638 
		2.318,65.682 2.218,65.733 2.182,65.839 2.152,66.088 2.096,66.193 1.963,66.39 1.912,66.502 1.915,66.652 1.989,66.808 
		2.3,67.156 2.403,67.304 2.455,67.47 2.422,67.66 2.314,67.927 2.281,68.06 2.274,68.199 2.289,68.908 2.274,69.059 2.244,69.204 
		2.122,69.604 2.093,69.751 2.078,69.9 2.122,70.082 2.237,70.267 2.522,70.533 2.725,70.635 2.915,70.686 3.06,70.697 
		3.185,70.741 3.248,70.842 3.233,71.016 3.2,71.168 3.204,71.326 3.259,71.476 3.466,71.621 3.607,71.641 3.722,71.592 3.866,71.4 
		3.936,71.369 4.006,71.421 4.025,71.648 4.025,71.808 4.006,71.916 3.966,72.019 3.785,72.334 3.733,72.457 3.729,72.602 
		3.777,72.758 3.977,72.947 4.121,73.056 4.604,73.318 4.722,73.402 4.94,73.619 5.262,73.821 5.325,73.91 5.266,74.063 
		5.166,74.123 5.047,74.15 4.947,74.195 4.907,74.341 4.988,74.624 5.173,75.114 5.539,75.94 6.099,75.328 6.538,75.485 
		7.688,75.187 8.129,75.461 8.754,76.02 8.92,76.306 9.342,77.312 9.65,77.782 9.974,78.085 10.375,78.244 10.913,78.291 
		11.298,78.053 10.943,76.829 11.15,76.309 11.427,76.254 11.601,76.434 11.714,76.678 11.816,76.822 12.066,76.866 12.868,76.822 
		13.377,76.666 13.286,76.304 12.886,75.895 12.468,75.596 11.569,75.354 11.12,75.11 11.076,74.727 11.559,74.313 12.086,74.441 
		12.957,75.105 13.31,75.256 13.683,75.291 13.976,75.075 14.097,74.48 13.995,74.26 13.547,73.76 13.445,73.486 13.573,73.148 
		13.853,73.136 14.131,73.358 14.26,73.732 14.349,74.341 14.581,74.737 14.898,74.723 15.252,74.102 15.293,73.736 15.145,73.195 
		15.252,72.896 15.49,72.674 15.741,72.632 15.996,72.721 16.245,72.896 16.088,73.636 16.215,74.351 16.538,74.892 16.963,75.105 
		17.576,74.99 17.912,74.692 18.167,74.287 18.525,73.855 19.015,73.63 19.535,73.654 20.407,73.855 20.732,74.234 20.879,74.367 
		20.98,74.305 21.08,74.174 21.221,74.102 21.51,74.135 21.991,74.303 23.025,74.424 23.25,74.369 23.41,74.206 23.693,73.713 
		23.828,73.609 24.65,73.609 24.905,73.689 25.431,74.034 25.725,74.102 25.988,74.082 26.229,74.023 26.42,73.879 26.538,73.609 
		26.567,73.113 26.416,72.965 26.18,72.926 25.953,72.762 25.914,72.295 26.4,72.198 27.354,72.383 27.586,72.568 27.781,72.786 
		28,72.93 28.314,72.896 28.557,72.686 28.882,72.08 29.16,71.891 29.705,69.944 29.849,69.053 29.908,68.219 29.893,68.046 
		29.842,67.861 29.785,67.5 29.775,67.162 29.834,67.031 29.934,66.97 30.2,66.996 30.337,66.972 30.467,66.828 30.488,66.701 
		30.451,66.588 30.393,66.482 30.33,66.386 30.223,66.172 30.057,65.705 29.941,65.201 29.863,63.262 29.838,62.986 29.723,62.485 
		29.545,61.879 29.326,61.427 29.267,61.277 29.2,61.043 29.196,60.866 29.237,60.725 29.311,60.633 29.533,60.5 29.651,60.403 
		29.785,60.225 29.826,60.072 29.815,59.936 29.768,59.826 29.629,59.635 29.548,59.498 29.471,59.321 29.393,58.99 29.404,58.809 
		29.451,58.666 29.567,58.51 29.674,58.04 29.745,57.875 29.834,57.762 29.923,57.711 30.004,57.646 30.248,57.402 30.441,57.265 
		30.525,57.184 30.604,57.086 30.666,56.961 30.719,56.805 30.814,56.422 30.867,56.283 30.934,56.178 31.022,56.104 31.408,55.934 
		31.552,55.758 31.589,55.578 31.589,55.313 31.625,55.153 31.699,54.941 31.814,54.713 31.996,54.236 32.129,54.033 32.264,53.931 
		32.844,53.918 33.881,54.081 34.011,54.063 34.114,53.999 34.195,53.914 34.673,52.98 34.851,52.787 35.014,52.703 35.588,52.831 
		35.95,52.998 36.342,53.295 36.569,53.427 36.699,53.473 37.139,53.547 37.395,53.646 37.869,54.022 38.091,54.147 38.346,54.244 
		38.627,54.299 38.757,54.283 38.871,54.243 39.001,54.139 39.457,53.536 39.664,53.361 40.219,53.117 40.964,53.057 41.152,53.012 
		41.404,52.88 41.504,52.744 41.533,52.605 	"/>
</g>
<g id="Layer_1">
</g>
</svg>
