<?xml version="1.0" encoding="iso-8859-1"?>
<!-- Generator: Adobe Illustrator 16.0.3, SVG Export Plug-In . SVG Version: 6.00 Build 0)  -->
<!DOCTYPE svg PUBLIC "-//W3C//DTD SVG 1.1//EN" "http://www.w3.org/Graphics/SVG/1.1/DTD/svg11.dtd">
<svg version="1.1" xmlns="http://www.w3.org/2000/svg" xmlns:xlink="http://www.w3.org/1999/xlink" x="0px" y="0px"
	 width="68.453px" height="86.604px" viewBox="0 0 68.453 86.604" style="enable-background:new 0 0 68.453 86.604;"
	 xml:space="preserve">
<g id="Kiev">
	<polygon style="fill-rule:evenodd;clip-rule:evenodd;fill:#6FA8DC;" points="67.492,45.346 67.861,44.797 68.453,43.154 
		67.012,42.268 66.867,42.113 66.723,41.909 66.779,41.805 66.854,41.708 67.027,41.537 67.123,41.465 67.209,41.367 67.268,41.255 
		67.268,41.078 67.197,40.979 67.09,40.906 66.805,40.873 66.535,40.909 66.357,40.904 66.146,40.863 65.779,40.686 65.613,40.555 
		65.498,40.441 65.445,40.348 65.398,40.244 65.375,40.116 65.369,39.981 65.375,39.815 65.369,39.63 65.313,39.386 65.238,39.253 
		65.158,39.165 64.59,38.681 64.502,38.478 64.486,38.307 64.535,38.16 64.672,37.928 64.936,37.57 64.965,37.539 65.01,37.504 
		65.08,37.471 65.154,37.462 65.652,37.549 65.689,37.551 65.705,37.547 65.805,37.478 65.867,37.39 65.916,37.263 65.941,37.124 
		65.971,36.614 65.908,36.084 65.809,35.868 65.668,35.75 64.656,35.76 64.365,35.723 64.225,35.68 64.031,35.514 63.799,35.243 
		62.957,34.079 62.65,33.856 61.961,33.192 61.703,33.009 61.492,32.913 60.955,32.984 60.469,33.141 60.365,33.197 60.281,33.277 
		60.232,33.387 60.215,33.524 60.211,33.667 60.195,33.799 60.15,33.916 60.008,34.097 59.967,34.207 59.959,34.338 59.977,34.464 
		59.988,34.584 59.963,34.693 59.893,34.765 59.682,34.871 59.582,34.941 59.508,35.046 59.443,35.171 59.299,35.386 59.221,35.483 
		59.129,35.564 59.01,35.608 58.873,35.626 57.922,35.536 57.777,35.547 57.652,35.578 57.541,35.632 57.447,35.708 57.277,35.887 
		57.123,36.088 57.033,36.172 56.92,36.222 56.648,36.26 56.525,36.295 56.43,36.365 56.34,36.457 56.111,36.762 56.023,36.847 
		55.908,36.896 55.771,36.909 55.455,36.886 55.322,36.901 55.211,36.953 55.025,37.114 54.922,37.176 54.805,37.214 54.664,37.214 
		53.213,36.884 53.119,36.886 53.006,36.907 52.902,36.959 52.805,37.04 52.568,37.331 52.316,37.547 50.443,37.08 49.957,37.028 
		49.643,37.041 49.52,37.127 49.365,37.189 49.102,37.24 48.939,37.188 48.807,37.12 48.58,36.952 48.383,36.894 48.121,36.878 
		47.965,36.837 47.836,36.778 47.748,36.694 47.67,36.602 47.6,36.502 47.543,36.396 47.506,36.272 47.51,36.12 47.543,35.773 
		47.521,35.594 47.436,35.394 47.307,35.318 47.133,35.298 46.662,35.31 46.51,35.251 46.389,35.175 45.699,34.474 45.625,34.377 
		45.563,34.272 45.543,34.139 45.559,33.986 45.633,33.684 45.699,33.583 45.787,33.542 46.031,33.55 46.148,33.519 46.24,33.447 
		46.314,33.341 46.377,33.221 46.484,32.952 46.525,32.804 46.543,32.651 46.543,32.509 46.477,32.11 46.352,31.605 46.27,31.378 
		46.166,31.154 46.025,30.954 45.688,30.596 45.141,30.138 45.104,30.082 45.066,29.983 45.082,29.668 45.051,29.476 44.955,29.384 
		44.822,29.348 44.436,29.333 44.113,29.264 43.971,29.167 43.896,29.044 43.906,28.91 43.941,28.769 43.988,28.629 44.008,28.494 
		43.98,28.351 43.793,28.166 43.689,28.005 43.6,27.838 43.526,27.628 43.402,27.527 43.266,27.472 43.125,27.474 43.015,27.523 
		42.911,27.587 42.63,27.816 42.52,27.871 42.268,27.935 41.982,27.958 40.689,27.83 40.396,27.845 40.168,27.941 39.809,28.272 
		39.619,28.31 39.342,28.291 38.209,27.978 38.086,28.011 37.99,28.087 37.797,28.442 37.705,28.551 37.579,28.634 37.364,28.666 
		37.225,28.623 37.117,28.549 36.957,28.302 36.828,28.142 36.557,27.91 36.354,27.814 36.176,27.774 35.488,27.968 35.221,27.964 
		35.087,27.9 35.01,27.793 35.017,27.657 35.054,27.528 35.109,27.4 35.439,26.817 35.669,26.298 35.816,25.875 35.895,25.566 
		36.021,24.775 36.023,24.654 35.924,24.509 35.717,24.298 34.939,23.695 34.724,23.567 33.432,23.082 33.191,22.952 33.04,22.829 
		32.988,22.714 32.958,22.587 32.944,22.444 32.944,22.291 32.955,22.133 32.98,21.973 33.128,21.34 33.232,20.67 33.251,20.356 
		33.24,20.211 33.225,20.071 33.166,19.81 33.128,19.685 33.077,19.566 33.018,19.454 32.896,19.294 32.313,18.74 32.073,18.61 
		31.888,18.564 31.736,18.591 31.533,18.571 31.236,18.482 30.955,18.25 30.796,18.153 30.67,18.099 30.555,18.118 30.452,18.169 
		30.367,18.26 30.248,18.359 30.111,18.435 29.851,18.442 29.736,18.362 29.663,18.25 29.633,18.118 29.533,16.979 29.607,14.658 
		29.644,14.328 30.073,12.228 30.088,11.917 30.063,11.631 30.004,11.368 29.729,10.612 29.692,10.396 29.718,10.229 29.807,10.151 
		29.93,10.116 30.393,10.157 30.522,10.129 30.622,10.063 30.685,9.964 30.703,9.834 30.643,9.554 30.548,9.771 30.284,9.833 
		30.103,9.473 29.835,9.177 29.532,8.977 29.211,8.892 28.878,8.932 28.504,8.815 27.973,8.012 27.623,7.68 27.275,7.593 
		26.565,7.598 26.2,7.455 25.882,7.166 25.152,6.226 24.974,5.821 25.041,5.783 25.241,4.987 25.282,4.687 25.285,4.292 
		25.259,3.99 25.191,3.737 25.048,3.477 24.742,3.189 23.538,2.6 23.201,2.243 22.308,1.017 21.639,0.521 20.954,0.332 
		17.615,0.422 17.067,0.583 15.62,1.347 15.321,1.364 14.939,1.105 14.693,1.083 14.392,1.296 13.989,2.035 13.748,2.3 
		13.319,2.413 11.153,2.048 10.853,1.63 10.643,1.049 10.248,0.36 9.836,0.073 9.313,0 8.764,0.085 8.292,0.286 7.799,0.732 
		7.461,1.234 7.104,1.662 6.551,1.89 5.93,1.961 5.607,2.126 5.37,2.577 5.02,3.508 4.672,4.126 4.197,4.132 3.155,3.703 
		2.605,3.878 1.975,4.431 1.993,4.496 2.125,4.785 2.185,4.875 2.274,4.966 2.385,4.989 2.488,4.949 2.677,4.815 2.758,4.795 
		2.817,4.831 2.854,4.888 2.884,5 2.895,5.297 2.833,6.702 2.784,7.14 2.725,7.437 2.488,7.945 2.188,8.363 1.884,8.662 
		1.137,9.222 0.688,9.452 0.433,9.52 0.141,9.542 0.029,9.609 0,9.768 0.447,11.413 0.704,13.372 0.822,13.909 0.911,14.154 
		0.963,14.252 1.019,14.315 1.089,14.288 1.159,14.202 1.636,13.389 1.718,13.304 1.825,13.265 1.948,13.286 2.204,13.384 
		2.64,13.667 3.385,14.343 3.529,14.539 3.584,14.645 3.629,14.754 3.673,14.885 3.74,15.149 3.788,15.266 3.877,15.354 
		3.999,15.414 4.572,15.6 4.81,15.743 4.906,15.826 5.069,16.011 5.128,16.119 5.18,16.23 5.217,16.354 5.232,16.512 5.213,16.688 
		5.117,16.935 4.803,17.429 4.676,17.67 4.631,17.834 4.607,18.016 4.592,18.25 4.599,18.515 4.673,19.375 4.666,19.658 
		4.57,19.894 4.458,19.902 4.354,19.859 4.265,19.769 4.073,19.607 3.951,19.548 3.799,19.515 3.047,19.527 2.943,19.644 
		2.925,19.878 3.032,20.39 3.166,20.569 3.307,20.655 3.44,20.675 3.547,20.731 3.629,20.823 4.955,22.902 5.532,23.561 
		5.598,23.648 5.643,23.824 5.657,24.077 5.202,26.72 5.202,26.879 5.236,27.017 5.354,27.112 5.454,27.141 6.339,27.017 
		6.654,27.065 6.913,27.173 7.086,27.346 7.153,27.451 7.197,27.57 7.268,27.824 7.349,28.355 7.68,29.64 7.684,29.814 
		7.646,30.027 7.499,30.373 7.384,30.546 7.268,30.668 6.524,31.093 6.439,31.183 6.369,31.291 6.143,31.801 5.472,32.819 
		5.247,33.24 5.018,33.747 4.984,33.889 4.984,34.044 5.088,34.243 5.184,34.368 5.291,34.469 5.706,34.769 5.772,34.885 
		5.791,35.034 5.68,35.46 5.443,36.164 5.395,36.269 5.317,36.359 5.206,36.412 4.929,36.446 4.843,36.542 4.836,36.719 
		4.936,36.992 5.065,37.12 5.321,37.274 5.395,37.367 5.443,37.456 5.469,37.528 5.48,37.574 5.476,37.682 5.45,37.866 
		5.236,38.596 5.18,38.724 5.11,38.832 5.025,38.919 4.917,38.975 4.784,38.984 4.358,38.888 4.235,38.892 4.143,38.955 
		4.099,39.068 4.113,39.197 4.217,39.329 4.58,39.548 4.666,39.63 4.683,39.75 4.609,39.903 4.535,40.024 4.428,40.103 
		4.302,40.138 3.766,40.198 3.703,40.308 3.714,40.472 3.87,40.756 4.017,40.852 4.162,40.878 4.288,40.844 5.206,40.458 
		5.335,40.426 6.351,40.389 6.487,40.426 6.602,40.487 6.791,40.651 7.083,41.035 7.138,41.141 7.205,41.242 7.265,41.349 
		7.327,41.444 7.413,41.617 7.569,42.651 7.879,43.432 7.95,44.019 8.061,44.222 8.179,44.316 8.464,44.297 8.619,44.316 
		8.765,44.355 8.868,44.43 8.946,44.521 9.005,44.63 9.29,45.318 9.497,45.708 9.567,45.803 9.653,45.891 9.771,45.953 
		10.045,46.049 10.127,46.256 10.165,46.596 10.038,48.061 10.068,48.486 10.068,48.641 10.052,48.799 10.038,49.277 10.045,49.406 
		10.079,49.527 10.127,49.646 10.194,49.744 10.279,49.831 10.375,49.912 10.708,50.109 10.804,50.188 10.86,50.367 10.9,50.613 
		10.9,51.111 11,51.312 11.063,51.498 11.071,51.66 10.86,52.035 10.705,52.195 10.557,52.307 9.756,52.504 9.697,52.53 
		9.627,52.576 9.56,52.682 9.516,52.836 9.512,53.091 9.553,53.428 9.878,54.799 9.86,54.889 9.801,55.004 9.656,55.17 
		9.579,55.325 9.579,55.561 9.623,55.711 9.679,55.848 11.048,58.107 11.093,58.225 11.115,58.352 11.041,58.557 10.904,58.797 
		10.372,59.384 10.209,59.514 9.56,59.848 9.453,59.953 9.323,60.134 9.172,60.492 8.787,61.018 8.671,61.138 8.58,61.211 
		8.468,61.266 8.113,61.393 8.013,61.458 7.728,61.734 7.565,61.857 6.791,62.217 5.924,62.871 5.809,62.909 5.687,62.92 
		5.48,62.885 5.376,62.92 5.247,63.014 5.084,63.27 4.955,63.391 4.81,63.45 4.517,63.422 4.391,63.426 4.276,63.465 4.091,63.612 
		4.021,63.732 3.984,63.889 4.054,64.209 4.125,64.383 4.25,64.639 4.269,64.83 4.261,65.078 4.169,65.561 4.103,65.811 
		4.036,66.01 3.854,66.359 3.725,66.565 3.555,66.777 3.529,66.862 3.551,66.938 3.87,66.99 4.169,66.982 4.71,66.884 4.84,66.88 
		4.962,66.904 5.036,66.986 5.065,67.137 5.073,67.329 5.051,67.625 5.021,67.824 4.951,67.997 4.851,68.129 4.487,68.302 
		4.361,68.414 4.284,68.506 4.217,69.041 5.387,69.216 5.554,69.291 5.731,69.43 5.794,69.553 5.828,69.703 5.802,69.957 
		5.757,70.125 5.698,70.277 5.45,70.77 5.41,70.895 5.38,71.033 5.354,71.191 5.347,71.493 5.387,71.908 5.443,72.071 5.532,72.254 
		5.724,72.535 5.861,72.683 5.998,72.784 6.957,73.27 7.035,73.387 7.079,73.548 7.086,73.82 7.057,74.27 7.02,74.358 6.954,74.436 
		6.875,74.5 6.776,74.564 6.631,74.617 6.543,74.678 6.469,74.77 6.432,74.893 6.432,75.025 6.506,75.238 7.057,76.375 
		7.138,76.635 7.142,77.117 7.12,77.445 7.079,77.578 7.016,77.689 6.927,77.771 5.742,78.557 5.661,78.646 5.594,78.736 
		5.539,78.83 5.513,78.89 5.491,78.972 5.48,79.023 5.465,79.158 5.461,79.403 5.472,79.492 5.85,80.199 5.943,80.441 6.002,80.643 
		6.018,80.934 6.084,81.092 6.229,81.245 6.591,81.432 6.824,81.506 7.499,81.613 7.613,81.658 7.709,81.754 7.809,81.905 
		8.135,82.619 8.572,83.271 8.735,83.611 8.783,83.804 8.865,83.892 9.009,83.963 9.334,83.97 9.697,83.918 9.956,84.033 
		10.183,84.541 11.115,84.82 11.222,84.922 11.33,85.047 11.283,85.146 11.186,85.205 11.075,85.254 10.979,85.336 10.923,85.465 
		10.952,85.709 11.056,85.906 11.226,86.101 11.716,86.459 12.108,86.604 13.515,86.461 14.123,86.486 14.282,86.412 14.356,86.298 
		14.304,85.91 14.308,85.775 14.341,85.65 14.404,85.543 14.474,85.443 14.818,85.113 14.977,84.93 15.173,84.62 15.244,84.449 
		15.362,84.063 15.422,83.941 15.5,83.85 15.785,83.691 16.299,83.301 16.54,83.236 17.333,83.219 17.573,83.18 17.732,83.102 
		17.988,82.703 18.181,82.496 18.329,82.434 18.492,82.446 18.666,82.496 19.377,82.549 19.514,82.59 19.743,82.72 19.858,82.766 
		20.069,82.803 20.168,82.74 20.198,82.641 20.168,82.523 20.125,82.41 19.954,82.107 19.91,82.019 19.891,81.953 19.898,81.844 
		19.995,81.709 20.15,81.563 20.491,81.365 20.649,81.187 20.902,80.846 21.032,80.812 21.168,80.828 21.683,81.035 21.771,81.105 
		21.783,81.213 21.75,81.33 21.483,81.758 21.372,82.004 21.332,82.135 21.332,82.27 21.365,82.383 21.446,82.469 21.564,82.529 
		25.749,83.42 25.859,83.468 25.935,83.525 25.959,83.624 25.959,83.754 25.95,83.904 25.986,84.055 26.075,84.201 26.316,84.332 
		26.523,84.334 26.649,84.259 26.711,84.129 27.163,82.139 27.301,81.735 27.338,81.598 27.348,81.455 27.34,81.172 27.363,80.873 
		27.427,80.577 27.504,80.428 27.619,80.285 27.852,80.119 28.026,80.064 28.196,80.064 28.333,80.105 28.455,80.16 28.563,80.229 
		28.749,80.389 28.826,80.476 28.948,80.682 29.007,80.804 29.085,80.908 29.2,81.012 29.296,81.02 29.363,81.01 30.148,80.725 
		30.271,80.654 30.537,80.406 30.659,80.395 30.77,80.428 31.437,80.81 31.552,80.797 31.64,80.728 31.777,80.512 32.088,79.887 
		32.188,79.752 32.284,79.732 32.373,79.773 32.565,79.945 32.737,80.006 33.029,80.043 33.376,79.932 33.591,79.904 33.743,79.924 
		33.839,79.996 33.917,80.086 34.388,80.922 34.469,81.026 34.595,81.121 34.717,81.131 34.828,81.102 35.265,80.842 36.047,80.607 
		36.135,80.539 36.397,80.227 36.523,80.111 36.742,79.975 36.891,79.996 37.261,80.168 37.509,80.152 37.649,80.079 37.894,79.818 
		38.124,79.676 38.283,79.666 38.395,79.727 38.453,79.828 38.505,79.938 38.605,80.059 38.749,80.148 39.074,80.205 39.248,80.052 
		39.342,79.898 39.349,79.737 39.332,79.316 39.342,79.171 39.371,79.021 39.415,78.893 39.986,77.854 40.086,77.715 40.219,77.56 
		40.646,77.227 40.764,77.107 40.982,76.803 41.227,76.521 41.814,75.967 41.955,75.762 42.096,75.621 43.114,74.918 43.192,74.821 
		43.259,74.724 43.358,74.535 43.752,73.563 43.893,73.379 44.111,73.169 44.852,72.651 44.988,72.51 45.014,72.426 45.037,72.295 
		45.063,71.852 45.055,71.711 45.041,71.576 45.012,71.453 44.941,71.353 44.834,71.285 44.555,71.213 44.439,71.152 44.365,71.064 
		44.324,70.945 44.311,70.809 44.328,70.379 44.389,70.234 44.484,70.102 44.777,69.836 44.855,69.709 45.148,68.889 45.393,68.408 
		45.436,68.273 45.459,68.128 45.447,67.992 45.41,67.875 45.314,67.652 45.299,67.53 45.322,67.399 45.373,67.273 45.707,66.717 
		45.758,66.586 45.969,65.268 45.973,65.126 45.932,65.008 45.857,64.915 45.766,64.837 45.68,64.748 45.621,64.65 45.613,64.517 
		45.633,64.389 45.666,64.267 45.688,64.197 45.965,63.648 46.002,63.52 46.016,63.391 45.951,63.293 45.861,63.214 45.658,63.068 
		45.576,62.982 45.533,62.879 45.555,62.76 45.609,62.648 45.848,62.375 45.924,62.272 46.15,61.807 46.33,61.561 46.467,61.443 
		46.607,61.373 47.447,61.275 49.287,59.981 49.523,59.902 49.795,59.867 50.672,59.871 50.936,59.828 51.354,59.674 51.535,59.636 
		51.654,59.646 51.787,59.68 51.875,59.742 51.939,59.836 51.973,59.957 51.99,60.09 52.02,60.219 52.061,60.336 52.113,60.441 
		52.176,60.543 52.26,60.629 52.357,60.709 52.438,60.799 52.486,60.91 52.512,61.037 52.537,61.313 52.57,61.436 52.627,61.535 
		52.803,61.732 52.928,61.92 53.006,62.014 53.127,62.075 53.193,62.064 53.254,62 53.293,61.875 53.357,61.55 53.42,61.369 
		53.541,61.168 53.664,61.1 53.785,61.115 53.883,61.187 53.975,61.27 54.102,61.346 54.275,61.39 54.586,61.375 54.76,61.318 
		54.893,61.238 54.963,61.138 55.023,61.014 55.066,60.869 55.127,60.559 55.156,60.313 55.186,60.189 55.264,60.023 55.375,59.961 
		55.504,59.949 55.615,60.004 55.693,60.096 55.73,60.215 55.746,60.35 55.715,61.1 55.734,61.229 55.793,61.334 55.9,61.406 
		58.15,61.83 58.293,61.8 58.371,61.762 58.484,61.57 58.719,61.065 58.977,60.638 59.398,60.207 59.471,60.104 59.51,59.974 
		59.525,59.836 59.496,59.438 59.521,59.313 59.578,59.203 60.184,58.402 60.418,57.902 60.521,57.636 60.58,57.324 60.592,57.021 
		60.584,56.738 60.547,56.473 60.521,56.353 60.498,56.229 60.518,56.112 60.6,55.955 60.703,55.867 60.822,55.805 61.742,55.52 
		61.943,55.414 62.078,55.295 62.109,55.162 62.121,55.023 62.057,54.777 61.895,54.311 61.844,54.054 61.803,53.783 61.791,53.492 
		61.775,53.355 61.746,53.232 61.568,52.768 61.543,52.644 61.637,52.457 61.84,52.24 62.584,51.674 62.746,51.514 62.861,51.26 
		62.984,50.918 63.088,50.703 63.188,50.68 63.424,50.774 63.596,50.805 63.883,50.762 64.043,50.693 64.176,50.614 64.686,50.086 
		64.834,49.885 64.965,49.652 65.014,49.521 65.027,49.383 65.021,49.246 64.988,49.121 64.932,49.012 64.795,48.816 64.713,48.727 
		64.586,48.545 64.547,48.461 64.52,48.389 64.502,48.279 64.494,48.146 64.51,47.996 64.539,47.849 64.619,47.656 64.738,47.457 
		64.994,47.139 65.117,47.012 65.234,46.924 65.457,46.849 65.59,46.83 65.891,46.862 66.035,46.91 66.271,47.035 66.482,47.184 
		66.791,47.305 67.416,46.383 67.471,46.262 67.543,46.053 67.523,45.936 67.471,45.818 67.404,45.707 67.359,45.561 67.396,45.448 
			"/>
</g>
<g id="Layer_1">
</g>
</svg>
