<?xml version="1.0" encoding="iso-8859-1"?>
<!-- Generator: Adobe Illustrator 16.0.3, SVG Export Plug-In . SVG Version: 6.00 Build 0)  -->
<!DOCTYPE svg PUBLIC "-//W3C//DTD SVG 1.1//EN" "http://www.w3.org/Graphics/SVG/1.1/DTD/svg11.dtd">
<svg version="1.1" xmlns="http://www.w3.org/2000/svg" xmlns:xlink="http://www.w3.org/1999/xlink" x="0px" y="0px"
	 width="99.774px" height="54.381px" viewBox="0 0 99.774 54.381" style="enable-background:new 0 0 99.774 54.381;"
	 xml:space="preserve">
<g id="Kirovohrad">
	<polygon style="fill-rule:evenodd;clip-rule:evenodd;fill:#6FA8DC;" points="99.305,13.639 99.12,13.441 98.737,13.235 
		98.338,13.155 97.52,13.142 97.102,13.018 96.411,12.326 95.665,12.461 95.602,12.575 95.461,12.678 95.251,12.758 94.791,12.793 
		94.558,12.844 94.409,12.932 94.347,13.045 94.295,13.186 94.184,13.807 94.136,13.976 94.062,14.122 93.906,14.262 93.796,14.262 
		93.743,14.183 93.722,14.064 93.714,13.936 93.646,13.699 93.45,13.272 93.384,13.168 93.14,12.91 92.947,12.762 92.08,12.332 
		91.858,12.315 91.71,12.365 91.459,12.832 91.344,12.932 91.191,13.015 90.921,13.074 90.784,13.035 90.729,12.933 90.6,12.768 
		90.355,12.573 89.318,12.158 89.137,12.016 88.988,11.838 88.727,11.631 87.978,11.298 87.634,11.201 87.404,11.205 87.334,11.31 
		87.26,11.456 87.171,11.591 86.978,11.707 86.874,11.695 86.8,11.647 86.763,11.585 86.682,11.477 86.556,11.355 86.156,11.079 
		86.061,10.969 86.005,10.879 85.953,10.778 85.545,10.223 85.448,10.115 85.086,9.836 85.012,9.759 84.979,9.684 85.026,9.618 
		85.245,9.476 85.315,9.416 85.382,9.33 85.438,9.211 85.46,9.077 85.456,8.945 85.43,8.696 85.452,8.591 85.533,8.529 
		85.901,8.455 86.009,8.407 86.09,8.334 86.119,8.212 86.101,8.085 85.986,7.921 85.408,7.755 85.219,7.672 85.115,7.541 
		85.026,7.225 84.923,7.166 82.705,6.946 82.527,6.806 82.416,6.688 82.153,6.259 82.113,6.167 82.08,6.06 81.987,5.84 81.55,5.14 
		81.397,4.957 81.224,4.79 78.746,2.908 72.793,0 72.522,1.026 72.463,1.162 71.934,2.682 71.915,2.808 71.93,2.933 72.089,3.118 
		72.366,3.354 72.445,3.438 72.52,3.534 72.582,3.634 72.634,3.739 72.812,4.188 73.004,5.051 73.041,5.451 73.03,6.424 
		73.056,6.671 73.07,6.761 73.093,6.835 73.207,7.152 73.244,7.271 73.651,8.417 73.711,8.514 73.804,8.589 74.233,8.687 
		74.348,8.744 74.385,8.852 74.381,8.997 74.359,9.143 74.274,9.308 74.134,9.477 73.048,10.379 72.882,10.559 72.76,10.724 
		72.642,10.834 72.472,10.907 72.089,10.887 71.723,10.765 71.63,10.681 71.526,10.607 71.441,10.523 70.826,10.102 70.567,9.993 
		70.423,9.975 70.271,10.016 70.112,10.167 70.02,10.31 69.953,10.459 69.905,10.596 69.774,10.827 69.541,11.106 69.108,11.477 
		68.968,11.534 68.79,11.563 68.487,11.536 68.297,11.49 68.164,11.418 67.883,11.188 67.661,11.055 67.521,11.044 67.384,11.085 
		67.228,11.242 67.18,11.385 67.146,11.54 67.154,11.682 67.143,11.818 67.128,11.956 67.027,12.071 66.872,12.139 66.546,12.139 
		66.376,12.088 66.265,12.009 66.231,11.894 66.21,11.761 66.165,11.087 66.076,10.711 65.987,10.495 65.939,10.409 65.021,9.163 
		64.858,8.851 64.817,8.735 64.81,8.603 64.828,7.736 64.821,7.601 64.78,7.482 64.681,7.433 64.54,7.45 64.329,7.619 64.014,7.929 
		63.888,7.991 63.718,8.024 63.437,8.019 63.052,7.952 62.78,7.858 62.673,7.784 62.606,7.689 62.577,7.563 62.565,7.432 
		62.528,7.31 62.451,7.224 62.236,7.077 62.162,6.995 62.144,6.874 62.17,6.585 62.159,6.454 62.11,6.349 62.015,6.281 
		61.893,6.261 61.771,6.317 61.421,6.603 61.162,6.69 60.862,6.978 60.792,7.1 60.773,7.22 60.792,7.342 60.829,7.466 60.855,7.587 
		60.841,7.699 60.763,7.779 60.641,7.812 60.289,7.73 60.021,7.623 59.881,7.603 59.733,7.631 59.566,7.785 59.467,7.908 
		59.09,8.628 58.859,8.964 58.566,9.527 58.475,9.635 58.389,9.704 57.537,10.24 57.374,10.403 57.267,10.549 57.167,10.802 
		57.145,10.928 57.178,11.033 57.252,11.118 57.337,11.201 57.407,11.293 57.455,11.405 57.452,11.547 57.43,11.695 57.4,11.846 
		57.233,12.437 57.178,12.573 57.056,12.689 56.867,12.771 56.46,12.79 56.265,12.747 56.134,12.657 56.097,12.54 56.041,12.444 
		55.882,12.427 55.209,12.556 55.049,12.521 54.994,12.455 54.981,12.358 54.938,12.27 54.842,12.195 54.727,12.135 54.598,12.127 
		54.468,12.176 54.046,12.611 53.917,12.708 52.847,13.065 52.521,13.28 52.336,13.452 52.201,13.707 52.054,13.888 51.758,14.182 
		51.617,14.385 51.465,14.525 51.269,14.598 50.984,14.531 50.831,14.387 50.739,14.196 50.616,13.586 50.562,13.4 50.491,13.206 
		50.406,13.045 50.303,12.908 50.191,12.783 49.442,12.277 47.585,11.598 47.396,11.559 46.563,11.53 46.422,11.585 46.252,11.698 
		46.1,11.992 46.015,12.23 45.866,12.42 45.647,12.511 44.236,12.478 43.504,12.217 43.308,12.191 43.094,12.266 42.878,12.511 
		42.785,12.743 42.744,12.996 42.744,13.469 42.808,14.143 42.814,14.851 42.789,15.073 42.692,15.486 42.585,15.662 42.452,15.821 
		41.816,16.356 41.593,16.632 41.515,16.804 41.46,16.998 41.427,17.215 41.326,17.618 41.142,18.162 40.96,18.344 40.649,18.526 
		39.904,18.741 39.401,18.983 38.867,19.16 38.564,19.151 38.376,19.195 38.149,19.449 38.054,19.507 37.932,19.444 37.854,19.344 
		37.695,19.028 37.632,18.942 37.575,18.884 37.486,18.822 37.116,18.669 36.813,18.624 36.402,18.662 36.269,18.652 35.739,18.478 
		35.447,18.423 34.609,18.461 34.402,18.528 33.262,19.221 32.877,19.344 31.899,19.344 31.718,19.378 31.559,19.373 31.418,19.35 
		31.311,19.289 31.041,19.058 30.6,18.798 29.886,18.584 29.304,18.533 28.915,18.388 28.634,18.338 27.441,18.418 27.168,18.325 
		26.948,18.332 26.101,18.545 25.816,18.571 25.628,18.53 25.55,18.446 25.43,18.25 25.316,18.188 25.124,18.177 24.798,18.214 
		24.617,18.18 24.469,18.13 24.357,18.062 24.23,18.017 24.071,18 23.728,18.015 23.446,17.954 23.254,17.955 23.006,18.015 
		22.198,18.478 21.48,19.164 20.932,19.566 20.729,19.843 20.666,20.019 20.78,20.235 20.813,20.351 20.829,20.466 20.832,20.582 
		20.821,20.667 20.599,21.669 20.551,21.809 20.374,22.008 19.473,22.804 19.24,23.082 19.155,23.275 19.222,23.36 19.321,23.435 
		19.821,23.652 19.924,23.725 19.995,23.813 20.028,23.929 20.035,24.639 20.013,24.928 19.947,25.221 19.792,25.337 19.547,25.44 
		17.807,25.639 17.678,25.617 17.589,25.546 17.518,25.463 17.471,25.357 17.34,25.159 17.251,25.075 17.14,25.019 16.7,24.948 
		16.144,24.978 16.003,25.039 15.866,25.141 15.7,25.385 15.626,25.567 15.593,25.739 15.559,26.038 15.533,26.194 15.485,26.338 
		15.434,26.465 12.338,28.089 12.213,28.293 12.148,28.367 12.034,28.397 11.871,28.395 11.512,28.307 11.342,28.212 11.228,28.104 
		11.168,27.999 11.094,27.913 10.998,27.839 10.869,27.796 10.656,27.831 10.409,27.948 9.735,28.486 9.131,29.127 8.835,29.237 
		8.064,29.174 7.483,29.949 7.173,30.156 6.358,30.276 6.203,30.358 6.103,30.472 5.77,31.071 5.25,31.736 4.992,31.961 
		4.817,32.023 4.751,31.932 4.699,31.829 4.655,31.72 4.503,31.11 4.462,30.996 4.333,30.801 4.281,30.699 4.259,30.572 
		4.274,30.426 4.3,30.278 4.267,30.134 4.158,30.006 3.803,29.927 3.61,29.936 3.466,29.98 3.03,30.353 2.873,30.533 2.592,30.938 
		2.47,31.155 1.948,31.805 1.196,32.534 1.07,32.693 0.981,32.829 0.941,32.94 0.93,33.024 0.933,33.128 0.948,33.242 0.956,33.374 
		0.948,33.666 0.918,33.972 0.889,34.124 0.697,34.647 0.556,34.921 0.096,35.573 0.033,35.691 0,35.799 0.019,35.906 0.074,35.998 
		0.17,36.07 0.282,36.13 0.867,36.274 0.989,36.324 1.085,36.384 1.137,36.454 1.152,36.487 1.155,36.502 1.155,36.516 
		1.092,36.724 1.078,36.829 1.104,36.935 1.152,37.039 1.174,37.154 1.159,37.291 1.092,37.431 0.963,37.626 0.885,37.78 
		0.837,37.903 0.874,38.19 1.475,38.082 1.859,37.933 1.963,37.909 2.092,37.941 2.226,38.012 2.636,38.327 2.745,38.443 
		2.807,38.541 3.1,38.896 3.196,38.973 3.303,39.015 3.437,39.016 3.57,38.929 3.666,38.836 4.222,37.818 4.355,37.613 
		4.437,37.532 4.555,37.509 4.703,37.547 5.018,37.846 5.143,37.938 5.28,37.959 5.48,37.897 5.799,37.698 5.863,37.669 
		6.17,37.553 6.563,38.325 6.91,39.201 7.389,39.9 8.239,40.31 13.241,40.595 13.939,40.635 14.134,40.574 14.24,40.368 
		14.399,39.734 14.541,39.602 18.222,39.602 18.424,39.651 18.64,39.655 18.83,39.691 19.876,40.071 20.803,40.265 21.039,40.263 
		21.191,40.212 21.254,40.119 21.298,40.021 21.391,39.729 21.444,39.631 21.644,39.493 21.958,39.33 23.065,38.959 23.335,38.925 
		24.031,39.054 24.757,39.048 25.075,39.095 25.279,39.168 25.316,39.279 25.338,39.404 25.39,39.544 25.493,39.664 25.742,39.762 
		25.89,39.747 25.986,39.662 26.146,39.209 26.208,39.097 26.316,38.975 26.538,38.827 26.701,38.792 26.845,38.813 26.956,38.873 
		27.046,38.951 27.116,39.045 27.16,39.152 27.183,39.28 27.194,39.413 27.249,39.56 27.368,39.691 27.682,39.81 27.871,39.832 
		28.026,39.813 28.126,39.756 28.211,39.677 28.283,39.57 28.419,39.432 28.619,39.284 29.366,39.042 29.541,38.956 29.614,38.86 
		29.671,38.741 29.719,38.609 29.782,38.302 29.963,38.104 30.278,37.902 31.107,37.619 31.604,37.553 33.329,37.706 33.711,37.835 
		34.132,37.885 34.343,37.94 34.487,38.018 34.536,38.121 34.562,38.242 34.621,39.191 34.64,39.319 34.731,39.438 34.893,39.535 
		35.436,39.695 35.554,39.769 35.584,39.828 35.599,39.928 35.58,40.491 35.588,40.624 35.624,40.74 35.677,40.833 35.731,40.91 
		35.78,40.958 35.857,41.017 36.083,41.121 38.316,41.447 38.494,41.421 38.904,41.142 39.279,40.979 39.391,41.021 39.461,41.108 
		39.498,41.227 39.564,41.347 39.664,41.457 39.853,41.572 40.001,41.593 40.115,41.556 40.204,41.479 40.401,41.391 40.709,41.299 
		42.026,41.189 42.131,41.223 42.216,41.288 42.278,41.381 42.315,41.495 42.341,41.76 42.274,42.504 42.241,42.653 42.197,42.784 
		42.079,42.975 42.042,43.052 42.034,43.153 42.061,43.284 42.186,43.42 42.323,43.468 42.46,43.474 42.57,43.433 42.648,43.347 
		42.686,43.218 42.704,43.076 42.719,42.644 42.763,42.485 42.845,42.339 43.046,42.197 43.171,42.214 43.268,42.297 43.356,42.436 
		43.471,42.479 43.593,42.484 43.963,42.41 44.066,42.358 44.145,42.286 44.17,42.171 44.151,41.781 44.17,41.646 44.22,41.526 
		44.296,41.442 44.423,41.363 44.822,41.2 44.971,41.217 45.077,41.274 45.389,41.645 45.529,41.726 45.764,41.819 46.037,41.771 
		46.236,41.81 46.403,41.881 46.621,42.04 46.78,42.09 46.93,42.104 47.865,41.93 48.065,41.957 48.198,42.031 48.252,42.136 
		48.407,42.725 48.499,42.939 48.536,43.056 48.555,43.179 48.563,43.317 48.544,43.468 48.515,43.616 48.466,43.753 48.399,43.856 
		48.313,43.937 48.028,44.132 47.081,44.564 47.006,44.628 47.006,44.724 47.041,44.827 47.355,45.411 47.374,45.434 48.136,46.725 
		48.44,47.112 48.718,47.386 48.844,47.409 49.442,47.28 49.599,47.311 49.707,47.374 49.832,47.558 49.929,47.77 49.951,47.896 
		49.962,48.029 49.987,48.15 50.028,48.261 50.08,48.361 50.146,48.457 50.661,49.075 50.713,49.178 50.757,49.288 50.779,49.408 
		50.787,49.54 50.775,49.675 50.731,49.799 50.676,49.917 50.262,50.525 50.202,50.64 50.154,50.761 50.132,50.895 50.15,51.017 
		50.191,51.127 50.38,51.42 50.432,51.52 50.458,51.644 50.461,51.777 50.45,51.926 50.428,52.08 50.425,52.251 50.45,52.414 
		50.558,52.604 50.687,52.671 50.824,52.696 52.905,52.671 53.021,52.644 53.109,52.581 53.149,52.461 53.179,52.327 53.216,52.189 
		53.375,52.103 53.636,52.064 54.493,52.175 54.686,52.254 54.942,52.504 55.497,52.801 55.601,52.883 55.683,52.967 55.749,53.061 
		55.956,53.473 56.045,53.687 56.159,53.837 56.355,53.995 56.819,54.25 57.074,54.338 57.281,54.381 57.537,54.341 57.753,54.25 
		57.846,54.184 58.008,54.021 58.278,53.617 58.585,52.996 59.104,52.144 59.179,52.047 59.26,51.962 59.355,51.896 59.566,51.8 
		60.43,51.673 60.833,51.729 61.1,51.819 61.737,52.221 62.155,52.659 62.277,52.684 62.385,52.659 62.669,52.533 62.91,52.46 
		63.062,52.479 63.199,52.521 63.311,52.585 64.873,53.155 65.117,53.193 69.245,52.539 69.353,52.501 69.415,52.409 69.441,52.295 
		69.471,51.737 69.468,51.601 69.489,51.324 69.53,51.201 69.615,51.129 70.108,51.039 70.205,50.99 70.253,50.898 70.245,50.79 
		70.175,50.706 70.09,50.625 70.017,50.537 69.976,50.426 69.976,50.288 70.009,49.99 70.001,49.854 69.972,49.734 69.806,49.434 
		69.76,49.324 69.737,49.207 69.742,49.085 69.787,48.97 69.854,48.875 69.946,48.807 70.183,48.747 70.826,48.673 70.934,48.633 
		71.02,48.558 71.052,48.438 71.064,48.3 71.06,48.03 71.027,47.923 70.938,47.868 70.53,47.795 70.416,47.742 70.334,47.662 
		70.278,47.561 70.245,47.444 70.23,47.317 70.238,47.176 70.264,47.031 70.309,46.892 70.364,46.769 70.431,46.66 70.501,46.565 
		70.582,46.482 70.771,46.345 71.074,46.179 72.06,45.995 72.526,45.807 72.66,45.824 72.752,45.885 72.819,45.979 72.989,46.282 
		73.085,46.394 73.223,46.505 73.488,46.633 73.648,46.647 73.763,46.61 73.83,46.51 73.882,46.385 73.975,46.107 74.03,45.991 
		74.122,45.916 74.866,45.759 74.955,45.713 75.037,45.641 75.084,45.548 75.104,45.467 75.106,45.428 75.104,45.404 75.018,45.05 
		74.985,44.792 74.995,44.654 75.018,44.519 75.067,44.396 75.167,44.283 75.308,44.182 75.61,44.092 75.877,44.104 76.47,44.217 
		76.626,44.196 77.125,43.853 77.255,43.844 77.34,43.906 77.384,44.011 77.421,44.128 77.458,44.378 77.495,44.492 77.543,44.599 
		77.654,44.796 78.099,45.321 78.151,45.4 78.181,45.454 78.21,45.551 78.218,45.67 78.188,46.104 78.21,46.228 78.295,46.335 
		78.676,46.616 78.936,45.424 79.206,44.509 79.303,44.396 79.477,44.269 79.658,44.229 79.932,44.04 80.102,43.809 80.316,43.382 
		80.49,43.143 80.698,42.943 81.039,42.688 81.238,42.576 81.401,42.519 82.298,42.597 82.875,42.438 83.035,42.329 83.139,42.208 
		83.22,41.938 83.254,41.786 83.279,41.495 83.265,41.229 83.231,40.971 83.224,40.696 83.275,40.396 83.395,39.969 83.52,39.351 
		83.608,39.232 83.712,39.187 83.801,39.208 83.853,39.29 83.897,39.392 84.09,40.354 84.09,40.455 84.053,40.547 83.989,40.645 
		83.935,40.748 83.904,40.867 83.901,40.996 83.908,41.127 83.968,41.503 84.016,41.622 84.097,41.717 84.249,41.771 84.345,41.711 
		84.416,41.607 84.594,41.037 84.805,40.53 84.868,40.414 85.834,39.344 85.964,39.114 86.045,38.89 86.142,38.804 86.256,38.798 
		86.356,38.863 86.434,38.949 86.497,39.047 86.57,39.137 86.652,39.211 86.741,39.271 86.855,39.299 87.007,39.303 87.293,39.257 
		87.448,39.185 87.567,39.095 87.771,38.829 88.727,37.918 88.797,37.818 89.063,37.303 89.188,37.215 89.329,37.182 89.507,37.178 
		89.691,37.148 89.967,37.06 90.085,36.927 90.151,36.777 90.396,35.087 90.403,34.945 90.385,34.821 90.325,34.723 90.222,34.653 
		89.948,34.556 89.845,34.494 89.793,34.411 89.773,34.355 89.766,34.328 89.736,34.021 89.654,32.154 89.518,31.413 89.511,31.28 
		89.511,31.14 89.492,31.008 89.455,30.9 89.355,30.834 89.244,30.788 89.159,30.723 89.122,30.616 89.085,30.326 89.107,30.11 
		89.199,29.977 89.352,29.824 89.399,29.695 89.396,29.574 88.893,28.384 88.826,28.146 88.822,28.014 88.852,27.742 88.848,27.643 
		88.76,27.614 88.552,27.596 88.495,27.573 88.474,27.558 88.443,27.497 88.412,27.408 88.385,27.267 88.367,27.091 88.396,26.805 
		88.464,26.653 88.552,26.541 89.233,26.087 91.288,25.273 91.344,25.312 91.403,25.501 91.507,25.512 91.685,25.427 92.328,24.738 
		92.444,24.649 92.476,24.634 92.548,24.586 95.075,23.372 95.262,23.233 96.12,22.322 96.286,22.22 96.409,22.194 96.543,22.185 
		96.717,22.138 96.92,22.054 97.234,21.822 97.371,21.654 97.427,21.505 97.371,21.409 97.261,21.349 96.331,21.125 96.201,21.068 
		96.131,20.973 96.094,20.858 96.075,20.73 96.035,20.616 95.983,20.517 95.887,20.449 94.479,20.369 94.336,20.337 94.214,20.286 
		93.69,19.928 93.568,19.868 92.235,19.633 92.117,19.579 92.024,19.503 91.954,19.412 91.847,19.065 91.803,18.955 91.743,18.853 
		91.658,18.769 91.433,18.638 91.344,18.557 91.273,18.462 91.218,18.362 91.145,18.12 91.117,17.989 91.14,17.77 91.488,17.225 
		91.636,17.057 91.78,16.957 91.902,16.944 92.021,16.976 92.103,17.05 92.154,17.157 92.221,17.254 92.317,17.327 92.461,17.349 
		92.614,17.327 93.543,16.535 93.698,16.483 93.843,16.49 93.991,16.52 94.128,16.568 94.221,16.647 94.28,16.75 94.313,16.866 
		94.369,17.11 94.409,17.222 94.487,17.312 94.609,17.366 94.75,17.39 94.901,17.351 95.046,17.252 95.514,16.644 95.599,16.563 
		95.698,16.501 95.827,16.485 95.979,16.501 96.123,16.542 96.238,16.604 96.298,16.707 96.301,16.841 96.234,17.303 96.257,17.435 
		96.323,17.517 96.493,17.474 96.613,17.317 96.765,17.021 96.872,16.901 96.968,16.897 97.017,16.993 97.027,17.121 97.023,17.265 
		97.031,17.42 97.05,17.53 97.179,17.788 97.187,18.131 97.268,18.197 97.387,18.254 97.538,18.222 97.631,18.131 97.704,18.015 
		97.761,17.883 97.95,17.309 98.12,16.985 98.316,16.862 98.453,16.683 98.634,16.394 98.849,16.22 98.952,16.052 99.004,15.912 
		99.022,15.762 99.164,15.303 99.774,14.379 	"/>
</g>
<g id="Layer_1">
</g>
</svg>
