<?xml version="1.0" encoding="iso-8859-1"?>
<!-- Generator: Adobe Illustrator 16.0.3, SVG Export Plug-In . SVG Version: 6.00 Build 0)  -->
<!DOCTYPE svg PUBLIC "-//W3C//DTD SVG 1.1//EN" "http://www.w3.org/Graphics/SVG/1.1/DTD/svg11.dtd">
<svg version="1.1" xmlns="http://www.w3.org/2000/svg" xmlns:xlink="http://www.w3.org/1999/xlink" x="0px" y="0px"
	 width="55.174px" height="81.562px" viewBox="0 0 55.174 81.562" style="enable-background:new 0 0 55.174 81.562;"
	 xml:space="preserve">
<g id="Luhansk">
	<polygon style="fill-rule:evenodd;clip-rule:evenodd;fill:#6FA8DC;" points="54.9,26.242 53.785,24.931 52.846,23.456 
		52.343,22.37 52.2,21.214 52.663,20.015 53.085,19.616 54.008,19.078 54.375,18.573 54.486,17.813 54.194,17.496 54.123,17.418 
		51.79,16.783 51.322,16.77 50.747,16.979 49.332,18.431 48.728,18.788 48.012,19.07 47.279,19.22 46.631,19.193 46.143,18.966 
		44.904,17.777 43.938,17.312 43.095,17.079 42.369,16.578 41.76,15.31 41.383,13.738 41.116,12.908 40.809,12.514 39.415,12.362 
		38.956,12.16 38.091,11.574 37.192,11.768 36.268,12.225 35.323,12.428 34.423,12.217 33.73,11.759 33.186,11 31.865,7.556 
		31.824,7.52 31.222,6.999 30.3,7.338 29.888,7.81 29.136,8.937 28.677,9.325 28.275,9.443 26.011,9.586 25.37,8.956 24.793,8.048 
		23.979,7.287 21.488,6.562 20.043,5.514 19.893,5.348 19.764,5.025 19.697,4.435 19.495,3.707 19.503,3.615 19.443,3.71 
		18.861,3.909 18.649,4.052 18.425,4.148 17.248,3.93 15.515,4.244 14.646,3.92 14.089,3.536 13.667,3.37 12.622,3.253 
		12.139,3.045 11.854,2.618 11.137,0.492 10.799,0.084 10.353,0.013 9.699,0.138 8.173,0 7.793,0.098 7.559,1.201 7.731,2.915 
		7.607,4.524 6.483,5.315 6.229,5.26 5.798,4.973 5.531,4.918 5.23,5.017 4.189,5.686 4.221,5.907 4.298,6.251 4.681,7.155 
		4.739,7.256 4.88,7.452 4.962,7.543 5.058,7.625 5.527,7.905 5.572,8.008 5.554,8.125 5.442,8.243 5.324,8.307 5.188,8.338 
		4.661,8.38 4.188,8.519 3.77,8.737 3.644,8.879 3.606,8.963 3.584,9.071 3.636,9.199 3.681,9.265 4.681,10.057 4.725,10.162 
		4.72,10.274 4.621,10.394 4.517,10.477 4.202,10.663 4.113,10.752 4.036,10.854 3.969,10.979 3.913,11.115 3.865,11.271 
		3.758,11.538 3.666,11.574 3.596,11.578 3.021,11.437 2.895,11.456 2.795,11.519 2.71,11.608 2.551,11.814 2.263,12.274 
		2.211,12.406 2.195,12.563 2.263,12.757 2.354,12.854 2.466,12.864 3.109,12.592 3.235,12.573 3.361,12.592 3.474,12.654 
		3.547,12.74 3.603,12.825 3.647,12.931 3.658,12.988 3.669,13.086 3.625,14.108 3.636,14.558 3.666,14.726 3.669,14.846 
		3.65,14.997 3.603,15.162 3.474,15.373 3.184,15.71 3.102,15.883 2.888,16.536 2.776,16.724 2.662,16.847 2.462,16.949 
		2.381,17.011 2.348,17.077 2.318,17.19 2.352,17.388 2.503,17.906 2.547,18.002 2.706,18.211 2.766,18.303 2.78,18.407 
		2.743,18.513 2.613,18.6 2.525,18.685 2.525,18.869 2.762,19.592 2.788,19.716 2.795,19.853 2.766,20.002 2.64,20.202 
		2.528,20.313 2.032,20.651 1.94,20.751 1.869,20.89 1.747,21.436 1.658,22.041 1.507,22.4 1.377,22.58 1.248,22.642 0.885,22.722 
		0.777,22.773 0.681,22.845 0.392,23.293 0.34,23.428 0.317,23.569 0.388,23.771 0.473,23.9 0.715,24.192 0.774,24.297 
		0.855,24.521 0.914,24.763 0.948,25.011 0.818,26.861 0.837,27.302 0.899,27.576 1.021,27.63 1.439,27.691 1.58,27.736 
		1.702,27.798 1.795,27.881 1.869,27.974 1.928,28.077 1.963,28.191 1.95,28.383 1.88,28.641 1.525,29.199 1.214,29.572 
		0.577,30.014 0,30.541 0.273,30.57 0.495,30.69 0.774,30.938 0.926,31.122 1.059,31.316 1.137,31.404 1.248,31.463 1.385,31.5 
		1.821,31.555 1.958,31.623 2.059,31.713 2.068,31.929 1.992,32.013 1.873,32.068 1.214,32.102 1.114,32.157 1.048,32.262 
		0.996,32.393 0.863,32.847 0.866,33.003 0.937,33.142 1.144,33.288 2.181,33.712 2.836,34.152 2.958,34.188 3.084,34.195 
		3.194,34.163 3.295,34.095 3.917,33.529 4.021,33.466 4.136,33.435 5.117,33.486 5.235,33.515 5.324,33.588 5.316,33.774 
		5.15,34.714 5.128,34.999 5.132,35.134 5.143,35.263 5.154,35.527 5.124,35.675 5.08,35.82 5.018,35.943 4.943,36.048 4.69,36.323 
		4.621,36.427 4.661,36.723 4.803,37.158 5.494,38.834 5.498,38.92 5.498,38.971 5.487,39.029 5.457,39.136 5.402,39.243 
		5.31,39.316 5.202,39.358 4.817,39.386 4.713,39.421 4.673,39.512 4.658,39.634 4.651,39.756 4.609,39.861 4.509,39.902 
		4.231,39.888 4.109,39.915 4.021,39.994 3.95,40.103 3.892,40.235 3.847,40.374 3.836,40.514 3.88,40.623 4.021,40.685 
		4.154,40.709 4.316,40.768 4.483,40.881 4.713,41.117 4.865,41.207 5.021,41.247 7.728,41.428 8.656,41.722 8.735,42.113 
		9.013,42.953 9.087,43.314 9.12,43.564 9.12,44.103 9.157,44.244 9.245,44.369 9.449,44.506 9.782,44.607 9.923,44.62 
		10.209,44.691 10.313,44.789 10.36,44.932 10.35,45.177 10.309,45.347 10.313,45.545 10.39,45.781 10.604,46.18 10.7,46.563 
		10.719,46.813 10.679,46.991 10.567,47.26 10.435,47.498 10.142,47.928 10.079,48.053 10.037,48.194 10.013,48.33 10.005,48.447 
		10,48.633 10.027,48.732 10.074,48.826 10.19,48.851 10.66,48.742 10.786,48.738 10.893,48.784 10.956,48.896 10.93,49.117 
		10.874,49.271 10.805,49.412 10.423,49.923 9.882,50.399 9.737,50.566 9.7,50.626 9.652,50.729 9.608,50.854 9.582,50.988 
		9.578,51.125 9.642,52.025 9.752,52.599 9.76,52.668 9.756,52.775 9.704,53.06 9.697,53.216 9.745,53.381 10.035,54.14 
		10.087,54.363 10.082,54.56 10.042,54.71 9.889,55.136 9.855,55.282 9.849,55.418 9.9,55.561 10.008,55.698 10.257,55.873 
		10.561,56.004 10.926,56.092 11.049,56.164 11.134,56.27 11.155,56.454 11.159,56.609 11.119,56.883 11.085,56.994 11.07,57.025 
		11.008,57.2 10.93,57.498 10.863,57.938 10.849,58.213 10.853,58.479 10.919,58.637 11.045,58.804 11.366,59.048 11.575,59.142 
		11.753,59.182 11.882,59.188 12.019,59.225 12.333,59.427 12.474,59.454 12.6,59.444 12.701,59.386 12.784,59.309 12.941,59.115 
		13.03,59.035 13.167,59.078 13.337,59.256 13.596,59.73 13.692,59.988 13.751,60.189 13.773,60.308 13.811,60.42 13.903,60.551 
		14.04,60.698 14.548,61.11 14.781,61.449 15.11,62.113 15.162,62.283 15.162,62.359 15.144,62.471 15.106,62.593 15.051,62.707 
		14.974,62.806 14.889,62.882 14.792,62.94 14.696,62.978 13.607,63.16 13.537,63.185 13.474,63.228 13.422,63.312 13.418,63.419 
		13.426,63.54 13.496,63.801 13.645,64.213 13.751,64.689 13.825,64.816 13.959,64.938 14.267,65.082 14.641,65.162 17.029,64.931 
		17.154,64.976 17.262,65.092 17.398,65.38 17.51,65.716 17.584,66.082 17.691,66.423 18.063,67.272 18.1,67.381 18.131,67.5 
		18.116,67.634 18.048,67.923 17.996,68.211 17.983,68.349 18.048,68.493 18.181,68.641 18.688,68.963 21.687,70.102 23.067,70.906 
		23.164,71.032 23.237,71.199 23.274,71.518 23.241,71.705 23.182,71.853 22.972,72.188 22.85,72.438 22.798,72.574 22.761,72.719 
		22.738,72.856 22.86,73.078 23.09,73.344 23.69,73.878 23.99,74.06 24.219,74.157 25.922,74.122 28.151,74.637 28.252,74.836 
		28.311,75.159 28.244,76.338 28.252,76.655 28.358,76.914 28.463,77.056 28.577,77.158 28.785,77.303 28.817,77.581 28.83,77.808 
		28.414,79.636 28.37,79.938 28.368,79.95 28.438,79.952 29.723,80.833 30.213,80.958 30.685,80.924 31.646,80.657 35.134,80.339 
		35.619,80.426 36.418,80.968 36.85,81.169 37.383,81.148 38.411,80.861 38.956,81.044 39.659,81.163 41.106,80.874 41.837,80.926 
		44.227,81.562 45.016,81.403 45.617,80.803 46.012,79.914 46.188,78.901 46.167,78.677 46.059,78.191 46.047,77.938 46.113,77.627 
		46.367,77.085 46.451,76.802 46.503,76.246 46.461,75.893 46.123,75.116 45.881,74.727 45.687,74.525 45.637,74.341 45.834,74.008 
		46.089,73.834 47.396,73.586 47.556,73.628 47.62,73.578 47.652,73.248 47.287,72.141 47.339,71.314 47.622,70.61 48.831,68.355 
		49.282,67.831 50.424,66.96 50.834,66.482 51.145,65.828 51.206,65.133 50.863,64.53 50.35,64.412 49.104,64.867 48.619,64.927 
		46.974,63.883 48.602,62.517 49.016,61.985 49.556,61.451 49.326,61.144 49.145,60.655 48.89,59.738 48.141,58.091 47.892,57.89 
		47.662,57.601 47.601,57.042 47.709,57.015 47.931,57.031 48.155,56.955 48.254,56.652 48.229,56.545 48.172,56.396 48.118,56.191 
		48.091,55.929 47.908,54.992 47.438,54.368 46.813,53.998 43.973,53.642 43.499,53.831 42.579,53.885 42.82,52.992 44.278,48.133 
		44.48,47.836 45.075,47.594 45.27,47.27 45.43,46.858 45.625,46.463 46.104,45.926 46.624,45.666 47.171,45.64 49.815,46.686 
		50.776,46.576 51.835,45.729 52.291,45.121 52.627,44.407 52.651,43.703 52.185,43.109 51.578,43.029 51.127,43.469 50.705,44.023 
		50.183,44.297 49.879,44.172 49.426,43.584 49.176,43.369 48.897,43.315 48.071,43.441 46.172,43.007 45.61,42.754 45.339,42.396 
		45.148,41.901 44.828,41.249 44.395,40.821 43.911,40.503 43.588,40.048 43.758,38.229 44.167,37.936 45.376,38.015 47.347,37.323 
		48.074,37.329 48.774,37.45 49.154,37.42 49.428,37.231 49.539,36.861 49.603,35.825 49.719,35.314 50.225,34.443 50.88,33.813 
		52.283,32.843 52.745,32.324 53.536,31.069 53.998,30.69 54.564,30.376 54.747,30.03 54.772,28.712 55.117,27.474 55.174,26.827 	
		"/>
</g>
<g id="Layer_1">
</g>
</svg>
