<?xml version="1.0" encoding="iso-8859-1"?>
<!-- Generator: Adobe Illustrator 16.0.3, SVG Export Plug-In . SVG Version: 6.00 Build 0)  -->
<!DOCTYPE svg PUBLIC "-//W3C//DTD SVG 1.1//EN" "http://www.w3.org/Graphics/SVG/1.1/DTD/svg11.dtd">
<svg version="1.1" xmlns="http://www.w3.org/2000/svg" xmlns:xlink="http://www.w3.org/1999/xlink" x="0px" y="0px"
	 width="69.859px" height="62.867px" viewBox="0 0 69.859 62.867" style="enable-background:new 0 0 69.859 62.867;"
	 xml:space="preserve">
<g id="Mykolaiv">
	<path style="fill:#6FA8DC;" d="M39.107,59.65l-1.377-0.839l-0.807-0.242l-4.171,0.313l-0.355-0.177l-0.629-0.682l-0.764-0.606
		l0.385,0.81l2.792,2.838l0.342,0.13l0.187,0.215l0.548,1.458l-0.035-1.087l0.035-0.329l0.09-0.266l0.136-0.191l0.352-0.391
		l0.375-0.188l0.527,0.032l0.553,0.143l1.064,0.443l0.004-0.004l0.004-0.002l0.838-1.34v-0.001L39.107,59.65z M69.818,35.014
		l-0.51-0.907l-0.137-0.312l-0.037-0.112l-0.027-0.121l-0.01-0.126v-0.137l0.037-0.294l0.117-0.426l0.238-0.662l0.066-0.282
		l0.014-0.127l0.004-0.098l-0.018-0.196l-0.045-0.237l-0.033-0.116l-0.508-1.158l-0.074-0.089l-0.096-0.061l-0.115-0.026
		l-0.807-0.008l-0.141-0.034l-0.119-0.053l-0.096-0.069l-0.09-0.078l-0.066-0.094l-0.055-0.103l-0.041-0.106l-0.033-0.105
		l-0.016-0.1l0.041-0.12l0.086-0.171l0.377-0.503l0.078-0.169l0.055-0.315l0.059-0.196l0.086-0.054l0.07,0.03l0.064,0.087
		l0.24,0.536l0.129,0.455l0.045,0.108l0.078,0.081l0.121,0.044l0.137,0.021l0.457-0.037l0.215-0.066l0.1-0.093l0.043-0.125
		l-0.002-0.127l-0.027-0.12l-0.084-0.217l-0.053-0.1l-0.041-0.11l-0.025-0.122l-0.008-0.131l0.012-0.141l0.063-0.295l0.045-0.296
		l0.008-0.143l-0.008-0.124l-0.018-0.111l-0.027-0.083l-0.07-0.159l-0.051-0.092l-0.123-0.29l-0.025-0.074l-0.004-0.029
		l-0.012-0.069l-0.004-0.105l0.031-0.133l0.1-0.236l0.041-0.12l0.01-0.132l-0.021-0.112l-0.049-0.099l-0.141-0.158l-0.355-0.301
		l-0.078-0.087l-0.055-0.098l-0.029-0.119l-0.016-0.124l-0.016-0.267l0.016-0.415l0.045-0.305l-2.008-0.313l-0.178-0.068
		l-0.084-0.063l-0.049-0.115l-0.012-0.16l0.078-0.274l0.072-0.145l0.059-0.091l0.291-0.3l0.137-0.2l0.049-0.161l0.008-0.218
		l-0.053-0.352l-0.047-0.199l-0.053-0.156L66.76,19.4l-0.381-0.701l-0.141-0.319l-0.025-0.114v-0.11l0.096-0.117l0.197-0.131
		l0.145-0.068l0.898-0.252l1.041-0.095l0.084-0.104l0.02-0.193l-0.133-0.457l-0.127-0.207l-0.117-0.148l-0.102-0.069l-0.084-0.078
		l-0.07-0.157l-0.021-0.242l0.01-1.958l0.033-0.243l0.041-0.192l0.057-0.123l0.047-0.127l0.033-0.153l0.033-0.812l0.053-0.189
		l0.07-0.132l0.078-0.087l0.068-0.099l0.012-0.15L68.5,11.372l-0.25-0.336l-0.164-0.096l-0.154-0.042l-0.123,0.024l-0.135,0.003
		l-0.137-0.017l-0.115-0.051l-0.066-0.133l-0.006-0.212l0.188-0.661l0.145-0.341l0.02-0.224l-0.26-0.225l-0.381-0.281l-0.086-0.107
		l-0.021-0.124l0.029-0.434l-0.008-0.119l-0.029-0.097l-0.029-0.054l-0.053-0.079L66.42,7.243l-0.111-0.197L66.26,6.939
		l-0.037-0.114l-0.037-0.25l-0.037-0.117l-0.043-0.104L66.02,6.291L65.891,6.3l-0.5,0.344l-0.156,0.021l-0.592-0.113l-0.268-0.012
		l-0.303,0.09L63.932,6.73l-0.1,0.113l-0.049,0.122L63.76,7.102l-0.01,0.138l0.033,0.258l0.086,0.354l0.002,0.023l-0.002,0.039
		l-0.02,0.081l-0.047,0.093L63.721,8.16l-0.09,0.046l-0.744,0.157l-0.092,0.075L62.74,8.555l-0.094,0.277l-0.051,0.125l-0.068,0.101
		l-0.113,0.037l-0.16-0.015l-0.266-0.128L61.85,8.841l-0.096-0.111l-0.17-0.303l-0.066-0.095l-0.092-0.061l-0.135-0.018
		l-0.467,0.188L59.84,8.626l-0.305,0.166L59.348,8.93l-0.082,0.083l-0.07,0.095l-0.066,0.108l-0.055,0.123l-0.045,0.14l-0.025,0.145
		l-0.008,0.142l0.014,0.127l0.033,0.116l0.057,0.102l0.082,0.08l0.113,0.053l0.408,0.073l0.09,0.055l0.031,0.107l0.006,0.27
		l-0.014,0.139l-0.031,0.119l-0.086,0.075l-0.107,0.04l-0.645,0.074l-0.236,0.06l-0.092,0.068l-0.066,0.095l-0.045,0.115
		l-0.006,0.122l0.023,0.117l0.045,0.109l0.166,0.301l0.029,0.12l0.008,0.136l-0.033,0.298v0.138l0.041,0.111l0.074,0.088
		l0.084,0.081l0.07,0.084l0.008,0.108l-0.047,0.092l-0.098,0.049l-0.492,0.09l-0.086,0.072l-0.041,0.123l-0.021,0.276l0.004,0.137
		l-0.029,0.558l-0.027,0.114l-0.063,0.092l-0.107,0.038l-4.127,0.654l-0.244-0.038l-1.563-0.57l-0.111-0.064l-0.139-0.042
		l-0.15-0.019l-0.242,0.073l-0.283,0.126l-0.107,0.024l-0.123-0.024l-0.418-0.438l-0.637-0.401l-0.268-0.091l-0.402-0.056
		l-0.863,0.127l-0.211,0.097l-0.096,0.065l-0.082,0.085l-0.074,0.097l-0.52,0.853l-0.307,0.621l-0.27,0.403l-0.162,0.163
		l-0.094,0.066l-0.215,0.091l-0.256,0.04l-0.207-0.043l-0.256-0.088l-0.463-0.255l-0.197-0.158l-0.113-0.15l-0.09-0.214
		l-0.207-0.412l-0.066-0.094l-0.082-0.084l-0.104-0.082l-0.555-0.297l-0.256-0.25l-0.193-0.079l-0.857-0.11l-0.26,0.038l-0.16,0.087
		l-0.037,0.138l-0.029,0.134l-0.039,0.12l-0.09,0.063l-0.115,0.027l-2.08,0.025l-0.139-0.025l-0.129-0.066l-0.107-0.19l-0.025-0.163
		l0.004-0.171l0.021-0.154l0.012-0.148l-0.004-0.134l-0.025-0.124l-0.053-0.1l-0.188-0.293l-0.041-0.11l-0.02-0.122l0.023-0.134
		l0.047-0.121l0.061-0.114l0.414-0.608l0.055-0.118l0.045-0.124l0.012-0.135l-0.008-0.132l-0.023-0.12l-0.043-0.11l-0.053-0.103
		l-0.514-0.618l-0.066-0.096l-0.053-0.101l-0.041-0.11l-0.025-0.121l-0.01-0.134l-0.023-0.126l-0.096-0.212l-0.125-0.184
		l-0.109-0.063l-0.156-0.03l-0.598,0.129l-0.127-0.023L37.205,9.56L36.9,9.172l-0.762-1.291l-0.018-0.022l-0.315-0.584l-0.035-0.104
		V7.075l0.075-0.063l0.947-0.433l0.285-0.195l0.086-0.08L37.23,6.2l0.049-0.137l0.029-0.148l0.02-0.15L37.32,5.626l-0.02-0.123
		l-0.037-0.116l-0.092-0.215l-0.154-0.589l-0.055-0.104L36.83,4.404l-0.199-0.027l-0.936,0.175l-0.149-0.015l-0.159-0.05
		l-0.218-0.159l-0.167-0.071l-0.199-0.039l-0.273,0.049l-0.234-0.094l-0.141-0.081l-0.312-0.37l-0.106-0.058l-0.148-0.017
		l-0.399,0.163L33.061,3.89l-0.076,0.084l-0.05,0.12l-0.019,0.135l0.019,0.39L32.91,4.733l-0.078,0.072l-0.104,0.052l-0.37,0.074
		l-0.122-0.006l-0.114-0.043l-0.089-0.139l-0.097-0.083l-0.125-0.017L31.61,4.786l-0.082,0.146l-0.044,0.158l-0.015,0.433
		l-0.019,0.142l-0.037,0.129L31.335,5.88l-0.11,0.041l-0.137-0.006l-0.138-0.048l-0.125-0.136l-0.026-0.131l0.008-0.102l0.037-0.077
		l0.118-0.19l0.044-0.131l0.033-0.149l0.066-0.744l-0.025-0.265l-0.037-0.114l-0.063-0.093L30.896,3.67l-0.104-0.033l-1.317,0.109
		l-0.308,0.092l-0.197,0.088L28.88,4.003L28.766,4.04L28.618,4.02l-0.188-0.115l-0.1-0.11l-0.066-0.12l-0.037-0.118l-0.07-0.088
		l-0.111-0.042l-0.375,0.163l-0.41,0.279l-0.178,0.026l-2.233-0.326l-0.226-0.104l-0.077-0.059l-0.049-0.048L24.442,3.28
		l-0.053-0.093l-0.036-0.116l-0.008-0.133l0.019-0.563l-0.015-0.1l-0.03-0.06l-0.118-0.073l-0.543-0.16l-0.161-0.098l-0.092-0.118
		l-0.019-0.128l-0.06-0.949l-0.025-0.121l-0.049-0.104l-0.145-0.077l-0.211-0.056l-0.421-0.05l-0.382-0.129L20.369,0l-0.496,0.066
		l-0.83,0.283l-0.314,0.202l-0.181,0.197l-0.063,0.308l-0.048,0.132l-0.057,0.119l-0.074,0.096l-0.174,0.086l-0.747,0.242
		l-0.2,0.147l-0.137,0.139l-0.072,0.106l-0.085,0.079l-0.1,0.058l-0.155,0.019l-0.188-0.022l-0.314-0.118l-0.119-0.132L15.959,1.86
		l-0.011-0.133L15.925,1.6l-0.044-0.107l-0.07-0.094l-0.09-0.078L15.61,1.26l-0.144-0.021l-0.163,0.035l-0.222,0.147l-0.107,0.122
		l-0.063,0.112l-0.159,0.453l-0.096,0.085l-0.148,0.015l-0.249-0.098l-0.104-0.12l-0.052-0.14l-0.022-0.125l-0.037-0.111
		L13.84,1.542l-0.318-0.047l-0.727,0.006l-0.695-0.129l-0.27,0.034l-1.107,0.371L10.409,1.94l-0.2,0.138l-0.053,0.098l-0.092,0.293
		l-0.044,0.098L9.956,2.659L9.804,2.71L9.568,2.712L8.642,2.519l-1.047-0.38l-0.19-0.036L7.189,2.099l-0.202-0.05H3.306L3.164,2.182
		L3.005,2.815L2.899,3.021L2.704,3.082l-0.698-0.04l0.029,0.632l0.026,0.16l0.078,0.114l0.316,0.171l0.107,0.107L2.57,4.42
		L2.537,4.564L2.455,4.662L2.339,4.69L2.213,4.666L2.084,4.622L1.947,4.605L1.821,4.628L1.732,4.697L1.581,4.882l-0.096,0.04
		L1.122,4.878l-0.819,0.36L0.207,5.305l-0.17,0.156L0,5.561l0.019,0.104l0.299,0.188l0.082,0.122l0.011,0.204L0.396,6.645
		l0.011,0.126L0.399,6.894L0.377,7.017L0.188,7.322l-0.022,0.13L0.151,7.59l0.015,0.327l0.029,0.1l0.067,0.106l0.155,0.098
		l0.589,0.166l0.104,0.068l0.085,0.077l0.093,0.102l0.244,0.369l0.462,0.534l0.07,0.128l0.055,0.168l0.579,3.82l0.03,0.102
		l0.041,0.166l0.055,0.134l0.097,0.168l0.381,0.374l0.255,0.149l0.626,0.251l0.129,0.096l0.115,0.155l0.115,0.546v0.158
		l-0.022,0.071l-0.048,0.096l-0.067,0.088L4.154,16.45l-0.07,0.103l-0.041,0.129l0.019,0.156l0.063,0.163l0.322,0.323l0.299,0.235
		l0.078,0.115l0.063,0.137l0.02,0.239l-0.027,0.168l-0.056,0.136l-0.17,0.344l-0.041,0.127l-0.019,0.146L4.605,19.1l0.037,0.155
		l0.163,0.443l0.082,0.33l0.066,0.145l0.09,0.161l0.237,0.188l0.562,0.286l0.1,0.079l0.233,0.255l0.085,0.077l0.109,0.042
		l1.091-0.195H7.58l0.111,0.053l0.096,0.084l0.107,0.124l0.111,0.063l0.125,0.029l0.115-0.025l0.207-0.099l0.363-0.279l0.234-0.257
		l0.111-0.042l0.129,0.006l0.141,0.062l0.303,0.243l0.156,0.065l0.151,0.032l0.86,0.011l0.129,0.083l0.1,0.146l0.096,0.639
		l0.137,0.27l0.115,0.121l0.114,0.072l0.104,0.004l0.083-0.065l0.074-0.09l0.115-0.241l0.118-0.597l0.041-0.143l0.063-0.11
		l0.096-0.065l1.337-0.309l0.115,0.115l0.082,0.246l0.066,0.613l-0.026,0.286l-0.052,0.198l-0.048,0.107l0.003,0.099l0.111,0.076
		l0.823,0.031l0.159,0.105l0.159,0.208l0.259,0.479l0.341,0.417l0.115,0.202l0.096,0.745l-0.015,0.345l-0.03,0.131l-0.044,0.119
		l-0.078,0.08l-0.183,0.098l-0.018,0.021l-0.019,0.207l0.008,0.254l-0.03,0.375l-0.059,0.312l-0.155,0.558l-0.292,0.768l0.115,0.592
		l1.119,3.376l0.399,0.892l0.311,0.506l1.311,0.23l0.963,0.036l0.07,0.023l0.107,0.098l0.263,0.431l0.125,0.074l0.127,0.011
		l0.729-0.331l1.9-0.417l0.093,0.021l0.06,0.054l0.044,0.052l0.044,0.071l0.186,0.405l0.048,0.197l0.056,0.31l-0.082,0.243
		l-0.07,0.157l-0.328,0.348l-0.09,0.068l-0.211,0.096l-0.237,0.061l-0.11,0.044l-0.09,0.064l-0.066,0.098l-0.052,0.279l-0.026,0.293
		l0.008,0.146l0.029,0.143l0.093,0.132l0.104,0.091l0.125,0.06l0.574,0.149l0.219,0.119l0.256,0.225l0.084,0.058l0.107,0.028
		l0.111-0.012l0.111-0.04l0.303-0.156l0.228-0.075h0.24l0.104,0.102l0.081,0.165l0.107,0.325l0.1,0.164l0.097,0.126l0.253,0.23
		l0.062,0.09l0.066,0.131l0.071,0.164l0.074,0.278l0.074,0.164l0.089,0.103l0.137,0.038l0.399,0.03l0.115,0.035l0.096,0.092
		l0.044,0.15l0.019,0.247l-0.251,0.591l0.011,0.362l-0.011,0.234l-0.041,0.209l-0.151,0.229l-0.126,0.106L25.5,41.837l-0.107,0.229
		l-0.129,0.529l-0.141,0.43l-0.038,0.059l-0.077,0.073l-0.504,0.225l-0.089,0.072l-0.066,0.108l-0.13,0.313l-0.104,0.073
		l-0.122,0.028l-1.455,0.092l-0.226,0.073l-0.108,0.019l-0.104-0.023l-0.163-0.139l-0.104-0.05l-0.122-0.013l-0.122,0.009
		l-0.107,0.052l-0.07,0.093l-0.24,0.429l-0.085,0.07l-0.111,0.047l-1.211,0.087l-0.086,0.027l-0.052,0.158l0.035,0.324l0.196,0.748
		l0.211,0.438l0.152,0.245l1.007,0.695l0.159,0.17l0.174,0.282l0.263,0.618l0.077,0.111l0.082,0.077l0.325,0.188l0.438,0.362
		l0.063,0.31l0.166,2.773l0.104,0.328l0.037,0.217l0.008,0.206l-0.07,0.25l-0.063,0.158v0.653l0.369,1.916l0.001,0.006L25,56.419
		l0.45,0.312l0.177-0.259l0.305,0.208l0.672,0.095l0.328,0.169l0.348-0.279l1.061-0.579l0.466-0.106l0.295-0.295l0.814-1.303
		l0.37-0.297l0.035-0.118l0.445-0.71l0.181-0.441l-0.09-0.255l-0.749-0.611l-0.21-0.115l-0.146-0.205l-0.049-0.505l-0.045-0.22
		l-0.268-0.87l0.367,0.154l0.256,0.433l0.354,0.859l0.334,0.282l0.303,0.192l0.269-0.079l0.081-0.099l0.029-0.13l0.46-0.723
		l0.14-0.178l0.192-0.127l0.461-0.199l0.175-0.148l0.174-0.429l0.156-0.504l0.197-0.206l0.288,0.449l-1.1,1.639l-0.293,0.259
		l0.01,0.339l-0.336,0.746l-1.318,2.227l-0.237,0.588l0.098,0.49l0.189,0.123l0.267,0.025l0.507-0.039l0.218,0.067l0.334,0.315
		l0.197,0.11l0.526-0.085l0.235-0.424l0.202-0.473l0.411-0.221l1.424-0.126l2.325,0.891l1.031,0.155l1.043-0.211l0.279-0.139
		l0.523-0.363l0.176-0.207l0.217-0.456l-0.025-0.223l-0.121-0.271l-0.07-0.59l0.174-1.535l-0.092-0.241l-0.898-1.208l-0.012-0.925
		l0.303-0.754l0.506-0.509l0.586-0.188l0.523-0.391l0.436-0.91l0.227-1.032l-0.109-0.755l-0.494,0.308l-0.523,0.184l-0.428-0.124
		l-0.197-0.604l0.115-0.582l0.322-0.549l0.699-0.796l-0.787-0.139l-1.076,0.147l-0.754-0.335l0.176-1.579l0.18-0.239l0.338-0.576
		l0.188-0.586l-0.299-0.269l-0.123-0.076l-0.121-0.163l-0.162-0.162l-0.592-0.144l-0.104-0.193l0.016-2.037l-0.242-0.414
		l-1.061-0.273l-0.459-0.304l-0.373-0.397l-0.15-0.397l0.078-0.197l0.334-0.626l0.094-0.131l0.248,0.114l0.027,0.256l-0.113,0.703
		l0.219,0.43l1.41,0.669l0.33,0.362l0.092,0.273l0.006,0.376l0.076,0.663l0.184,0.532l0.242,0.153l0.297,0.08l0.338,0.306
		l0.346,0.904l-0.086,0.849l-0.668,1.469l0.379,0.395l0.455,0.05l1.039-0.186l0.65,0.091l0.141,0.244l-0.189,0.372l-0.709,1.071
		l-0.08,0.458l0.242,0.283l1.191,0.22l0.256,0.345l0.02,0.531l-0.121,0.688l-0.494,1.222l-0.643,1.005l-0.443,1.081l0.098,1.441
		l0.236,0.594l0.268,0.491l0.084,0.19l0.002-0.011l0.035-0.159l1.199,0.028l0.365-0.122l0.186-0.202l0.42-0.291l0.186-0.067
		l0.162-0.032l0.137,0.017l0.125,0.037l0.395,0.243l0.303,0.104l0.26-0.004l0.754-0.22l0.404-0.175l0.17-0.148l0.16-0.167
		l0.066-0.099l0.232-0.451l0.234-0.651l0.066-0.154l0.096-0.156l0.193-0.196l0.145-0.091l0.148-0.06l0.316-0.056l0.264,0.011
		l1.389,0.499l0.615,0.057l0.188-0.04l0.127-0.084l0.055-0.113l0.273-0.85l0.094-0.167l0.184-0.205l0.18-0.103l0.799-0.218
		l0.512-0.047l0.127,0.021l0.105,0.053l0.078,0.082l0.1,0.204l0.041,0.107l0.156,0.081l0.24,0.052l0.838-0.064l0.184-0.05
		l0.127-0.095l0.066-0.068l0.059-0.097l0.045-0.126l0.029-0.155l0.012-0.166v-0.516l0.039-0.155l0.102-0.051l0.113-0.001l0.109,0.05
		l0.063,0.086l0.082,0.081l0.113,0.054l0.205,0.021l0.092,0.078l0.178,0.071l0.244,0.061l0.938-0.033l0.203,0.041l0.078,0.082
		l0.088,0.072l0.115,0.06l0.541,0.174l0.104,0.068l0.086,0.08l0.066,0.091l0.162,0.297l0.066,0.093l0.074,0.089l0.082,0.071
		l0.088,0.053l0.07,0.018l0.26,0.007l1.275-0.17l1.172,0.052l0.148-0.034l0.098-0.063l0.088-0.07l1.861-0.66l0.416-0.216
		l0.221-0.174l-0.045-0.086l-0.096-0.023l-0.24,0.018l-0.125-0.018l-0.219-0.121l-0.156-0.052l-1.287,0.12l-0.559-0.05l-0.184-0.056
		l-0.096-0.047l-0.088-0.066l-0.078-0.084l-0.029-0.117l0.01-0.125l0.119-0.164l0.107-0.064l2.326-0.39l0.246-0.094l0.52-0.589
		l0.307-0.186l0.971-0.264l0.252-0.127l0.119-0.136l-0.02-0.114l-0.055-0.097l-0.07-0.085l-0.086-0.058l-0.1-0.026l-0.844-0.001
		l-0.123-0.025l-0.088-0.064L65.51,44.62l-0.045-0.108l-0.029-0.116l-0.029-0.253l-0.012-0.397l0.041-0.157l0.088-0.173l0.252-0.236
		l0.141-0.076l0.086-0.023l0.033,0.023l0.104,0.119l0.125,0.186l0.145,0.175l0.152,0.136l0.637,0.419l0.025-0.06l0.004-0.093v-0.115
		l0.029-0.104l0.029-0.07l0.066-0.106l0.426-0.492l0.205-0.311l0.053-0.113l0.037-0.119l-0.008-0.115l-0.049-0.099l-1.092-1.034
		l-1.373-0.834l-0.123-0.034l-0.125-0.004l-0.369,0.044l-0.117-0.02l-0.082-0.069l-0.047-0.097l-0.027-0.313l-0.033-0.175
		L64.594,39.7l-0.014-0.108l-0.008-0.119l0.033-0.123l0.047-0.115l0.428-0.578l0.613-1.313l0.219-0.588l0.119-0.194l0.111-0.04
		l0.092,0.031l0.256,0.332l0.07,0.031l0.547,0.014l0.35-0.06l0.174-0.074l0.131-0.089l0.697-0.828l0.141-0.093l0.139-0.035
		l0.117,0.03l0.301,0.183l0.133,0.046l0.189,0.003l0.104-0.074l0.055-0.125l0.031-0.143l0.047-0.153l0.133-0.271l0.012-0.09
		L69.818,35.014z"/>
</g>
<g id="Layer_1">
</g>
</svg>
