<?xml version="1.0" encoding="iso-8859-1"?>
<!-- Generator: Adobe Illustrator 16.0.3, SVG Export Plug-In . SVG Version: 6.00 Build 0)  -->
<!DOCTYPE svg PUBLIC "-//W3C//DTD SVG 1.1//EN" "http://www.w3.org/Graphics/SVG/1.1/DTD/svg11.dtd">
<svg version="1.1" xmlns="http://www.w3.org/2000/svg" xmlns:xlink="http://www.w3.org/1999/xlink" x="0px" y="0px"
	 width="74.146px" height="104.426px" viewBox="0 0 74.146 104.426" style="enable-background:new 0 0 74.146 104.426;"
	 xml:space="preserve">
<g id="Odessa">
	<path style="fill:#6FA8DC;" d="M41.024,88.25l-0.407,0.347l-0.689,0.756l-0.383,0.312l-0.324,0.1l-0.369,0.05l-0.307,0.125
		l-0.129,0.319l-0.189,0.332l-0.482,0.382l-1.2,0.656l1.825-0.78l2.4-1.773l5.201-4.941l-1.2,0.649L41.024,88.25z M74.146,39.974
		l-0.018-0.247l-0.045-0.15l-0.096-0.092l-0.115-0.035l-0.398-0.03l-0.137-0.038l-0.09-0.103l-0.074-0.164L73.1,38.836l-0.07-0.164
		l-0.066-0.131l-0.063-0.09l-0.252-0.23l-0.098-0.126l-0.1-0.164l-0.107-0.325l-0.08-0.165l-0.104-0.102h-0.24l-0.229,0.075
		l-0.303,0.156l-0.111,0.04l-0.111,0.012l-0.107-0.028l-0.084-0.058l-0.256-0.225L70.5,37.192l-0.574-0.149l-0.125-0.06
		l-0.104-0.091l-0.094-0.132l-0.029-0.143l-0.008-0.146l0.027-0.293l0.051-0.279l0.066-0.098l0.09-0.064l0.111-0.044l0.236-0.061
		l0.211-0.096l0.09-0.068l0.328-0.348l0.07-0.157l0.082-0.243l-0.055-0.31l-0.049-0.197l-0.186-0.405l-0.043-0.071l-0.045-0.052
		l-0.059-0.054L70.4,33.61l-1.899,0.417l-0.729,0.331l-0.127-0.011l-0.125-0.074l-0.263-0.431l-0.107-0.098l-0.07-0.023
		l-0.963-0.036l-1.312-0.23l-0.311-0.506l-0.398-0.892l-1.119-3.376l-0.115-0.592l0.293-0.768l0.155-0.558l0.06-0.312l0.029-0.375
		l-0.008-0.254l0.02-0.207l0.018-0.021l0.183-0.098l0.077-0.08l0.045-0.119l0.029-0.131l0.016-0.345l-0.097-0.745l-0.114-0.202
		l-0.342-0.417l-0.26-0.479l-0.158-0.208l-0.159-0.105l-0.823-0.031l-0.11-0.076l-0.003-0.099l0.047-0.107l0.053-0.198l0.025-0.286
		l-0.066-0.613l-0.082-0.246l-0.114-0.115l-1.337,0.309l-0.096,0.065l-0.063,0.11l-0.041,0.143l-0.119,0.597l-0.114,0.241
		l-0.073,0.09l-0.084,0.065l-0.104-0.004l-0.113-0.072l-0.115-0.121l-0.137-0.27l-0.097-0.639l-0.1-0.146l-0.13-0.083l-0.859-0.011
		l-0.151-0.032l-0.155-0.065l-0.304-0.243l-0.141-0.062l-0.13-0.006l-0.11,0.042l-0.234,0.257l-0.362,0.279l-0.207,0.099
		l-0.115,0.025l-0.125-0.029l-0.111-0.063l-0.107-0.124l-0.096-0.084l-0.111-0.053h-0.119l-1.092,0.195l-0.109-0.042l-0.084-0.077
		l-0.233-0.255l-0.101-0.079l-0.562-0.286l-0.237-0.188l-0.09-0.161l-0.066-0.145l-0.082-0.33l-0.162-0.443l-0.037-0.155
		l-0.012-0.129l0.02-0.146l0.041-0.127l0.17-0.344l0.055-0.136l0.027-0.168l-0.02-0.239l-0.063-0.137l-0.078-0.115l-0.299-0.235
		l-0.322-0.323l-0.063-0.163l-0.02-0.156l0.041-0.129l0.07-0.103l0.252-0.243l0.066-0.088l0.048-0.096l0.022-0.071v-0.158
		l-0.115-0.546l-0.114-0.155l-0.13-0.096l-0.626-0.251l-0.255-0.149l-0.381-0.374l-0.098-0.168l-0.055-0.134l-0.041-0.166
		l-0.029-0.102l-0.578-3.82l-0.056-0.168l-0.07-0.128l-0.462-0.534L49.24,8.678l-0.094-0.102l-0.084-0.077l-0.104-0.068l-0.59-0.166
		l-0.155-0.098l-0.067-0.106l-0.029-0.1l-0.015-0.327l0.015-0.138l0.022-0.13l0.188-0.306l0.022-0.123l0.007-0.123l-0.01-0.126
		l0.014-0.466l-0.011-0.204L48.27,5.896l-0.3-0.188l-0.019-0.104l0.037-0.1l0.17-0.156l0.096-0.066l0.819-0.36l0.362,0.044
		l0.096-0.04l0.152-0.185l0.089-0.069l0.126-0.022l0.137,0.017l0.129,0.044l0.127,0.024l0.115-0.028l0.082-0.098l0.033-0.145
		l-0.008-0.193l-0.107-0.107L50.09,3.992l-0.077-0.114l-0.026-0.16l-0.029-0.632l-5.002-0.285l-0.85-0.409l-0.479-0.699
		l-0.348-0.876l-0.393-0.772L42.58,0.16l-0.064,0.029l-0.319,0.199l-0.2,0.062L41.859,0.43l-0.125-0.093L41.42,0.038L41.271,0
		l-0.119,0.023l-0.081,0.081L40.938,0.31l-0.556,1.018L40.286,1.42l-0.134,0.087L40.02,1.506l-0.107-0.042l-0.096-0.077
		l-0.293-0.354l-0.063-0.098l-0.108-0.116l-0.411-0.315l-0.133-0.07L38.68,0.4l-0.104,0.023l-0.385,0.149L37.59,0.682l-1.374,0.766
		L36.021,1.5l-0.251,0.02l-0.144-0.054l-0.238-0.033L35.117,1.6l-0.107,0.154l-0.018,0.147l0.037,0.114l0.114,0.204l0.493,0.636
		l0.06,0.1l0.052,0.105l0.015,0.169l-0.037,0.22l-0.401,1.188l-0.114,0.068l-0.115-0.002l-0.222-0.107l-0.115-0.017L34.64,4.6
		l-0.226,0.084l-1.34,0.133L31.281,4.7l-0.314-0.086L30.04,4.04l-0.096-0.087l-0.111-0.077l-0.359,0.015L27.178,4.85L24.979,4.91
		l-0.131-0.018l-0.437-0.243l-1.255-0.495l-0.2-0.139l-0.211-0.272l-0.089-0.075l-0.318-0.195l-0.445-0.387l-0.074-0.09
		l-0.104-0.098l-0.133-0.093l-0.255-0.081l-0.17,0.006l-0.188,0.044L20.28,3.061l-0.104,0.071l-0.063,0.1l-0.03,0.122l0.03,0.254
		l0.177,0.872l0.011,0.135v0.127l-0.033,0.125L20.202,4.96l-0.273,0.217l-0.405,0.228l-0.177,0.146l-0.314,0.348l-0.274,0.399
		l-0.51,0.346L16.233,7.54l-0.422,0.359l0,0l0.488,0.845l0.77,0.839l0.508,0.39l0.341,0.262l0.728,0.299l0.868-0.167l1.045-1.374
		l0.756-0.37l0.413,0.019l0.333,0.131l0.293,0.277l0.279,0.455l0.188,0.551l0.209,1.216l0.19,0.519l0.335,0.261l0.939,0.286
		l0.239,0.173l-0.078,0.483l-0.366,0.503l-0.441,0.476l-0.291,0.398l-0.214,0.621l0.002,0.389l0.229,0.23l0.824,0.297l0.305,0.284
		l0.092,0.382l-0.285,0.452l-0.709,0.91l-0.131,1.104l0.022,1.249l-0.247,1.331l-0.618,1.073l-0.613,0.816l-0.312,0.927l0.31,1.414
		l0.002,0.003l0.002,0.002l0.001,0.004l0.156,0.314l0.067,0.136l0.373,1.062l0.197,0.373l0.434,0.335l0.247-0.209l0.226-0.38
		l0.393-0.176l0.341,0.186l0.432,0.736l0.732,0.489l0.163,0.376l0.107,0.418l0.193,0.375l0.331,0.192l0.375,0.078l0.369,0.164
		l0.312,0.461l0.123,0.556l0.01,0.507l0.074,0.499l0.079,0.133l0.237,0.401l0.326,0.29l0.36,0.174l0.382,0.038l0.385-0.121
		l0.417-0.398l0.165-0.489l0.109-0.537l0.244-0.545l0.482-0.055l0.475,0.032l0.452,0.165l0.398,0.357l0.322,0.605l0.22,0.813
		l0.022,0.812l-0.273,0.607l-0.589,0.312l-0.086,0.76l0.244,1.833l-0.138,0.86l-0.345,0.416l-0.518,0.149l-0.663,0.067l-0.055,0.1
		l-0.017,0.108l0.02,0.107l0.052,0.112l0.73,1.37l0.207,0.213l0.259-0.213l0.208-0.449l0.277-0.396l0.449-0.043l0.316,0.218
		l0.274,0.37l0.172,0.475l0.022,0.533L33.31,42.01l-0.287,0.326l-0.26,0.386l-0.179,1.299l-0.104,0.462l-0.019,0.084l-0.027,0.457
		l0.209,0.386l0.136,0.032l0.604-0.058l0.217,0.117l0.375,0.435l0.205,0.18l0.387,0.138l0.782,0.065l0.365,0.135l0.39,0.392
		l0.558,0.913l0.437,0.319l0.755,0.117l0.703-0.068l0.678,0.086l0.683,0.571l0.112,0.241l0.189,0.63l0.113,0.19l0.213,0.019
		l0.219-0.149l0.232-0.104l0.256,0.146l0.06,0.232l-0.005,0.745l0.031,0.319l0.094,0.253l0.262,0.501l0.106,0.265l0.036,0.639
		l-0.196,2.158l-0.099,0.404l-0.116,0.31L41.34,55.91l-0.016,0.457l0.088,0.358l0.297,0.709l0.055,0.328l-0.277,0.745l-0.524,0.103
		l-0.412,0.043l0.074,0.771l0.338,0.416l1.053,0.444l0.044,0.087l0.119,0.331l0.084,0.073l0.155-0.05l0.291-0.19l0.136,0.005
		l0.188,0.149l0.157,0.213l0.293,0.602L43.3,61.802l1.097,0.87l0.405,0.482l0.237-0.208l0.359-0.064l0.387,0.07l0.318,0.202
		l-0.582,1.067l-0.621,0.61l-1.047,0.182l-2.83-0.163l-0.385,0.085l-0.427,0.241l-0.88,0.783l-0.469,0.071l-0.477-0.527
		l-0.048-0.236l0.014-0.667l-0.04-0.313l-0.113-0.288l-0.496-0.785l-1.255-1.197l-0.306-0.531l-0.007,0.971l-0.261,0.509
		l-0.481,0.187l-0.676,0.008l-0.153,0.218l0.118,0.845l-0.177,0.563l-0.321,0.328l-0.392,0.146l-0.407-0.043l-0.373-0.228
		l-0.323-0.436l-0.329-0.756l-0.339-0.305l-0.333-0.124l-0.75-0.144l-0.362-0.15l-0.138-0.245l-0.042-0.261l0.047-0.268l0.133-0.274
		l0.128-0.241l0.047-0.237l-0.042-0.225l-0.133-0.213l-0.555-0.093L30,61.03l-0.475,0.265l-0.444,0.49l-1.039,1.599l-0.301,0.009
		l-0.427-0.63l-0.56-1.193l-0.335-0.112l-0.419,0.703l-0.076,0.419l0.113,0.698l-0.015,0.312l-0.163,0.442l-0.121,0.053
		l-0.163-0.053l-0.291,0.105l-0.866,0.961l-0.53,0.323l-0.404-0.347l-0.008-0.36l0.166-0.33l0.213-0.321l0.151-0.331l0.047-0.406
		l-0.02-2.922l-0.157-0.742l-0.381-0.486H23.47l-0.485-0.002l-2.095,1.19l-0.455,0.17l-0.849,0.318l-1.778,1.2l-0.486,0.76
		l-0.148,0.97l0.192,1.264l0.419,1.629l0.022,0.543l-0.14,0.619L17.5,68.33l0.015,0.47l0.408,0.546l0.004,0.001l0.795,0.752
		l0.614,0.579l0.132,0.747l-0.283,0.813l-0.54,0.921l-0.821,0.927l-0.183,0.543l0.057,0.843l0.424,1.497l-0.049,0.672l-0.594,0.281
		l-4.161,1.095l-0.415,0.272l-0.264,0.499l-0.019,0.57l0.332,1.184l0.099,0.572l-0.033,0.687l-0.162,0.44l-0.303,0.301l-0.458,0.261
		l-0.694,0.155l-0.18,0.155l-0.009,0.195l0.061,0.309l0.032,0.354l-0.083,0.326l-0.624,0.368L9,85.822L8.617,86.46l0.069,0.263
		l0.099,0.371l-0.148,0.273l-0.69,0.222l-0.412,0.274l-0.264,0.283l-0.555,0.825L6.55,89.364l0.212,0.244l0.373,0.22l0.306,0.314
		l0.133,0.479l0.044,0.475l0.104,0.469l0.329,0.456L7.42,92.319l-0.139,0.128L7.26,92.486l-0.131,0.251l-0.006,0.077l0.049,0.063
		l0.153,1.154l-0.106,0.401l-0.503,0.23l-1.529-0.062l-1.788-0.471l-1.705-0.131l-0.001,0.001l-1.269,0.954l-0.002,0.006v0.002
		l-0.207,0.397l-0.166,0.426L0,96.027l0.321,0.393l0.053-0.006l0.537-0.058l0.698,0.393l0.466,0.636L1.95,98.059l0.707,1.829
		l0.464,0.843l0.55,0.354l0.404,0.108l0.833,0.479l2.124,0.547l1.978,1.041l3.174,0.714l0.891-0.119l0.747-0.021l0.303-0.131
		l0.269-0.311l-0.677-0.312l-0.168-0.148l-0.112-0.249l-0.069-0.306l0.044-0.259l0.683-0.346l-0.037-0.509l0.027-0.484l0.634-0.157
		l0.37,0.128l0.628,0.447l0.542,0.098l0.305,0.216l0.392,0.421l0.474,0.279l0.547-0.203l0.108-0.233l0.073-0.652l0.145-0.29
		l0.171-0.129l0.209-0.062l0.529-0.02l0.323-0.162l1.226-1.013l0.973-0.28l0.411-0.185l0.343-0.357l0.197-0.095l0.577-0.036
		l0.121-0.099l0.089-0.241l0.202-0.243l0.36-0.313l0.513-0.282l0.392-0.016l0.387,0.073l0.501-0.009l0.207-0.078l0.209-0.146
		l0.185-0.177l0.138-0.177l0.222-0.152l0.259,0.058l0.261,0.137l0.234,0.073l1.835,0.188l3.318,1.201l1.113,1.002l0.281,0.154
		l0.528,0.497l0.402,1.159l0.124,1.315l-0.311,0.973l0.137,0.213l0.036,0.244l-0.054,0.251l-0.123,0.246v0.001l0.368,0.078
		l0.427-0.107l0.39-0.223l0.46-0.458l0.041-0.028l-0.025-0.054l-0.023-0.284l0.048-0.351l0.274-0.814l0.041-0.279l0.204-0.462
		l0.082-0.289l0.031-0.289l-0.054-1.45l-0.089-0.735l-0.198-0.634l-0.338-0.378l0.479,0.047l0.192-0.461l-0.029-0.656l-0.173-0.549
		l-0.361-0.417l-0.187,0.257l-0.113,0.57l-0.155,0.513l-0.109-0.562l-0.155-0.13l-0.187,0.037l-0.202-0.059l0.015,0.125l-0.12,0.115
		l-0.147,0.019l-0.07-0.144v-0.789l-0.39,0.1l-0.052,0.345l0.042,0.413l-0.089,0.299l-0.264,0.042l-0.267-0.174l-0.204-0.254
		l-0.367-0.807l-0.014-0.299l0.375-0.129l0.14-0.145l0.119-0.319l0.151-0.318l0.249-0.146l0.315-0.263l0.784-1.233l0.299-0.378
		l-0.618,0.618l-0.342,0.236l-0.439,0.094l-0.462-0.044l-0.336-0.116l-0.604-0.304l0.231-1.542l-0.052-1.627l0.144-1.328
		l0.819-0.634L34.152,87.2l-0.128-0.23l-0.062-0.271l0.027-0.521l0.136-0.408l0.439-0.604l0.093-0.267l-0.076-0.156l-0.336-0.444
		l-0.078-0.236l0.052-0.267l0.111-0.169l0.111-0.031l0.111,0.296l0.14,0.16l0.493,0.419l0.085,0.047l0.068,0.065l0.13,0.2
		l0.19,0.379l-0.039,0.204l-0.153,0.259l-0.157,0.553l0.146,1.61l-0.064,0.253l0.54,0.286l0.447,0.715l0.264,0.914l-0.031,0.893
		l0.292-0.282l0.672-0.237l0.357-0.199l-0.113-0.278l-0.012-0.102l0.055-0.078l0.07-0.216l0.489,0.228l0.408-0.193l0.379-0.328
		l0.42-0.171l0.115-0.117l-0.16-0.256l-0.363-0.367l-0.635-0.239L38.27,87.79l-0.18-0.449l0.16-0.686l0.508-0.346l0.646-0.119
		l0.555-0.014l0.065-0.071l0.046-0.159l0.07-0.161l0.145-0.072l0.201,0.052l0.016,0.126l-0.025,0.155l0.059,0.131l0.513,0.374
		l0.185,0.233l0.118,0.324l0.165-0.932l-0.217-0.259l-0.188-0.352l-0.11-0.46l0.023-0.578l0.181-0.476l0.21-0.08l0.097,0.194
		l-0.161,0.361v0.254l0.255,0.304l0.234,0.395l0.129-0.773l0.052-0.837l0.192-0.675l0.53-0.278l0.571,0.253l1.11,0.895l0.2-0.111
		l0.068-0.146l0.141,0.054l0.143,0.129l0.057,0.071l0.188-0.044l0.045-0.123l0.01-0.181l0.09-0.225l0.04-0.224l0.083-0.908
		l0.115-0.396l0.185-0.322l0.218-0.233l0.186,0.074l0.137,1.92l-0.061,0.449l1.586-1.231l1.348-1.354l2.622-3.505l2.933-2.827
		l0.221-0.478l0.475-1.351l0.207-0.28l0.375-0.2l0.338-0.479l0.518-0.983l1.67-2.381l0.689-1.376l0.104-0.326l-0.006-0.378
		l-0.17-0.286l-0.546-0.369l-0.11-0.19l0.209-0.219l1.285,0.102l0.4-0.366l0.982-1.305l0.055-0.145l0.21-1.043l0.077-0.195
		l0.086-0.172l0.063-0.071l0.124-0.1l-0.112-0.204l-0.182-0.17l-0.091,0.002l-0.163-0.707l-0.404-0.86l-0.081-0.459l0.144-0.294
		l0.711-0.987l0.283-0.254l0.237,0.008l1.002,0.229l0.298-0.083l1.409-0.986l0.313-0.118l0.271,0.124l0.209,0.025l0.554-0.484
		l0.214-0.134l0.516-0.072l0.991-0.325l1.278-0.173l1.227-0.39l0.652-0.005l0.027,0.007l-0.002-0.006l-0.369-1.916v-0.653
		l0.063-0.158l0.07-0.25l-0.008-0.206l-0.037-0.217l-0.104-0.328l-0.166-2.773l-0.063-0.31L70.26,48.85l-0.326-0.188l-0.082-0.077
		l-0.076-0.111l-0.264-0.618l-0.174-0.282l-0.158-0.17l-1.008-0.695l-0.152-0.245l-0.211-0.438l-0.195-0.748l-0.035-0.324
		l0.053-0.158l0.086-0.027l1.211-0.087l0.111-0.047l0.084-0.07l0.24-0.429l0.07-0.093l0.107-0.052l0.123-0.009l0.121,0.013
		l0.104,0.05l0.164,0.139l0.104,0.023l0.107-0.019l0.227-0.073l1.455-0.092l0.121-0.028l0.104-0.073l0.131-0.313l0.066-0.108
		l0.088-0.072l0.504-0.225l0.078-0.073l0.037-0.059l0.141-0.43l0.129-0.529l0.107-0.229l0.127-0.175l0.125-0.106l0.152-0.229
		l0.041-0.209l0.01-0.234l-0.01-0.362L74.146,39.974z M54.971,73.122l-0.089,0.36l-0.181,0.271l-0.18,0.208l-0.089,0.181
		l-0.122,0.182l-0.57,0.538l-0.209,0.122l-0.27-0.122l-0.211-0.271l-1.35-2.878l-0.601-0.9l-0.897-0.749l-1.713-0.66l-0.508-0.092
		l-0.42-0.238l-1.59-1.801l-0.271-0.509l-0.089-0.271l-0.03-0.36l0.061-0.24l0.089-0.181l0.06-0.241l0.271-0.568l1.86-0.781h0.269
		l0.241,0.092l0.181,0.179l0.118,0.211l-0.178,0.66l0.208,0.719l0.39,0.601l0.359,0.39l0.482,0.09l0.148-0.539l0.063-0.841
		l0.118-0.841l0.271,0.481l0.148,0.63l0.061,0.689v0.69l0.211,0.448l1.408,0.812l0.211,0.241l0.119,0.179l0.063,0.21l0.06,0.36
		l0.03,0.3l-0.061,0.241l-0.062,0.238l-0.03,0.27l0.211,0.449l1.531,1.293l0.268,0.238l0.152,0.121l0.059,0.119V73.122z"/>
</g>
<g id="Layer_1">
</g>
</svg>
