<?xml version="1.0" encoding="iso-8859-1"?>
<!-- Generator: Adobe Illustrator 16.0.3, SVG Export Plug-In . SVG Version: 6.00 Build 0)  -->
<!DOCTYPE svg PUBLIC "-//W3C//DTD SVG 1.1//EN" "http://www.w3.org/Graphics/SVG/1.1/DTD/svg11.dtd">
<svg version="1.1" xmlns="http://www.w3.org/2000/svg" xmlns:xlink="http://www.w3.org/1999/xlink" x="0px" y="0px"
	 width="81.265px" height="66.17px" viewBox="0 0 81.265 66.17" style="enable-background:new 0 0 81.265 66.17;"
	 xml:space="preserve">
<g id="Poltava">
	<polygon style="fill-rule:evenodd;clip-rule:evenodd;fill:#6FA8DC;" points="79.435,36.758 80.561,36.764 81.06,36.67 
		81.172,36.622 81.265,36.552 81.209,36.25 81.006,35.752 79.946,33.727 79.861,33.488 79.794,33.245 79.783,33.124 79.798,33.007 
		79.872,32.923 80.072,32.82 80.146,32.751 80.157,32.643 80.146,32.521 80.091,32.135 80.039,32.017 79.942,31.928 79.758,31.88 
		79.027,31.861 78.909,31.899 78.82,31.979 78.754,32.1 78.661,32.396 78.599,32.517 78.514,32.584 78.387,32.595 78.083,32.547 
		76.88,32.186 76.758,32.123 76.688,32.008 76.661,31.818 76.62,31.673 76.535,31.563 75.877,31.449 75.74,31.373 75.632,31.257 
		75.585,31.016 75.558,30.534 75.51,30.397 75.425,30.262 74.939,29.94 74.844,29.846 74.759,29.682 74.662,29.44 74.518,28.85 
		74.492,28.674 74.474,28.121 74.548,27.085 74.536,26.81 74.488,26.56 74.407,26.414 74.295,26.246 73.896,25.853 73.743,25.758 
		73.606,25.713 73.466,25.7 73.341,25.721 73.226,25.764 72.929,25.967 72.811,26.007 72.681,26.024 72.385,25.982 70.9,25.231 
		70.785,25.109 70.464,24.668 70.29,24.542 70.133,24.46 69.149,24.466 68.845,24.416 68.708,24.363 68.589,24.293 68.394,24.138 
		68.164,23.862 68.067,23.778 67.953,23.712 67.508,23.591 67.371,23.513 67.26,23.397 67.012,22.942 66.92,22.86 66.801,22.706 
		66.683,22.485 66.542,21.486 66.509,21.361 66.146,20.35 66.175,20.281 66.416,19.862 66.639,19.551 67.705,18.499 67.856,18.289 
		67.92,17.976 67.968,17.485 67.953,15.442 67.738,14.94 65.498,14.434 64.85,14.53 64.275,15.012 63.847,15.229 63.71,15.227 
		63.542,15.158 63.165,14.858 63.024,14.774 62.888,14.757 62.698,14.847 62.603,14.976 62.551,15.132 62.487,15.442 62.443,15.588 
		62.392,15.726 62.324,15.842 62.242,15.938 62.149,16.019 62.039,16.069 61.188,16.097 58.862,15.739 58.485,15.806 58.04,15.952 
		57.903,16.042 57.566,16.35 57.471,16.377 57.378,16.344 57.312,16.157 57.318,16.001 57.333,15.842 57.3,15.687 57.219,15.52 
		57.022,15.27 56.97,15.079 56.952,14.9 57.03,14.432 57.089,14.304 57.182,14.236 57.714,14.172 57.825,14.125 57.914,14.069 
		57.984,13.999 58.029,13.941 58.092,13.848 58.136,13.722 58.173,13.572 58.188,13.422 58.186,13.282 58.166,13.149 58.136,13.027 
		58.055,12.81 58.007,12.726 57.966,12.671 57.892,12.598 57.012,11.978 56.873,11.774 56.803,11.593 56.788,11.458 56.722,11.343 
		56.481,11.123 56.426,10.993 56.399,10.853 56.378,10.582 56.352,10.462 56.304,10.351 56.237,10.252 56.119,10.178 55.956,10.146 
		55.686,10.199 55.552,10.302 55.459,10.43 55.396,10.55 55.293,10.601 55.155,10.557 54.971,10.364 54.875,10.216 54.812,10.078 
		54.774,9.821 54.704,8.858 54.708,8.712 54.734,8.561 54.834,8.272 55.03,7.9 55.07,7.765 55.085,7.626 55.07,7.494 55.033,7.373 
		54.938,7.145 54.804,6.944 54.648,6.757 53.608,5.86 52.797,4.932 52.234,4.146 52.139,3.919 52.071,3.673 52.038,3.409 
		52.017,1.536 52.098,0.771 52.09,0.635 52.034,0.527 51.931,0.449 51.135,0.157 50.994,0.163 50.912,0.308 50.86,0.455 
		50.724,0.596 50.506,0.709 50.001,0.797 49.787,0.921 49.631,1.041 49.483,1.105 48.969,1.228 48.868,1.337 48.836,1.459 
		48.883,1.716 48.883,1.745 48.858,1.886 48.775,1.981 48.639,2.025 48.154,1.868 47.954,1.846 47.747,1.94 47.617,2.038 
		47.524,2.149 47.494,2.283 47.502,2.41 47.529,2.54 47.536,2.669 47.494,2.794 47.376,2.841 47.202,2.83 45.373,1.991 
		44.588,1.376 44.27,1.008 43.992,0.611 43.852,0.544 43.637,0.524 42.833,0.735 41.604,1.296 41.512,1.373 41.441,1.467 
		41.4,1.575 41.407,1.664 41.434,1.711 41.452,1.731 42.191,2.19 42.268,2.284 42.285,2.412 42.073,2.539 41.7,2.657 40.722,2.702 
		40.049,2.857 39.815,3.15 39.638,3.177 39.4,3.14 37.594,2.287 30.318,0.799 30.154,0.703 29.507,0.432 29.314,0.304 29.182,0.188 
		29.104,0.097 29,0.022 28.764,0 28.429,0.037 27.778,0.236 27.516,0.403 27.366,0.571 27.321,0.714 27.267,0.846 27.199,0.967 
		27.118,1.061 26.833,1.095 24.545,0.826 23.672,0.306 22.771,2.058 22.424,2.492 21.838,2.733 21.55,2.924 21.409,3.073 
		21.298,3.25 21.136,3.703 21.031,3.829 20.917,3.916 20.498,4.048 19.958,4.38 19.799,4.543 19.691,4.703 19.551,5.114 
		19.421,5.432 19.302,5.577 19.184,5.673 18.939,5.75 18.106,5.82 17.721,5.927 15.696,7.052 14.829,7.036 14.703,6.983 
		14.655,6.882 14.607,6.763 14.478,6.691 14.248,6.68 13.326,6.874 10.9,6.763 10.35,6.594 10.282,6.539 10.234,6.476 10.131,6.276 
		10.052,6.026 10.022,5.901 9.983,5.773 9.952,5.648 9.871,5.416 9.804,5.318 9.723,5.243 9.597,5.201 9.416,5.172 9.083,5.171 
		8.905,5.224 8.193,5.749 8.053,5.777 7.949,5.729 7.787,5.55 7.721,5.451 7.562,5.268 7.476,5.197 7.313,5.148 6.698,5.187 
		5.221,5.885 5.121,5.958 5.036,6.038 4.88,6.234 4.409,7.033 4.146,7.318 3.865,7.524 3.677,7.599 3.511,7.605 3.391,7.552 
		3.206,7.393 3.095,7.33 1.662,7.343 1.07,8.985 0.702,9.535 0.606,9.637 0.569,9.75 0.614,9.896 0.681,10.006 0.732,10.124 
		0.752,10.242 0.681,10.451 0.626,10.572 0,11.493 0.236,11.547 0.47,11.524 0.599,11.559 0.718,11.687 0.859,11.929 1.004,12.318 
		1.321,12.752 1.422,12.854 1.495,12.979 1.555,13.131 1.614,13.402 1.699,13.589 1.869,13.78 2.029,13.858 2.518,13.966 
		2.78,14.067 2.865,14.129 2.913,14.177 3.339,14.789 3.492,14.881 3.621,14.891 3.832,14.774 4.024,14.628 4.188,14.479 
		4.32,14.386 4.409,14.348 4.506,14.348 4.609,14.397 4.776,14.536 4.836,14.667 4.873,14.856 4.896,15.296 4.825,15.482 
		4.728,15.606 3.917,15.889 3.844,15.956 3.865,16.197 4.365,17.874 4.428,18.024 4.62,18.175 4.776,18.265 5.332,18.485 
		5.465,18.513 5.598,18.51 5.949,18.39 6.071,18.384 6.202,18.434 7.275,20.574 7.438,20.832 7.535,20.916 8.102,21.256 
		8.201,21.378 8.261,21.555 8.29,21.891 8.279,22.119 8.249,22.323 8.053,23.085 8.038,23.234 8.042,23.442 8.102,24.099 
		8.057,24.292 7.986,24.432 7.891,24.5 7.794,24.535 7.69,24.515 7.476,24.414 7.349,24.404 7.234,24.441 7.138,24.511 
		7.068,24.616 7.023,24.748 7.087,25.019 7.234,25.393 8.083,26.917 8.534,27.473 8.627,27.549 8.728,27.602 8.846,27.625 
		8.961,27.599 9.175,27.49 9.286,27.454 9.408,27.454 9.53,27.498 9.623,27.57 9.952,27.921 10.126,28.153 10.224,28.328 
		10.282,28.41 10.356,28.477 10.449,28.48 10.553,28.448 10.756,28.336 10.871,28.319 10.981,28.357 11.764,28.971 11.845,29.113 
		11.904,29.316 11.934,29.712 11.934,29.952 11.886,30.901 11.919,31.051 11.979,31.207 12.148,31.367 12.285,31.468 14.877,32.466 
		14.984,32.624 15.063,32.857 15.133,33.917 15.181,34.104 15.303,34.365 15.398,34.513 15.504,34.629 16.129,35.068 16.21,35.185 
		16.288,35.324 16.458,35.992 16.473,36.176 16.469,36.408 16.414,36.818 16.344,37.037 16.262,37.185 16.185,37.27 15.666,37.577 
		15.574,37.654 15.487,37.742 15.414,37.842 14.471,39.43 14.471,39.604 14.537,39.831 14.744,40.234 14.978,40.589 15.14,40.761 
		16.069,41.992 16.181,42.201 17.177,44.842 17.236,45.121 17.255,45.756 17.162,47.472 23.115,50.38 25.593,52.262 25.767,52.43 
		25.919,52.611 26.356,53.313 26.449,53.531 26.482,53.639 26.522,53.73 26.785,54.16 26.896,54.278 27.074,54.418 29.292,54.638 
		29.396,54.697 29.484,55.013 29.588,55.145 29.777,55.228 30.355,55.394 30.47,55.557 30.488,55.685 30.459,55.807 30.378,55.879 
		30.271,55.928 29.902,56.002 29.821,56.063 29.799,56.168 29.825,56.418 29.829,56.549 29.807,56.684 29.751,56.802 29.685,56.889 
		29.614,56.948 29.396,57.09 29.348,57.156 29.381,57.23 29.455,57.309 29.817,57.587 29.914,57.695 30.322,58.25 30.374,58.352 
		30.43,58.441 30.525,58.551 30.925,58.828 31.051,58.949 31.132,59.057 31.169,59.119 31.243,59.168 31.347,59.179 31.54,59.063 
		31.629,58.928 31.703,58.781 31.773,58.678 32.003,58.674 32.347,58.771 33.096,59.104 33.357,59.311 33.506,59.488 33.688,59.63 
		34.725,60.045 34.969,60.24 35.098,60.405 35.153,60.508 35.29,60.547 35.561,60.486 35.713,60.404 35.828,60.305 36.079,59.838 
		36.228,59.787 36.449,59.804 37.316,60.234 37.509,60.382 37.753,60.641 37.819,60.744 38.016,61.172 38.083,61.408 38.091,61.537 
		38.112,61.655 38.165,61.734 38.275,61.734 38.431,61.594 38.505,61.447 38.553,61.279 38.664,60.658 38.716,60.518 38.778,60.404 
		38.927,60.316 39.16,60.266 39.62,60.23 39.83,60.15 39.971,60.047 40.034,59.934 40.78,59.799 41.471,60.49 41.889,60.613 
		42.707,60.627 43.106,60.707 43.489,60.913 43.674,61.111 44.144,61.852 44.348,62.059 47.024,63.947 47.198,63.994 47.539,63.938 
		47.71,63.959 47.852,64.049 48.133,64.316 48.28,64.423 48.683,64.585 49.931,64.794 50.661,65.186 51.412,66.125 51.732,66.17 
		52.408,65.696 52.93,65.213 53.005,65.115 53.075,65.014 53.116,64.905 53.108,64.793 53.046,64.699 52.952,64.623 52.841,64.557 
		52.745,64.481 52.663,64.395 52.627,64.276 52.623,64.141 52.627,64.004 52.648,63.869 52.704,63.752 53.19,63.205 53.452,63.066 
		53.56,62.928 53.604,62.799 53.557,62.273 53.553,62.138 53.526,62.014 53.486,61.9 53.435,61.796 53.36,61.702 52.667,61.035 
		52.611,60.932 52.582,60.814 52.567,60.682 52.567,60.545 52.611,60.096 52.648,59.946 52.693,59.808 52.923,59.297 53.253,58.301 
		53.319,58.185 53.419,58.044 53.56,57.902 53.826,57.685 54.267,57.533 54.578,57.497 54.745,57.424 54.845,57.315 54.863,57.188 
		54.83,57.084 54.727,57.03 54.49,57.023 54.346,56.993 54.316,56.977 54.301,56.953 54.267,56.893 54.252,56.797 54.286,56.682 
		54.346,56.57 54.431,56.471 55.026,55.973 55.374,55.613 55.679,55.172 55.734,55.049 55.764,54.904 55.771,54.766 55.723,54.51 
		55.727,54.379 55.808,54.213 55.934,54.172 56.078,54.178 56.337,54.283 60.617,52.397 61.458,52.279 63.401,51.689 63.628,51.578 
		63.78,51.471 64.01,51.164 64.265,50.91 64.442,50.787 64.639,50.686 64.775,50.648 65.376,50.684 65.554,50.621 65.745,50.467 
		65.89,50.418 66.03,50.426 66.701,50.691 66.798,50.771 66.856,50.861 66.846,50.974 66.782,51.063 66.608,51.221 66.546,51.32 
		66.517,51.438 66.523,51.557 66.616,51.66 66.765,51.729 67.049,51.744 67.208,51.689 67.33,51.605 67.396,51.492 67.452,51.365 
		67.535,51.055 67.594,50.877 67.678,50.696 67.868,50.475 68.02,50.384 68.167,50.341 68.312,50.354 68.589,50.442 68.837,50.566 
		69.545,51.044 69.652,50.811 69.682,50.543 69.626,50.117 69.53,49.711 69.412,49.326 69.323,49.105 68.852,48.283 68.818,48.161 
		68.808,47.997 68.826,47.799 68.916,47.466 69.071,47.115 69.282,46.785 70.516,45.451 70.611,45.382 70.727,45.34 70.855,45.33 
		70.989,45.354 71.104,45.411 71.192,45.488 71.321,45.685 71.399,45.779 71.678,46.018 71.93,46.139 72.081,46.181 74.426,46.37 
		74.929,46.285 76.21,45.652 76.587,45.356 77.303,44.543 77.924,43.529 78.532,42.717 78.55,42.574 78.51,42.409 78.261,42.031 
		78.268,41.873 78.354,41.688 78.356,41.584 78.313,41.454 78.116,41.314 77.816,41.157 77.717,41.004 77.646,40.748 77.479,40.413 
		77.413,40.188 77.413,39.943 77.45,39.768 77.502,39.611 77.558,39.479 77.628,39.371 77.725,39.303 78.094,39.219 78.317,39.128 
		78.443,39.102 78.584,39.105 79.935,39.467 80.068,39.463 80.161,39.387 80.298,39.157 80.387,39.077 80.505,39.039 80.904,39.015 
		81.013,38.971 81.083,38.895 81.112,38.83 81.128,38.746 81.021,38.509 80.771,38.27 80.261,37.958 79.854,37.527 79.383,37.271 
		79.283,37.15 79.249,36.912 79.316,36.81 	"/>
</g>
<g id="Layer_1">
</g>
</svg>
