<?xml version="1.0" encoding="iso-8859-1"?>
<!-- Generator: Adobe Illustrator 16.0.3, SVG Export Plug-In . SVG Version: 6.00 Build 0)  -->
<!DOCTYPE svg PUBLIC "-//W3C//DTD SVG 1.1//EN" "http://www.w3.org/Graphics/SVG/1.1/DTD/svg11.dtd">
<svg version="1.1" xmlns="http://www.w3.org/2000/svg" xmlns:xlink="http://www.w3.org/1999/xlink" x="0px" y="0px"
	 width="63.037px" height="72.401px" viewBox="0 0 63.037 72.401" style="enable-background:new 0 0 63.037 72.401;"
	 xml:space="preserve">
<g id="Rivne">
	<polygon style="fill-rule:evenodd;clip-rule:evenodd;fill:#6FA8DC;" points="63.037,13.846 62.738,13.046 62.361,12.833 
		61.02,12.791 58.438,11.749 58.435,11.747 57.599,11.727 57.157,11.963 56.494,12.694 55.97,12.951 55.478,12.989 54.063,12.75 
		53.113,13.056 52.592,13.113 52.271,12.811 52.407,12.162 52.76,11.338 52.832,10.673 52.126,10.5 51.547,10.575 51.068,10.52 
		50.721,10.188 50.531,9.435 50.541,8.409 50.604,7.59 50.454,6.989 49.815,6.616 48.834,6.399 46.725,6.317 44.32,7.164 
		42.744,6.901 38.234,4.9 32.981,4.738 32.646,4.56 32.352,4.148 32.298,3.774 32.369,3.423 32.364,3.149 32.078,3.004 26.532,2.77 
		25.816,2.456 24.275,1.075 23.555,0.915 21.897,0.966 16.81,0 14.795,0.405 11.548,0.35 11.649,1.029 11.941,1.214 14.112,1.368 
		14.241,1.4 14.297,1.463 14.211,1.56 13.87,1.766 13.77,1.842 13.678,1.93 13.604,2.028 13.541,2.177 13.511,2.36 13.515,2.635 
		13.556,2.912 13.615,3.133 13.7,3.384 13.751,3.501 13.792,3.628 13.822,3.764 13.829,3.915 13.789,4.1 13.718,4.307 13.474,4.781 
		13.164,5.24 12.993,5.426 12.152,6.17 10.982,7.847 10.782,8.222 10.719,8.48 10.653,8.85 10.561,9.635 10.523,10.303 
		10.583,11.047 10.59,11.54 10.608,11.687 10.642,11.821 10.693,11.939 10.764,12.042 10.864,12.12 10.982,12.18 11.287,12.233 
		11.438,12.228 11.694,12.16 11.797,12.156 11.86,12.233 11.897,12.358 11.916,12.505 11.953,12.638 12.019,12.742 12.134,12.81 
		12.559,12.938 12.663,13.008 12.756,13.095 12.823,13.204 12.871,13.327 12.868,13.515 12.808,13.754 12.616,14.151 12.481,14.343 
		12.067,14.709 11.897,14.897 11.756,15.117 11.694,15.275 11.646,15.488 11.623,16.089 11.638,16.271 11.686,16.591 11.949,17.639 
		11.971,17.776 11.99,17.92 11.993,18.079 11.964,18.416 11.864,19.065 11.834,19.564 11.841,19.878 11.89,20.323 11.882,20.488 
		11.705,21.899 11.719,22.074 11.745,22.211 11.793,22.33 11.916,22.548 11.993,22.646 12.075,22.733 12.171,22.801 12.274,22.836 
		12.396,22.845 12.5,22.797 12.585,22.708 12.648,22.592 12.782,22.173 12.842,22.05 12.908,21.938 12.99,21.843 13.312,21.649 
		13.548,21.552 13.826,21.492 14.134,21.48 14.437,21.515 14.94,21.72 15.074,21.738 15.207,21.722 15.329,21.678 15.43,21.604 
		15.604,21.428 15.678,21.308 15.826,20.967 15.907,20.841 16.003,20.751 16.114,20.711 16.225,20.727 16.311,20.796 16.362,20.914 
		16.399,21.04 16.458,21.154 16.536,21.251 16.641,21.324 16.769,21.377 16.922,21.41 17.236,21.418 17.377,21.392 17.492,21.339 
		17.595,21.269 17.963,20.94 18.059,20.881 18.104,21.003 18.083,21.328 17.858,22.173 17.78,22.583 17.754,22.87 17.788,23 
		17.895,23.23 17.97,23.332 18.054,23.42 18.277,23.556 18.751,23.775 18.825,23.828 18.876,23.891 18.921,23.992 18.947,24.12 
		18.973,24.418 18.999,24.557 19.05,24.672 19.128,24.771 19.209,24.857 19.899,25.415 20.361,25.989 20.483,26.207 20.557,26.302 
		20.651,26.39 22.476,27.291 23.694,28.506 23.765,28.609 23.813,28.732 23.846,28.871 23.85,29.038 23.828,29.44 23.794,29.667 
		23.698,29.931 23.483,30.322 23.201,30.581 23.016,30.72 21.328,31.065 21.213,31.151 21.176,31.38 21.076,32.438 21.076,32.627 
		21.15,32.726 21.261,32.798 21.864,33.062 21.99,33.05 22.099,33.001 22.343,32.802 22.413,32.765 22.65,32.706 22.92,32.692 
		23.038,32.737 23.142,32.802 23.334,32.962 23.742,33.424 24.112,34.07 24.157,34.193 24.19,34.326 24.234,34.621 24.268,34.754 
		24.334,34.859 24.412,34.953 24.479,35.053 24.523,35.174 24.549,35.295 24.589,35.756 24.634,36.034 24.597,36.2 24.49,36.38 
		24.168,36.622 23.968,36.729 23.779,36.788 22.077,37.031 21.946,37.121 21.846,37.268 21.75,37.547 21.761,37.713 21.82,37.841 
		21.909,37.928 22.287,38.218 22.402,38.332 22.495,38.471 22.613,38.592 22.668,38.691 22.702,38.822 22.698,38.978 22.687,39.127 
		22.665,39.281 22.624,39.421 22.505,39.563 21.916,40.126 21.613,40.596 21.531,40.841 21.561,40.994 21.661,41.07 22.232,41.342 
		22.369,41.451 22.424,41.523 22.45,41.618 22.424,41.715 22.284,41.949 22.195,42.037 22.069,42.104 21.85,42.109 21.387,42.004 
		21.25,41.996 21.113,42.01 20.987,42.045 20.799,42.154 19.732,43.018 19.618,43.068 19.492,43.162 19.376,43.3 19.247,43.572 
		19.206,43.725 19.191,43.855 19.195,43.982 19.135,45.454 19.228,46.166 19.239,46.314 19.257,46.459 19.261,46.756 19.235,46.897 
		19.195,47.03 19.028,47.311 18.876,47.499 18.784,47.641 18.71,47.778 18.662,47.91 18.447,49.174 18.358,49.289 18.226,49.365 
		17.98,49.377 17.81,49.345 17.666,49.285 17.469,49.131 16.978,48.598 16.781,48.441 16.663,48.38 16.529,48.334 15.589,48.166 
		15.482,48.103 15.425,48.014 15.432,47.896 15.448,47.778 15.432,47.657 15.378,47.551 14.915,46.986 14.556,46.635 14.437,46.574 
		14.13,46.517 12.871,46.522 12.385,46.775 11.875,47.161 10.956,47.657 10.135,47.971 9.423,48.417 9.19,48.48 8.991,48.498 
		8.397,48.357 7.891,48.158 7.591,47.959 7.242,47.609 7.157,47.574 7.064,47.609 7.039,47.794 7.053,47.941 7.187,48.322 
		7.168,48.469 7.098,48.661 6.92,48.912 6.872,49.174 6.898,49.333 6.987,49.442 7.536,49.775 7.625,49.861 7.643,49.975 
		7.591,50.092 7.397,50.18 7.235,50.188 5.524,49.945 5.402,50.011 5.321,50.135 5.295,50.371 5.328,50.525 5.624,51.089 
		5.709,51.334 5.746,51.463 5.769,51.602 5.776,51.752 5.776,51.906 5.765,52.068 5.698,52.25 5.583,52.436 5.325,52.668 
		5.132,52.753 4.947,52.797 3.136,52.604 2.019,52.302 1.9,52.301 1.77,52.346 1.647,52.453 1.5,52.639 1.407,52.779 1.344,52.925 
		1.336,53.064 1.425,53.254 1.525,53.364 2.229,53.908 2.399,54.08 2.462,54.161 2.503,54.264 2.47,54.349 2.096,55.039 
		1.922,55.297 1.84,55.391 1.751,55.473 1.647,55.541 1.525,55.58 1.381,55.587 0.944,55.516 0.808,55.528 0.715,55.59 
		0.677,55.708 0.73,55.865 0.808,55.979 0.904,56.07 1.3,56.367 1.659,56.697 1.88,56.991 2.492,58.053 2.577,58.134 2.692,58.196 
		3.121,58.286 3.237,58.341 3.306,58.442 3.343,58.563 3.343,58.735 3.281,58.924 3.14,59.146 2.821,59.291 2.603,59.345 
		2.385,59.436 2.196,59.59 1.917,59.98 1.411,60.584 0,61.939 0.155,62.318 0.485,62.471 0.971,62.516 1.259,62.486 1.503,62.405 
		2.133,62.025 2.385,61.955 2.529,61.949 2.677,61.971 2.94,62.06 3.054,62.122 3.154,62.193 3.254,62.355 3.348,62.6 3.444,63.109 
		3.455,63.389 3.437,63.604 3.38,63.725 3.321,63.838 3.169,64.035 2.488,64.723 2.422,64.828 2.433,64.998 2.522,65.221 
		2.977,65.775 3.081,65.952 3.088,66.15 2.903,67.057 2.877,67.693 2.892,67.996 2.91,68.143 3.095,69.081 3.313,69.367 
		5.546,71.355 7.257,72.401 7.313,71.842 7.338,71.688 7.428,71.572 7.583,71.527 7.891,71.594 8.039,71.689 8.209,71.861 
		8.287,71.852 8.338,71.683 8.375,71.521 8.401,71.184 8.401,71.029 8.368,70.745 8.36,70.604 8.383,70.458 8.419,70.324 
		8.494,70.225 9.187,69.807 9.331,69.631 9.423,69.463 9.46,69.324 9.631,68.988 9.631,68.862 9.59,68.754 9.516,68.658 
		9.231,68.424 9.149,68.337 9.08,68.238 9.042,68.117 9.02,67.984 9.054,67.678 9.194,67.093 9.242,66.962 9.305,66.854 
		9.486,66.801 9.764,66.826 10.357,66.996 10.871,67.234 11.476,67.389 11.638,67.498 11.76,67.604 11.856,67.668 12.008,67.668 
		12.208,67.57 12.341,67.48 12.86,66.968 12.967,66.921 13.078,66.909 13.23,67.016 13.393,67.246 13.5,67.304 13.659,67.296 
		13.896,67.16 14.034,67.049 14.396,66.682 14.611,66.561 15.018,66.467 17.792,66.242 18.118,66.071 18.303,65.92 20.517,63.503 
		21.087,63.067 21.313,63.072 21.631,63.137 22.313,63.396 22.639,63.467 22.872,63.482 23.509,63.119 23.627,63.074 23.757,63.044 
		23.905,63.04 24.049,63.062 24.331,63.145 25.86,63.883 26.027,63.921 26.179,63.926 26.305,63.902 27.008,63.609 27.196,63.463 
		27.438,63.188 27.53,63.145 27.642,63.173 27.771,63.334 27.837,63.49 27.86,63.662 27.786,63.891 27.708,64.035 27.53,64.244 
		27.455,64.35 27.334,64.582 27.229,64.834 27.193,64.979 27.163,65.13 27.178,65.307 27.241,65.489 27.448,65.691 27.623,65.787 
		27.771,65.976 27.845,66.123 27.912,67.24 29.085,66.702 29.588,66.377 29.993,65.881 30.973,64.342 31.132,64.159 31.5,63.826 
		31.651,63.739 31.874,63.65 32.195,63.613 32.399,63.625 32.711,63.703 32.866,63.719 33.436,63.666 33.609,63.594 33.799,63.475 
		34.221,63.046 34.369,62.86 34.64,62.445 34.717,62.354 35.588,61.729 35.803,61.537 35.943,61.377 36.109,61.004 36.302,60.662 
		36.453,60.479 37.557,59.676 37.693,59.547 37.757,59.436 37.797,59.317 37.819,59.198 37.823,59.112 37.805,58.859 37.816,58.72 
		37.86,58.599 38.9,57.76 39.123,57.492 39.241,57.271 39.26,57.128 39.334,56.959 39.463,56.796 39.717,56.559 39.82,56.369 
		39.883,56.186 39.9,55.871 39.924,55.721 40.001,55.593 40.138,55.525 40.419,55.557 40.964,55.808 41.108,55.826 41.241,55.796 
		41.355,55.721 41.426,55.559 41.445,55.402 41.434,55.248 41.39,54.974 41.379,54.83 41.39,54.679 41.426,54.54 41.482,54.427 
		41.57,54.293 41.607,54.246 43.263,53.534 43.715,53.126 43.859,53.092 44.041,53.1 44.521,53.291 45,53.571 45.292,53.641 
		45.467,53.621 45.647,53.562 45.885,53.391 46.014,53.257 46.169,53.053 46.555,52.712 46.755,52.574 47.213,52.365 47.722,52.208 
		47.832,52.152 47.932,52.081 48.006,51.979 48.121,51.537 48.225,51.281 48.299,51.179 48.395,51.089 48.539,51.037 48.922,51.016 
		49.088,51.086 49.221,51.21 49.324,51.5 49.357,51.707 49.365,51.9 49.354,52.067 49.354,52.221 49.502,52.371 49.65,52.467 
		50.799,52.737 51.639,51.748 51.832,51.171 51.779,51.037 51.702,50.942 51.605,50.862 51.146,50.611 51.02,50.5 50.909,50.338 
		50.806,50.019 50.802,49.841 50.828,49.708 50.869,49.643 51.031,49.255 51.257,48.551 51.346,48.378 51.824,47.806 52.02,47.466 
		52.567,46.023 52.656,45.65 52.693,45.377 52.668,45.246 52.594,44.994 52.498,44.756 52.438,44.645 51.961,43.924 51.729,43.482 
		51.68,43.367 51.632,43.191 51.588,42.965 51.538,42.557 51.535,42.302 51.558,42.096 51.905,40.275 51.942,39.883 51.936,39.613 
		51.824,39.389 51.516,38.983 51.439,38.849 51.364,38.65 51.41,38.537 51.654,38.416 51.765,38.313 51.857,38.092 51.85,37.947 
		51.791,37.824 51.609,37.654 51.523,37.525 51.454,37.346 51.42,36.993 51.387,36.784 51.338,36.619 51.086,36.163 50.938,35.817 
		50.953,35.698 50.976,35.627 51.12,35.478 51.139,35.454 51.375,34.689 51.454,34.535 51.535,34.443 51.639,34.375 51.754,34.323 
		52.682,34.108 53.238,33.821 53.36,33.687 53.49,33.486 53.76,32.796 53.853,32.622 53.934,32.525 54.196,32.271 54.298,32.144 
		54.404,31.979 54.553,31.693 54.612,31.413 54.672,30.577 54.709,30.3 54.756,30.096 54.815,29.984 55.016,29.701 55.094,29.606 
		55.186,29.523 55.289,29.363 55.393,29.13 55.697,28.19 55.764,28.078 55.842,27.978 55.93,27.894 56.467,27.575 56.596,27.442 
		56.729,27.248 56.927,26.832 57.004,26.576 57.037,26.361 57.037,26.207 57.012,25.952 56.993,25.876 56.957,25.779 56.189,24.177 
		56.152,24.009 56.193,23.891 56.281,23.813 57.615,23.509 57.729,23.453 57.826,23.38 58.066,23.116 58.147,22.988 58.227,22.838 
		58.367,22.488 58.411,22.27 58.411,22.084 58.355,21.972 58.289,21.873 57.91,21.534 57.863,21.222 57.87,20.731 58.115,19.045 
		58.191,18.745 58.271,18.674 58.378,18.637 58.512,18.654 58.619,18.713 58.703,18.803 58.781,18.899 58.907,19.11 59.004,19.35 
		59.048,19.479 59.114,19.589 59.188,19.69 60.137,20.52 60.255,20.586 60.381,20.619 60.532,20.591 60.596,20.472 60.629,20.324 
		60.613,20.179 60.576,20.052 60.525,19.935 60.389,19.728 60.037,19.375 59.974,19.159 59.947,18.832 60.04,18.091 60.111,17.75 
		60.191,17.521 60.277,17.444 60.495,17.329 60.75,17.252 61.318,16.968 62.105,16.836 62.106,16.836 62.058,16.734 62.85,14.809 	
		"/>
</g>
<g id="Layer_1">
</g>
</svg>
