<?xml version="1.0" encoding="iso-8859-1"?>
<!-- Generator: Adobe Illustrator 16.0.3, SVG Export Plug-In . SVG Version: 6.00 Build 0)  -->
<!DOCTYPE svg PUBLIC "-//W3C//DTD SVG 1.1//EN" "http://www.w3.org/Graphics/SVG/1.1/DTD/svg11.dtd">
<svg version="1.1" xmlns="http://www.w3.org/2000/svg" xmlns:xlink="http://www.w3.org/1999/xlink" x="0px" y="0px"
	 width="65.685px" height="85.688px" viewBox="0 0 65.685 85.688" style="enable-background:new 0 0 65.685 85.688;"
	 xml:space="preserve">
<g id="Sumy">
	<polygon style="fill-rule:evenodd;clip-rule:evenodd;fill:#6FA8DC;" points="65.231,77.023 64.729,76.988 64.237,76.844 
		63.757,76.594 63.298,76.266 62.772,75.67 62.622,75.098 62.585,74.432 62.402,73.549 62.072,72.922 61.641,72.568 61.145,72.389 
		60.624,72.292 59.82,71.95 59.314,71.035 58.181,66.49 58.144,66.012 58.511,65.569 60.355,64.737 59.796,64.025 59.756,63.199 
		59.835,62.266 59.631,61.21 59.413,60.843 59.147,60.588 58.548,60.232 58.213,59.898 58.173,59.51 58.228,59.057 58.181,58.523 
		57.974,58.06 57.485,57.392 57.314,56.912 57.29,56.333 57.352,55.869 57.322,55.426 57.021,54.927 56.735,54.733 56.173,54.604 
		55.963,54.352 55.901,53.977 55.901,52.945 55.803,52.525 57.103,52.25 57.44,51.936 57.641,51.279 57.434,50.862 57.004,50.614 
		56.533,50.457 55.712,50.4 54.094,50.774 53.285,50.71 52.595,50.034 52.121,48.79 51.534,45.307 51.347,44.756 51.046,44.378 
		50.585,44.199 50.091,44.281 49.615,44.494 49.154,44.588 48.697,44.305 48.256,44.086 47.882,44.125 46.771,44.802 44.813,45.627 
		43.156,46.006 41.41,45.895 40.993,45.744 40.644,45.403 40.414,44.834 40.303,44.247 40.157,43.727 39.822,43.375 39.102,43.273 
		37.558,43.544 36.769,43.262 35.064,42.648 34.177,42.507 33.346,42.724 32.453,43.466 32.028,43.663 31.459,43.544 29.742,42.809 
		31.126,41.852 32.073,40.818 32.672,39.547 32.468,38.26 31.994,38.532 31.614,38.534 31.207,38.449 30.806,38.288 30.452,38.055 
		29.981,37.603 29.74,37.277 29.646,36.965 29.767,36.737 30.287,36.617 30.484,36.403 30.546,36.014 30.484,35.678 30.394,35.344 
		30.366,34.954 30.436,34.586 30.646,33.91 30.697,33.508 30.643,32.671 30.445,32.012 30.135,31.47 29.131,30.322 28.956,30.021 
		28.857,29.668 28.753,28.88 28.647,28.596 28.312,28.373 27.469,28.135 27.202,27.756 27.432,26.854 28.358,26.311 32.421,25.336 
		33.821,25.359 34.285,25.242 35.188,24.172 35.153,22.586 34.51,21.048 34.16,20.695 33.592,20.122 33.126,19.783 32.334,18.881 
		31.908,18.599 31.627,18.6 31.175,18.821 30.895,18.712 30.904,18.618 30.817,18.085 30.756,17.903 30.618,17.752 30.302,17.535 
		30.159,17.4 29.276,16.244 28.793,15.883 27.602,15.875 27.611,15.537 27.797,14.967 27.718,14.302 27.222,13.486 26.934,12.813 
		26.798,12.071 26.738,10.794 26.657,10.127 26.657,9.917 27.069,9.045 27.062,8.609 27,8.245 26.864,7.87 26.635,7.416 
		26.232,6.789 25.828,6.345 24.297,5.304 23.979,4.874 23.385,3.552 22.936,2.926 21.935,2.292 21.466,1.834 21.091,1.151 
		20.896,0.621 20.63,0.249 20.03,0.037 18.947,0 17.858,0.202 15.765,1.177 14.13,2.811 13.614,2.861 13.207,2.253 13.36,0.779 
		12.909,0.126 12.547,0.321 12.224,0.613 11.878,0.851 11.449,0.883 11.075,0.703 11.002,0.649 10.92,0.832 10.737,1.49 
		10.671,2.116 10.608,2.361 10.301,2.813 10.183,3.081 10.135,3.378 10.075,4.1 10.02,4.385 9.777,4.774 9.153,5.422 9.027,5.881 
		9.163,7.725 9.22,8.09 9.327,8.158 10.368,8.515 10.479,8.593 11.023,9.135 11.456,9.755 11.727,10.027 11.797,10.13 
		11.853,10.246 11.894,10.368 11.952,10.48 12.037,10.57 12.168,10.625 12.904,10.674 13.008,10.727 13.049,10.838 13.063,10.977 
		13.033,11.186 12.971,11.435 12.812,11.837 12.679,12.013 12.538,12.114 12.027,12.257 11.468,12.323 11.16,12.295 11.027,12.257 
		10.935,12.174 10.883,12.063 10.839,11.939 10.782,11.837 10.708,11.765 10.601,11.765 10.493,11.812 10.404,11.956 10.353,12.195 
		10.364,13.46 10.342,13.632 10.294,13.814 10.168,14.052 10.057,14.183 9.949,14.284 9.879,14.367 9.861,14.467 10.025,14.559 
		10.383,15.212 10.44,15.617 10.183,16.072 8.846,16.528 8.287,16.6 7.938,16.765 7.089,17.489 6.813,17.654 5.743,17.574 
		5.277,17.712 5.443,18.18 5.443,18.467 4.844,18.624 4.569,19.176 4.342,19.77 3.88,20.046 3.564,20.353 3.166,21.093 2.923,22 
		3.066,22.806 3.197,23.092 3.474,23.988 3.629,24.282 3.798,24.528 5.099,25.837 5.086,26.265 4.71,26.782 4.662,27.191 
		4.729,27.534 4.847,27.675 4.984,27.762 5.105,27.801 5.177,27.918 5.213,28.081 5.316,29.62 5.398,29.794 5.514,29.913 
		5.625,29.992 5.718,30.08 5.776,30.188 5.784,30.301 5.751,30.406 5.606,30.489 5.202,30.61 5.105,30.744 5.047,30.968 
		5.084,31.466 5.154,31.712 5.247,31.883 5.722,32.313 5.807,32.407 5.865,32.52 5.902,32.626 5.836,32.775 5.492,33.235 
		5.47,33.253 5.403,33.291 5.322,33.274 5.158,33.213 4.455,32.84 4.37,32.84 4.348,32.927 4.565,33.7 4.584,33.849 4.565,34.009 
		4.451,34.219 4.337,34.335 4.218,34.414 4.107,34.474 4.039,34.646 4.024,34.925 4.137,35.527 4.251,35.788 4.37,35.973 
		4.544,36.133 4.565,36.233 4.551,36.316 4.466,36.458 4.381,36.571 4.321,36.725 4.296,36.924 4.352,37.229 4.373,37.452 
		4.377,37.656 4.292,37.895 4.192,38.025 4.089,38.122 3.861,38.223 3.352,38.329 3.048,38.326 2.9,38.284 2.774,38.225 
		2.673,38.146 2.596,38.049 2.536,37.948 2.373,37.476 2.333,37.384 2.292,37.328 2.211,37.253 2.085,37.204 1.944,37.178 
		1.812,37.198 1.726,37.285 1.645,37.397 1.481,37.773 1.452,37.874 1.46,37.965 1.493,38.089 1.601,38.341 1.818,38.754 
		1.911,39.028 1.985,39.182 2.096,39.262 2.226,39.278 2.499,39.271 2.614,39.308 2.7,39.39 2.76,39.496 2.781,39.656 2.771,39.844 
		2.681,40.164 2.634,40.382 2.621,40.589 2.725,40.799 2.83,40.929 3.129,41.205 3.188,41.307 3.199,41.433 3.129,41.585 
		3.052,41.711 2.992,41.864 2.974,42.046 3.104,42.515 3.133,42.675 3.118,42.809 3.022,42.953 2.911,43.05 2.236,43.394 
		2.174,43.544 2.145,43.769 2.185,44.215 2.178,44.443 2.104,44.738 2.004,44.854 1.893,44.953 0.667,45.346 0.566,45.49 
		0.526,45.725 0.537,46.238 0.648,46.553 0.715,46.781 0.737,46.951 0.667,47.196 0.604,47.354 0.044,48.321 0.007,48.445 0,48.563 
		0.119,48.658 1.037,48.938 1.948,49.371 2.089,49.406 2.236,49.42 2.725,49.282 2.841,49.294 2.934,49.361 2.996,49.459 
		3.019,49.595 2.988,49.738 2.859,49.908 2.521,50.153 2.474,50.255 2.492,50.387 2.604,50.52 2.71,50.619 2.944,50.773 
		3.443,51.021 4.691,51.305 4.828,51.279 4.929,51.211 5.01,51.104 5.492,50.062 5.577,49.973 5.703,49.965 5.995,50.049 
		6.258,50.169 6.354,50.267 6.38,50.418 6.188,50.873 5.828,51.545 5.666,51.726 5.573,51.806 5.198,52.238 5.154,52.348 
		5.14,52.486 5.143,52.645 5.213,52.811 5.302,52.926 5.788,53.347 5.858,53.476 5.896,53.686 5.821,54.08 5.807,54.928 
		5.821,55.063 5.832,55.361 5.795,55.579 5.722,55.857 5.518,56.179 5.358,56.292 5.213,56.354 5.128,56.43 5.039,56.555 
		4.962,56.732 4.41,58.898 4.366,59.287 4.355,59.99 4.377,60.374 4.429,60.662 4.511,60.819 4.736,61.104 5.039,61.332 
		5.21,61.416 5.354,61.541 5.428,61.708 5.428,61.939 5.366,62.188 5.158,62.471 4.973,62.637 4.799,62.761 4.662,62.936 
		4.559,63.177 4.511,63.582 4.496,64.164 4.466,64.318 4.403,64.473 4.244,64.639 3.985,64.807 3.898,64.908 3.861,65.052 
		3.884,65.29 3.958,65.604 3.985,65.733 3.985,65.896 3.94,66.362 3.721,67.236 2.911,69.616 3.784,70.136 6.072,70.405 
		6.357,70.371 6.438,70.277 6.506,70.156 6.561,70.024 6.605,69.881 6.755,69.713 7.018,69.547 7.668,69.348 8.003,69.31 
		8.239,69.332 8.343,69.407 8.421,69.498 8.554,69.614 8.746,69.742 9.394,70.013 9.558,70.109 16.833,71.598 18.64,72.45 
		18.877,72.487 19.055,72.46 19.288,72.168 19.961,72.012 20.939,71.967 21.313,71.849 21.524,71.723 21.507,71.594 21.431,71.5 
		20.691,71.041 20.673,71.021 20.646,70.975 20.64,70.885 20.681,70.777 20.751,70.684 20.843,70.606 22.072,70.045 22.876,69.834 
		23.091,69.854 23.231,69.921 23.509,70.318 23.827,70.686 24.612,71.301 26.441,72.14 26.615,72.15 26.733,72.104 26.775,71.979 
		26.769,71.85 26.741,71.721 26.733,71.593 26.764,71.459 26.856,71.348 26.986,71.25 27.193,71.156 27.394,71.178 27.878,71.336 
		28.015,71.291 28.098,71.196 28.122,71.055 28.122,71.026 28.075,70.77 28.107,70.646 28.208,70.538 28.723,70.415 28.87,70.352 
		29.026,70.231 29.24,70.107 29.745,70.02 29.963,69.906 30.1,69.766 30.151,69.618 30.233,69.473 30.374,69.467 31.17,69.76 
		31.273,69.837 31.329,69.945 31.337,70.08 31.256,70.846 31.277,72.719 31.311,72.983 31.378,73.229 31.474,73.457 32.036,74.242 
		32.848,75.17 33.888,76.066 34.043,76.254 34.177,76.455 34.272,76.683 34.31,76.805 34.324,76.936 34.31,77.075 34.27,77.21 
		34.073,77.582 33.974,77.871 33.947,78.022 33.943,78.168 34.014,79.131 34.051,79.388 34.114,79.525 34.21,79.674 34.395,79.867 
		34.532,79.91 34.636,79.859 34.698,79.74 34.791,79.611 34.925,79.509 35.195,79.457 35.358,79.488 35.477,79.563 35.543,79.66 
		35.591,79.772 35.617,79.892 35.639,80.162 35.665,80.303 35.721,80.434 35.961,80.653 36.027,80.769 36.042,80.902 36.112,81.084 
		36.251,81.287 37.131,81.908 37.205,81.981 37.246,82.036 37.294,82.119 37.375,82.337 37.405,82.459 37.425,82.592 37.427,82.732 
		37.412,82.883 37.375,83.031 37.331,83.158 37.269,83.251 37.224,83.309 37.153,83.379 37.064,83.436 36.953,83.482 36.421,83.547 
		36.328,83.613 36.27,83.742 36.191,84.211 36.209,84.389 36.262,84.58 36.458,84.83 36.539,84.997 36.572,85.152 36.558,85.312 
		36.551,85.467 36.617,85.654 36.71,85.688 36.806,85.66 37.143,85.352 37.279,85.262 37.725,85.116 38.102,85.049 40.428,85.406 
		41.278,85.379 41.389,85.329 41.481,85.248 41.563,85.152 41.631,85.035 41.683,84.898 41.727,84.752 41.79,84.441 41.842,84.285 
		41.938,84.156 42.127,84.066 42.264,84.084 42.404,84.168 42.781,84.468 42.949,84.537 43.086,84.539 43.515,84.322 44.089,83.84 
		44.737,83.744 46.978,84.25 47.865,83.771 47.995,83.648 48.147,83.474 48.246,83.128 48.455,82.637 48.577,82.541 48.677,82.541 
		48.747,82.615 48.813,82.711 48.977,82.887 49.287,83.123 49.546,83.277 49.766,83.336 49.892,83.289 49.977,83.184 50.021,83.049 
		50.043,82.919 50.024,82.8 49.984,82.686 49.991,82.514 50.065,82.297 50.391,81.887 50.591,81.733 50.771,81.686 51.117,81.915 
		51.283,81.978 51.387,81.927 51.469,81.824 51.521,81.682 51.564,81.521 51.65,81.325 51.772,81.1 52.038,80.765 52.22,80.635 
		52.398,80.568 52.709,80.592 53.013,80.656 53.512,80.908 53.624,80.984 53.813,81.039 54.083,81.064 54.938,80.899 55.127,80.811 
		55.205,80.719 55.246,80.598 55.246,80.473 55.224,80.344 55.142,80.109 55.112,79.992 55.123,79.842 55.193,79.678 55.364,79.451 
		55.479,79.364 55.586,79.328 56.289,79.499 56.435,79.461 56.538,79.398 56.597,79.313 56.601,79.229 56.549,79.139 56.479,79.051 
		56.468,78.908 56.523,78.738 56.822,78.445 57.022,78.348 57.196,78.325 57.322,78.377 57.911,78.726 58.056,78.782 58.244,78.813 
		58.363,78.76 58.444,78.662 58.485,78.52 58.496,78.377 58.488,77.797 58.496,77.634 58.552,77.416 58.647,77.314 58.781,77.266 
		58.925,77.266 59.074,77.297 59.333,77.416 60.951,78.44 61.158,78.508 61.258,78.469 61.276,78.379 61.232,78.281 61.059,78.059 
		61.011,77.957 60.996,77.814 61.051,77.745 61.114,77.721 61.874,77.877 62.573,77.814 62.95,77.632 63.195,77.572 63.377,77.555 
		64.135,77.779 64.588,77.838 64.977,77.824 65.18,77.777 65.331,77.709 65.42,77.624 65.495,77.516 65.562,77.387 65.616,77.229 
		65.65,77.092 65.685,76.875 	"/>
</g>
<g id="Layer_1">
</g>
</svg>
