<?xml version="1.0" encoding="iso-8859-1"?>
<!-- Generator: Adobe Illustrator 16.0.3, SVG Export Plug-In . SVG Version: 6.00 Build 0)  -->
<!DOCTYPE svg PUBLIC "-//W3C//DTD SVG 1.1//EN" "http://www.w3.org/Graphics/SVG/1.1/DTD/svg11.dtd">
<svg version="1.1" xmlns="http://www.w3.org/2000/svg" xmlns:xlink="http://www.w3.org/1999/xlink" x="0px" y="0px"
	 width="39.934px" height="64.166px" viewBox="0 0 39.934 64.166" style="enable-background:new 0 0 39.934 64.166;"
	 xml:space="preserve">
<g id="Ternopil">
	<polygon style="fill-rule:evenodd;clip-rule:evenodd;fill:#6FA8DC;" points="39.566,63.09 39.382,62.6 39.301,62.316 39.342,62.17 
		39.441,62.125 39.56,62.099 39.66,62.037 39.719,61.886 39.656,61.797 39.334,61.595 39.115,61.377 38.998,61.293 38.516,61.031 
		38.371,60.923 38.171,60.733 38.123,60.576 38.127,60.432 38.179,60.309 38.359,59.994 38.4,59.891 38.419,59.783 38.419,59.623 
		38.4,59.396 38.33,59.344 38.26,59.375 38.115,59.566 38.001,59.615 37.86,59.596 37.653,59.451 37.598,59.301 37.594,59.143 
		37.627,58.991 37.643,58.816 37.579,58.717 37.453,58.672 37.309,58.66 37.119,58.61 36.916,58.508 36.631,58.242 36.516,58.058 
		36.472,57.876 36.486,57.727 36.516,57.578 36.639,57.18 36.668,57.033 36.683,56.883 36.668,56.175 36.676,56.035 36.709,55.902 
		36.816,55.635 36.85,55.445 36.797,55.279 36.693,55.131 36.383,54.783 36.309,54.628 36.306,54.477 36.357,54.365 36.49,54.169 
		36.546,54.063 36.576,53.814 36.612,53.709 36.713,53.657 36.986,53.613 37.098,53.553 37.156,53.428 37.127,53.329 37.03,53.256 
		36.549,53.045 36.457,52.973 36.375,52.889 36.035,52.379 35.987,52.191 35.968,52.025 36.068,50.887 36.161,50.413 36.172,50.209 
		36.128,50.092 36.027,50.032 35.921,50.049 35.668,50.119 35.516,50.108 35.457,50.023 35.445,49.895 35.479,49.762 35.523,49.638 
		35.579,49.522 35.631,49.365 35.668,49.167 35.68,48.842 35.639,48.659 35.564,48.502 35.365,48.189 35.357,48.049 35.408,47.945 
		35.627,47.824 35.724,47.742 35.753,47.551 35.709,47.359 35.59,47.049 35.605,46.902 35.687,46.824 35.968,46.738 36.121,46.511 
		36.131,46.462 36.054,46.246 35.816,45.783 35.656,45.404 35.612,45.176 35.612,44.987 35.664,44.868 35.727,44.762 35.877,44.57 
		36.131,44.326 36.225,44.213 36.302,44.058 36.375,43.781 36.379,43.603 36.354,43.451 36.313,43.337 35.953,42.527 35.906,42.34 
		35.887,42.161 35.921,41.846 35.953,41.701 36.105,41.295 36.146,41.109 36.121,40.975 36.068,40.859 35.809,40.571 35.72,40.419 
		35.605,40.145 35.579,39.945 35.586,39.768 35.727,39.205 35.742,38.823 35.738,38.551 35.764,38.366 35.813,38.225 35.884,38.125 
		35.965,38.039 36.058,37.961 36.269,37.848 36.619,37.717 36.705,37.603 36.76,37.421 36.753,37.061 36.76,36.838 36.79,36.658 
		36.938,36.369 37.016,36.105 37.008,35.941 36.968,35.806 36.697,35.416 36.623,35.285 36.546,35.127 36.445,34.863 36.424,34.68 
		36.442,34.483 36.557,34.042 36.564,33.863 36.535,33.65 36.368,32.958 36.342,32.63 36.342,32.228 36.32,32.03 36.265,31.887 
		36.188,31.795 35.59,31.36 35.505,31.221 35.42,31.018 35.201,30.056 34.994,29.401 34.572,28.474 34.438,28.07 34.398,27.837 
		34.395,27.656 34.412,27.572 34.442,27.461 34.772,26.648 34.81,26.577 34.861,26.486 34.936,26.405 35.027,26.329 35.672,25.986 
		35.757,25.903 35.832,25.806 35.879,25.677 35.965,25.23 36.064,24.277 36.124,23.985 36.168,23.853 36.221,23.733 36.291,23.628 
		36.368,23.538 36.639,23.305 36.734,23.18 36.816,23.005 36.897,22.675 36.908,22.476 36.879,22.315 36.813,22.215 36.73,22.127 
		36.072,21.594 35.975,21.474 35.879,21.322 35.757,21.054 35.72,20.86 35.72,20.686 35.757,20.548 35.871,20.313 35.938,20.206 
		36.021,20.111 36.291,19.877 36.361,19.655 36.42,19.325 36.453,18.6 36.449,18.256 36.424,18.009 36.391,17.884 36.287,17.66 
		36.225,17.557 36.15,17.465 35.579,17.004 35.49,16.877 35.405,16.717 35.309,16.429 35.295,16.229 35.316,16.063 35.372,15.878 
		35.424,15.642 35.476,15.22 35.476,14.981 35.449,14.796 35.408,14.678 35.346,14.573 35.271,14.482 35.184,14.398 34.854,14.163 
		34.736,14.033 34.602,13.775 34.569,13.594 34.576,13.426 34.743,12.981 34.803,12.735 34.807,12.556 34.787,12.404 34.684,12.028 
		34.461,11.432 34.442,11.275 34.445,11.157 34.49,11.048 34.549,10.944 34.629,10.851 34.717,10.772 34.917,10.641 36.265,10.181 
		36.365,10.066 36.432,9.895 36.472,9.581 36.402,9.434 36.283,9.351 35.973,9.317 35.816,9.259 35.68,9.164 35.539,8.995 
		35.513,8.854 35.557,8.75 35.646,8.672 36.076,8.442 36.165,8.356 36.231,8.25 36.295,8.099 36.387,7.655 36.357,7.5 36.287,7.386 
		35.987,7.161 35.898,7.063 35.816,6.946 35.746,6.789 35.749,6.648 35.809,6.543 35.913,6.484 36.794,6.419 37.053,6.354 
		37.171,6.262 37.279,6.122 37.368,5.827 37.372,5.645 37.335,5.493 37.274,5.392 37.198,5.296 37.02,5.126 36.801,4.995 
		35.968,4.747 35.856,4.693 35.783,4.604 35.82,4.53 35.906,4.459 36.416,4.2 36.35,3.083 36.275,2.935 36.128,2.747 35.953,2.65 
		35.746,2.449 35.683,2.266 35.668,2.089 35.697,1.938 35.734,1.793 35.84,1.542 35.96,1.309 36.035,1.204 36.213,0.994 
		36.291,0.851 36.365,0.621 36.342,0.45 36.275,0.294 36.146,0.132 36.035,0.104 35.943,0.148 35.701,0.422 35.513,0.569 
		34.81,0.861 34.684,0.885 34.532,0.88 34.365,0.842 32.836,0.104 32.555,0.021 32.41,0 32.262,0.003 32.133,0.033 32.014,0.079 
		31.377,0.442 31.144,0.427 30.818,0.355 30.137,0.096 29.818,0.032 29.592,0.027 29.021,0.462 26.809,2.88 26.623,3.031 
		26.297,3.202 23.523,3.426 23.116,3.521 22.901,3.642 22.539,4.008 22.4,4.119 22.164,4.255 22.005,4.263 21.898,4.206 
		21.734,3.976 21.583,3.869 21.473,3.88 21.365,3.927 20.846,4.44 20.713,4.53 20.513,4.628 20.361,4.627 20.265,4.563 
		20.143,4.457 19.98,4.348 19.376,4.193 18.862,3.956 18.269,3.785 17.991,3.76 17.81,3.813 17.747,3.921 17.699,4.052 
		17.559,4.638 17.525,4.943 17.547,5.077 17.584,5.198 17.654,5.296 17.736,5.384 18.021,5.618 18.095,5.713 18.136,5.822 
		18.136,5.947 17.965,6.284 17.928,6.423 17.836,6.591 17.691,6.766 16.999,7.184 16.924,7.283 16.888,7.417 16.865,7.563 
		16.873,7.705 16.906,7.988 16.906,8.143 16.88,8.481 16.843,8.642 16.792,8.812 16.714,8.821 16.543,8.649 16.396,8.553 
		16.088,8.487 15.933,8.532 15.843,8.647 15.818,8.802 15.762,9.361 15.767,9.617 15.811,9.796 15.828,9.856 15.885,9.977 
		16.025,10.158 16.114,10.24 16.625,10.597 16.707,10.682 16.769,10.79 16.858,11.028 16.917,11.132 17.207,11.514 17.262,11.619 
		17.307,11.74 17.336,11.868 17.344,12.007 17.299,12.138 17.195,12.248 16.961,12.317 16.625,12.336 16.484,12.404 16.374,12.547 
		16.259,12.835 16.236,13.027 16.255,13.182 16.358,13.405 16.399,13.525 16.437,13.652 16.455,13.789 16.447,13.932 16.414,14.058 
		16.358,14.174 16.292,14.281 16.159,14.416 15.963,14.559 15.551,14.773 15.303,14.846 14.948,14.881 14.818,14.928 14.354,15.219 
		14.214,15.285 13.696,15.428 12.844,15.901 12.718,15.943 10.957,16.278 10.73,16.383 10.474,16.454 9.35,16.599 9.211,16.656 
		9.101,16.775 9.016,17.035 8.86,17.681 8.845,17.831 8.853,17.978 8.886,18.109 9.045,18.452 9.446,19.053 9.505,19.177 
		9.538,19.288 9.568,19.412 9.571,19.558 9.549,19.702 9.516,19.839 9.409,19.986 9.25,20.138 8.723,20.45 8.583,20.503 
		8.372,20.529 8.08,20.511 7.95,20.466 7.867,20.379 7.806,20.28 7.739,20.199 7.627,20.184 7.505,20.269 7.375,20.423 
		6.843,21.442 6.75,21.704 6.713,21.837 6.565,22.215 5.898,23.48 5.754,23.596 1.625,25.935 1.399,25.996 1.207,26.009 
		1.065,25.969 0.758,25.949 0.629,26.051 0.525,26.244 0.392,27.43 0.303,27.885 0,28.562 1.943,31.596 2.317,32.328 2.736,33.525 
		2.854,33.759 3.003,34.129 3.006,34.291 2.969,34.425 2.851,34.649 2.807,34.779 2.781,34.924 2.777,35.07 2.803,35.2 2.84,35.324 
		2.888,35.439 2.958,35.694 3.069,36.381 3.106,36.816 3.132,36.951 3.195,37.084 3.306,37.196 3.806,37.383 3.818,37.391 
		3.907,37.545 4.01,37.803 4.106,38.147 4.166,38.411 4.184,38.553 4.191,38.701 4.188,38.854 4.173,39.007 4.147,39.154 
		4.103,39.279 4.043,39.396 3.97,39.488 3.606,39.793 3.532,39.887 3.469,39.99 3.439,40.117 3.436,40.248 3.461,40.366 
		3.632,40.84 3.65,40.979 3.65,41.127 3.639,41.283 3.595,41.591 3.583,41.748 3.583,41.898 3.613,42.029 3.65,42.152 3.707,42.259 
		3.791,42.358 3.91,42.432 4.132,42.449 4.262,42.398 4.373,42.324 4.461,42.242 4.658,42.096 4.765,42.042 4.887,42.015 
		5.013,42.031 5.469,42.257 6.198,42.385 6.316,42.479 6.427,42.617 6.55,42.885 6.602,43.074 6.625,43.254 6.628,43.557 
		6.646,43.694 6.68,43.821 6.728,43.934 6.783,44.038 6.817,44.157 6.82,44.287 6.783,44.41 6.721,44.518 6.646,44.609 
		6.558,44.689 6.447,44.734 6.32,44.754 6.187,44.746 5.931,44.666 5.25,44.32 4.972,44.254 4.82,44.251 4.691,44.271 4.576,44.322 
		4.502,44.41 4.465,44.538 4.454,44.672 4.461,44.811 4.499,44.932 4.546,45.041 4.576,45.068 4.828,45.26 5.609,45.573 
		5.806,45.733 5.952,45.982 5.993,46.195 6.02,46.428 6.131,46.746 6.469,47.316 6.813,47.588 7.23,47.625 8.22,47.418 8.59,47.484 
		9.845,48.249 10.066,48.504 10.084,48.863 9.908,49.467 9.925,49.834 10.059,50.176 10.631,51.085 10.941,51.357 11.134,51.136 
		11.237,50.688 11.282,50.277 11.359,49.979 11.502,49.721 11.7,49.467 12.228,49.043 12.509,48.947 12.855,48.974 12.855,49.242 
		12.614,49.679 12.4,50.588 12.293,51.567 12.367,52.207 12.958,51.576 13.52,51.594 14.811,52.207 14.306,52.702 12.958,53.086 
		12.692,53.688 12.98,54.622 13.605,54.396 14.811,53.194 15.181,53.136 15.366,53.256 15.44,53.225 15.477,52.701 15.431,52.248 
		15.374,51.934 15.488,51.752 15.966,51.691 16.266,51.773 16.558,51.93 16.88,52.029 17.27,51.938 17.322,51.779 17.281,51.528 
		17.29,51.299 17.499,51.197 17.654,51.24 18.023,51.426 18.232,51.467 18.032,51.979 17.905,52.22 17.729,52.433 17.994,52.812 
		18.499,53.221 19.054,53.552 19.468,53.688 20.076,53.76 20.483,53.963 21.195,54.652 21.857,55.035 22.009,55.167 22.264,55.709 
		22.236,55.923 22.094,56.032 22.009,56.266 21.985,56.605 21.967,56.676 22.033,56.729 22.26,57.025 22.412,57.433 22.333,57.713 
		22.196,57.924 22.172,58.123 22.473,58.363 23.006,58.514 24.053,58.614 24.243,58.81 24.438,59.67 24.704,59.865 24.967,59.762 
		25.065,59.506 25.126,59.178 25.283,58.859 25.926,58.413 26.293,58.736 26.581,59.313 27,59.619 27.502,60.261 27.592,60.48 
		27.574,60.808 27.584,60.906 28.744,61.361 29.131,61.408 29.519,61.34 29.902,61.064 30.228,60.346 30.51,60.089 31.1,60.378 
		31.324,60.357 31.443,60.166 31.543,59.578 31.65,59.373 32.025,59.22 32.251,59.428 32.34,59.915 32.303,60.604 32.303,60.357 
		32.084,61.545 32.107,61.953 32.385,62.456 32.756,62.83 33.218,63.065 33.65,63.022 33.946,62.567 33.57,61.999 33.378,61.623 
		33.294,61.217 33.294,60.699 33.355,60.536 34.027,60.604 34.331,61.066 34.302,62.088 34.42,63.107 35.168,63.57 36.553,63.303 
		36.979,63.329 37.271,63.445 37.871,63.815 38.646,64.114 39.324,64.166 39.934,63.916 	"/>
</g>
<g id="Layer_1">
</g>
</svg>
