<?xml version="1.0" encoding="iso-8859-1"?>
<!-- Generator: Adobe Illustrator 16.0.3, SVG Export Plug-In . SVG Version: 6.00 Build 0)  -->
<!DOCTYPE svg PUBLIC "-//W3C//DTD SVG 1.1//EN" "http://www.w3.org/Graphics/SVG/1.1/DTD/svg11.dtd">
<svg version="1.1" xmlns="http://www.w3.org/2000/svg" xmlns:xlink="http://www.w3.org/1999/xlink" x="0px" y="0px"
	 width="64.564px" height="68.144px" viewBox="0 0 64.564 68.144" style="enable-background:new 0 0 64.564 68.144;"
	 xml:space="preserve">
<g id="Vinnytsia">
	<polygon style="fill-rule:evenodd;clip-rule:evenodd;fill:#6FA8DC;" points="64.205,51.531 63.994,51.352 63.88,51.29 
		63.762,51.249 63.629,51.238 63.503,51.255 63.258,51.318 62.107,51.813 61.926,51.846 61.82,51.833 61.743,51.758 61.706,51.616 
		61.721,51.383 61.766,51.246 61.824,51.151 62.255,50.774 62.332,50.685 62.462,50.481 62.536,50.292 62.588,50.071 62.633,49.979 
		62.662,49.946 62.762,49.951 62.81,49.94 62.887,49.896 63.039,49.743 63.143,49.587 63.184,49.5 63.225,49.385 63.25,49.238 
		63.265,49.09 63.258,48.941 63.105,48.449 62.762,47.744 62.325,47.185 62.084,46.787 61.88,46.349 61.828,46.161 61.776,45.888 
		61.772,44.85 61.75,44.711 61.684,44.593 61.525,44.494 60.48,44.064 59.696,43.517 59.525,43.352 59.385,43.162 59.341,43.009 
		59.314,42.816 59.348,42.464 59.418,42.293 59.519,42.18 59.926,41.949 60.018,41.877 60.077,41.787 60.081,41.663 59.98,41.541 
		59.87,41.459 59.74,41.399 59.592,41.299 59.438,41.162 59.237,40.865 59.08,40.764 58.93,40.715 58.289,40.764 57.444,40.652 
		57.318,40.602 57.2,40.297 56.778,38.055 56.67,37.739 56.548,37.684 55.979,37.524 55.883,37.451 55.809,37.357 55.742,37.223 
		55.675,37.055 55.604,36.766 55.598,36.586 55.682,36.427 55.778,36.336 56.066,36.118 56.123,35.987 56.123,35.803 56.041,35.522 
		55.975,35.357 55.9,35.225 55.752,35.045 55.66,34.966 55.549,34.904 55.416,34.869 55.033,34.871 54.919,34.834 54.834,34.761 
		54.664,34.59 54.571,34.515 54.127,34.264 54.061,34.174 54.046,34.068 54.127,33.943 54.213,33.842 54.297,33.693 54.468,33.177 
		54.578,33.032 54.705,32.95 54.838,32.934 54.938,32.852 54.989,32.71 54.926,32.301 54.904,32.232 54.893,32.204 54.805,32.038 
		54.73,31.947 54.635,31.874 54.512,31.823 54.367,31.795 53.631,31.767 53.494,31.726 53.275,31.595 53.197,31.504 53.131,31.411 
		53.079,31.276 53.039,31.113 53.031,30.846 53.076,30.618 53.156,30.398 53.431,30 53.538,29.899 53.627,29.833 54.441,29.353 
		54.89,29.163 54.971,29.044 55.012,28.867 54.979,28.508 54.967,28.284 54.989,28.093 55.123,27.92 55.242,27.824 55.686,27.597 
		55.76,27.473 55.797,27.306 55.716,26.93 55.652,26.729 55.611,26.538 55.615,26.388 55.693,26.181 55.859,25.938 55.879,25.79 
		55.842,25.614 55.686,25.376 55.567,25.245 55.441,25.15 55.082,24.974 54.986,24.896 54.982,24.633 55.523,23.993 55.297,23.484 
		55.037,23.37 54.675,23.421 54.35,23.415 54.205,23.343 54.123,23.255 54.076,23.063 53.912,22.724 53.475,22.071 53.149,21.357 
		53.05,21.206 52.953,21.11 52.839,21.065 52.164,20.957 51.932,20.884 51.568,20.697 51.424,20.544 51.357,20.385 51.343,20.094 
		51.283,19.893 51.189,19.65 50.813,18.943 50.802,18.855 50.805,18.61 50.82,18.475 50.831,18.423 50.854,18.341 50.879,18.282 
		50.935,18.188 51.002,18.099 51.082,18.009 52.268,17.224 52.356,17.142 52.42,17.03 52.46,16.897 52.482,16.569 52.479,16.086 
		52.397,15.827 51.846,14.69 51.771,14.477 51.771,14.344 51.809,14.221 51.883,14.13 51.972,14.069 52.116,14.017 52.216,13.952 
		52.294,13.888 52.36,13.81 52.397,13.721 52.427,13.272 52.42,13 52.375,12.838 52.297,12.721 51.338,12.236 51.201,12.134 
		51.064,11.986 50.872,11.706 50.783,11.523 50.728,11.36 50.688,10.945 50.694,10.643 50.721,10.485 50.75,10.346 50.791,10.221 
		51.039,9.729 51.098,9.577 51.143,9.409 51.168,9.155 51.135,9.004 51.072,8.882 50.895,8.743 50.728,8.667 49.558,8.493 
		48.962,8.477 48.709,8.599 48.628,8.692 48.554,8.792 47.78,9.521 47.54,9.667 47.328,9.732 46.928,9.708 45.9,9.821 45.61,9.934 
		45.429,10.059 45.393,10.203 45.366,10.352 45.344,10.681 45.296,10.867 45.192,10.929 45.063,10.929 44.586,10.846 42.045,11.021 
		40.338,10.753 39.435,10.825 38.934,10.711 38.716,10.609 38.572,10.514 38.472,10.423 38.408,10.326 38.379,10.221 38.408,10.107 
		38.476,10.007 38.709,9.729 38.775,9.622 38.819,9.512 38.819,9.4 38.783,9.292 38.461,8.787 38.42,8.671 38.391,8.547 
		38.368,8.416 38.316,8.25 38.213,8.078 37.764,7.746 37.656,7.649 37.635,7.584 37.631,7.478 37.66,7.354 37.709,7.225 
		37.838,7.005 38.986,5.548 38.993,5.427 38.934,5.276 38.254,4.766 38.176,4.692 38.105,4.601 37.909,4.304 37.509,3.447 
		37.486,3.376 37.465,3.273 37.457,3.142 37.476,2.835 37.465,2.692 37.435,2.564 37.397,2.443 37.368,2.317 37.361,2.186 
		37.383,2.054 37.445,1.854 37.387,1.701 37.268,1.504 36.865,1.125 36.739,0.918 36.702,0.748 36.743,0.614 36.769,0.481 
		36.729,0.333 36.619,0.253 36.479,0.204 34.957,0 34.787,0.03 34.688,0.131 34.605,0.412 34.506,0.679 34.447,0.799 34.377,0.908 
		34.191,1.073 33.983,1.196 33.406,1.425 33.1,1.63 33.014,1.716 32.944,1.82 32.659,2.395 32.454,2.916 32.399,3.033 32.332,3.121 
		32.273,3.18 32.21,3.226 31.977,3.241 30.167,2.961 30.044,2.965 29.936,3.003 29.515,3.243 29.156,3.386 28.649,3.495 
		28.538,3.447 28.452,3.365 28.385,3.27 28.244,3.142 27.634,2.791 27.408,2.734 25.305,2.717 25.049,2.761 24.968,2.851 
		24.521,3.635 24.39,3.795 24.341,3.846 23.953,3.989 23.458,4.054 23.186,4.05 22.979,4.016 21.847,3.496 21.594,3.439 
		21.405,3.437 20.969,3.652 20.729,3.734 18.433,3.803 16.41,4.378 15.629,4.463 13.993,4.211 11.875,4.475 11.445,5.025 
		11.119,5.126 10.667,5.134 10.571,5.175 10.534,5.243 10.63,5.342 11.071,5.627 11.124,5.74 11.119,5.883 10.982,6.121 
		10.771,6.375 10.594,6.537 10.49,6.6 10.368,6.642 10.22,6.642 9.642,6.52 9.512,6.526 9.419,6.59 9.349,6.693 9.12,7.17 
		9.072,7.305 9.05,7.453 9.094,7.661 9.175,7.778 9.283,7.872 9.886,8.156 10.094,8.295 10.275,8.455 10.435,8.632 10.549,8.842 
		10.594,8.958 10.623,9.084 10.623,9.226 10.567,9.438 10.471,9.702 9.752,11.182 9.523,11.478 9.468,11.585 9.453,11.712 
		9.516,11.862 9.593,11.974 9.846,12.238 9.917,12.339 9.931,12.495 9.876,12.706 9.649,13.034 9.482,13.14 9.334,13.151 
		9.124,13.02 8.998,12.988 8.865,12.988 8.735,13.014 8.632,13.067 8.542,13.24 8.48,13.498 8.445,14.032 8.49,14.279 8.565,14.446 
		9.242,14.965 9.331,15.048 9.379,15.143 9.364,15.249 9.253,15.358 8.942,15.583 8.865,15.674 8.809,15.811 8.783,15.97 
		8.82,16.219 8.895,16.353 8.991,16.457 9.109,16.516 9.25,16.557 9.405,16.582 10.871,16.597 10.971,16.661 11.041,16.757 
		11.102,16.865 11.193,17.091 11.342,17.586 11.346,17.71 11.301,17.831 11.161,17.913 10.46,18.188 10.397,18.235 10.353,18.318 
		10.331,18.458 10.368,18.69 10.427,18.834 10.553,19.061 10.594,19.187 10.63,19.606 10.656,19.732 10.708,19.838 10.79,19.908 
		10.9,19.961 11.305,20.063 11.405,20.127 11.479,20.218 11.523,20.333 11.531,20.482 11.52,20.65 11.494,20.852 11.486,21.014 
		11.494,21.163 11.575,21.4 11.642,21.498 11.938,21.866 12.052,22.071 12.097,22.185 12.089,22.335 12.015,22.513 11.808,22.78 
		11.693,22.983 11.604,23.187 11.571,23.469 11.583,23.653 11.612,23.809 11.656,23.923 11.719,24.027 12,24.403 12.056,24.51 
		12.108,24.623 12.141,24.746 12.163,24.874 12.189,25.156 12.174,25.466 12.182,25.608 12.2,25.745 12.263,25.993 12.348,26.225 
		12.374,26.349 12.345,26.488 12.245,26.623 11.993,26.755 11.804,26.8 11.06,26.86 10.505,27.104 10.297,27.279 9.841,27.882 
		9.712,27.986 9.597,28.027 9.468,28.042 9.187,27.987 8.931,27.891 8.709,27.766 8.234,27.39 7.979,27.291 7.539,27.215 
		7.41,27.17 7.183,27.039 6.791,26.741 6.428,26.574 5.854,26.446 5.691,26.531 5.513,26.724 5.036,27.657 4.955,27.742 
		4.851,27.805 4.721,27.824 3.685,27.661 3.104,27.674 2.969,27.777 2.836,27.98 2.655,28.456 2.54,28.684 2.466,28.896 
		2.429,29.056 2.429,29.321 2.392,29.501 2.248,29.677 1.863,29.846 1.774,29.921 1.708,30.026 1.655,30.166 1.559,30.547 
		1.507,30.704 1.444,30.83 1.366,30.927 1.281,31.008 1.089,31.146 0.845,31.39 0.763,31.454 0.674,31.504 0.585,31.619 
		0.514,31.783 0.408,32.252 0.292,32.409 0.244,32.551 0.233,32.734 0.311,33.064 0.388,33.242 0.47,33.378 0.608,33.569 
		0.656,33.679 0.667,33.815 0.626,33.968 0.492,34.146 0.374,34.244 0.151,34.376 0.078,34.468 0.037,34.609 0.041,34.786 
		0.107,35.021 0.166,35.17 0.386,35.623 0.563,36.229 0.678,36.73 0.704,37.005 0.782,38.943 0.896,39.447 1.063,39.914 
		1.17,40.129 1.233,40.225 1.292,40.332 1.329,40.444 1.307,40.571 1.177,40.715 1.041,40.739 0.774,40.713 0.674,40.774 
		0.615,40.905 0.626,41.242 0.682,41.604 0.733,41.789 0.749,41.963 0.689,42.795 0.545,43.688 0,45.634 0.938,45.957 1.618,46.611 
		2.1,47.52 2.444,48.604 2.958,50.936 3.178,51.277 3.186,51.289 4.17,51.289 4.454,51.218 5.073,50.799 5.593,50.867 5.643,51.812 
		6.124,52.047 9.1,52.021 9.899,52.395 11.44,53.539 11.798,53.924 12.288,54.656 12.558,55.061 12.745,55.229 13.268,56.054 
		14.237,56.431 15.099,56.538 16.358,56.695 16.847,56.93 17.239,57.391 17.37,58.032 16.901,59.434 17.249,59.7 17.781,59.725 
		18.151,59.623 18.891,58.995 19.283,58.935 19.456,59.523 19.542,60.214 19.794,60.618 20.201,60.746 20.758,60.622 21.269,60.325 
		21.646,59.997 22.05,59.734 23.15,59.605 23.56,59.658 23.809,59.943 23.853,60.622 23.694,61.357 23.429,61.685 23.086,61.912 
		22.711,62.35 22.553,62.847 22.598,63.343 22.864,63.641 23.365,63.544 23.732,63.124 23.985,62.584 24.297,62.158 24.845,62.083 
		25.219,62.345 25.449,62.826 25.419,63.367 25.022,63.811 25.7,65.218 25.985,65.513 26.467,65.853 26.716,65.832 26.805,65.5 
		26.815,64.894 26.95,64.285 26.98,64.146 26.981,64.144 27.416,62.852 27.947,62.608 28.711,62.644 30.907,63.558 32.564,63.58 
		33.427,63.731 34.096,64.183 34.254,64.467 34.313,64.725 34.332,64.967 34.389,65.212 34.771,66.134 34.848,67.064 34.89,67.279 
		35.05,67.512 35.441,67.88 35.595,68.144 35.595,68.144 36.017,67.784 38.031,66.888 38.542,66.542 38.816,66.143 39.131,65.795 
		39.308,65.648 39.713,65.421 39.986,65.204 40.053,65.11 40.086,64.985 40.086,64.858 40.074,64.724 39.897,63.852 39.867,63.598 
		39.897,63.476 39.96,63.376 40.063,63.305 40.753,63.019 40.941,62.975 41.111,62.969 41.367,63.05 41.5,63.143 41.604,63.24 
		41.678,63.33 42.123,63.717 42.441,63.912 42.529,63.987 42.74,64.26 42.94,64.398 44.195,64.894 44.633,65.137 44.764,65.154 
		46.962,65.094 49.258,64.135 49.617,64.12 49.728,64.197 49.824,64.284 50.75,64.858 51.064,64.944 52.857,65.061 54.197,64.928 
		54.424,64.844 54.541,64.823 54.656,64.84 54.879,64.947 54.993,64.949 55.107,64.881 55.508,63.693 55.545,63.474 55.531,63.305 
		55.479,63.199 55.42,63.1 54.926,62.464 54.813,62.26 54.775,62.146 54.793,61.998 54.9,61.844 55.17,61.677 55.408,61.71 
		55.553,61.764 55.805,61.744 56,61.691 57.374,60.926 57.337,60.639 57.385,60.516 57.463,60.361 57.592,60.166 57.659,60.026 
		57.674,59.89 57.652,59.774 57.604,59.67 57.578,59.564 57.592,59.459 57.655,59.251 57.655,59.237 57.652,59.223 57.637,59.189 
		57.585,59.119 57.488,59.06 57.367,59.01 56.782,58.865 56.67,58.806 56.574,58.733 56.519,58.642 56.5,58.534 56.533,58.427 
		56.596,58.309 57.057,57.656 57.197,57.383 57.389,56.859 57.418,56.707 57.448,56.401 57.455,56.109 57.448,55.978 57.434,55.863 
		57.43,55.76 57.441,55.676 57.481,55.564 57.57,55.429 57.695,55.27 58.448,54.54 58.97,53.891 59.092,53.674 59.373,53.269 
		59.529,53.088 59.967,52.716 60.11,52.671 60.303,52.662 60.658,52.741 60.767,52.869 60.8,53.014 60.773,53.161 60.759,53.308 
		60.781,53.435 60.833,53.536 60.963,53.731 61.004,53.846 61.154,54.455 61.199,54.564 61.251,54.667 61.317,54.759 61.492,54.696 
		61.75,54.472 62.27,53.807 62.603,53.207 62.703,53.094 62.857,53.012 63.673,52.892 63.983,52.685 64.564,51.909 	"/>
</g>
<g id="Layer_1">
</g>
</svg>
