<?xml version="1.0" encoding="iso-8859-1"?>
<!-- Generator: Adobe Illustrator 16.0.3, SVG Export Plug-In . SVG Version: 6.00 Build 0)  -->
<!DOCTYPE svg PUBLIC "-//W3C//DTD SVG 1.1//EN" "http://www.w3.org/Graphics/SVG/1.1/DTD/svg11.dtd">
<svg version="1.1" xmlns="http://www.w3.org/2000/svg" xmlns:xlink="http://www.w3.org/1999/xlink" x="0px" y="0px"
	 width="59.715px" height="62.76px" viewBox="0 0 59.715 62.76" style="enable-background:new 0 0 59.715 62.76;"
	 xml:space="preserve">
<g id="Volyn">
	<polygon style="fill-rule:evenodd;clip-rule:evenodd;fill:#6FA8DC;" points="59.67,36.576 59.63,36.115 59.604,35.994 
		59.56,35.873 59.493,35.773 59.416,35.68 59.349,35.574 59.315,35.441 59.271,35.146 59.238,35.014 59.193,34.891 58.823,34.244 
		58.415,33.782 58.223,33.622 58.119,33.557 58.001,33.512 57.73,33.525 57.494,33.585 57.424,33.622 57.18,33.822 57.071,33.871 
		56.945,33.883 56.342,33.618 56.231,33.546 56.157,33.447 56.157,33.258 56.258,32.2 56.295,31.971 56.409,31.885 58.098,31.54 
		58.282,31.401 58.564,31.143 58.779,30.751 58.875,30.488 58.908,30.26 58.931,29.858 58.927,29.691 58.894,29.552 58.846,29.43 
		58.775,29.327 57.557,28.111 55.732,27.21 55.639,27.123 55.564,27.027 55.442,26.81 54.98,26.235 54.291,25.677 54.209,25.591 
		54.131,25.492 54.08,25.377 54.054,25.239 54.027,24.94 54.002,24.812 53.957,24.711 53.906,24.648 53.832,24.596 53.358,24.376 
		53.135,24.24 53.051,24.152 52.977,24.05 52.869,23.82 52.836,23.69 52.861,23.403 52.939,22.993 53.164,22.148 53.185,21.823 
		53.141,21.701 53.044,21.76 52.676,22.089 52.572,22.159 52.458,22.212 52.317,22.239 52.003,22.23 51.85,22.197 51.722,22.144 
		51.617,22.071 51.539,21.975 51.48,21.86 51.443,21.734 51.392,21.616 51.307,21.547 51.195,21.532 51.084,21.572 50.988,21.662 
		50.906,21.788 50.759,22.128 50.686,22.249 50.512,22.425 50.41,22.498 50.287,22.542 50.154,22.558 50.021,22.54 49.518,22.335 
		49.215,22.301 48.906,22.313 48.629,22.372 48.393,22.469 48.07,22.664 47.989,22.759 47.923,22.87 47.863,22.993 47.729,23.413 
		47.666,23.529 47.581,23.617 47.478,23.666 47.355,23.657 47.252,23.621 47.156,23.553 47.074,23.466 46.996,23.368 46.875,23.15 
		46.826,23.032 46.801,22.894 46.785,22.719 46.963,21.309 46.971,21.143 46.922,20.699 46.915,20.384 46.945,19.885 47.045,19.236 
		47.074,18.899 47.07,18.74 47.053,18.596 47.029,18.459 46.768,17.411 46.719,17.091 46.704,16.91 46.727,16.309 46.775,16.095 
		46.838,15.937 46.979,15.718 47.148,15.53 47.563,15.164 47.697,14.972 47.889,14.574 47.949,14.335 47.952,14.147 47.904,14.024 
		47.838,13.915 47.744,13.828 47.641,13.759 47.215,13.63 47.1,13.563 47.033,13.458 46.996,13.325 46.979,13.179 46.941,13.054 
		46.879,12.977 46.775,12.98 46.52,13.048 46.367,13.054 46.063,13 45.945,12.94 45.845,12.863 45.774,12.76 45.723,12.642 
		45.689,12.507 45.671,12.36 45.664,11.867 45.604,11.124 45.642,10.456 45.734,9.67 45.801,9.301 45.863,9.042 46.063,8.667 
		47.233,6.991 48.074,6.246 48.244,6.061 48.555,5.601 48.799,5.127 48.869,4.92 48.91,4.735 48.902,4.584 48.873,4.449 
		48.832,4.321 48.781,4.204 48.695,3.953 48.637,3.732 48.596,3.456 48.592,3.181 48.622,2.997 48.685,2.849 48.759,2.75 
		48.852,2.663 48.951,2.586 49.293,2.38 49.378,2.284 49.322,2.22 49.193,2.188 47.022,2.035 46.73,1.849 46.629,1.17 41.965,1.092 
		37.94,0 36.86,0.031 35.777,0.387 33.633,1.517 26.929,2.602 26.433,2.58 24.971,2.224 19.029,2.691 18.524,2.881 18.006,3.418 
		17.138,4.712 16.771,5.46 16.203,7.97 15.53,8.918 12.825,10.778 9.258,13.99 8.304,14.146 7.625,13.508 6.958,12.692 
		6.013,12.311 5.416,12.255 3.731,11.749 3.172,11.734 0.851,12.341 0.558,12.504 0.313,12.76 0.025,13.264 0,13.571 0.138,13.876 
		0.787,15.718 0.844,16.087 0.735,16.673 0.528,16.78 0.309,16.616 0.353,16.852 0.513,17.388 0.888,17.647 1.32,17.809 
		1.658,18.039 1.285,18.803 1.322,19.041 2.294,20.474 2.489,20.931 2.212,21.061 2.042,21.327 2.013,21.719 2.161,22.234 
		1.724,22.404 1.3,22.854 0.972,23.415 0.844,23.922 0.999,24.732 1.374,24.926 1.835,24.935 2.242,25.2 3.564,28.096 4.102,28.75 
		5.315,29.519 6.449,30.677 6.716,31.138 6.321,31.342 6.232,31.691 6.585,32.441 7.211,33.412 7.418,33.92 7.7,35.504 7.7,35.738 
		7.599,36.035 7.774,36.189 8.077,36.313 8.368,36.512 8.632,36.915 8.699,37.226 8.723,37.564 8.854,38.061 9.211,38.654 
		10.825,40.145 12.812,41.242 13.121,41.714 12.827,42.368 12.102,42.521 11.311,42.527 10.825,42.744 10.193,42.388 9.535,42.476 
		8.987,42.893 8.693,43.539 8.738,44.258 9.091,44.736 9.655,44.999 10.321,45.081 10.321,45.314 10.011,45.973 10.346,46.549 
		10.997,46.957 11.638,47.113 11.493,47.97 11.68,48.76 12.286,50.219 12.457,49.951 12.708,49.786 13.012,49.707 13.342,49.686 
		13.635,49.846 13.781,50.55 14.001,50.711 14.34,50.835 14.535,51.131 14.688,51.479 14.905,51.759 15.175,51.9 15.619,52.038 
		15.883,52.27 15.883,51.991 16.293,51.908 16.534,51.776 16.8,51.707 17.375,51.633 17.489,51.582 17.585,51.508 17.671,51.418 
		17.8,51.193 17.878,51.098 17.959,51.021 18.055,50.979 18.144,50.973 18.26,50.992 18.475,51.105 18.759,51.319 19.192,51.771 
		19.314,52.013 19.348,52.205 19.318,52.334 19.326,52.468 19.377,52.578 20.067,53.266 20.2,53.329 20.359,53.369 20.622,53.354 
		21.032,53.199 21.163,53.188 21.422,53.252 21.529,53.303 21.655,53.395 22.366,54.199 22.488,54.416 22.529,54.542 22.551,54.68 
		22.551,54.824 22.529,54.956 22.481,55.096 22.406,55.213 22.337,55.301 22.162,55.473 21.951,55.596 20.762,55.892 20.651,55.947 
		20.555,56.021 20.485,56.113 20.451,56.229 20.474,56.344 20.529,56.45 20.603,56.545 21.607,57.355 21.725,57.498 21.762,57.615 
		21.784,57.744 21.773,57.889 21.722,58.174 21.71,58.314 21.736,58.44 21.84,58.541 21.999,58.608 22.337,58.592 22.507,58.527 
		22.633,58.43 22.696,58.318 22.736,58.189 22.744,58.046 22.74,57.748 22.755,57.604 22.803,57.482 22.892,57.404 23.025,57.4 
		23.166,57.466 23.31,57.644 23.391,57.789 23.502,58.043 23.629,58.136 23.807,58.202 24.569,58.237 24.717,58.266 24.839,58.338 
		24.924,58.498 24.951,58.654 24.943,58.801 24.961,58.933 25.14,59.104 26.127,59.706 26.372,59.95 26.495,60.166 26.461,60.468 
		26.484,60.603 26.532,60.717 26.617,60.801 26.721,60.87 26.976,60.938 28.15,61.055 28.501,61.024 28.742,60.967 28.939,60.828 
		29.157,60.717 29.401,60.629 29.949,60.52 31.452,60.771 31.753,60.723 31.904,60.619 31.863,60.186 31.883,60.053 31.941,59.951 
		32.171,60.007 32.496,60.169 33.164,60.623 33.659,60.863 34.382,60.724 34.485,60.724 34.611,60.745 34.733,60.804 34.848,60.896 
		34.963,61.028 35.037,61.152 35.088,61.281 35.133,61.695 35.081,62.76 36.492,61.404 36.998,60.801 37.277,60.41 37.466,60.256 
		37.684,60.165 37.902,60.111 38.221,59.967 38.362,59.744 38.424,59.556 38.424,59.384 38.387,59.263 38.318,59.161 38.202,59.106 
		37.773,59.017 37.658,58.954 37.573,58.873 36.961,57.812 36.74,57.518 36.381,57.188 35.984,56.891 35.889,56.8 35.811,56.686 
		35.758,56.528 35.797,56.41 35.889,56.349 36.025,56.336 36.463,56.407 36.606,56.4 36.729,56.361 36.832,56.293 36.921,56.211 
		37.004,56.117 37.178,55.859 37.551,55.169 37.584,55.084 37.543,54.981 37.48,54.9 37.311,54.729 36.606,54.185 36.506,54.074 
		36.418,53.885 36.426,53.745 36.488,53.6 36.58,53.459 36.729,53.273 36.851,53.166 36.981,53.121 37.1,53.122 38.217,53.424 
		40.028,53.617 40.213,53.573 40.406,53.488 40.664,53.256 40.779,53.07 40.846,52.889 40.857,52.727 40.857,52.572 40.85,52.422 
		40.827,52.283 40.791,52.154 40.705,51.909 40.409,51.346 40.376,51.191 40.402,50.955 40.483,50.831 40.605,50.766 42.316,51.008 
		42.479,51 42.672,50.912 42.725,50.795 42.705,50.682 42.617,50.596 42.068,50.263 41.979,50.153 41.953,49.994 42.002,49.732 
		42.179,49.481 42.249,49.289 42.268,49.143 42.135,48.762 42.119,48.614 42.146,48.43 42.238,48.395 42.323,48.43 42.672,48.779 
		42.972,48.979 43.479,49.178 44.072,49.318 44.271,49.301 44.504,49.237 45.216,48.791 46.037,48.478 46.956,47.981 47.467,47.596 
		47.952,47.343 49.211,47.337 49.518,47.395 49.637,47.455 49.996,47.807 50.459,48.371 50.514,48.478 50.529,48.599 50.514,48.717 
		50.506,48.834 50.563,48.923 50.67,48.986 51.609,49.154 51.744,49.2 51.862,49.262 52.059,49.418 52.551,49.951 52.746,50.105 
		52.891,50.165 53.061,50.197 53.307,50.186 53.439,50.109 53.528,49.994 53.743,48.73 53.791,48.599 53.865,48.461 53.957,48.319 
		54.109,48.131 54.275,47.851 54.316,47.718 54.342,47.576 54.338,47.279 54.32,47.135 54.309,46.986 54.217,46.274 54.275,44.803 
		54.271,44.676 54.287,44.545 54.328,44.393 54.457,44.12 54.572,43.982 54.699,43.889 54.813,43.838 55.88,42.975 56.068,42.865 
		56.194,42.83 56.331,42.816 56.469,42.824 56.931,42.93 57.15,42.924 57.275,42.857 57.365,42.77 57.506,42.535 57.531,42.438 
		57.506,42.344 57.449,42.271 57.313,42.162 56.742,41.891 56.643,41.814 56.612,41.661 56.693,41.416 56.997,40.946 57.586,40.383 
		57.705,40.241 57.746,40.102 57.768,39.947 57.779,39.798 57.783,39.643 57.75,39.512 57.693,39.412 57.576,39.291 57.482,39.152 
		57.368,39.038 56.99,38.748 56.9,38.661 56.842,38.533 56.83,38.367 56.927,38.088 57.027,37.941 57.158,37.852 58.86,37.608 
		59.049,37.549 59.249,37.442 59.57,37.2 59.678,37.02 59.715,36.854 	"/>
</g>
<g id="Layer_1">
</g>
</svg>
