<?xml version="1.0" encoding="iso-8859-1"?>
<!-- Generator: Adobe Illustrator 16.0.3, SVG Export Plug-In . SVG Version: 6.00 Build 0)  -->
<!DOCTYPE svg PUBLIC "-//W3C//DTD SVG 1.1//EN" "http://www.w3.org/Graphics/SVG/1.1/DTD/svg11.dtd">
<svg version="1.1" xmlns="http://www.w3.org/2000/svg" xmlns:xlink="http://www.w3.org/1999/xlink" x="0px" y="0px"
	 width="59.854px" height="42.67px" viewBox="0 0 59.854 42.67" style="enable-background:new 0 0 59.854 42.67;"
	 xml:space="preserve">
<g id="Zakarpattia">
	<polygon style="fill-rule:evenodd;clip-rule:evenodd;fill:#6FA8DC;" points="59.833,36.993 59.034,35.858 57.401,34.225 
		57.248,33.991 57.164,33.81 57.037,33.482 56.993,33.267 56.982,33.073 57,32.92 57.037,32.783 57.082,32.656 57.194,32.432 
		57.32,32.227 57.457,31.948 57.523,31.714 57.516,31.562 57.476,31.432 56.986,30.634 56.546,29.758 56.472,29.64 56.364,29.509 
		54.824,28.071 54.354,27.713 54.102,27.463 53.898,27.201 53.739,27.08 53.572,27.014 52.976,26.999 52.865,26.972 52.806,26.876 
		52.769,26.684 52.739,26.427 52.654,25.988 52.564,25.783 52.469,25.637 52.188,25.422 52.029,25.256 51.939,25.187 51.843,25.153 
		51.752,25.187 51.68,25.273 51.535,25.639 51.477,25.75 51.351,25.953 51.199,26.137 51.014,26.27 50.906,26.327 50.678,26.415 
		50.14,26.507 49.525,26.499 48.795,26.36 48.633,26.277 48.451,26.137 48.159,25.85 48.004,25.628 47.915,25.453 47.882,25.316 
		47.714,24.233 47.678,23.804 47.685,23.499 47.83,22.608 47.867,22.473 47.892,22.328 47.912,22.182 47.915,22.035 47.867,21.774 
		47.801,21.523 47.785,21.386 47.773,21.134 47.785,20.919 47.83,20.606 47.84,20.419 47.822,20.161 47.744,20.031 47.641,19.948 
		47.511,19.929 47.385,19.948 47.27,19.99 46.104,20.77 45.656,20.965 44.59,21.143 44.09,21.482 43.697,21.916 43.611,21.996 
		43.42,22.122 43.186,22.211 43.027,22.217 42.846,22.189 42.58,22.068 42.449,21.953 42.371,21.824 42.346,21.695 42.346,21.553 
		42.363,21.411 42.419,21.139 42.479,21 42.516,20.885 42.568,20.594 42.55,20.391 42.493,20.159 42.33,19.784 42.223,19.593 
		42.123,19.45 42.045,19.365 41.857,19.221 41.75,19.16 41.627,19.117 41.328,19.071 41.127,19.006 40.904,18.891 39.579,17.777 
		39.436,17.593 39.346,17.43 39.324,17.294 39.316,17.147 39.328,16.997 39.376,16.675 39.376,16.484 39.316,16.184 39.225,16.037 
		39.102,15.945 38.84,15.868 38.536,15.827 38.238,15.833 37.973,15.884 37.609,16.007 37.433,16.003 37.229,15.946 36.787,15.593 
		35.307,13.814 34.385,13.382 33.408,13.098 32.829,12.854 32.589,12.827 31.33,12.988 30.849,12.955 30.17,12.813 29.897,12.714 
		29.712,12.615 29.638,12.525 29.59,12.412 29.553,12.306 29.531,12.16 29.542,11.97 29.505,11.804 29.419,11.632 29.205,11.401 
		29.057,11.354 28.938,11.379 28.856,11.465 28.486,11.963 28.372,12.052 28.183,12.131 28.053,12.143 28.046,12.132 28.009,12.087 
		27.979,12.036 27.95,11.966 27.92,11.855 27.905,11.724 27.898,11.317 27.876,11.209 27.809,11.024 27.72,11.004 27.63,11.032 
		27.394,11.261 27.172,11.321 26.839,11.347 25.743,11.239 25.502,11.171 25.31,11.031 25.136,10.871 24.983,10.693 24.521,9.854 
		23.977,8.457 23.779,8.156 23.542,7.915 23.373,7.811 23.199,7.766 22.525,7.874 21.563,8.196 21.344,8.306 21.177,8.345 
		20.97,8.366 20.596,8.345 20.411,8.287 20.266,8.212 20.192,8.124 20.066,7.92 20.022,7.805 19.985,7.679 19.907,7.502 
		19.767,7.296 18.926,6.581 18.319,5.873 18.196,5.667 18.114,5.448 18.048,5.042 18.041,4.897 18.052,4.598 18.066,4.45 
		18.141,4.185 18.363,3.711 18.336,3.419 17.904,2.89 17.471,2.625 17.518,2.743 17.239,3.322 16.755,3.114 16.228,2.638 
		15.801,2.415 15.537,2.331 15.096,1.712 14.854,1.483 14.595,1.453 14.058,1.616 13.194,1.552 12.684,1.601 12.171,1.54 
		11.584,1.138 10.688,0.149 10.21,0 9.707,0.485 9.524,1.083 9.352,1.913 9.241,2.749 9.251,3.362 8.881,3.676 7.963,3.812 
		7.544,4.141 7.026,5.661 6.73,6.305 6.701,6.482 6.703,6.95 6.656,7.171 6.432,7.494 5.86,7.979 5.678,8.239 5.633,8.304 
		5.475,8.745 5.458,9.027 5.504,9.322 5.556,10.547 5.502,10.791 5.337,11.206 5.13,11.504 4.905,11.681 4.723,11.918 4.649,12.401 
		4.678,13.174 4.525,13.94 4.234,14.613 3.852,15.119 3.563,15.307 2.927,15.51 2.634,15.711 2.454,15.964 2.205,16.538 2.057,16.8 
		0.498,18.062 0.141,18.647 0.091,19.375 0.37,20.831 0.286,21.396 0.022,21.979 0,24.563 0.565,24.661 0.606,24.655 0.608,24.655 
		0.631,24.651 0.868,24.394 1.65,24.084 2.464,24.187 3.317,24.611 2.962,25.694 2.957,26.265 3.616,26.226 3.781,26.255 
		3.958,26.557 3.958,26.908 3.904,27.32 3.926,27.813 4.183,28.54 5.352,30.349 5.507,30.506 5.68,30.553 5.865,30.5 6.052,30.351 
		6.148,30.305 6.245,30.289 6.346,30.305 6.814,30.496 7.191,30.575 7.562,30.542 8.022,30.312 8.124,30.299 8.222,30.319 
		8.319,30.367 10.092,32.703 10.405,33.439 10.743,34.569 11.15,35.413 11.278,35.559 11.34,35.566 11.653,35.391 13.372,35.391 
		13.811,35.246 14.215,34.985 14.625,34.873 15.014,35.124 15.098,35.292 15.954,35.775 16.659,36.435 16.978,36.841 17.227,37.33 
		17.389,38.003 17.303,38.371 17.145,38.699 17.101,39.256 16.694,39.762 16.894,40.192 17.771,40.905 18.255,40.755 18.684,40.463 
		18.884,39.981 18.682,39.262 18.881,38.841 19.244,38.812 19.668,39.008 20.036,39.266 20.411,39.497 20.798,39.614 21.177,39.556 
		22.199,38.747 22.519,38.141 23.054,36.479 23.523,35.755 24.011,35.521 24.551,35.6 26.213,36.176 26.625,36.479 27.607,37.653 
		28.746,38.626 29.284,39.256 29.457,39.325 29.634,39.348 29.812,39.328 30.001,39.259 30.036,39.245 30.071,39.24 30.105,39.245 
		30.142,39.259 31.688,40.031 32.184,40.002 32.277,39.929 32.35,39.871 32.488,39.704 32.608,39.502 32.712,39.266 32.969,39.049 
		33.234,38.971 34.133,38.808 34.574,38.957 36.11,39.133 37.092,39.466 37.646,39.543 39.307,39.456 39.699,39.653 40.938,40.802 
		41.1,41.35 41.61,41.342 44.012,40.353 44.765,40.392 45.156,40.674 46.343,40.996 46.816,41.218 47.685,42.048 48.104,42.135 
		48.139,42.106 49.549,42.649 50.066,42.67 51.662,41.862 52.839,41.823 53.771,41.014 54.318,40.716 54.779,40.699 56.141,41.031 
		57.49,41.009 57.957,41.125 58.151,41.241 58.152,41.233 58.211,40.806 58.452,39.568 58.59,39.157 59.809,37.319 59.854,37.135 	
		"/>
</g>
<g id="Layer_1">
</g>
</svg>
