<?xml version="1.0" encoding="iso-8859-1"?>
<!-- Generator: Adobe Illustrator 16.0.3, SVG Export Plug-In . SVG Version: 6.00 Build 0)  -->
<!DOCTYPE svg PUBLIC "-//W3C//DTD SVG 1.1//EN" "http://www.w3.org/Graphics/SVG/1.1/DTD/svg11.dtd">
<svg version="1.1" xmlns="http://www.w3.org/2000/svg" xmlns:xlink="http://www.w3.org/1999/xlink" x="0px" y="0px"
	 width="71.997px" height="65.648px" viewBox="0 0 71.997 65.648" style="enable-background:new 0 0 71.997 65.648;"
	 xml:space="preserve">
<g id="Zaporizhia">
	<polygon style="fill-rule:evenodd;clip-rule:evenodd;fill:#6FA8DC;" points="71.956,23.799 71.771,23.752 71.363,23.76 
		70.357,23.598 70.241,23.619 70.16,23.69 70.082,23.916 70.012,24.006 69.927,24.07 69.797,24.044 69.646,23.923 69.18,23.195 
		69.109,23.106 67.231,21.474 66.617,20.653 66.429,20.476 65.395,19.846 65.218,19.807 65.073,19.822 64.439,20.305 64.272,20.467 
		64.181,20.533 63.906,20.355 63.503,19.988 62.57,18.947 62.169,18.604 61.903,18.439 61.155,18.748 60.926,18.792 60.811,18.741 
		60.732,18.621 60.714,18.377 60.732,18.19 60.811,17.873 60.838,17.729 60.817,17.605 60.747,17.514 60.329,17.43 60.219,17.372 
		60.134,17.246 60.074,17.074 60.045,16.762 60.111,16.636 60.211,16.562 60.437,16.496 60.64,16.398 60.722,16.333 60.74,16.253 
		60.695,16.156 60.54,16.079 59.93,15.928 59.778,15.798 59.642,15.594 59.311,14.708 58.645,13.249 58.578,13.018 58.534,12.508 
		58.493,12.263 58.445,12.162 58.364,12.095 58.208,12.093 57.586,12.215 57.319,12.21 57.042,12.148 56.793,12.036 56.63,11.624 
		56.611,10.165 52.217,10.82 52.117,10.771 52.039,10.692 51.91,10.504 51.828,10.422 51.729,10.359 51.61,10.328 51.483,10.319 
		51.327,10.359 51.15,10.438 50.892,10.648 50.772,10.82 50.625,11.103 50.462,11.194 50.21,11.242 49.688,11.26 49.425,11.222 
		49.244,11.159 48.988,10.916 48.885,10.848 48.758,10.803 48.218,10.753 48.096,10.718 47.992,10.658 47.947,10.556 47.93,10.431 
		47.922,10.305 47.862,9.803 47.837,9.685 47.796,9.582 47.719,9.508 47.607,9.484 47.48,9.479 47.336,9.522 47.185,9.597 
		46.996,9.795 46.893,9.956 46.759,10.232 46.682,10.326 46.496,10.389 45.407,10.502 45.208,10.473 45.134,10.395 45.074,10.301 
		44.971,10.232 44.74,10.131 44.688,10.046 44.663,9.931 44.647,9.81 44.585,9.715 44.367,9.575 44.312,9.479 44.285,9.357 
		44.285,9.229 44.315,9.117 44.386,9.054 44.563,9.086 44.67,9.16 44.844,9.33 44.952,9.35 45.078,9.31 45.211,9.132 45.281,8.966 
		45.474,8.365 45.641,7.982 45.674,7.852 45.674,7.729 45.647,7.615 45.604,7.505 45.574,7.39 45.574,7.267 45.596,7.141 45.67,6.9 
		45.67,6.813 45.655,6.779 45.6,6.773 44.938,6.822 44.829,6.766 44.763,6.709 44.73,6.64 44.674,6.563 44.593,6.496 44.489,6.447 
		44.37,6.417 44.274,6.371 44.245,6.267 44.281,5.866 44.278,5.734 44.215,5.232 44.171,4.992 44.13,4.882 44.07,4.784 
		43.971,4.711 43.845,4.667 43.52,4.608 43.438,4.564 43.371,4.484 43.364,4.365 43.401,4.241 43.468,4.133 43.538,4.035 
		43.86,3.679 43.927,3.566 43.979,3.446 44,3.312 43.979,3.196 43.93,3.095 43.812,3.064 43.638,3.115 42.867,3.636 42.764,3.672 
		42.619,3.7 42.36,3.696 42.257,3.616 42.201,3.505 42.209,3.229 42.197,3.104 42.072,2.775 42.05,2.651 42.045,2.519 42.064,2.373 
		42.156,1.91 42.168,1.77 42.146,1.648 42.089,1.547 42.004,1.464 41.89,1.406 41.756,1.379 41.486,1.367 40.068,1.716 
		38.772,2.248 38.483,2.288 38.303,2.257 37.946,1.668 37.864,1.583 37.761,1.51 37.639,1.452 36.477,1.221 36.361,1.16 
		36.269,1.081 35.966,0.725 35.773,0.441 35.695,0.354 35.61,0.27 35.503,0.204 35.369,0.152 35.088,0.114 34.418,0.209 
		33.422,0.493 33.207,0.601 32.822,0.911 32.277,1.469 32.044,1.627 31.667,1.764 31.455,1.81 31.285,1.81 31.211,1.787 
		30.863,1.602 27.115,0.934 25.557,0.156 25.076,0.019 24.851,0 23.562,0.23 23.146,0.329 22.928,0.394 22.729,0.37 22.073,0.075 
		21.82,0.04 21.421,0.053 20.93,0.157 20.769,0.265 20.553,0.372 20.14,0.426 19.91,0.426 19.685,0.383 19.417,0.482 19.044,0.696 
		18.263,1.362 17.644,1.753 16.281,1.756 16.152,1.717 16.056,1.644 16.008,1.539 15.975,1.422 15.93,1.18 15.904,0.924 15.9,0.684 
		15.907,0.493 15.896,0.387 15.834,0.308 15.723,0.275 15.59,0.262 15.456,0.265 15.323,0.333 15.196,0.452 15.085,0.77 
		15.07,0.956 15.089,1.116 15.192,1.458 15.318,1.76 15.333,1.834 15.338,1.885 15.301,2.026 15.267,2.126 15.237,2.31 
		15.188,3.165 15.145,3.278 15.06,3.4 14.733,3.612 14.615,3.717 14.557,3.929 14.549,4.083 14.586,4.208 14.656,4.275 
		14.771,4.305 15.029,4.316 15.151,4.336 15.237,4.401 15.278,4.492 15.294,4.581 15.301,4.779 15.311,4.895 15.333,5.02 
		15.375,5.13 15.427,5.232 15.501,5.32 15.59,5.402 15.822,5.526 16.699,5.758 16.815,5.818 16.896,5.901 16.952,6.006 
		17.012,6.239 17.019,6.37 17.004,6.513 16.975,6.665 16.904,6.822 16.789,6.966 16.533,7.083 15.486,7.318 15.338,7.403 
		14.7,7.947 14.571,8.12 14.479,8.369 14.438,8.552 14.412,8.719 14.416,8.854 14.423,8.983 14.456,9.099 14.508,9.201 
		14.667,9.369 16.515,10.499 16.66,10.64 16.699,10.707 16.714,10.766 16.707,10.874 16.677,11.006 16.615,11.152 16.403,11.555 
		16.322,11.769 16.296,11.938 16.308,12.07 16.333,12.188 16.366,12.303 16.389,12.422 16.385,12.562 16.296,13.015 16.289,13.143 
		16.348,13.238 16.466,13.298 16.893,13.42 17.467,13.5 17.588,13.555 17.674,13.636 17.695,13.757 17.699,13.895 17.43,15.543 
		17.248,16.09 17.06,17.137 16.908,17.736 16.552,18.65 16.515,18.771 16.503,18.898 16.536,19.006 16.615,19.09 17.082,19.452 
		17.229,19.618 17.289,19.717 17.326,19.829 17.333,19.959 17.322,20.096 17.17,20.849 17.137,20.957 17,21.238 16.867,21.401 
		16.789,21.468 16.573,21.507 15.008,21.413 12.556,20.946 10.521,20.085 9.328,19.908 9.068,19.959 5.78,21.52 2.759,22.143 
		0,23.086 0.637,24.737 1.833,28.694 2.067,29.282 2.111,29.433 2.142,29.572 2.156,30.1 2.189,30.229 2.26,30.333 2.411,30.415 
		2.544,30.429 2.67,30.41 2.881,30.32 3.154,30.117 3.264,30.063 3.578,30.028 3.715,30.066 4.052,30.252 4.174,30.29 4.303,30.305 
		4.425,30.284 4.524,30.235 4.603,30.147 4.706,29.888 4.773,29.776 4.911,29.585 4.959,29.461 4.981,29.327 5.019,29.189 
		5.07,29.073 5.158,28.995 5.366,28.902 6.983,28.738 7.072,28.756 7.153,28.793 7.224,28.867 7.269,28.964 7.231,29.106 
		7.169,29.189 7.091,29.246 6.739,29.398 6.654,29.471 6.584,29.57 6.54,29.706 6.507,29.854 6.477,30.145 6.477,30.277 
		6.503,30.424 6.573,30.556 6.729,30.714 7.087,30.978 7.143,31.08 7.18,31.229 7.176,31.505 7.132,31.655 7.076,31.746 
		6.954,31.854 6.902,31.947 6.873,32.077 6.869,32.204 6.884,32.327 7.08,33.285 7.091,33.409 7.091,33.533 7.01,34.262 
		7.006,34.398 7.021,34.659 7.05,34.909 7.146,35.381 7.176,35.63 7.217,35.764 7.298,35.893 7.503,36.017 7.828,36.133 
		7.95,36.219 8.035,36.367 8.42,38.02 8.453,39.202 8.494,39.443 8.55,39.563 8.643,39.664 8.843,39.758 9.169,39.831 9.194,39.845 
		9.269,39.909 9.339,40.028 9.405,40.204 9.479,40.538 9.546,41.049 9.579,41.164 9.657,41.271 9.813,41.359 10.402,41.483 
		10.521,41.537 10.624,41.603 10.897,41.834 11.112,41.96 12.268,42.34 12.367,42.409 12.452,42.536 12.538,42.726 12.798,43.841 
		12.86,43.965 12.949,44.084 13.127,44.215 13.271,44.258 13.545,44.289 13.667,44.333 13.771,44.397 13.855,44.474 13.949,44.648 
		14.033,44.9 14.146,45.437 14.149,45.708 14.094,45.875 14.001,45.937 13.371,46.208 13.146,46.27 13.046,46.323 12.976,46.404 
		12.935,46.517 12.912,46.646 12.894,47.443 12.86,47.563 12.813,47.664 12.652,47.876 12.593,47.979 12.538,48.104 12.404,48.525 
		12.345,48.639 12.271,48.729 12.179,48.793 11.972,48.886 11.794,49.022 11.653,49.221 11.598,49.338 11.527,49.44 11.446,49.513 
		11.335,49.552 11.216,49.577 10.564,49.593 10.446,49.618 10.343,49.661 10.25,49.733 10.18,49.817 10.124,49.919 10.109,50.039 
		10.109,50.16 10.154,50.532 10.202,50.663 10.302,50.775 10.542,50.869 10.69,50.86 10.82,50.824 10.916,50.781 11.057,50.824 
		11.461,51.14 11.639,51.226 11.805,51.281 12.36,51.358 12.504,51.445 12.623,51.59 12.75,51.892 12.86,52.227 12.905,52.459 
		12.916,52.585 12.901,52.714 12.86,52.837 12.794,52.943 12.56,53.198 12.431,53.408 12.386,53.53 12.363,53.656 12.371,53.783 
		12.4,53.896 12.445,54.002 12.545,54.2 13.123,55.118 13.172,55.242 13.208,55.364 13.253,55.472 13.327,55.573 13.441,55.651 
		13.663,55.694 14.482,55.662 15.604,55.764 15.73,55.825 15.812,55.935 15.815,56.149 15.768,56.285 15.689,56.39 15.608,56.46 
		15.534,56.542 15.497,56.647 15.489,56.771 15.497,57.126 15.505,57.174 15.512,57.201 15.619,57.26 15.934,57.288 17.048,57.178 
		17.182,57.195 17.2,57.206 17.726,57.69 18.051,57.881 18.26,57.928 18.622,58.174 18.755,58.233 18.881,58.262 19.559,58.275 
		19.703,58.422 19.844,58.712 20.436,61.195 20.458,61.377 20.439,61.526 20.307,61.931 20.272,62.069 20.258,62.203 20.272,62.454 
		20.41,63.146 20.421,63.28 20.425,63.897 20.655,64.107 21.508,64.275 21.509,64.274 21.588,64.182 23.006,62.003 23.81,61.165 
		24,60.782 24.101,60.251 24.029,59.964 23.896,59.708 23.821,59.262 23.584,58.759 23.153,58.128 22.979,57.443 23.495,56.776 
		23.568,57.404 23.813,58.025 24.122,58.497 24.497,58.743 24.804,59.038 24.979,59.156 25.228,59.224 25.613,59.253 25.79,59.368 
		25.313,60.666 25.171,61.577 25.387,62.346 25.963,62.851 26.436,62.809 26.849,62.45 27.259,62.003 27.165,62.873 26.823,63.442 
		25.953,64.333 25.32,65.464 25.321,65.465 25.387,65.489 25.672,65.648 25.672,65.648 25.79,65.508 28.072,61.746 28.428,61.396 
		29.263,60.812 29.632,60.452 30.354,59.428 30.729,59.003 31.184,58.685 34.003,57.259 34.781,56.54 36.706,54.287 37.403,53.704 
		38.739,52.938 40.516,51.921 41.087,51.937 44.344,51.319 46.072,51.577 46.961,51.371 47.385,51.357 47.874,51.577 48.033,51.715 
		48.157,51.876 48.367,52.288 48.422,52.339 48.693,52.524 48.697,52.691 48.67,52.914 48.607,53.058 48.729,53.373 48.752,53.307 
		48.778,53.089 49.016,52.995 49.249,52.863 49.334,52.979 49.326,53.491 49.505,53.491 49.648,52.486 50.105,51.695 51.719,49.99 
		52.412,49.452 53.183,49.073 54.381,48.836 55.369,48.24 56.942,48.24 57.129,48.126 57.323,47.873 57.587,47.621 57.991,47.507 
		58.651,47.723 59.071,47.748 59.473,47.507 59.809,47.757 60.59,48.037 60.952,48.24 61.816,49.27 62.013,49.424 62.007,50.039 
		61.722,51.278 61.277,52.243 60.79,52.03 60.613,52.03 60.613,52.288 61.221,52.453 61.803,51.891 62.246,50.956 62.421,50.017 
		62.659,49.177 63.126,48.393 63.444,47.612 63.234,46.794 64.011,46.671 65.266,45.438 66.101,45.132 66.364,44.986 67.149,44.332 
		67.413,44.184 67.627,44.146 67.626,44.143 66.954,42.816 66.924,42.696 66.913,42.568 66.954,42.399 67.024,42.285 67.098,42.179 
		67.176,42.088 67.857,41.456 67.946,41.352 68.087,41.261 68.201,41.206 68.331,41.208 68.445,41.253 68.672,41.374 68.786,41.413 
		68.902,41.417 69.006,41.379 69.105,41.321 69.457,41.044 69.486,40.897 69.457,40.692 68.961,39.848 68.965,39.816 69.076,39.648 
		69.246,39.454 69.509,39.23 69.583,39.143 69.602,39.015 69.553,38.865 69.383,38.665 69.261,38.558 68.897,38.316 68.494,37.9 
		68.416,37.84 68.327,37.822 68.25,37.874 68.176,37.96 68.046,38.18 67.979,38.27 67.898,38.286 67.82,38.237 66.987,37.558 
		66.88,37.407 66.787,37.177 66.506,36.142 66.321,35.748 65.95,35.117 65.832,34.969 65.742,34.892 65.307,34.622 64.284,34.183 
		64.077,34.047 63.491,33.474 63.354,33.291 63.313,33.187 63.303,33.079 63.388,32.955 63.491,32.894 63.622,32.866 64.88,32.763 
		65.096,32.688 65.188,32.628 65.262,32.544 65.303,32.428 65.321,32.301 65.247,31.419 65.203,31.173 65.14,30.981 64.781,30.227 
		64.673,29.929 64.65,29.57 64.713,29.416 64.803,29.31 65.003,29.202 65.106,29.176 65.21,29.177 65.291,29.23 65.373,29.304 
		65.462,29.371 65.58,29.398 65.82,29.404 65.928,29.438 66.013,29.507 66.087,29.592 66.187,29.666 66.465,29.753 66.913,29.813 
		67.416,29.791 68.287,29.488 68.383,29.423 68.453,29.334 68.498,29.208 68.509,29.077 68.494,28.694 68.513,28.557 68.557,28.428 
		68.608,28.302 68.82,27.955 68.872,27.848 68.924,27.713 69.013,27.418 69.116,27.152 69.19,27.052 69.269,26.965 69.457,26.846 
		69.557,26.814 69.656,26.804 69.73,26.808 69.846,26.831 69.96,26.879 70.063,26.946 70.145,27.024 70.298,27.2 70.364,27.296 
		70.476,27.494 70.52,27.597 70.568,27.686 70.631,27.744 70.716,27.729 70.809,27.688 71.001,27.571 71.078,27.492 71.142,27.403 
		71.152,27.279 71.134,27.147 71.101,26.976 71.067,26.695 71.075,26.558 71.094,26.416 71.13,26.27 71.23,26.003 71.467,25.522 
		71.489,25.378 71.481,25.068 71.496,24.944 71.541,24.819 71.923,24.141 71.982,24.017 71.997,23.9 	"/>
</g>
<g id="Layer_1">
</g>
</svg>
