<?xml version="1.0" encoding="iso-8859-1"?>
<!-- Generator: Adobe Illustrator 16.0.3, SVG Export Plug-In . SVG Version: 6.00 Build 0)  -->
<!DOCTYPE svg PUBLIC "-//W3C//DTD SVG 1.1//EN" "http://www.w3.org/Graphics/SVG/1.1/DTD/svg11.dtd">
<svg version="1.1" xmlns="http://www.w3.org/2000/svg" xmlns:xlink="http://www.w3.org/1999/xlink" x="0px" y="0px"
	 width="60.706px" height="77.652px" viewBox="0 0 60.706 77.652" style="enable-background:new 0 0 60.706 77.652;"
	 xml:space="preserve">
<g id="Zhytomyr">
	<polygon style="fill-rule:evenodd;clip-rule:evenodd;fill:#6FA8DC;" points="60.684,64.308 60.639,64.19 59.27,61.93 
		59.214,61.794 59.17,61.643 59.17,61.408 59.247,61.252 59.392,61.086 59.451,60.971 59.469,60.881 59.144,59.51 59.104,59.174 
		59.106,58.918 59.15,58.764 59.218,58.658 59.288,58.613 59.348,58.586 60.147,58.389 60.295,58.278 60.451,58.118 60.662,57.742 
		60.654,57.581 60.592,57.395 60.491,57.193 60.491,56.695 60.451,56.449 60.395,56.271 60.299,56.191 59.967,55.994 59.87,55.914 
		59.785,55.827 59.719,55.729 59.67,55.61 59.636,55.489 59.629,55.36 59.643,54.881 59.659,54.723 59.659,54.569 59.629,54.143 
		59.756,52.678 59.719,52.339 59.636,52.131 59.361,52.035 59.244,51.973 59.158,51.885 59.088,51.791 58.881,51.4 58.596,50.713 
		58.537,50.604 58.459,50.512 58.355,50.438 58.21,50.398 58.055,50.379 57.77,50.398 57.651,50.305 57.541,50.102 57.471,49.515 
		57.16,48.734 57.004,47.699 56.918,47.526 56.855,47.432 56.796,47.324 56.729,47.224 56.674,47.117 56.381,46.733 56.193,46.57 
		56.078,46.509 55.941,46.471 54.926,46.509 54.797,46.541 53.879,46.927 53.752,46.961 53.607,46.935 53.461,46.839 53.305,46.555 
		53.293,46.391 53.356,46.28 53.893,46.221 54.02,46.186 54.126,46.106 54.2,45.985 54.273,45.833 54.257,45.713 54.17,45.631 
		53.809,45.411 53.704,45.279 53.689,45.15 53.734,45.037 53.826,44.975 53.949,44.971 54.375,45.066 54.508,45.058 54.615,45.002 
		54.701,44.914 54.771,44.807 54.826,44.679 55.041,43.948 55.066,43.765 55.07,43.656 55.06,43.61 55.033,43.539 54.985,43.449 
		54.912,43.357 54.656,43.202 54.527,43.074 54.427,42.802 54.434,42.624 54.52,42.529 54.797,42.494 54.908,42.441 54.985,42.352 
		55.033,42.246 55.271,41.543 55.381,41.116 55.363,40.967 55.297,40.852 54.882,40.552 54.775,40.45 54.679,40.325 54.574,40.127 
		54.574,39.972 54.608,39.829 54.838,39.322 55.063,38.902 55.734,37.884 55.959,37.374 56.029,37.265 56.115,37.176 56.858,36.75 
		56.975,36.628 57.09,36.456 57.237,36.11 57.274,35.896 57.271,35.723 56.939,34.438 56.858,33.907 56.788,33.652 56.744,33.534 
		56.678,33.428 56.504,33.255 56.244,33.147 55.93,33.1 55.045,33.223 54.945,33.194 54.826,33.1 54.793,32.962 54.793,32.802 
		55.248,30.159 55.233,29.906 55.189,29.731 55.123,29.643 54.545,28.984 53.22,26.906 53.139,26.814 53.031,26.757 52.898,26.738 
		52.756,26.652 52.623,26.472 52.516,25.961 52.534,25.727 52.638,25.609 53.391,25.598 53.541,25.631 53.664,25.689 53.855,25.852 
		53.945,25.941 54.049,25.984 54.16,25.977 54.257,25.74 54.264,25.457 54.189,24.597 54.183,24.333 54.197,24.099 54.223,23.917 
		54.267,23.752 54.394,23.512 54.708,23.017 54.805,22.771 54.822,22.595 54.809,22.436 54.771,22.313 54.719,22.201 54.66,22.094 
		54.497,21.909 54.4,21.825 54.163,21.683 53.59,21.497 53.468,21.437 53.379,21.349 53.33,21.232 53.264,20.968 53.22,20.836 
		53.176,20.727 53.119,20.621 52.976,20.425 52.23,19.749 51.795,19.467 51.539,19.369 51.416,19.347 51.309,19.386 51.227,19.472 
		50.75,20.284 50.68,20.37 50.609,20.397 50.554,20.335 50.502,20.237 50.413,19.991 50.295,19.454 50.038,17.496 49.591,15.851 
		49.62,15.691 49.731,15.625 50.023,15.602 50.279,15.534 50.728,15.304 51.475,14.744 51.779,14.445 52.079,14.027 52.316,13.519 
		52.375,13.222 52.424,12.784 52.486,11.38 52.475,11.083 52.445,10.97 52.408,10.913 52.35,10.877 52.268,10.898 52.079,11.031 
		51.976,11.071 51.865,11.049 51.775,10.958 51.717,10.868 51.584,10.578 51.566,10.514 51.263,10.779 50.771,10.951 50.223,10.641 
		49.928,9.953 49.725,9.12 49.456,8.383 48.968,7.811 48.57,7.516 48.41,7.082 48.635,6.092 48.541,5.091 48.263,4.463 
		47.466,3.256 46.965,1.865 46.667,1.393 46.092,1.032 45.133,0.795 44.645,0.819 44.176,0.989 43.7,1.454 43.135,2.666 
		42.68,3.162 42.053,3.399 40.58,3.414 39.883,3.565 39.125,3.973 38.361,4.572 37.692,5.388 37.224,6.442 37.157,7.086 
		37.209,8.542 37.093,9.104 36.664,9.59 36.412,9.195 36.242,8.484 36.072,8.012 35.766,7.981 35.451,8.186 35.107,8.341 
		34.713,8.15 34.481,7.744 34.328,7.209 33.953,5.071 33.895,4.292 33.685,3.771 33.068,3.52 30.927,3.064 30.28,3.078 29.662,3.29 
		28.474,4.096 27.856,4.696 27.551,4.857 27.241,4.734 27.105,4.429 26.848,3.373 26.693,2.971 26.397,2.644 25.71,2.211 
		25.425,1.924 25.224,1.491 25.201,1.145 25.213,0.819 25.123,0.435 24.772,0.032 24.286,0 23.75,0.259 23.24,0.723 22.774,1.44 
		22,2.926 21.425,3.446 20.964,3.615 18.633,3.608 18.194,3.494 17.748,3.256 16.305,1.684 15.795,1.405 15.247,1.497 14.801,1.915 
		14.49,2.559 14.339,3.332 14.352,3.818 14.412,4.231 14.433,4.649 14.324,5.158 14.199,5.402 13.083,6.912 12.834,7.151 
		12.456,7.207 12.116,7.061 11.728,6.755 11.407,6.4 11.308,6.194 11.308,6.194 10.52,6.327 9.952,6.61 9.697,6.687 9.479,6.803 
		9.394,6.879 9.313,7.109 9.242,7.449 9.149,8.19 9.175,8.518 9.238,8.733 9.59,9.086 9.727,9.293 9.778,9.41 9.815,9.537 
		9.83,9.682 9.797,9.83 9.734,9.949 9.583,9.977 9.457,9.944 9.338,9.878 8.39,9.048 8.316,8.948 8.25,8.837 8.205,8.708 
		8.109,8.468 7.983,8.257 7.905,8.162 7.82,8.072 7.713,8.013 7.58,7.995 7.472,8.032 7.394,8.104 7.317,8.403 7.072,10.089 
		7.064,10.58 7.112,10.892 7.491,11.231 7.558,11.331 7.613,11.443 7.613,11.628 7.569,11.846 7.428,12.197 7.349,12.346 
		7.268,12.474 7.027,12.738 6.931,12.811 6.816,12.867 5.483,13.171 5.395,13.25 5.354,13.368 5.391,13.536 6.158,15.137 
		6.195,15.234 6.213,15.31 6.239,15.565 6.239,15.72 6.206,15.935 6.128,16.19 5.931,16.606 5.798,16.801 5.668,16.933 
		5.132,17.252 5.043,17.336 4.965,17.436 4.899,17.549 4.594,18.488 4.491,18.722 4.387,18.882 4.295,18.965 4.217,19.059 
		4.017,19.342 3.958,19.454 3.91,19.659 3.873,19.935 3.814,20.771 3.754,21.052 3.606,21.338 3.5,21.502 3.398,21.629 
		3.136,21.884 3.054,21.98 2.962,22.154 2.691,22.845 2.562,23.045 2.44,23.18 1.884,23.467 0.956,23.681 0.841,23.734 
		0.737,23.801 0.656,23.894 0.577,24.048 0.34,24.812 0.322,24.836 0.177,24.986 0.155,25.056 0.14,25.176 0.288,25.521 
		0.54,25.978 0.588,26.143 0.621,26.351 0.656,26.705 0.725,26.884 0.811,27.013 0.992,27.183 1.052,27.306 1.059,27.45 
		0.966,27.671 0.855,27.774 0.611,27.895 0.566,28.008 0.641,28.207 0.717,28.342 1.026,28.748 1.137,28.972 1.144,29.241 
		1.107,29.634 0.759,31.455 0.737,31.66 0.74,31.915 0.789,32.324 0.833,32.549 0.881,32.726 0.93,32.841 1.163,33.282 1.64,34.003 
		1.699,34.115 1.795,34.352 1.869,34.604 1.895,34.735 1.858,35.009 1.769,35.382 1.222,36.824 1.026,37.164 0.547,37.736 
		0.458,37.909 0.233,38.613 0.07,39.001 0.029,39.066 0.003,39.199 0.007,39.377 0.111,39.696 0.222,39.858 0.348,39.97 
		0.808,40.221 0.904,40.301 0.981,40.395 1.033,40.529 0.841,41.106 0,42.096 0.336,42.287 0.458,42.418 0.782,42.867 1.129,43.125 
		1.277,43.27 1.411,43.617 1.51,43.828 1.625,44.006 1.829,44.146 1.995,44.222 2.466,44.337 2.592,44.393 2.681,44.461 
		2.666,44.59 2.599,44.682 2.503,44.764 1.963,45.055 1.773,45.205 1.599,45.377 1.521,45.473 1.451,45.581 1.392,45.699 
		1.34,45.833 0.874,47.566 0.855,47.72 0.859,47.866 0.915,48.005 1.018,48.133 1.229,48.268 1.414,48.327 2.074,48.445 
		2.299,48.574 2.385,48.691 2.455,48.842 2.547,49.272 2.636,49.445 2.766,49.602 3.032,49.832 4.04,50.432 4.825,51.038 
		5.047,51.173 5.125,51.264 5.158,51.372 5.091,51.518 4.943,51.734 4.917,51.854 4.958,51.962 5.043,52.047 5.202,52.079 
		5.454,52.015 5.583,52.049 5.713,52.156 5.846,52.443 5.973,52.617 6.199,52.76 6.672,52.9 6.783,52.968 6.879,53.043 6.95,53.164 
		7.001,53.32 7.02,53.787 7.068,53.942 7.22,54.025 7.334,54.063 8.401,54.168 8.534,54.143 8.631,54.069 8.706,53.974 8.76,53.854 
		8.905,53.451 8.976,53.348 9.061,53.26 9.131,53.154 9.246,52.907 9.313,52.797 9.412,52.729 9.549,52.71 9.697,52.729 
		9.826,52.824 9.908,52.99 9.949,53.33 9.952,53.551 9.871,54.425 9.871,54.578 9.915,54.746 9.993,54.915 10.165,55.146 
		10.553,55.578 10.827,55.975 10.878,56.119 10.916,56.292 10.912,56.586 10.849,56.736 10.752,56.839 10.531,56.948 10.435,57.025 
		10.379,57.135 10.379,57.28 10.438,57.426 10.734,57.694 10.834,57.806 10.871,57.92 10.834,58.086 10.52,58.476 10.379,58.73 
		10.29,58.967 10.257,59.096 10.242,59.209 10.234,59.306 10.264,59.441 10.346,59.573 10.527,59.729 10.982,59.914 11.089,59.98 
		11.174,60.108 11.237,60.285 11.274,60.617 11.248,61.04 11.219,61.199 11.17,61.327 11.089,61.413 10.689,61.492 10.575,61.543 
		10.486,61.622 10.405,61.716 10.26,61.918 10.172,61.999 10.072,62.066 9.952,62.109 9.823,62.138 9.675,62.145 8.482,61.967 
		8.39,61.983 8.405,62.126 8.464,62.327 9.135,63.556 9.223,63.79 9.257,63.917 9.271,64.042 9.253,64.152 9.172,64.217 
		9.05,64.252 8.623,64.291 8.504,64.332 8.431,64.43 8.394,64.572 8.32,65.387 8.405,65.543 8.563,65.697 9.445,66.02 9.567,66.102 
		9.667,66.209 9.741,66.406 9.752,66.531 9.73,66.674 9.693,66.803 9.667,66.934 9.675,67.063 9.708,67.182 9.83,67.393 
		10.486,68.242 10.738,68.654 10.815,68.898 10.863,69.161 10.904,69.283 10.959,69.391 11.026,69.488 11.178,69.673 16.125,71.105 
		18.244,70.842 19.88,71.094 20.661,71.009 22.683,70.434 24.979,70.365 25.219,70.283 25.656,70.068 25.845,70.07 26.097,70.127 
		27.229,70.646 27.437,70.682 27.708,70.686 28.204,70.619 28.592,70.477 28.64,70.426 28.771,70.266 29.218,69.481 29.3,69.392 
		29.555,69.348 31.658,69.365 31.885,69.422 32.494,69.773 32.635,69.9 32.702,69.996 32.788,70.078 32.899,70.126 33.406,70.017 
		33.766,69.874 34.187,69.634 34.295,69.596 34.417,69.592 36.228,69.872 36.461,69.856 36.523,69.811 36.582,69.752 36.649,69.664 
		36.705,69.547 36.909,69.025 37.194,68.451 37.265,68.348 37.35,68.261 37.656,68.056 38.234,67.826 38.441,67.703 38.627,67.539 
		38.697,67.43 38.756,67.311 38.856,67.043 38.938,66.762 39.037,66.661 39.208,66.631 40.729,66.835 40.87,66.885 40.979,66.964 
		41.02,67.112 40.994,67.245 40.953,67.379 40.99,67.549 41.115,67.756 41.519,68.135 41.637,68.332 41.696,68.485 41.633,68.685 
		41.611,68.816 41.619,68.947 41.648,69.074 41.686,69.195 41.715,69.323 41.727,69.467 41.707,69.773 41.715,69.904 41.736,70.008 
		41.76,70.078 42.16,70.935 42.355,71.231 42.426,71.322 42.504,71.396 43.185,71.907 43.244,72.059 43.236,72.18 42.088,73.636 
		41.959,73.855 41.91,73.985 41.881,74.109 41.885,74.215 41.907,74.279 42.014,74.377 42.463,74.709 42.566,74.881 42.619,75.047 
		42.641,75.178 42.67,75.302 42.711,75.418 43.033,75.923 43.07,76.031 43.07,76.143 43.025,76.253 42.959,76.359 42.727,76.639 
		42.659,76.738 42.63,76.852 42.659,76.957 42.723,77.054 42.822,77.145 42.967,77.24 43.185,77.342 43.686,77.456 44.588,77.384 
		46.296,77.652 48.836,77.477 49.313,77.56 49.443,77.56 49.547,77.498 49.594,77.313 49.617,76.982 49.643,76.834 49.68,76.689 
		49.861,76.564 50.15,76.452 51.179,76.338 51.578,76.363 51.791,76.298 52.031,76.152 52.805,75.424 52.879,75.322 52.959,75.229 
		53.213,75.107 53.809,75.123 53.875,74.588 53.952,74.496 54.078,74.385 54.441,74.211 54.541,74.08 54.611,73.906 54.642,73.707 
		54.664,73.412 54.656,73.219 54.627,73.069 54.553,72.987 54.431,72.963 54.301,72.967 53.76,73.065 53.461,73.072 53.143,73.02 
		53.119,72.945 53.146,72.859 53.316,72.648 53.445,72.442 53.627,72.092 53.693,71.894 53.76,71.643 53.852,71.161 53.859,70.912 
		53.842,70.721 53.715,70.466 53.645,70.291 53.574,69.972 53.611,69.815 53.682,69.695 53.867,69.548 53.982,69.508 54.107,69.504 
		54.4,69.533 54.545,69.474 54.675,69.352 54.838,69.097 54.967,69.003 55.07,68.967 55.277,69.003 55.4,68.992 55.515,68.953 
		56.381,68.3 57.156,67.939 57.318,67.817 57.604,67.541 57.703,67.475 58.059,67.348 58.17,67.293 58.262,67.221 58.378,67.1 
		58.763,66.575 58.914,66.217 59.043,66.035 59.15,65.93 59.8,65.596 59.963,65.467 60.495,64.88 60.632,64.639 60.706,64.435 	"/>
</g>
<g id="Layer_1">
</g>
</svg>
